<svg width="141" height="74" viewBox="0 0 141 74" fill="none" xmlns="http://www.w3.org/2000/svg">
<path d="M22.12 41.96L1.84 42V38.16L11.4 30.08C15.36 26.72 16.68 24.8 16.68 22C16.68 18.68 14.88 16.8 11.8 16.8C8.6 16.8 6.6 19.04 6.56 22.8H1.48C1.52 16.4 5.6 12.24 11.8 12.24C18.04 12.24 21.92 15.8 21.92 21.72C21.92 25.8 19.68 28.88 15.24 32.68L9.96 37.2H22.12V41.96ZM25.2747 27.44C25.2747 18.36 30.1547 12.2 37.6347 12.2C45.1147 12.2 50.0347 18.36 50.0347 27.44C50.0347 36.48 45.3947 42.52 37.6347 42.52C29.8747 42.52 25.2747 36.48 25.2747 27.44ZM30.3147 27.44C30.3147 34.2 33.0347 38 37.6347 38C42.2747 38 44.9947 34.2 44.9947 27.44C44.9947 20.52 42.2747 16.72 37.6347 16.72C33.0347 16.72 30.3147 20.52 30.3147 27.44ZM53.4778 27.44C53.4778 18.36 58.3578 12.2 65.8378 12.2C73.3178 12.2 78.2378 18.36 78.2378 27.44C78.2378 36.48 73.5978 42.52 65.8378 42.52C58.0778 42.52 53.4778 36.48 53.4778 27.44ZM58.5178 27.44C58.5178 34.2 61.2378 38 65.8378 38C70.4778 38 73.1978 34.2 73.1978 27.44C73.1978 20.52 70.4778 16.72 65.8378 16.72C61.2378 16.72 58.5178 20.52 58.5178 27.44ZM83.1609 26.48H91.1209V18.52H95.2009V26.48H103.161V30.56H95.2009V38.56H91.1209V30.56H83.1609V26.48Z" fill="black"/>
<path d="M2.544 57.544V69H1.392V57.544H2.544ZM6.1935 69H5.0895V61.256H6.0495L6.2095 62.6C6.7215 61.608 7.7455 61.048 8.8655 61.048C10.9935 61.048 11.8735 62.312 11.8735 64.264V69H10.7695V64.504C10.7695 62.696 9.9535 62.056 8.6735 62.056C7.0895 62.056 6.1935 63.208 6.1935 64.952V69ZM15.8499 69H14.7619V62.184H13.2099V61.256H14.7619V58.808H15.8499V61.256H17.4019V62.184H15.8499V69ZM22.0094 69.192C19.7374 69.192 18.2174 67.56 18.2174 65.128C18.2174 62.712 19.7214 61.048 21.9294 61.048C24.0254 61.048 25.4494 62.536 25.4494 64.728V65.272H19.2894C19.3694 67.16 20.3614 68.248 22.0254 68.248C23.2894 68.248 24.1054 67.704 24.3934 66.68H25.4494C25.0334 68.312 23.8334 69.192 22.0094 69.192ZM21.9294 61.992C20.4734 61.992 19.5134 62.952 19.3214 64.472H24.3454C24.3454 62.984 23.3854 61.992 21.9294 61.992ZM31.2625 61.16V62.152H30.6545C29.2305 62.152 28.3185 63.112 28.3185 64.584V69H27.2145V61.256H28.2545L28.3345 62.456C28.6385 61.624 29.4545 61.08 30.5425 61.08C30.7825 61.08 30.9905 61.096 31.2625 61.16ZM33.8341 69H32.7301V61.256H33.6901L33.8501 62.6C34.3621 61.608 35.3861 61.048 36.5061 61.048C38.6341 61.048 39.5141 62.312 39.5141 64.264V69H38.4101V64.504C38.4101 62.696 37.5941 62.056 36.3141 62.056C34.7301 62.056 33.8341 63.208 33.8341 64.952V69ZM43.9385 69.192C42.2905 69.192 41.3145 68.264 41.3145 66.904C41.3145 65.48 42.4025 64.584 44.2105 64.44L46.7705 64.232V63.976C46.7705 62.456 45.8585 61.976 44.7225 61.976C43.3785 61.976 42.5785 62.584 42.5785 63.624H41.5705C41.5705 62.056 42.8505 61.048 44.7545 61.048C46.5465 61.048 47.8585 61.944 47.8585 63.992V69H46.9305L46.7865 67.64C46.3065 68.616 45.2505 69.192 43.9385 69.192ZM44.1945 68.296C45.8265 68.296 46.7705 67.16 46.7705 65.48V65.064L44.4825 65.24C43.0265 65.368 42.4345 66.008 42.4345 66.872C42.4345 67.816 43.1385 68.296 44.1945 68.296ZM51.7093 69H50.6213V62.184H49.0693V61.256H50.6213V58.808H51.7093V61.256H53.2613V62.184H51.7093V69ZM55.2429 59.128C54.7949 59.128 54.4269 58.76 54.4269 58.312C54.4269 57.864 54.7949 57.48 55.2429 57.48C55.6909 57.48 56.0749 57.864 56.0749 58.312C56.0749 58.76 55.6909 59.128 55.2429 59.128ZM54.6989 69V61.256H55.8029V69H54.6989ZM57.5611 65.128C57.5611 62.76 59.2251 61.048 61.4971 61.048C63.7691 61.048 65.4331 62.76 65.4331 65.128C65.4331 67.48 63.7691 69.192 61.4971 69.192C59.2251 69.192 57.5611 67.48 57.5611 65.128ZM58.6811 65.112C58.6811 66.936 59.8331 68.2 61.4971 68.2C63.1451 68.2 64.3131 66.936 64.3131 65.112C64.3131 63.32 63.1451 62.04 61.4971 62.04C59.8331 62.04 58.6811 63.32 58.6811 65.112ZM68.3029 69H67.1989V61.256H68.1589L68.3189 62.6C68.8309 61.608 69.8549 61.048 70.9749 61.048C73.1029 61.048 73.9829 62.312 73.9829 64.264V69H72.8789V64.504C72.8789 62.696 72.0629 62.056 70.7829 62.056C69.1989 62.056 68.3029 63.208 68.3029 64.952V69ZM78.4073 69.192C76.7593 69.192 75.7833 68.264 75.7833 66.904C75.7833 65.48 76.8713 64.584 78.6793 64.44L81.2393 64.232V63.976C81.2393 62.456 80.3273 61.976 79.1913 61.976C77.8473 61.976 77.0473 62.584 77.0473 63.624H76.0393C76.0393 62.056 77.3193 61.048 79.2233 61.048C81.0153 61.048 82.3273 61.944 82.3273 63.992V69H81.3993L81.2553 67.64C80.7753 68.616 79.7193 69.192 78.4073 69.192ZM78.6633 68.296C80.2953 68.296 81.2393 67.16 81.2393 65.48V65.064L78.9513 65.24C77.4953 65.368 76.9033 66.008 76.9033 66.872C76.9033 67.816 77.6073 68.296 78.6633 68.296ZM85.6946 69H84.5906V57.336H85.6946V69ZM92.7201 69V57.544H96.9121C99.1201 57.544 100.48 58.664 100.48 60.504C100.48 61.848 99.8881 62.76 98.7041 63.224C100.032 63.656 100.704 64.584 100.704 65.992C100.704 67.832 99.3281 69 97.1521 69H92.7201ZM96.8961 58.568H93.8721V62.76H97.0401C98.4801 62.76 99.2961 61.96 99.2961 60.6C99.2961 59.32 98.4321 58.568 96.8961 58.568ZM97.1521 63.768H93.8721V67.96H97.1521C98.6561 67.96 99.5361 67.176 99.5361 65.848C99.5361 64.552 98.6401 63.768 97.1521 63.768ZM106.591 61.16V62.152H105.983C104.559 62.152 103.647 63.112 103.647 64.584V69H102.543V61.256H103.583L103.663 62.456C103.967 61.624 104.783 61.08 105.871 61.08C106.111 61.08 106.319 61.096 106.591 61.16ZM109.97 69.192C108.322 69.192 107.346 68.264 107.346 66.904C107.346 65.48 108.434 64.584 110.242 64.44L112.802 64.232V63.976C112.802 62.456 111.89 61.976 110.754 61.976C109.41 61.976 108.61 62.584 108.61 63.624H107.602C107.602 62.056 108.882 61.048 110.786 61.048C112.578 61.048 113.89 61.944 113.89 63.992V69H112.962L112.818 67.64C112.338 68.616 111.282 69.192 109.97 69.192ZM110.226 68.296C111.858 68.296 112.802 67.16 112.802 65.48V65.064L110.514 65.24C109.058 65.368 108.466 66.008 108.466 66.872C108.466 67.816 109.17 68.296 110.226 68.296ZM117.209 69H116.105V61.256H117.065L117.225 62.6C117.737 61.608 118.761 61.048 119.881 61.048C122.009 61.048 122.889 62.312 122.889 64.264V69H121.785V64.504C121.785 62.696 120.969 62.056 119.689 62.056C118.105 62.056 117.209 63.208 117.209 64.952V69ZM128.13 69.192C125.874 69.192 124.546 67.464 124.546 65.144C124.546 62.808 125.874 61.048 128.178 61.048C129.458 61.048 130.482 61.608 131.026 62.728V57.336H132.13V69H131.17L131.058 67.416C130.514 68.616 129.426 69.192 128.13 69.192ZM128.322 68.184C130.018 68.184 131.01 66.904 131.01 65.112C131.01 63.336 130.018 62.04 128.322 62.04C126.642 62.04 125.666 63.336 125.666 65.112C125.666 66.904 126.642 68.184 128.322 68.184ZM133.777 66.824H134.833C134.833 67.72 135.505 68.28 136.593 68.28C137.793 68.28 138.497 67.768 138.497 66.936C138.497 66.296 138.177 65.928 137.265 65.704L135.937 65.368C134.593 65.032 133.937 64.328 133.937 63.272C133.937 61.912 135.073 61.048 136.737 61.048C138.369 61.048 139.425 61.944 139.473 63.384H138.401C138.369 62.488 137.745 61.96 136.705 61.96C135.617 61.96 135.009 62.424 135.009 63.256C135.009 63.848 135.425 64.264 136.273 64.472L137.601 64.808C138.945 65.144 139.553 65.768 139.553 66.888C139.553 68.28 138.369 69.192 136.609 69.192C134.865 69.192 133.777 68.264 133.777 66.824Z" fill="black" fill-opacity="0.6"/>
</svg>
