<svg width="552" height="176" viewBox="0 0 552 176" fill="none" xmlns="http://www.w3.org/2000/svg">
<path d="M1.86667 46.2933V1.49334H42.1333V13.8133H16.64V19.8933H41.0133V30.56H16.64V46.2933H1.86667ZM45.8667 46.2933V1.49334H60.64V46.2933H45.8667ZM64.3667 46.2933V1.49334H81.3267L96.2067 25.7067H97.54V1.49334H111.94V46.2933H95.3533L80.1 22.08H78.7667V46.2933H64.3667ZM138.186 1.49334C156.426 1.49334 162.826 10.9867 162.826 23.8933C162.826 36.7467 156.426 46.2933 138.186 46.2933H115.679V1.49334H138.186ZM138.186 33.92C143.946 33.92 147.999 31.04 147.999 23.8933C147.999 16.6933 143.946 13.8667 138.186 13.8667H130.506V33.92H138.186ZM204.302 47.7867C189.209 47.7867 179.129 38.24 179.129 23.8933C179.129 9.54667 189.209 0 204.302 0C215.236 0 226.436 4.8 227.929 19.9467H213.849C212.623 15.04 209.156 12.7467 204.302 12.7467C198.436 12.7467 193.796 17.12 193.796 23.8933C193.796 30.6667 198.436 35.04 204.302 35.04C209.156 35.04 212.623 32.7467 213.849 27.7333H227.929C226.436 42.9867 215.343 47.7867 204.302 47.7867ZM230.867 46.2933V1.49334H245.64V33.9733H269.533V46.2933H230.867ZM295.953 47.7867C280.54 47.7867 270.567 38.24 270.567 23.8933C270.567 9.54667 280.54 0 295.953 0C311.367 0 321.34 9.54667 321.34 23.8933C321.34 38.24 311.367 47.7867 295.953 47.7867ZM295.953 35.04C301.82 35.04 306.673 30.9867 306.673 23.8933C306.673 16.8 301.82 12.7467 295.953 12.7467C290.087 12.7467 285.233 16.8 285.233 23.8933C285.233 30.9867 290.087 35.04 295.953 35.04ZM368.649 1.49334V13.8133H352.542V46.2933H337.769V13.8133H321.663V1.49334H368.649ZM404.277 1.49334H419.05V46.2933H404.277V30.08H386.89V46.2933H372.117V1.49334H386.89V17.7067H404.277V1.49334ZM422.804 46.2933V1.49334H463.178V13.3333H437.578V19.04H462.218V28.7467H437.578V34.4533H463.178V46.2933H422.804ZM488.263 47.7867C472.796 47.7333 465.489 42.9333 465.863 31.3067H479.142C479.303 34.3467 481.863 36.2133 488.263 36.2667C493.916 36.32 496.529 34.72 496.529 32.64C496.529 31.2 495.729 29.7067 491.356 29.0667L485.596 28.16C477.116 26.7733 466.929 25.76 466.929 14.2933C466.929 5.44 474.129 0 488.369 0C501.222 0 510.183 3.57333 509.916 16.3733H496.743C496.209 13.3867 493.703 11.52 488.049 11.52C483.142 11.52 481.116 13.0133 481.116 15.04C481.116 16.32 481.916 17.8667 485.329 18.4L490.076 19.2C498.983 20.6933 511.196 20.96 511.196 33.2267C511.196 42.9867 503.623 47.84 488.263 47.7867ZM48.5867 65.4933V77.8133H32.48V110.293H17.7067V77.8133H1.6V65.4933H48.5867ZM84.2142 65.4933H98.9875V110.293H84.2142V94.08H66.8275V110.293H52.0542V65.4933H66.8275V81.7067H84.2142V65.4933ZM139.542 110.293L137.568 104.373H118.368L116.395 110.293H101.142L117.622 65.4933H138.315L154.795 110.293H139.542ZM121.995 93.44H133.942L129.248 79.36H126.688L121.995 93.44ZM194.587 65.4933V77.8133H178.48V110.293H163.707V77.8133H147.6V65.4933H194.587ZM211.929 110.293V65.4933H230.542L237.849 91.04H238.916L246.222 65.4933H264.836V110.293H250.756V90.4533H249.583L243.876 110.293H232.889L227.183 90.4533H226.009V110.293H211.929ZM305.354 110.293L303.381 104.373H284.181L282.208 110.293H266.954L283.434 65.4933H304.128L320.608 110.293H305.354ZM287.808 93.44H299.754L295.061 79.36H292.501L287.808 93.44ZM360.399 65.4933V77.8133H344.292V110.293H329.519V77.8133H313.413V65.4933H360.399ZM385.865 111.787C370.772 111.787 360.692 102.24 360.692 87.8933C360.692 73.5467 370.772 64 385.865 64C396.798 64 407.998 68.8 409.492 83.9467H395.412C394.185 79.04 390.718 76.7467 385.865 76.7467C379.998 76.7467 375.358 81.12 375.358 87.8933C375.358 94.6667 379.998 99.04 385.865 99.04C390.718 99.04 394.185 96.7467 395.412 91.7333H409.492C407.998 106.987 396.905 111.787 385.865 111.787ZM444.589 65.4933H459.363V110.293H444.589V94.08H427.203V110.293H412.429V65.4933H427.203V81.7067H444.589V65.4933ZM463.117 110.293V65.4933H503.49V77.3333H477.89V83.04H502.53V92.7467H477.89V98.4533H503.49V110.293H463.117ZM528.575 111.787C513.108 111.733 505.802 106.933 506.175 95.3067H519.455C519.615 98.3467 522.175 100.213 528.575 100.267C534.228 100.32 536.842 98.72 536.842 96.64C536.842 95.2 536.042 93.7067 531.668 93.0667L525.908 92.16C517.428 90.7733 507.242 89.76 507.242 78.2933C507.242 69.44 514.442 64 528.682 64C541.535 64 550.495 67.5733 550.228 80.3733H537.055C536.522 77.3867 534.015 75.52 528.362 75.52C523.455 75.52 521.428 77.0133 521.428 79.04C521.428 80.32 522.228 81.8667 525.642 82.4L530.388 83.2C539.295 84.6933 551.508 84.96 551.508 97.2267C551.508 106.987 543.935 111.84 528.575 111.787ZM51.4133 129.493L33.0667 160.373V174.293H18.2933V160.32L0 129.493H15.52L25.12 146.347H26.2933L35.8933 129.493H51.4133ZM73.0783 175.787C57.665 175.787 47.6917 166.24 47.6917 151.893C47.6917 137.547 57.665 128 73.0783 128C88.4917 128 98.465 137.547 98.465 151.893C98.465 166.24 88.4917 175.787 73.0783 175.787ZM73.0783 163.04C78.945 163.04 83.7983 158.987 83.7983 151.893C83.7983 144.8 78.945 140.747 73.0783 140.747C67.2117 140.747 62.3583 144.8 62.3583 151.893C62.3583 158.987 67.2117 163.04 73.0783 163.04ZM124.629 175.787C109.216 175.787 101.429 169.227 101.429 154.773V129.493H116.309V154.4C116.309 159.947 118.763 163.413 124.629 163.413C130.496 163.413 133.056 159.947 133.056 154.4V129.493H147.829V154.667C147.829 169.227 140.042 175.787 124.629 175.787ZM198.114 174.293H183.608L177.528 162.72H166.328V174.293H151.554V129.493H177.208C189.634 129.493 196.621 134.827 196.621 146.613C196.621 152.64 193.901 156.907 190.114 159.573L198.114 174.293ZM166.328 141.76V151.68H176.194C179.928 151.68 181.847 149.867 181.847 146.72C181.847 143.573 179.928 141.76 176.194 141.76H166.328ZM236.263 175.787C220.796 175.733 213.489 170.933 213.863 159.307H227.142C227.303 162.347 229.863 164.213 236.263 164.267C241.916 164.32 244.529 162.72 244.529 160.64C244.529 159.2 243.729 157.707 239.356 157.067L233.596 156.16C225.116 154.773 214.929 153.76 214.929 142.293C214.929 133.44 222.129 128 236.369 128C249.222 128 258.183 131.573 257.916 144.373H244.743C244.209 141.387 241.703 139.52 236.049 139.52C231.142 139.52 229.116 141.013 229.116 143.04C229.116 144.32 229.916 145.867 233.329 146.4L238.076 147.2C246.983 148.693 259.196 148.96 259.196 161.227C259.196 170.987 251.623 175.84 236.263 175.787ZM307.087 129.493V141.813H290.98V174.293H276.207V141.813H260.1V129.493H307.087ZM359.538 129.493L341.192 160.373V174.293H326.418V160.32L308.125 129.493H323.645L333.245 146.347H334.418L344.018 129.493H359.538ZM361.429 174.293V129.493H376.203V161.973H400.096V174.293H361.429ZM403.804 174.293V129.493H444.178V141.333H418.578V147.04H443.218V156.747H418.578V162.453H444.178V174.293H403.804Z" fill="black"/>
</svg>
