<svg width="156" height="74" viewBox="0 0 156 74" fill="none" xmlns="http://www.w3.org/2000/svg">
<path d="M22.12 41.96L1.84 42V38.16L11.4 30.08C15.36 26.72 16.68 24.8 16.68 22C16.68 18.68 14.88 16.8 11.8 16.8C8.6 16.8 6.6 19.04 6.56 22.8H1.48C1.52 16.4 5.6 12.24 11.8 12.24C18.04 12.24 21.92 15.8 21.92 21.72C21.92 25.8 19.68 28.88 15.24 32.68L9.96 37.2H22.12V41.96ZM33.1416 40.24C33.1416 43.56 30.7416 46.2 27.5016 46.6V44.64C29.3016 44.32 30.6616 43.24 30.6616 41.84C30.3416 42 29.9816 42.08 29.5016 42.08C27.9416 42.08 26.6616 40.92 26.6616 39.32C26.6616 37.4 27.9016 36.12 29.7016 36.12C31.7016 36.12 33.1416 37.76 33.1416 40.24ZM36.0169 27.44C36.0169 18.36 40.8969 12.2 48.3769 12.2C55.8569 12.2 60.7769 18.36 60.7769 27.44C60.7769 36.48 56.1369 42.52 48.3769 42.52C40.6169 42.52 36.0169 36.48 36.0169 27.44ZM41.0569 27.44C41.0569 34.2 43.7769 38 48.3769 38C53.0169 38 55.7369 34.2 55.7369 27.44C55.7369 20.52 53.0169 16.72 48.3769 16.72C43.7769 16.72 41.0569 20.52 41.0569 27.44ZM64.22 27.44C64.22 18.36 69.1 12.2 76.58 12.2C84.06 12.2 88.98 18.36 88.98 27.44C88.98 36.48 84.34 42.52 76.58 42.52C68.82 42.52 64.22 36.48 64.22 27.44ZM69.26 27.44C69.26 34.2 71.98 38 76.58 38C81.22 38 83.94 34.2 83.94 27.44C83.94 20.52 81.22 16.72 76.58 16.72C71.98 16.72 69.26 20.52 69.26 27.44ZM92.4231 27.44C92.4231 18.36 97.3031 12.2 104.783 12.2C112.263 12.2 117.183 18.36 117.183 27.44C117.183 36.48 112.543 42.52 104.783 42.52C97.0231 42.52 92.4231 36.48 92.4231 27.44ZM97.4631 27.44C97.4631 34.2 100.183 38 104.783 38C109.423 38 112.143 34.2 112.143 27.44C112.143 20.52 109.423 16.72 104.783 16.72C100.183 16.72 97.4631 20.52 97.4631 27.44ZM122.106 26.48H130.066V18.52H134.146V26.48H142.106V30.56H134.146V38.56H130.066V30.56H122.106V26.48Z" fill="black"/>
<path d="M2.544 69H1.392V57.544H2.544V62.648H8.736V57.544H9.872V69H8.736V63.72H2.544V69ZM12.9773 59.128C12.5293 59.128 12.1613 58.76 12.1613 58.312C12.1613 57.864 12.5293 57.48 12.9773 57.48C13.4253 57.48 13.8093 57.864 13.8093 58.312C13.8093 58.76 13.4253 59.128 12.9773 59.128ZM12.4333 69V61.256H13.5373V69H12.4333ZM15.3115 64.904C15.3115 62.792 16.6715 61.048 18.9435 61.048C20.2875 61.048 21.3115 61.672 21.8075 62.808L21.9195 61.256H22.8795V68.76C22.8795 71.064 21.4075 72.568 19.1355 72.568C17.1515 72.568 15.7595 71.448 15.4555 69.576H16.5595C16.7995 70.824 17.7595 71.56 19.1515 71.56C20.7355 71.56 21.7915 70.488 21.7915 68.872V67.032C21.2635 68.12 20.1915 68.76 18.8635 68.76C16.6555 68.76 15.3115 67.016 15.3115 64.904ZM16.4155 64.888C16.4155 66.472 17.3915 67.768 19.0235 67.768C20.7035 67.768 21.6955 66.552 21.6955 64.888C21.6955 63.24 20.7355 62.024 19.0395 62.024C17.3755 62.024 16.4155 63.32 16.4155 64.888ZM26.2873 68.984H25.1833V57.336H26.2873V62.6C26.7833 61.672 27.7273 61.048 29.0233 61.048C31.0553 61.048 31.9673 62.312 31.9673 64.264V69H30.8633V64.504C30.8633 62.696 30.0153 62.056 28.8153 62.056C27.1513 62.056 26.2873 63.288 26.2873 64.776V68.984ZM34.0396 65.288V64.296H38.6796V65.288H34.0396ZM50.1351 69.656L48.9191 68.28C48.0551 68.872 47.0151 69.192 45.8471 69.192C42.6311 69.192 40.3911 66.744 40.3911 63.272C40.3911 59.8 42.6471 57.336 45.8471 57.336C49.0631 57.336 51.3031 59.784 51.3031 63.272C51.3031 65.048 50.7111 66.552 49.7191 67.592L50.9191 68.936L50.1351 69.656ZM50.1191 63.272C50.1191 60.408 48.3751 58.456 45.8471 58.456C43.3191 58.456 41.5911 60.408 41.5911 63.272C41.5911 66.136 43.3191 68.088 45.8471 68.088C46.7271 68.088 47.5111 67.848 48.1511 67.432L46.6631 65.752L47.4311 65.032L48.9511 66.728C49.6871 65.88 50.1191 64.68 50.1191 63.272ZM58.592 61.256H59.696V69H58.736L58.592 67.688C58.16 68.584 57.088 69.192 55.872 69.192C54.048 69.192 53.056 67.944 53.056 66.056V61.24H54.176V65.704C54.176 67.544 54.992 68.2 56.224 68.2C57.712 68.2 58.592 67.208 58.592 65.368V61.256ZM64.2198 69.192C62.5718 69.192 61.5958 68.264 61.5958 66.904C61.5958 65.48 62.6838 64.584 64.4918 64.44L67.0518 64.232V63.976C67.0518 62.456 66.1398 61.976 65.0038 61.976C63.6598 61.976 62.8598 62.584 62.8598 63.624H61.8518C61.8518 62.056 63.1318 61.048 65.0358 61.048C66.8278 61.048 68.1398 61.944 68.1398 63.992V69H67.2118L67.0678 67.64C66.5878 68.616 65.5318 69.192 64.2198 69.192ZM64.4758 68.296C66.1078 68.296 67.0518 67.16 67.0518 65.48V65.064L64.7638 65.24C63.3078 65.368 62.7158 66.008 62.7158 66.872C62.7158 67.816 63.4198 68.296 64.4758 68.296ZM71.5071 69H70.4031V57.336H71.5071V69ZM74.3991 59.128C73.9511 59.128 73.5831 58.76 73.5831 58.312C73.5831 57.864 73.9511 57.48 74.3991 57.48C74.8471 57.48 75.2311 57.864 75.2311 58.312C75.2311 58.76 74.8471 59.128 74.3991 59.128ZM73.8551 69V61.256H74.9591V69H73.8551ZM79.0374 69H77.9494V62.184H76.3974V61.256H77.9494V58.808H79.0374V61.256H80.5894V62.184H79.0374V69ZM81.243 72.376V71.464H82.091C82.763 71.464 83.435 71.416 83.819 70.376L84.155 69.464L81.019 61.256H82.187L84.683 68.008L87.131 61.256H88.267L84.715 70.776C84.267 71.992 83.515 72.488 82.411 72.488C81.947 72.488 81.595 72.456 81.243 72.376ZM98.6038 64.792H95.3878V69H94.2358V57.544H98.6038C100.812 57.544 102.204 58.984 102.204 61.144C102.204 63.224 100.796 64.792 98.6038 64.792ZM98.4438 58.584H95.3878V63.752H98.3798C100.044 63.752 101.004 62.696 101.004 61.128C101.004 59.544 100.028 58.584 98.4438 58.584ZM107.872 61.16V62.152H107.264C105.84 62.152 104.928 63.112 104.928 64.584V69H103.824V61.256H104.864L104.944 62.456C105.248 61.624 106.064 61.08 107.152 61.08C107.392 61.08 107.6 61.096 107.872 61.16ZM108.499 65.128C108.499 62.76 110.163 61.048 112.435 61.048C114.707 61.048 116.371 62.76 116.371 65.128C116.371 67.48 114.707 69.192 112.435 69.192C110.163 69.192 108.499 67.48 108.499 65.128ZM109.619 65.112C109.619 66.936 110.771 68.2 112.435 68.2C114.083 68.2 115.251 66.936 115.251 65.112C115.251 63.32 114.083 62.04 112.435 62.04C110.771 62.04 109.619 63.32 109.619 65.112ZM121.176 69.192C118.92 69.192 117.592 67.464 117.592 65.144C117.592 62.808 118.92 61.048 121.224 61.048C122.504 61.048 123.528 61.608 124.072 62.728V57.336H125.176V69H124.216L124.104 67.416C123.56 68.616 122.472 69.192 121.176 69.192ZM121.368 68.184C123.064 68.184 124.056 66.904 124.056 65.112C124.056 63.336 123.064 62.04 121.368 62.04C119.688 62.04 118.712 63.336 118.712 65.112C118.712 66.904 119.688 68.184 121.368 68.184ZM132.92 61.256H134.024V69H133.064L132.92 67.688C132.488 68.584 131.416 69.192 130.2 69.192C128.376 69.192 127.384 67.944 127.384 66.056V61.24H128.504V65.704C128.504 67.544 129.32 68.2 130.552 68.2C132.04 68.2 132.92 67.208 132.92 65.368V61.256ZM135.624 65.144C135.624 62.712 137.112 61.048 139.368 61.048C141.16 61.048 142.472 62.088 142.776 63.688H141.672C141.384 62.616 140.456 62.024 139.384 62.024C137.816 62.024 136.712 63.224 136.712 65.128C136.712 66.968 137.736 68.2 139.304 68.2C140.456 68.2 141.384 67.56 141.688 66.568H142.808C142.44 68.152 141.064 69.192 139.304 69.192C137.112 69.192 135.624 67.576 135.624 65.144ZM146.256 69H145.168V62.184H143.616V61.256H145.168V58.808H146.256V61.256H147.808V62.184H146.256V69ZM148.59 66.824H149.646C149.646 67.72 150.318 68.28 151.406 68.28C152.606 68.28 153.31 67.768 153.31 66.936C153.31 66.296 152.99 65.928 152.078 65.704L150.75 65.368C149.406 65.032 148.75 64.328 148.75 63.272C148.75 61.912 149.886 61.048 151.55 61.048C153.182 61.048 154.238 61.944 154.286 63.384H153.214C153.182 62.488 152.558 61.96 151.518 61.96C150.43 61.96 149.822 62.424 149.822 63.256C149.822 63.848 150.238 64.264 151.086 64.472L152.414 64.808C153.758 65.144 154.366 65.768 154.366 66.888C154.366 68.28 153.182 69.192 151.422 69.192C149.678 69.192 148.59 68.264 148.59 66.824Z" fill="black" fill-opacity="0.6"/>
</svg>
