<svg width="171" height="74" viewBox="0 0 171 74" fill="none" xmlns="http://www.w3.org/2000/svg">
<path d="M10.36 27.52H6.8V24.2L14.32 17.28H2.16V12.76H20.72V16.84L13.6 23.4C18.08 24.28 21.56 27.56 21.56 32.72C21.56 38.72 16.88 42.52 10.96 42.52C5.24 42.52 0.8 39 0.8 32.68H5.84C5.84 36.04 7.92 37.96 11.04 37.96C14.24 37.96 16.36 35.88 16.36 32.64C16.36 29.68 14.44 27.52 10.36 27.52ZM24.4934 27.44C24.4934 18.36 29.3734 12.2 36.8534 12.2C44.3334 12.2 49.2534 18.36 49.2534 27.44C49.2534 36.48 44.6134 42.52 36.8534 42.52C29.0934 42.52 24.4934 36.48 24.4934 27.44ZM29.5334 27.44C29.5334 34.2 32.2534 38 36.8534 38C41.4934 38 44.2134 34.2 44.2134 27.44C44.2134 20.52 41.4934 16.72 36.8534 16.72C32.2534 16.72 29.5334 20.52 29.5334 27.44ZM58.5713 40.24C58.5713 43.56 56.1713 46.2 52.9313 46.6V44.64C54.7313 44.32 56.0913 43.24 56.0913 41.84C55.7713 42 55.4112 42.08 54.9313 42.08C53.3713 42.08 52.0913 40.92 52.0913 39.32C52.0913 37.4 53.3313 36.12 55.1313 36.12C57.1313 36.12 58.5713 37.76 58.5713 40.24ZM61.4466 27.44C61.4466 18.36 66.3266 12.2 73.8066 12.2C81.2866 12.2 86.2066 18.36 86.2066 27.44C86.2066 36.48 81.5666 42.52 73.8066 42.52C66.0466 42.52 61.4466 36.48 61.4466 27.44ZM66.4866 27.44C66.4866 34.2 69.2066 38 73.8066 38C78.4466 38 81.1666 34.2 81.1666 27.44C81.1666 20.52 78.4466 16.72 73.8066 16.72C69.2066 16.72 66.4866 20.52 66.4866 27.44ZM89.6497 27.44C89.6497 18.36 94.5297 12.2 102.01 12.2C109.49 12.2 114.41 18.36 114.41 27.44C114.41 36.48 109.77 42.52 102.01 42.52C94.2497 42.52 89.6497 36.48 89.6497 27.44ZM94.6897 27.44C94.6897 34.2 97.4097 38 102.01 38C106.65 38 109.37 34.2 109.37 27.44C109.37 20.52 106.65 16.72 102.01 16.72C97.4097 16.72 94.6897 20.52 94.6897 27.44ZM117.853 27.44C117.853 18.36 122.733 12.2 130.213 12.2C137.693 12.2 142.613 18.36 142.613 27.44C142.613 36.48 137.973 42.52 130.213 42.52C122.453 42.52 117.853 36.48 117.853 27.44ZM122.893 27.44C122.893 34.2 125.613 38 130.213 38C134.853 38 137.573 34.2 137.573 27.44C137.573 20.52 134.853 16.72 130.213 16.72C125.613 16.72 122.893 20.52 122.893 27.44ZM147.536 26.48H155.496V18.52H159.576V26.48H167.536V30.56H159.576V38.56H155.496V30.56H147.536V26.48Z" fill="black"/>
<path d="M2.544 69H1.392V57.544H2.544V62.648H8.736V57.544H9.872V69H8.736V63.72H2.544V69ZM14.6573 69.192C13.0093 69.192 12.0333 68.264 12.0333 66.904C12.0333 65.48 13.1213 64.584 14.9293 64.44L17.4893 64.232V63.976C17.4893 62.456 16.5773 61.976 15.4413 61.976C14.0973 61.976 13.2973 62.584 13.2973 63.624H12.2893C12.2893 62.056 13.5693 61.048 15.4733 61.048C17.2653 61.048 18.5773 61.944 18.5773 63.992V69H17.6493L17.5053 67.64C17.0253 68.616 15.9693 69.192 14.6573 69.192ZM14.9133 68.296C16.5453 68.296 17.4893 67.16 17.4893 65.48V65.064L15.2013 65.24C13.7453 65.368 13.1533 66.008 13.1533 66.872C13.1533 67.816 13.8573 68.296 14.9133 68.296ZM20.7926 72.376V61.256H21.7526L21.8646 62.824C22.4086 61.624 23.4966 61.048 24.7926 61.048C27.0326 61.048 28.3766 62.76 28.3766 65.096C28.3766 67.432 27.0806 69.192 24.7926 69.192C23.4806 69.192 22.4406 68.632 21.8966 67.512V72.376H20.7926ZM21.9126 65.128C21.9126 66.904 22.9046 68.2 24.6006 68.2C26.2806 68.2 27.2566 66.904 27.2566 65.128C27.2566 63.336 26.2806 62.056 24.6006 62.056C22.9046 62.056 21.9126 63.336 21.9126 65.128ZM30.1364 72.376V61.256H31.0964L31.2084 62.824C31.7524 61.624 32.8404 61.048 34.1364 61.048C36.3764 61.048 37.7204 62.76 37.7204 65.096C37.7204 67.432 36.4244 69.192 34.1364 69.192C32.8244 69.192 31.7844 68.632 31.2404 67.512V72.376H30.1364ZM31.2564 65.128C31.2564 66.904 32.2484 68.2 33.9444 68.2C35.6244 68.2 36.6004 66.904 36.6004 65.128C36.6004 63.336 35.6244 62.056 33.9444 62.056C32.2484 62.056 31.2564 63.336 31.2564 65.128ZM38.4461 72.376V71.464H39.2941C39.9661 71.464 40.6381 71.416 41.0221 70.376L41.3581 69.464L38.2221 61.256H39.3901L41.8861 68.008L44.3341 61.256H45.4701L41.9181 70.776C41.4701 71.992 40.7181 72.488 39.6141 72.488C39.1501 72.488 38.7981 72.456 38.4461 72.376ZM56.1109 69.176C52.9109 69.176 50.7349 66.792 50.7349 63.272C50.7349 59.752 52.9429 57.352 56.1749 57.352C58.6389 57.352 60.5749 58.84 61.0389 61.112H59.8069C59.3269 59.464 57.9189 58.456 56.1269 58.456C53.6149 58.456 51.9349 60.376 51.9349 63.272C51.9349 66.152 53.6149 68.072 56.1269 68.072C57.9349 68.072 59.3749 67.096 59.8709 65.56H61.1029C60.5749 67.72 58.5749 69.176 56.1109 69.176ZM68.2951 61.256H69.3991V69H68.4391L68.2951 67.688C67.8631 68.584 66.7911 69.192 65.5751 69.192C63.7511 69.192 62.7591 67.944 62.7591 66.056V61.24H63.8791V65.704C63.8791 67.544 64.6951 68.2 65.9271 68.2C67.4151 68.2 68.2951 67.208 68.2951 65.368V61.256ZM70.8866 66.824H71.9426C71.9426 67.72 72.6146 68.28 73.7026 68.28C74.9026 68.28 75.6066 67.768 75.6066 66.936C75.6066 66.296 75.2866 65.928 74.3746 65.704L73.0466 65.368C71.7026 65.032 71.0466 64.328 71.0466 63.272C71.0466 61.912 72.1826 61.048 73.8466 61.048C75.4786 61.048 76.5346 61.944 76.5826 63.384H75.5106C75.4786 62.488 74.8546 61.96 73.8146 61.96C72.7266 61.96 72.1186 62.424 72.1186 63.256C72.1186 63.848 72.5346 64.264 73.3826 64.472L74.7106 64.808C76.0546 65.144 76.6626 65.768 76.6626 66.888C76.6626 68.28 75.4786 69.192 73.7186 69.192C71.9746 69.192 70.8866 68.264 70.8866 66.824ZM80.2561 69H79.1681V62.184H77.6161V61.256H79.1681V58.808H80.2561V61.256H81.8081V62.184H80.2561V69ZM82.6236 65.128C82.6236 62.76 84.2876 61.048 86.5596 61.048C88.8316 61.048 90.4956 62.76 90.4956 65.128C90.4956 67.48 88.8316 69.192 86.5596 69.192C84.2876 69.192 82.6236 67.48 82.6236 65.128ZM83.7436 65.112C83.7436 66.936 84.8956 68.2 86.5596 68.2C88.2076 68.2 89.3756 66.936 89.3756 65.112C89.3756 63.32 88.2076 62.04 86.5596 62.04C84.8956 62.04 83.7436 63.32 83.7436 65.112ZM93.3654 69H92.2614V61.256H93.2214L93.3494 62.36C93.7334 61.544 94.5974 61.048 95.6854 61.048C96.9014 61.048 97.8134 61.688 98.1814 62.696C98.5334 61.688 99.4774 61.048 100.725 61.048C102.405 61.048 103.509 62.136 103.509 63.928V69H102.437V64.152C102.437 62.824 101.701 62.04 100.517 62.04C99.2214 62.04 98.4534 63.016 98.4534 64.216V69H97.3654V64.136C97.3654 62.824 96.6134 62.056 95.4454 62.056C94.1494 62.056 93.3654 63.016 93.3654 64.2V69ZM108.978 69.192C106.706 69.192 105.186 67.56 105.186 65.128C105.186 62.712 106.69 61.048 108.898 61.048C110.994 61.048 112.418 62.536 112.418 64.728V65.272H106.258C106.338 67.16 107.33 68.248 108.994 68.248C110.258 68.248 111.074 67.704 111.362 66.68H112.418C112.002 68.312 110.802 69.192 108.978 69.192ZM108.898 61.992C107.442 61.992 106.482 62.952 106.29 64.472H111.314C111.314 62.984 110.354 61.992 108.898 61.992ZM118.231 61.16V62.152H117.623C116.199 62.152 115.287 63.112 115.287 64.584V69H114.183V61.256H115.223L115.303 62.456C115.607 61.624 116.423 61.08 117.511 61.08C117.751 61.08 117.959 61.096 118.231 61.16ZM119.043 66.824H120.099C120.099 67.72 120.771 68.28 121.859 68.28C123.059 68.28 123.763 67.768 123.763 66.936C123.763 66.296 123.443 65.928 122.531 65.704L121.203 65.368C119.859 65.032 119.203 64.328 119.203 63.272C119.203 61.912 120.339 61.048 122.003 61.048C123.635 61.048 124.691 61.944 124.739 63.384H123.667C123.635 62.488 123.011 61.96 121.971 61.96C120.883 61.96 120.275 62.424 120.275 63.256C120.275 63.848 120.691 64.264 121.539 64.472L122.867 64.808C124.211 65.144 124.819 65.768 124.819 66.888C124.819 68.28 123.635 69.192 121.875 69.192C120.131 69.192 119.043 68.264 119.043 66.824Z" fill="black" fill-opacity="0.6"/>
</svg>
