<svg width="104" height="177" viewBox="0 0 104 177" fill="none" xmlns="http://www.w3.org/2000/svg">
<path d="M6.144 15.176C2.848 15.176 0.656 12.808 0.656 9.224C0.656 5.656 2.912 3.24 6.224 3.24C8.832 3.24 10.832 4.792 11.264 7.16H9.584C9.152 5.656 7.856 4.744 6.176 4.744C3.84 4.744 2.304 6.504 2.304 9.208C2.304 11.912 3.84 13.672 6.176 13.672C7.872 13.672 9.216 12.76 9.648 11.336H11.312C10.816 13.64 8.752 15.176 6.144 15.176ZM26.6666 9.208C26.6666 12.728 24.3626 15.192 21.0826 15.192C17.8186 15.192 15.5466 12.728 15.5466 9.208C15.5466 5.704 17.8346 3.224 21.0986 3.224C24.3786 3.224 26.6666 5.688 26.6666 9.208ZM25.0186 9.208C25.0186 6.52 23.4506 4.744 21.0986 4.744C18.7466 4.744 17.1946 6.52 17.1946 9.208C17.1946 11.896 18.7466 13.688 21.0986 13.688C23.4506 13.688 25.0186 11.88 25.0186 9.208ZM33.2081 15H31.6721V3.432H33.2081L37.1921 13.16L41.1761 3.432H42.7441V15H41.2081V10.424C41.2081 8.264 41.2241 7.48 41.3041 6.664L37.9281 15H36.4561L33.0961 6.696C33.1761 7.256 33.2081 8.44 33.2081 10.056V15ZM52.9338 10.872H50.0058V15H48.4378V3.432H52.9338C55.2058 3.432 56.6618 4.92 56.6618 7.144C56.6618 9.304 55.1898 10.872 52.9338 10.872ZM52.6618 4.84H50.0058V9.464H52.5978C54.1498 9.464 55.0138 8.552 55.0138 7.128C55.0138 5.672 54.1338 4.84 52.6618 4.84ZM61.3709 15H59.7389L63.9629 3.432H65.7069L69.9469 15H68.2989L67.2589 12.12H62.3949L61.3709 15ZM64.6349 5.928L62.8749 10.76H66.7949L65.0189 5.928C64.9389 5.704 64.8589 5.432 64.8269 5.256C64.7949 5.416 64.7149 5.688 64.6349 5.928ZM76.0526 15H74.4846V3.432H76.0526L81.9726 12.376V3.432H83.5406V15H81.9726L76.0526 6.056V15ZM91.9706 10.296L88.0506 3.432H89.8106L92.3866 8.056C92.5466 8.328 92.6426 8.552 92.7706 8.824C92.9146 8.536 92.9466 8.44 93.1546 8.056L95.7146 3.432H97.4266L93.5386 10.296V15H91.9706V10.296Z" fill="black"/>
<path d="M1.392 60H0.224L4.432 48.544H5.856L10.112 60H8.912L7.792 56.96H2.512L1.392 60ZM4.992 50.16L2.864 55.952H7.424L5.28 50.16C5.232 50 5.152 49.808 5.136 49.696C5.12 49.792 5.056 50 4.992 50.16ZM12.4245 60H11.4645V48.336H12.5685V53.76C13.1125 52.624 14.1685 52.048 15.4805 52.048C17.7365 52.048 19.0485 53.808 19.0485 56.144C19.0485 58.464 17.7045 60.192 15.4485 60.192C14.1525 60.192 13.0805 59.616 12.5365 58.416L12.4245 60ZM12.5845 56.112C12.5845 57.904 13.5765 59.184 15.2725 59.184C16.9525 59.184 17.9285 57.904 17.9285 56.112C17.9285 54.336 16.9525 53.04 15.2725 53.04C13.5765 53.04 12.5845 54.336 12.5845 56.112ZM20.2643 56.128C20.2643 53.76 21.9283 52.048 24.2003 52.048C26.4723 52.048 28.1363 53.76 28.1363 56.128C28.1363 58.48 26.4723 60.192 24.2003 60.192C21.9283 60.192 20.2643 58.48 20.2643 56.128ZM21.3843 56.112C21.3843 57.936 22.5363 59.2 24.2003 59.2C25.8483 59.2 27.0163 57.936 27.0163 56.112C27.0163 54.32 25.8483 53.04 24.2003 53.04C22.5363 53.04 21.3843 54.32 21.3843 56.112ZM35.1545 52.256H36.2585V60H35.2985L35.1545 58.688C34.7225 59.584 33.6505 60.192 32.4345 60.192C30.6105 60.192 29.6185 58.944 29.6185 57.056V52.24H30.7385V56.704C30.7385 58.544 31.5545 59.2 32.7865 59.2C34.2745 59.2 35.1545 58.208 35.1545 56.368V52.256ZM40.3343 60H39.2463V53.184H37.6943V52.256H39.2463V49.808H40.3343V52.256H41.8863V53.184H40.3343V60ZM7.232 92.96H2.544V98H1.392V86.544H8.144V87.6H2.544V91.92H7.232V92.96ZM12.4781 98.192C10.2061 98.192 8.68613 96.56 8.68613 94.128C8.68613 91.712 10.1901 90.048 12.3981 90.048C14.4941 90.048 15.9181 91.536 15.9181 93.728V94.272H9.75813C9.83813 96.16 10.8301 97.248 12.4941 97.248C13.7581 97.248 14.5741 96.704 14.8621 95.68H15.9181C15.5021 97.312 14.3021 98.192 12.4781 98.192ZM12.3981 90.992C10.9421 90.992 9.98213 91.952 9.79013 93.472H14.8141C14.8141 91.984 13.8541 90.992 12.3981 90.992ZM19.8291 98.192C18.1811 98.192 17.2051 97.264 17.2051 95.904C17.2051 94.48 18.2931 93.584 20.1011 93.44L22.6611 93.232V92.976C22.6611 91.456 21.7491 90.976 20.6131 90.976C19.2691 90.976 18.4691 91.584 18.4691 92.624H17.4611C17.4611 91.056 18.7411 90.048 20.6451 90.048C22.4371 90.048 23.7491 90.944 23.7491 92.992V98H22.8211L22.6771 96.64C22.1971 97.616 21.1411 98.192 19.8291 98.192ZM20.0851 97.296C21.7171 97.296 22.6611 96.16 22.6611 94.48V94.064L20.3731 94.24C18.9171 94.368 18.3251 95.008 18.3251 95.872C18.3251 96.816 19.0291 97.296 20.0851 97.296ZM27.5999 98H26.5119V91.184H24.9599V90.256H26.5119V87.808H27.5999V90.256H29.1519V91.184H27.5999V98ZM36.0295 90.256H37.1335V98H36.1735L36.0295 96.688C35.5975 97.584 34.5255 98.192 33.3095 98.192C31.4855 98.192 30.4935 96.944 30.4935 95.056V90.24H31.6135V94.704C31.6135 96.544 32.4295 97.2 33.6615 97.2C35.1495 97.2 36.0295 96.208 36.0295 94.368V90.256ZM43.4813 90.16V91.152H42.8733C41.4493 91.152 40.5373 92.112 40.5373 93.584V98H39.4333V90.256H40.4733L40.5533 91.456C40.8573 90.624 41.6733 90.08 42.7613 90.08C43.0013 90.08 43.2093 90.096 43.4813 90.16ZM47.9 98.192C45.628 98.192 44.108 96.56 44.108 94.128C44.108 91.712 45.612 90.048 47.82 90.048C49.916 90.048 51.34 91.536 51.34 93.728V94.272H45.18C45.26 96.16 46.252 97.248 47.916 97.248C49.18 97.248 49.996 96.704 50.284 95.68H51.34C50.924 97.312 49.724 98.192 47.9 98.192ZM47.82 90.992C46.364 90.992 45.404 91.952 45.212 93.472H50.236C50.236 91.984 49.276 90.992 47.82 90.992ZM52.4491 95.824H53.5051C53.5051 96.72 54.1771 97.28 55.2651 97.28C56.4651 97.28 57.1691 96.768 57.1691 95.936C57.1691 95.296 56.8491 94.928 55.9371 94.704L54.6091 94.368C53.2651 94.032 52.6091 93.328 52.6091 92.272C52.6091 90.912 53.7451 90.048 55.4091 90.048C57.0411 90.048 58.0971 90.944 58.1451 92.384H57.0731C57.0411 91.488 56.4171 90.96 55.3771 90.96C54.2891 90.96 53.6811 91.424 53.6811 92.256C53.6811 92.848 54.0971 93.264 54.9451 93.472L56.2731 93.808C57.6171 94.144 58.2251 94.768 58.2251 95.888C58.2251 97.28 57.0411 98.192 55.2811 98.192C53.5371 98.192 52.4491 97.264 52.4491 95.824ZM3.648 136L0.24 124.544H1.44L3.76 132.416C3.92 132.976 4.064 133.552 4.208 134.304C4.4 133.472 4.56 132.976 4.736 132.416L7.232 124.544H8.432L10.928 132.416C11.104 132.992 11.264 133.568 11.44 134.304C11.616 133.424 11.76 132.864 11.888 132.432L14.256 124.544H15.424L11.984 136H10.896L7.824 126.272L4.752 136H3.648ZM15.3736 132.128C15.3736 129.76 17.0376 128.048 19.3096 128.048C21.5816 128.048 23.2456 129.76 23.2456 132.128C23.2456 134.48 21.5816 136.192 19.3096 136.192C17.0376 136.192 15.3736 134.48 15.3736 132.128ZM16.4936 132.112C16.4936 133.936 17.6456 135.2 19.3096 135.2C20.9576 135.2 22.1256 133.936 22.1256 132.112C22.1256 130.32 20.9576 129.04 19.3096 129.04C17.6456 129.04 16.4936 130.32 16.4936 132.112ZM29.0594 128.16V129.152H28.4514C27.0274 129.152 26.1154 130.112 26.1154 131.584V136H25.0114V128.256H26.0514L26.1314 129.456C26.4354 128.624 27.2514 128.08 28.3394 128.08C28.5794 128.08 28.7874 128.096 29.0594 128.16ZM31.679 136H30.575V124.336H31.679V132.256L35.519 128.256H36.911L33.935 131.344L36.927 136H35.647L33.183 132.128L31.679 133.68V136ZM37.6991 133.824H38.7551C38.7551 134.72 39.4271 135.28 40.5151 135.28C41.7151 135.28 42.4191 134.768 42.4191 133.936C42.4191 133.296 42.0991 132.928 41.1871 132.704L39.8591 132.368C38.5151 132.032 37.8591 131.328 37.8591 130.272C37.8591 128.912 38.9951 128.048 40.6591 128.048C42.2911 128.048 43.3471 128.944 43.3951 130.384H42.3231C42.2911 129.488 41.6671 128.96 40.6271 128.96C39.5391 128.96 38.9311 129.424 38.9311 130.256C38.9311 130.848 39.3471 131.264 40.1951 131.472L41.5231 131.808C42.8671 132.144 43.4751 132.768 43.4751 133.888C43.4751 135.28 42.2911 136.192 40.5311 136.192C38.7871 136.192 37.6991 135.264 37.6991 133.824ZM6.064 174.176C2.864 174.176 0.688 171.792 0.688 168.272C0.688 164.752 2.896 162.352 6.128 162.352C8.592 162.352 10.528 163.84 10.992 166.112H9.76C9.28 164.464 7.872 163.456 6.08 163.456C3.568 163.456 1.888 165.376 1.888 168.272C1.888 171.152 3.568 173.072 6.08 173.072C7.888 173.072 9.328 172.096 9.824 170.56H11.056C10.528 172.72 8.528 174.176 6.064 174.176ZM14.876 174.192C13.228 174.192 12.252 173.264 12.252 171.904C12.252 170.48 13.34 169.584 15.148 169.44L17.708 169.232V168.976C17.708 167.456 16.796 166.976 15.66 166.976C14.316 166.976 13.516 167.584 13.516 168.624H12.508C12.508 167.056 13.788 166.048 15.692 166.048C17.484 166.048 18.796 166.944 18.796 168.992V174H17.868L17.724 172.64C17.244 173.616 16.188 174.192 14.876 174.192ZM15.132 173.296C16.764 173.296 17.708 172.16 17.708 170.48V170.064L15.42 170.24C13.964 170.368 13.372 171.008 13.372 171.872C13.372 172.816 14.076 173.296 15.132 173.296ZM25.0594 166.16V167.152H24.4514C23.0274 167.152 22.1154 168.112 22.1154 169.584V174H21.0114V166.256H22.0514L22.1314 167.456C22.4354 166.624 23.2514 166.08 24.3394 166.08C24.5794 166.08 24.7874 166.096 25.0594 166.16ZM29.4781 174.192C27.2061 174.192 25.6861 172.56 25.6861 170.128C25.6861 167.712 27.1901 166.048 29.3981 166.048C31.4941 166.048 32.9181 167.536 32.9181 169.728V170.272H26.7581C26.8381 172.16 27.8301 173.248 29.4941 173.248C30.7581 173.248 31.5741 172.704 31.8621 171.68H32.9181C32.5021 173.312 31.3021 174.192 29.4781 174.192ZM29.3981 166.992C27.9421 166.992 26.9821 167.952 26.7901 169.472H31.8141C31.8141 167.984 30.8541 166.992 29.3981 166.992ZM37.9313 174.192C35.6593 174.192 34.1393 172.56 34.1393 170.128C34.1393 167.712 35.6432 166.048 37.8513 166.048C39.9473 166.048 41.3713 167.536 41.3713 169.728V170.272H35.2113C35.2913 172.16 36.2833 173.248 37.9473 173.248C39.2113 173.248 40.0273 172.704 40.3153 171.68H41.3713C40.9553 173.312 39.7553 174.192 37.9313 174.192ZM37.8513 166.992C36.3953 166.992 35.4353 167.952 35.2433 169.472H40.2673C40.2673 167.984 39.3073 166.992 37.8513 166.992ZM47.1844 166.16V167.152H46.5764C45.1524 167.152 44.2404 168.112 44.2404 169.584V174H43.1364V166.256H44.1764L44.2564 167.456C44.5604 166.624 45.3764 166.08 46.4644 166.08C46.7044 166.08 46.9124 166.096 47.1844 166.16Z" fill="black" fill-opacity="0.6"/>
</svg>
