<svg width="349" height="108" viewBox="0 0 349 108" fill="none" xmlns="http://www.w3.org/2000/svg">
<rect width="349" height="48" rx="24" fill="white"/>
<path d="M37 16.125H19C18.7016 16.125 18.4155 16.2435 18.2045 16.4545C17.9935 16.6655 17.875 16.9516 17.875 17.25V30C17.875 30.4973 18.0725 30.9742 18.4242 31.3258C18.7758 31.6775 19.2527 31.875 19.75 31.875H36.25C36.7473 31.875 37.2242 31.6775 37.5758 31.3258C37.9275 30.9742 38.125 30.4973 38.125 30V17.25C38.125 16.9516 38.0065 16.6655 37.7955 16.4545C37.5845 16.2435 37.2984 16.125 37 16.125ZM28 23.9738L21.8922 18.375H34.1078L28 23.9738ZM24.6991 24L20.125 28.1925V19.8075L24.6991 24ZM26.3641 25.5262L27.2397 26.3297C27.4472 26.52 27.7185 26.6255 28 26.6255C28.2815 26.6255 28.5528 26.52 28.7603 26.3297L29.6359 25.5262L34.1078 29.625H21.8922L26.3641 25.5262ZM31.3009 24L35.875 19.8075V28.1925L31.3009 24Z" fill="black" fill-opacity="0.4"/>
<path d="M60.256 29H53.392V17.544H60.24V18.6H54.544V22.728H59.712V23.768H54.544V27.944H60.256V29ZM63.4591 29H62.3551V21.256H63.3151L63.4751 22.6C63.9871 21.608 65.0111 21.048 66.1311 21.048C68.2591 21.048 69.1391 22.312 69.1391 24.264V29H68.0351V24.504C68.0351 22.696 67.2191 22.056 65.9391 22.056C64.3551 22.056 63.4591 23.208 63.4591 24.952V29ZM73.1155 29H72.0275V22.184H70.4755V21.256H72.0275V18.808H73.1155V21.256H74.6675V22.184H73.1155V29ZM79.275 29.192C77.003 29.192 75.483 27.56 75.483 25.128C75.483 22.712 76.987 21.048 79.195 21.048C81.291 21.048 82.715 22.536 82.715 24.728V25.272H76.555C76.635 27.16 77.627 28.248 79.291 28.248C80.555 28.248 81.371 27.704 81.659 26.68H82.715C82.299 28.312 81.099 29.192 79.275 29.192ZM79.195 21.992C77.739 21.992 76.779 22.952 76.587 24.472H81.611C81.611 22.984 80.651 21.992 79.195 21.992ZM88.5281 21.16V22.152H87.9201C86.4961 22.152 85.5841 23.112 85.5841 24.584V29H84.4801V21.256H85.5201L85.6001 22.456C85.9041 21.624 86.7201 21.08 87.8081 21.08C88.0481 21.08 88.2561 21.096 88.5281 21.16ZM93.6493 32.376V31.464H94.4973C95.1693 31.464 95.8413 31.416 96.2253 30.376L96.5613 29.464L93.4253 21.256H94.5933L97.0893 28.008L99.5373 21.256H100.673L97.1213 30.776C96.6733 31.992 95.9213 32.488 94.8173 32.488C94.3533 32.488 94.0013 32.456 93.6493 32.376ZM101.155 25.128C101.155 22.76 102.819 21.048 105.091 21.048C107.363 21.048 109.027 22.76 109.027 25.128C109.027 27.48 107.363 29.192 105.091 29.192C102.819 29.192 101.155 27.48 101.155 25.128ZM102.275 25.112C102.275 26.936 103.427 28.2 105.091 28.2C106.739 28.2 107.907 26.936 107.907 25.112C107.907 23.32 106.739 22.04 105.091 22.04C103.427 22.04 102.275 23.32 102.275 25.112ZM116.045 21.256H117.149V29H116.189L116.045 27.688C115.613 28.584 114.541 29.192 113.325 29.192C111.501 29.192 110.509 27.944 110.509 26.056V21.24H111.629V25.704C111.629 27.544 112.445 28.2 113.677 28.2C115.165 28.2 116.045 27.208 116.045 25.368V21.256ZM123.497 21.16V22.152H122.889C121.465 22.152 120.553 23.112 120.553 24.584V29H119.449V21.256H120.489L120.569 22.456C120.873 21.624 121.689 21.08 122.777 21.08C123.017 21.08 123.225 21.096 123.497 21.16ZM132.65 29.192C130.378 29.192 128.858 27.56 128.858 25.128C128.858 22.712 130.362 21.048 132.57 21.048C134.666 21.048 136.09 22.536 136.09 24.728V25.272H129.93C130.01 27.16 131.002 28.248 132.666 28.248C133.93 28.248 134.746 27.704 135.034 26.68H136.09C135.674 28.312 134.474 29.192 132.65 29.192ZM132.57 21.992C131.114 21.992 130.154 22.952 129.962 24.472H134.986C134.986 22.984 134.026 21.992 132.57 21.992ZM138.959 29H137.855V21.256H138.815L138.943 22.36C139.327 21.544 140.191 21.048 141.279 21.048C142.495 21.048 143.407 21.688 143.775 22.696C144.127 21.688 145.071 21.048 146.319 21.048C147.999 21.048 149.103 22.136 149.103 23.928V29H148.031V24.152C148.031 22.824 147.295 22.04 146.111 22.04C144.815 22.04 144.047 23.016 144.047 24.216V29H142.959V24.136C142.959 22.824 142.207 22.056 141.039 22.056C139.743 22.056 138.959 23.016 138.959 24.2V29ZM153.548 29.192C151.9 29.192 150.924 28.264 150.924 26.904C150.924 25.48 152.012 24.584 153.82 24.44L156.38 24.232V23.976C156.38 22.456 155.468 21.976 154.332 21.976C152.988 21.976 152.188 22.584 152.188 23.624H151.18C151.18 22.056 152.46 21.048 154.364 21.048C156.156 21.048 157.468 21.944 157.468 23.992V29H156.54L156.396 27.64C155.916 28.616 154.86 29.192 153.548 29.192ZM153.804 28.296C155.436 28.296 156.38 27.16 156.38 25.48V25.064L154.092 25.24C152.636 25.368 152.044 26.008 152.044 26.872C152.044 27.816 152.748 28.296 153.804 28.296ZM160.227 19.128C159.779 19.128 159.411 18.76 159.411 18.312C159.411 17.864 159.779 17.48 160.227 17.48C160.675 17.48 161.059 17.864 161.059 18.312C161.059 18.76 160.675 19.128 160.227 19.128ZM159.683 29V21.256H160.787V29H159.683ZM164.242 29H163.138V17.336H164.242V29ZM173.251 29.192C171.603 29.192 170.627 28.264 170.627 26.904C170.627 25.48 171.715 24.584 173.523 24.44L176.083 24.232V23.976C176.083 22.456 175.171 21.976 174.035 21.976C172.691 21.976 171.891 22.584 171.891 23.624H170.883C170.883 22.056 172.163 21.048 174.067 21.048C175.859 21.048 177.171 21.944 177.171 23.992V29H176.243L176.099 27.64C175.619 28.616 174.563 29.192 173.251 29.192ZM173.507 28.296C175.139 28.296 176.083 27.16 176.083 25.48V25.064L173.795 25.24C172.339 25.368 171.747 26.008 171.747 26.872C171.747 27.816 172.451 28.296 173.507 28.296ZM182.426 29.192C180.17 29.192 178.842 27.464 178.842 25.144C178.842 22.808 180.17 21.048 182.474 21.048C183.754 21.048 184.778 21.608 185.322 22.728V17.336H186.426V29H185.466L185.354 27.416C184.81 28.616 183.722 29.192 182.426 29.192ZM182.618 28.184C184.314 28.184 185.306 26.904 185.306 25.112C185.306 23.336 184.314 22.04 182.618 22.04C180.938 22.04 179.962 23.336 179.962 25.112C179.962 26.904 180.938 28.184 182.618 28.184ZM191.77 29.192C189.514 29.192 188.186 27.464 188.186 25.144C188.186 22.808 189.514 21.048 191.818 21.048C193.098 21.048 194.122 21.608 194.666 22.728V17.336H195.77V29H194.81L194.698 27.416C194.154 28.616 193.066 29.192 191.77 29.192ZM191.962 28.184C193.658 28.184 194.65 26.904 194.65 25.112C194.65 23.336 193.658 22.04 191.962 22.04C190.282 22.04 189.306 23.336 189.306 25.112C189.306 26.904 190.282 28.184 191.962 28.184ZM202.122 21.16V22.152H201.514C200.09 22.152 199.178 23.112 199.178 24.584V29H198.074V21.256H199.114L199.194 22.456C199.498 21.624 200.314 21.08 201.402 21.08C201.642 21.08 201.85 21.096 202.122 21.16ZM206.541 29.192C204.269 29.192 202.749 27.56 202.749 25.128C202.749 22.712 204.253 21.048 206.461 21.048C208.557 21.048 209.981 22.536 209.981 24.728V25.272H203.821C203.901 27.16 204.893 28.248 206.557 28.248C207.821 28.248 208.637 27.704 208.925 26.68H209.981C209.565 28.312 208.365 29.192 206.541 29.192ZM206.461 21.992C205.005 21.992 204.045 22.952 203.853 24.472H208.877C208.877 22.984 207.917 21.992 206.461 21.992ZM211.09 26.824H212.146C212.146 27.72 212.818 28.28 213.906 28.28C215.106 28.28 215.81 27.768 215.81 26.936C215.81 26.296 215.49 25.928 214.578 25.704L213.25 25.368C211.906 25.032 211.25 24.328 211.25 23.272C211.25 21.912 212.386 21.048 214.05 21.048C215.682 21.048 216.738 21.944 216.786 23.384H215.714C215.682 22.488 215.058 21.96 214.018 21.96C212.93 21.96 212.322 22.424 212.322 23.256C212.322 23.848 212.738 24.264 213.586 24.472L214.914 24.808C216.258 25.144 216.866 25.768 216.866 26.888C216.866 28.28 215.682 29.192 213.922 29.192C212.178 29.192 211.09 28.264 211.09 26.824ZM218.027 26.824H219.083C219.083 27.72 219.755 28.28 220.843 28.28C222.043 28.28 222.747 27.768 222.747 26.936C222.747 26.296 222.427 25.928 221.515 25.704L220.187 25.368C218.843 25.032 218.187 24.328 218.187 23.272C218.187 21.912 219.323 21.048 220.987 21.048C222.619 21.048 223.675 21.944 223.723 23.384H222.651C222.619 22.488 221.995 21.96 220.955 21.96C219.867 21.96 219.259 22.424 219.259 23.256C219.259 23.848 219.675 24.264 220.523 24.472L221.851 24.808C223.195 25.144 223.803 25.768 223.803 26.888C223.803 28.28 222.619 29.192 220.859 29.192C219.115 29.192 218.027 28.264 218.027 26.824Z" fill="black" fill-opacity="0.4"/>
<rect y="62" width="349" height="46" rx="23" fill="white"/>
<path d="M89.172 82.552C89.172 80.568 90.772 79.224 93.156 79.224C95.364 79.224 96.788 80.456 96.916 82.456H95.332C95.252 81.304 94.436 80.632 93.14 80.632C91.684 80.632 90.74 81.368 90.74 82.504C90.74 83.432 91.268 83.992 92.356 84.248L94.26 84.696C96.148 85.128 97.108 86.152 97.108 87.784C97.108 89.864 95.492 91.192 93.028 91.192C90.676 91.192 89.108 89.96 89.012 87.976H90.612C90.644 89.08 91.572 89.784 93.028 89.784C94.564 89.784 95.54 89.064 95.54 87.912C95.54 87 95.044 86.424 93.94 86.168L92.036 85.736C90.148 85.304 89.172 84.216 89.172 82.552ZM104.23 83.176H105.718V91H104.374L104.214 89.816C103.766 90.632 102.726 91.192 101.574 91.192C99.7504 91.192 98.7264 89.96 98.7264 88.04V83.176H100.23V87.544C100.23 89.224 100.95 89.864 102.102 89.864C103.478 89.864 104.23 88.984 104.23 87.304V83.176ZM109.261 91H107.901V79.224H109.405V84.52C109.917 83.496 110.973 82.952 112.253 82.952C114.493 82.952 115.837 84.712 115.837 87.128C115.837 89.496 114.429 91.192 112.157 91.192C110.924 91.192 109.885 90.648 109.373 89.576L109.261 91ZM109.421 87.064C109.421 88.696 110.349 89.832 111.885 89.832C113.421 89.832 114.333 88.68 114.333 87.064C114.333 85.464 113.421 84.312 111.885 84.312C110.349 84.312 109.421 85.464 109.421 87.064ZM116.854 88.728H118.294C118.294 89.528 118.902 90.008 119.894 90.008C120.95 90.008 121.558 89.576 121.558 88.856C121.558 88.328 121.302 88.008 120.486 87.8L119.11 87.48C117.718 87.144 117.062 86.456 117.062 85.304C117.062 83.864 118.278 82.952 120.006 82.952C121.718 82.952 122.838 83.912 122.87 85.4H121.43C121.398 84.616 120.87 84.12 119.958 84.12C119.014 84.12 118.486 84.536 118.486 85.256C118.486 85.784 118.87 86.136 119.638 86.328L121.014 86.664C122.342 86.984 122.998 87.592 122.998 88.76C122.998 90.248 121.718 91.192 119.862 91.192C118.022 91.192 116.854 90.216 116.854 88.728ZM124.154 87.096C124.154 84.648 125.706 82.952 127.994 82.952C129.962 82.952 131.338 84.072 131.61 85.816H130.106C129.85 84.824 129.05 84.296 128.042 84.296C126.618 84.296 125.642 85.384 125.642 87.08C125.642 88.76 126.554 89.848 127.978 89.848C129.05 89.848 129.85 89.288 130.122 88.36H131.626C131.322 90.056 129.866 91.192 127.978 91.192C125.674 91.192 124.154 89.56 124.154 87.096ZM137.693 83.112V84.488H137.021C135.597 84.488 134.717 85.352 134.717 86.856V91H133.213V83.192H134.621L134.717 84.376C135.037 83.56 135.821 83.016 136.893 83.016C137.165 83.016 137.389 83.048 137.693 83.112ZM139.84 81.32C139.296 81.32 138.848 80.872 138.848 80.328C138.848 79.768 139.296 79.336 139.84 79.336C140.384 79.336 140.832 79.768 140.832 80.328C140.832 80.872 140.384 81.32 139.84 81.32ZM139.104 91V83.176H140.608V91H139.104ZM144.151 91H142.791V79.224H144.295V84.52C144.807 83.496 145.863 82.952 147.143 82.952C149.383 82.952 150.727 84.712 150.727 87.128C150.727 89.496 149.319 91.192 147.047 91.192C145.815 91.192 144.775 90.648 144.263 89.576L144.151 91ZM144.311 87.064C144.311 88.696 145.239 89.832 146.775 89.832C148.311 89.832 149.223 88.68 149.223 87.064C149.223 85.464 148.311 84.312 146.775 84.312C145.239 84.312 144.311 85.464 144.311 87.064ZM155.761 91.192C153.457 91.192 151.873 89.528 151.873 87.096C151.873 84.648 153.425 82.952 155.697 82.952C157.921 82.952 159.377 84.488 159.377 86.808V87.368L153.329 87.384C153.441 89.032 154.305 89.944 155.793 89.944C156.961 89.944 157.729 89.464 157.985 88.568H159.393C159.009 90.248 157.697 91.192 155.761 91.192ZM155.697 84.216C154.385 84.216 153.553 85 153.361 86.376H157.873C157.873 85.08 157.025 84.216 155.697 84.216ZM167.64 91H166.136V84.44H164.6V83.176H166.136V80.728H167.64V83.176H169.176V84.44H167.64V91ZM169.935 87.08C169.935 84.664 171.663 82.968 174.015 82.968C176.351 82.968 178.079 84.664 178.079 87.08C178.079 89.496 176.351 91.192 174.015 91.192C171.663 91.192 169.935 89.496 169.935 87.08ZM171.455 87.08C171.455 88.712 172.495 89.848 174.015 89.848C175.519 89.848 176.575 88.712 176.575 87.08C176.575 85.448 175.519 84.312 174.015 84.312C172.495 84.312 171.455 85.448 171.455 87.08ZM185.943 91H184.375V79.432H185.943L191.863 88.376V79.432H193.431V91H191.863L185.943 82.056V91ZM199.245 91.192C196.941 91.192 195.357 89.528 195.357 87.096C195.357 84.648 196.909 82.952 199.181 82.952C201.405 82.952 202.861 84.488 202.861 86.808V87.368L196.813 87.384C196.925 89.032 197.789 89.944 199.277 89.944C200.445 89.944 201.213 89.464 201.469 88.568H202.877C202.493 90.248 201.181 91.192 199.245 91.192ZM199.181 84.216C197.869 84.216 197.037 85 196.845 86.376H201.357C201.357 85.08 200.509 84.216 199.181 84.216ZM205.956 91L203.396 83.176H204.948L206.244 87.24C206.42 87.816 206.58 88.408 206.724 89.096C206.852 88.408 207.06 87.752 207.236 87.24L208.548 83.176H210.084L211.38 87.24C211.508 87.624 211.764 88.536 211.892 89.096C212.02 88.472 212.164 87.928 212.388 87.24L213.7 83.176H215.268L212.595 91H211.172L209.812 86.808C209.556 86.024 209.396 85.416 209.316 84.984C209.236 85.368 209.092 85.88 208.804 86.824L207.444 91H205.956ZM215.807 88.728H217.247C217.247 89.528 217.855 90.008 218.847 90.008C219.903 90.008 220.511 89.576 220.511 88.856C220.511 88.328 220.255 88.008 219.439 87.8L218.063 87.48C216.671 87.144 216.015 86.456 216.015 85.304C216.015 83.864 217.231 82.952 218.959 82.952C220.671 82.952 221.791 83.912 221.823 85.4H220.383C220.351 84.616 219.823 84.12 218.911 84.12C217.967 84.12 217.439 84.536 217.439 85.256C217.439 85.784 217.823 86.136 218.591 86.328L219.967 86.664C221.295 86.984 221.951 87.592 221.951 88.76C221.951 90.248 220.671 91.192 218.815 91.192C216.975 91.192 215.807 90.216 215.807 88.728ZM225.155 91H223.651V79.224H225.155V91ZM230.745 91.192C228.441 91.192 226.857 89.528 226.857 87.096C226.857 84.648 228.409 82.952 230.681 82.952C232.905 82.952 234.361 84.488 234.361 86.808V87.368L228.313 87.384C228.425 89.032 229.289 89.944 230.777 89.944C231.945 89.944 232.713 89.464 232.969 88.568H234.377C233.993 90.248 232.681 91.192 230.745 91.192ZM230.681 84.216C229.369 84.216 228.537 85 228.345 86.376H232.857C232.857 85.08 232.009 84.216 230.681 84.216ZM238.171 91H236.667V84.44H235.131V83.176H236.667V80.728H238.171V83.176H239.707V84.44H238.171V91ZM243.405 91H241.901V84.44H240.365V83.176H241.901V80.728H243.405V83.176H244.941V84.44H243.405V91ZM249.589 91.192C247.285 91.192 245.701 89.528 245.701 87.096C245.701 84.648 247.253 82.952 249.525 82.952C251.749 82.952 253.205 84.488 253.205 86.808V87.368L247.157 87.384C247.269 89.032 248.133 89.944 249.621 89.944C250.789 89.944 251.557 89.464 251.813 88.568H253.221C252.837 90.248 251.525 91.192 249.589 91.192ZM249.525 84.216C248.213 84.216 247.381 85 247.189 86.376H251.701C251.701 85.08 250.853 84.216 249.525 84.216ZM259.365 83.112V84.488H258.693C257.269 84.488 256.389 85.352 256.389 86.856V91H254.885V83.192H256.293L256.389 84.376C256.709 83.56 257.493 83.016 258.565 83.016C258.837 83.016 259.061 83.048 259.365 83.112Z" fill="black"/>
</svg>
