<svg width="268" height="14" viewBox="0 0 268 14" fill="none" xmlns="http://www.w3.org/2000/svg">
<path d="M0.126002 2.80021C0.126002 1.12021 1.47 0.0142144 3.486 0.0142144C5.292 0.0142144 6.482 1.02221 6.636 2.70221H5.614C5.502 1.56821 4.732 0.924214 3.472 0.924214C2.058 0.924214 1.134 1.65221 1.134 2.78621C1.134 3.66821 1.652 4.22821 2.702 4.49421L4.424 4.91421C5.992 5.29221 6.804 6.18821 6.804 7.54621C6.804 9.28221 5.46 10.3882 3.388 10.3882C1.442 10.3882 0.126002 9.36621 2.13832e-06 7.72821H1.036C1.092 8.77821 2.016 9.46421 3.388 9.46421C4.858 9.46421 5.796 8.75021 5.796 7.60221C5.796 6.70621 5.292 6.11821 4.214 5.86621L2.52 5.44621C0.952002 5.06821 0.126002 4.17221 0.126002 2.80021ZM9.37267 10.2062H8.40667V0.0142144H9.37267V4.62021C9.80667 3.80821 10.6327 3.26221 11.7667 3.26221C13.5447 3.26221 14.3427 4.36821 14.3427 6.07621V10.2202H13.3767V6.28621C13.3767 4.70421 12.6347 4.14421 11.5847 4.14421C10.1287 4.14421 9.37267 5.22221 9.37267 6.52421V10.2062ZM15.792 6.83221C15.792 4.76021 17.248 3.26221 19.236 3.26221C21.224 3.26221 22.68 4.76021 22.68 6.83221C22.68 8.89021 21.224 10.3882 19.236 10.3882C17.248 10.3882 15.792 8.89021 15.792 6.83221ZM16.772 6.81821C16.772 8.41421 17.78 9.52021 19.236 9.52021C20.678 9.52021 21.7 8.41421 21.7 6.81821C21.7 5.25021 20.678 4.13021 19.236 4.13021C17.78 4.13021 16.772 5.25021 16.772 6.81821ZM24.225 13.1742V3.44421H25.065L25.163 4.81621C25.639 3.76621 26.591 3.26221 27.725 3.26221C29.685 3.26221 30.861 4.76021 30.861 6.80421C30.861 8.84821 29.727 10.3882 27.725 10.3882C26.577 10.3882 25.667 9.89821 25.191 8.91821V13.1742H24.225ZM25.205 6.83221C25.205 8.38621 26.073 9.52021 27.557 9.52021C29.027 9.52021 29.881 8.38621 29.881 6.83221C29.881 5.26421 29.027 4.14421 27.557 4.14421C26.073 4.14421 25.205 5.26421 25.205 6.83221ZM32.803 10.3742C32.327 10.3742 31.921 9.98221 31.921 9.52021C31.921 9.04421 32.327 8.63821 32.803 8.63821C33.279 8.63821 33.685 9.04421 33.685 9.52021C33.685 9.98221 33.279 10.3742 32.803 10.3742ZM34.7412 6.84621C34.7412 4.71821 36.0432 3.26221 38.0172 3.26221C39.5852 3.26221 40.7332 4.17221 40.9992 5.57221H40.0332C39.7812 4.63421 38.9692 4.11621 38.0312 4.11621C36.6592 4.11621 35.6932 5.16621 35.6932 6.83221C35.6932 8.44221 36.5892 9.52021 37.9612 9.52021C38.9692 9.52021 39.7812 8.96021 40.0472 8.09221H41.0272C40.7052 9.47821 39.5012 10.3882 37.9612 10.3882C36.0432 10.3882 34.7412 8.97421 34.7412 6.84621ZM42.0147 6.83221C42.0147 4.76021 43.4707 3.26221 45.4587 3.26221C47.4467 3.26221 48.9027 4.76021 48.9027 6.83221C48.9027 8.89021 47.4467 10.3882 45.4587 10.3882C43.4707 10.3882 42.0147 8.89021 42.0147 6.83221ZM42.9947 6.81821C42.9947 8.41421 44.0027 9.52021 45.4587 9.52021C46.9007 9.52021 47.9227 8.41421 47.9227 6.81821C47.9227 5.25021 46.9007 4.13021 45.4587 4.13021C44.0027 4.13021 42.9947 5.25021 42.9947 6.81821ZM59.0345 10.4162C56.1225 10.4162 53.8825 8.14821 53.8825 5.20821C53.8825 2.28221 56.1365 0.0142144 59.0345 0.0142144C61.9465 0.0142144 64.2005 2.28221 64.2005 5.20821C64.2005 8.14821 61.9605 10.4162 59.0345 10.4162ZM59.0345 9.73021C61.5685 9.73021 63.4585 7.78421 63.4585 5.20821C63.4585 2.63221 61.5545 0.700215 59.0345 0.700215C56.5285 0.700215 54.6245 2.64621 54.6245 5.20821C54.6245 7.78421 56.5145 9.73021 59.0345 9.73021ZM56.4725 5.23621C56.4725 3.55621 57.5645 2.39421 59.1465 2.39421C60.3645 2.39421 61.2745 3.10821 61.4985 4.21421H60.6445C60.4485 3.51421 59.9305 3.15021 59.1605 3.15021C58.0545 3.15021 57.2985 4.00421 57.2985 5.22221C57.2985 6.45421 58.0265 7.28021 59.0905 7.28021C59.8885 7.28021 60.4485 6.90221 60.6725 6.23021H61.5125C61.2605 7.32221 60.2945 8.03621 59.0905 8.03621C57.5505 8.03621 56.4725 6.88821 56.4725 5.23621ZM75.8867 10.2202H69.2787V9.42221L72.4847 6.62221C74.3327 5.01221 74.8087 4.31221 74.8087 3.12221C74.8087 1.76421 73.9967 0.938214 72.6667 0.938214C71.2807 0.938214 70.3707 1.94621 70.3287 3.50021H69.3207C69.3767 1.40021 70.7067 0.0142144 72.6807 0.0142144C74.5707 0.0142144 75.8307 1.23221 75.8307 3.06621C75.8307 4.52221 75.1727 5.48821 73.1707 7.23821L70.8327 9.28221H75.8867V10.2202ZM77.28 5.20821C77.28 2.10021 78.806 0.000214577 81.298 0.000214577C83.776 0.000214577 85.302 2.10021 85.302 5.20821C85.302 8.33021 83.804 10.4022 81.298 10.4022C78.778 10.4022 77.28 8.33021 77.28 5.20821ZM78.274 5.20821C78.274 7.81221 79.38 9.49221 81.298 9.49221C83.216 9.49221 84.322 7.81221 84.322 5.20821C84.322 2.59021 83.216 0.924214 81.298 0.924214C79.38 0.924214 78.274 2.59021 78.274 5.20821ZM86.8366 5.20821C86.8366 2.10021 88.3626 0.000214577 90.8546 0.000214577C93.3326 0.000214577 94.8586 2.10021 94.8586 5.20821C94.8586 8.33021 93.3606 10.4022 90.8546 10.4022C88.3346 10.4022 86.8366 8.33021 86.8366 5.20821ZM87.8306 5.20821C87.8306 7.81221 88.9366 9.49221 90.8546 9.49221C92.7726 9.49221 93.8786 7.81221 93.8786 5.20821C93.8786 2.59021 92.7726 0.924214 90.8546 0.924214C88.9366 0.924214 87.8306 2.59021 87.8306 5.20821ZM96.3933 5.20821C96.3933 2.10021 97.9193 0.000214577 100.411 0.000214577C102.889 0.000214577 104.415 2.10021 104.415 5.20821C104.415 8.33021 102.917 10.4022 100.411 10.4022C97.8913 10.4022 96.3933 8.33021 96.3933 5.20821ZM97.3873 5.20821C97.3873 7.81221 98.4933 9.49221 100.411 9.49221C102.329 9.49221 103.435 7.81221 103.435 5.20821C103.435 2.59021 102.329 0.924214 100.411 0.924214C98.4933 0.924214 97.3873 2.59021 97.3873 5.20821ZM106.076 6.97221V6.10421H110.136V6.97221H106.076ZM117.518 10.2202H110.91V9.42221L114.116 6.62221C115.964 5.01221 116.44 4.31221 116.44 3.12221C116.44 1.76421 115.628 0.938214 114.298 0.938214C112.912 0.938214 112.002 1.94621 111.96 3.50021H110.952C111.008 1.40021 112.338 0.0142144 114.312 0.0142144C116.202 0.0142144 117.462 1.23221 117.462 3.06621C117.462 4.52221 116.804 5.48821 114.802 7.23821L112.464 9.28221H117.518V10.2202ZM118.911 5.20821C118.911 2.10021 120.437 0.000214577 122.929 0.000214577C125.407 0.000214577 126.933 2.10021 126.933 5.20821C126.933 8.33021 125.435 10.4022 122.929 10.4022C120.409 10.4022 118.911 8.33021 118.911 5.20821ZM119.905 5.20821C119.905 7.81221 121.011 9.49221 122.929 9.49221C124.847 9.49221 125.953 7.81221 125.953 5.20821C125.953 2.59021 124.847 0.924214 122.929 0.924214C121.011 0.924214 119.905 2.59021 119.905 5.20821ZM134.936 10.2202H128.328V9.42221L131.534 6.62221C133.382 5.01221 133.858 4.31221 133.858 3.12221C133.858 1.76421 133.046 0.938214 131.716 0.938214C130.33 0.938214 129.42 1.94621 129.378 3.50021H128.37C128.426 1.40021 129.756 0.0142144 131.73 0.0142144C133.62 0.0142144 134.88 1.23221 134.88 3.06621C134.88 4.52221 134.222 5.48821 132.22 7.23821L129.882 9.28221H134.936V10.2202ZM139.128 4.84421H138.33V4.14421L141.424 1.09221H136.622V0.196215H142.698V1.00821L139.702 3.99021C141.578 4.08821 142.922 5.27821 142.922 7.09821C142.922 9.08621 141.466 10.3882 139.436 10.3882C137.462 10.3882 136.132 9.17021 136.132 7.16821H137.126C137.126 8.61021 138.022 9.47821 139.436 9.47821C140.934 9.47821 141.9 8.52621 141.9 7.07021C141.9 5.69821 140.92 4.84421 139.128 4.84421ZM145.917 9.74421C145.917 10.6122 145.245 11.3682 144.377 11.4942V10.9762C144.881 10.8922 145.245 10.5282 145.245 10.1362C145.161 10.1922 145.049 10.2342 144.881 10.2342C144.489 10.2342 144.153 9.95421 144.153 9.47821C144.153 8.98821 144.489 8.63821 144.979 8.63821C145.483 8.63821 145.917 9.04421 145.917 9.74421ZM151.966 10.2202H150.944L154.626 0.196215H155.872L159.596 10.2202H158.546L157.566 7.56021H152.946L151.966 10.2202ZM155.116 1.61021L153.254 6.67821H157.244L155.368 1.61021C155.326 1.47021 155.256 1.30221 155.242 1.20421C155.228 1.28821 155.172 1.47021 155.116 1.61021ZM161.788 10.2202H160.822V0.0142144H161.788V10.2202ZM164.85 10.2202H163.884V0.0142144H164.85V10.2202ZM172.006 10.2202H170.998V0.196215H174.736C176.766 0.196215 177.998 1.31621 177.998 3.09421C177.998 4.53621 177.242 5.54421 175.954 5.89421L178.096 10.2202H176.976L174.932 6.06221H172.006V10.2202ZM172.006 1.10621V5.15221H174.764C176.15 5.15221 176.962 4.39621 176.962 3.12221C176.962 1.82021 176.108 1.10621 174.736 1.10621H172.006ZM180.219 1.58221C179.827 1.58221 179.505 1.26021 179.505 0.868214C179.505 0.476214 179.827 0.140214 180.219 0.140214C180.611 0.140214 180.947 0.476214 180.947 0.868214C180.947 1.26021 180.611 1.58221 180.219 1.58221ZM179.743 10.2202V3.44421H180.709V10.2202H179.743ZM182.261 6.63621C182.261 4.78821 183.451 3.26221 185.439 3.26221C186.615 3.26221 187.511 3.80821 187.945 4.80221L188.043 3.44421H188.883V10.0102C188.883 12.0262 187.595 13.3422 185.607 13.3422C183.871 13.3422 182.653 12.3622 182.387 10.7242H183.353C183.563 11.8162 184.403 12.4602 185.621 12.4602C187.007 12.4602 187.931 11.5222 187.931 10.1082V8.49821C187.469 9.45021 186.531 10.0102 185.369 10.0102C183.437 10.0102 182.261 8.48421 182.261 6.63621ZM183.227 6.62221C183.227 8.00821 184.081 9.14221 185.509 9.14221C186.979 9.14221 187.847 8.07821 187.847 6.62221C187.847 5.18021 187.007 4.11621 185.523 4.11621C184.067 4.11621 183.227 5.25021 183.227 6.62221ZM191.865 10.2062H190.899V0.0142144H191.865V4.62021C192.299 3.80821 193.125 3.26221 194.259 3.26221C196.037 3.26221 196.835 4.36821 196.835 6.07621V10.2202H195.869V6.28621C195.869 4.70421 195.127 4.14421 194.077 4.14421C192.621 4.14421 191.865 5.22221 191.865 6.52421V10.2062ZM200.314 10.2202H199.362V4.25621H198.004V3.44421H199.362V1.30221H200.314V3.44421H201.672V4.25621H200.314V10.2202ZM202.356 8.31621H203.28C203.28 9.10021 203.868 9.59021 204.82 9.59021C205.87 9.59021 206.486 9.14221 206.486 8.41421C206.486 7.85421 206.206 7.53221 205.408 7.33621L204.246 7.04221C203.07 6.74821 202.496 6.13221 202.496 5.20821C202.496 4.01821 203.49 3.26221 204.946 3.26221C206.374 3.26221 207.298 4.04621 207.34 5.30621H206.402C206.374 4.52221 205.828 4.06021 204.918 4.06021C203.966 4.06021 203.434 4.46621 203.434 5.19421C203.434 5.71221 203.798 6.07621 204.54 6.25821L205.702 6.55221C206.878 6.84621 207.41 7.39221 207.41 8.37221C207.41 9.59021 206.374 10.3882 204.834 10.3882C203.308 10.3882 202.356 9.57621 202.356 8.31621ZM214.101 10.2202H213.093V0.196215H216.831C218.861 0.196215 220.093 1.31621 220.093 3.09421C220.093 4.53621 219.337 5.54421 218.049 5.89421L220.191 10.2202H219.071L217.027 6.06221H214.101V10.2202ZM214.101 1.10621V5.15221H216.859C218.245 5.15221 219.057 4.39621 219.057 3.12221C219.057 1.82021 218.203 1.10621 216.831 1.10621H214.101ZM224.188 10.3882C222.2 10.3882 220.87 8.96021 220.87 6.83221C220.87 4.71821 222.186 3.26221 224.118 3.26221C225.952 3.26221 227.198 4.56421 227.198 6.48221V6.95821H221.808C221.878 8.61021 222.746 9.56221 224.202 9.56221C225.308 9.56221 226.022 9.08621 226.274 8.19021H227.198C226.834 9.61821 225.784 10.3882 224.188 10.3882ZM224.118 4.08821C222.844 4.08821 222.004 4.92821 221.836 6.25821H226.232C226.232 4.95621 225.392 4.08821 224.118 4.08821ZM228.169 8.31621H229.093C229.093 9.10021 229.681 9.59021 230.633 9.59021C231.683 9.59021 232.299 9.14221 232.299 8.41421C232.299 7.85421 232.019 7.53221 231.221 7.33621L230.059 7.04221C228.883 6.74821 228.309 6.13221 228.309 5.20821C228.309 4.01821 229.303 3.26221 230.759 3.26221C232.187 3.26221 233.111 4.04621 233.153 5.30621H232.215C232.187 4.52221 231.641 4.06021 230.731 4.06021C229.779 4.06021 229.247 4.46621 229.247 5.19421C229.247 5.71221 229.611 6.07621 230.353 6.25821L231.515 6.55221C232.691 6.84621 233.223 7.39221 233.223 8.37221C233.223 9.59021 232.187 10.3882 230.647 10.3882C229.121 10.3882 228.169 9.57621 228.169 8.31621ZM237.655 10.3882C235.667 10.3882 234.337 8.96021 234.337 6.83221C234.337 4.71821 235.653 3.26221 237.585 3.26221C239.419 3.26221 240.665 4.56421 240.665 6.48221V6.95821H235.275C235.345 8.61021 236.213 9.56221 237.669 9.56221C238.775 9.56221 239.489 9.08621 239.741 8.19021H240.665C240.301 9.61821 239.251 10.3882 237.655 10.3882ZM237.585 4.08821C236.311 4.08821 235.471 4.92821 235.303 6.25821H239.699C239.699 4.95621 238.859 4.08821 237.585 4.08821ZM245.751 3.36021V4.22821H245.219C243.973 4.22821 243.175 5.06821 243.175 6.35621V10.2202H242.209V3.44421H243.119L243.189 4.49421C243.455 3.76621 244.169 3.29021 245.121 3.29021C245.331 3.29021 245.513 3.30421 245.751 3.36021ZM249.131 10.2202L246.359 3.44421H247.395L249.145 7.81221C249.327 8.30221 249.509 8.76421 249.635 9.21221C249.761 8.75021 249.943 8.30221 250.139 7.81221L251.917 3.44421H252.911L250.097 10.2202H249.131ZM256.59 10.3882C254.602 10.3882 253.272 8.96021 253.272 6.83221C253.272 4.71821 254.588 3.26221 256.52 3.26221C258.354 3.26221 259.6 4.56421 259.6 6.48221V6.95821H254.21C254.28 8.61021 255.148 9.56221 256.604 9.56221C257.71 9.56221 258.424 9.08621 258.676 8.19021H259.6C259.236 9.61821 258.186 10.3882 256.59 10.3882ZM256.52 4.08821C255.246 4.08821 254.406 4.92821 254.238 6.25821H258.634C258.634 4.95621 257.794 4.08821 256.52 4.08821ZM263.805 10.3882C261.831 10.3882 260.669 8.87621 260.669 6.84621C260.669 4.80221 261.831 3.26221 263.847 3.26221C264.967 3.26221 265.863 3.75221 266.339 4.73221V0.0142144H267.305V10.2202H266.465L266.367 8.83421C265.891 9.88421 264.939 10.3882 263.805 10.3882ZM263.973 9.50621C265.457 9.50621 266.325 8.38621 266.325 6.81821C266.325 5.26421 265.457 4.13021 263.973 4.13021C262.503 4.13021 261.649 5.26421 261.649 6.81821C261.649 8.38621 262.503 9.50621 263.973 9.50621Z" fill="black" fill-opacity="0.6"/>
</svg>
