<svg width="149" height="178" viewBox="0 0 149 178" fill="none" xmlns="http://www.w3.org/2000/svg">
<path d="M7.456 10.088H2.912V15H1.344V3.432H8.32V4.872H2.912V8.664H7.456V10.088ZM12.9803 15H11.3483L15.5723 3.432H17.3163L21.5563 15H19.9083L18.8683 12.12H14.0043L12.9803 15ZM16.2443 5.928L14.4843 10.76H18.4043L16.6283 5.928C16.5483 5.704 16.4683 5.432 16.4363 5.256C16.4043 5.416 16.3243 5.688 16.2443 5.928ZM34.6984 15.768L33.4504 14.36C32.5864 14.888 31.5624 15.192 30.4264 15.192C27.1624 15.192 24.8904 12.728 24.8904 9.208C24.8904 5.704 27.1784 3.224 30.4424 3.224C33.7224 3.224 36.0104 5.688 36.0104 9.208C36.0104 10.936 35.4504 12.408 34.5064 13.464L35.7224 14.84L34.6984 15.768ZM34.3624 9.208C34.3624 6.52 32.7944 4.744 30.4424 4.744C28.0904 4.744 26.5384 6.52 26.5384 9.208C26.5384 11.896 28.0904 13.688 30.4424 13.688C31.1784 13.688 31.8344 13.512 32.3944 13.176L30.8744 11.464L31.8984 10.536L33.4344 12.264C34.0264 11.496 34.3624 10.44 34.3624 9.208Z" fill="black"/>
<path d="M1.392 60H0.224L4.432 48.544H5.856L10.112 60H8.912L7.792 56.96H2.512L1.392 60ZM4.992 50.16L2.864 55.952H7.424L5.28 50.16C5.232 50 5.152 49.808 5.136 49.696C5.12 49.792 5.056 50 4.992 50.16ZM10.6549 56.144C10.6549 53.712 12.1429 52.048 14.3989 52.048C16.1909 52.048 17.5029 53.088 17.8069 54.688H16.7029C16.4149 53.616 15.4869 53.024 14.4149 53.024C12.8469 53.024 11.7429 54.224 11.7429 56.128C11.7429 57.968 12.7669 59.2 14.3349 59.2C15.4869 59.2 16.4149 58.56 16.7189 57.568H17.8389C17.4709 59.152 16.0949 60.192 14.3349 60.192C12.1429 60.192 10.6549 58.576 10.6549 56.144ZM18.9674 56.144C18.9674 53.712 20.4554 52.048 22.7114 52.048C24.5034 52.048 25.8154 53.088 26.1194 54.688H25.0154C24.7274 53.616 23.7994 53.024 22.7274 53.024C21.1594 53.024 20.0554 54.224 20.0554 56.128C20.0554 57.968 21.0794 59.2 22.6474 59.2C23.7994 59.2 24.7274 58.56 25.0314 57.568H26.1514C25.7834 59.152 24.4074 60.192 22.6474 60.192C20.4554 60.192 18.9674 58.576 18.9674 56.144ZM27.2799 56.128C27.2799 53.76 28.9439 52.048 31.2159 52.048C33.4879 52.048 35.1519 53.76 35.1519 56.128C35.1519 58.48 33.4879 60.192 31.2159 60.192C28.9439 60.192 27.2799 58.48 27.2799 56.128ZM28.3999 56.112C28.3999 57.936 29.5519 59.2 31.2159 59.2C32.8639 59.2 34.0319 57.936 34.0319 56.112C34.0319 54.32 32.8639 53.04 31.2159 53.04C29.5519 53.04 28.3999 54.32 28.3999 56.112ZM42.1701 52.256H43.2741V60H42.3141L42.1701 58.688C41.7381 59.584 40.6661 60.192 39.4501 60.192C37.6261 60.192 36.6341 58.944 36.6341 57.056V52.24H37.7541V56.704C37.7541 58.544 38.5701 59.2 39.8021 59.2C41.2901 59.2 42.1701 58.208 42.1701 56.368V52.256ZM46.6779 60H45.5739V52.256H46.5339L46.6939 53.6C47.2059 52.608 48.2299 52.048 49.3499 52.048C51.4779 52.048 52.3579 53.312 52.3579 55.264V60H51.2539V55.504C51.2539 53.696 50.4379 53.056 49.1579 53.056C47.5739 53.056 46.6779 54.208 46.6779 55.952V60ZM56.3343 60H55.2463V53.184H53.6943V52.256H55.2463V49.808H56.3343V52.256H57.8863V53.184H56.3343V60ZM2.528 98H1.392V86.544H2.528L6.704 96.64L10.88 86.544H12.032V98H10.896V92.56C10.896 90.56 10.928 89.68 10.992 88.896L7.264 98H6.16L2.432 88.944C2.496 89.376 2.528 90.64 2.528 92.384V98ZM16.7979 98.192C15.1499 98.192 14.1739 97.264 14.1739 95.904C14.1739 94.48 15.2619 93.584 17.0699 93.44L19.6299 93.232V92.976C19.6299 91.456 18.7179 90.976 17.5819 90.976C16.2379 90.976 15.4379 91.584 15.4379 92.624H14.4299C14.4299 91.056 15.7099 90.048 17.6139 90.048C19.4059 90.048 20.7179 90.944 20.7179 92.992V98H19.7899L19.6459 96.64C19.1659 97.616 18.1099 98.192 16.7979 98.192ZM17.0539 97.296C18.6859 97.296 19.6299 96.16 19.6299 94.48V94.064L17.3419 94.24C15.8859 94.368 15.2939 95.008 15.2939 95.872C15.2939 96.816 15.9979 97.296 17.0539 97.296ZM24.0373 98H22.9333V90.256H23.8932L24.0533 91.6C24.5653 90.608 25.5893 90.048 26.7093 90.048C28.8373 90.048 29.7173 91.312 29.7173 93.264V98H28.6133V93.504C28.6133 91.696 27.7973 91.056 26.5173 91.056C24.9333 91.056 24.0373 92.208 24.0373 93.952V98ZM34.1416 98.192C32.4936 98.192 31.5176 97.264 31.5176 95.904C31.5176 94.48 32.6056 93.584 34.4136 93.44L36.9736 93.232V92.976C36.9736 91.456 36.0616 90.976 34.9256 90.976C33.5816 90.976 32.7816 91.584 32.7816 92.624H31.7736C31.7736 91.056 33.0536 90.048 34.9576 90.048C36.7496 90.048 38.0616 90.944 38.0616 92.992V98H37.1336L36.9896 96.64C36.5096 97.616 35.4536 98.192 34.1416 98.192ZM34.3976 97.296C36.0296 97.296 36.9736 96.16 36.9736 94.48V94.064L34.6856 94.24C33.2296 94.368 32.6376 95.008 32.6376 95.872C32.6376 96.816 33.3416 97.296 34.3976 97.296ZM39.749 93.904C39.749 91.792 41.109 90.048 43.381 90.048C44.725 90.048 45.749 90.672 46.245 91.808L46.357 90.256H47.317V97.76C47.317 100.064 45.845 101.568 43.573 101.568C41.589 101.568 40.197 100.448 39.893 98.576H40.997C41.237 99.824 42.197 100.56 43.589 100.56C45.173 100.56 46.229 99.488 46.229 97.872V96.032C45.701 97.12 44.629 97.76 43.301 97.76C41.093 97.76 39.749 96.016 39.749 93.904ZM40.853 93.888C40.853 95.472 41.829 96.768 43.461 96.768C45.141 96.768 46.133 95.552 46.133 93.888C46.133 92.24 45.173 91.024 43.477 91.024C41.813 91.024 40.853 92.32 40.853 93.888ZM52.8688 98.192C50.5968 98.192 49.0768 96.56 49.0768 94.128C49.0768 91.712 50.5807 90.048 52.7888 90.048C54.8848 90.048 56.3088 91.536 56.3088 93.728V94.272H50.1488C50.2288 96.16 51.2208 97.248 52.8848 97.248C54.1488 97.248 54.9648 96.704 55.2528 95.68H56.3088C55.8928 97.312 54.6928 98.192 52.8688 98.192ZM52.7888 90.992C51.3328 90.992 50.3728 91.952 50.1808 93.472H55.2048C55.2048 91.984 54.2448 90.992 52.7888 90.992ZM66.2394 98H62.7514V86.544H66.2074C69.6634 86.544 71.9674 88.848 71.9674 92.272C71.9674 95.696 69.6794 98 66.2394 98ZM66.1594 87.6H63.9034V96.944H66.1914C68.9914 96.944 70.7834 95.12 70.7834 92.272C70.7834 89.408 68.9914 87.6 66.1594 87.6ZM77.0563 98.192C74.7843 98.192 73.2643 96.56 73.2643 94.128C73.2643 91.712 74.7682 90.048 76.9763 90.048C79.0723 90.048 80.4963 91.536 80.4963 93.728V94.272H74.3363C74.4163 96.16 75.4083 97.248 77.0723 97.248C78.3363 97.248 79.1523 96.704 79.4403 95.68H80.4963C80.0803 97.312 78.8803 98.192 77.0563 98.192ZM76.9763 90.992C75.5203 90.992 74.5603 91.952 74.3683 93.472H79.3923C79.3923 91.984 78.4323 90.992 76.9763 90.992ZM83.4134 98H82.3094V86.336H83.4134V98ZM86.3054 88.128C85.8574 88.128 85.4894 87.76 85.4894 87.312C85.4894 86.864 85.8574 86.48 86.3054 86.48C86.7534 86.48 87.1374 86.864 87.1374 87.312C87.1374 87.76 86.7534 88.128 86.3054 88.128ZM85.7614 98V90.256H86.8654V98H85.7614ZM91.3276 98L88.1596 90.256H89.3436L91.3436 95.248C91.5516 95.808 91.7596 96.336 91.9036 96.848C92.0476 96.32 92.2556 95.808 92.4796 95.248L94.5116 90.256H95.6476L92.4316 98H91.3276ZM99.8531 98.192C97.5811 98.192 96.0611 96.56 96.0611 94.128C96.0611 91.712 97.5651 90.048 99.7731 90.048C101.869 90.048 103.293 91.536 103.293 93.728V94.272H97.1331C97.2131 96.16 98.2051 97.248 99.8691 97.248C101.133 97.248 101.949 96.704 102.237 95.68H103.293C102.877 97.312 101.677 98.192 99.8531 98.192ZM99.7731 90.992C98.3171 90.992 97.3571 91.952 97.1651 93.472H102.189C102.189 91.984 101.229 90.992 99.7731 90.992ZM109.106 90.16V91.152H108.498C107.074 91.152 106.162 92.112 106.162 93.584V98H105.058V90.256H106.098L106.178 91.456C106.482 90.624 107.298 90.08 108.386 90.08C108.626 90.08 108.834 90.096 109.106 90.16ZM111.118 88.128C110.67 88.128 110.302 87.76 110.302 87.312C110.302 86.864 110.67 86.48 111.118 86.48C111.566 86.48 111.95 86.864 111.95 87.312C111.95 87.76 111.566 88.128 111.118 88.128ZM110.574 98V90.256H111.678V98H110.574ZM117.228 98.192C114.956 98.192 113.436 96.56 113.436 94.128C113.436 91.712 114.94 90.048 117.148 90.048C119.244 90.048 120.668 91.536 120.668 93.728V94.272H114.508C114.588 96.16 115.58 97.248 117.244 97.248C118.508 97.248 119.324 96.704 119.612 95.68H120.668C120.252 97.312 119.052 98.192 117.228 98.192ZM117.148 90.992C115.692 90.992 114.732 91.952 114.54 93.472H119.564C119.564 91.984 118.604 90.992 117.148 90.992ZM121.777 95.824H122.833C122.833 96.72 123.505 97.28 124.593 97.28C125.793 97.28 126.497 96.768 126.497 95.936C126.497 95.296 126.177 94.928 125.265 94.704L123.937 94.368C122.593 94.032 121.937 93.328 121.937 92.272C121.937 90.912 123.073 90.048 124.737 90.048C126.369 90.048 127.425 90.944 127.473 92.384H126.401C126.369 91.488 125.745 90.96 124.705 90.96C123.617 90.96 123.009 91.424 123.009 92.256C123.009 92.848 123.425 93.264 124.273 93.472L125.601 93.808C126.945 94.144 127.553 94.768 127.553 95.888C127.553 97.28 126.369 98.192 124.609 98.192C122.865 98.192 121.777 97.264 121.777 95.824ZM11.6 130.272C11.6 133.744 9.344 136.192 6.144 136.192C2.928 136.192 0.688 133.744 0.688 130.272C0.688 126.8 2.944 124.336 6.144 124.336C9.36 124.336 11.6 126.784 11.6 130.272ZM10.416 130.272C10.416 127.408 8.672 125.456 6.144 125.456C3.616 125.456 1.888 127.408 1.888 130.272C1.888 133.136 3.616 135.088 6.144 135.088C8.672 135.088 10.416 133.12 10.416 130.272ZM17.4969 128.16V129.152H16.8889C15.4649 129.152 14.5529 130.112 14.5529 131.584V136H13.4489V128.256H14.4889L14.5689 129.456C14.8729 128.624 15.6889 128.08 16.7769 128.08C17.0169 128.08 17.2249 128.096 17.4969 128.16ZM21.7076 136.192C19.4516 136.192 18.1236 134.464 18.1236 132.144C18.1236 129.808 19.4516 128.048 21.7556 128.048C23.0356 128.048 24.0596 128.608 24.6036 129.728V124.336H25.7076V136H24.7476L24.6356 134.416C24.0916 135.616 23.0036 136.192 21.7076 136.192ZM21.8996 135.184C23.5956 135.184 24.5876 133.904 24.5876 132.112C24.5876 130.336 23.5956 129.04 21.8996 129.04C20.2196 129.04 19.2436 130.336 19.2436 132.112C19.2436 133.904 20.2196 135.184 21.8996 135.184ZM31.2594 136.192C28.9874 136.192 27.4674 134.56 27.4674 132.128C27.4674 129.712 28.9714 128.048 31.1794 128.048C33.2754 128.048 34.6994 129.536 34.6994 131.728V132.272H28.5394C28.6194 134.16 29.6114 135.248 31.2754 135.248C32.5394 135.248 33.3554 134.704 33.6434 133.68H34.6994C34.2834 135.312 33.0834 136.192 31.2594 136.192ZM31.1794 128.992C29.7234 128.992 28.7634 129.952 28.5714 131.472H33.5954C33.5954 129.984 32.6354 128.992 31.1794 128.992ZM40.5125 128.16V129.152H39.9045C38.4805 129.152 37.5685 130.112 37.5685 131.584V136H36.4645V128.256H37.5045L37.5845 129.456C37.8885 128.624 38.7045 128.08 39.7925 128.08C40.0325 128.08 40.2405 128.096 40.5125 128.16ZM41.3241 133.824H42.3801C42.3801 134.72 43.0521 135.28 44.1401 135.28C45.3401 135.28 46.0441 134.768 46.0441 133.936C46.0441 133.296 45.7241 132.928 44.8121 132.704L43.4841 132.368C42.1401 132.032 41.4841 131.328 41.4841 130.272C41.4841 128.912 42.6201 128.048 44.2841 128.048C45.9161 128.048 46.9721 128.944 47.0201 130.384H45.9481C45.9161 129.488 45.2921 128.96 44.2521 128.96C43.1641 128.96 42.5561 129.424 42.5561 130.256C42.5561 130.848 42.9721 131.264 43.8201 131.472L45.1481 131.808C46.4921 132.144 47.1001 132.768 47.1001 133.888C47.1001 135.28 45.9161 136.192 44.1561 136.192C42.4121 136.192 41.3241 135.264 41.3241 133.824ZM5.76 169.792H2.544V174H1.392V162.544H5.76C7.968 162.544 9.36 163.984 9.36 166.144C9.36 168.224 7.952 169.792 5.76 169.792ZM5.6 163.584H2.544V168.752H5.536C7.2 168.752 8.16 167.696 8.16 166.128C8.16 164.544 7.184 163.584 5.6 163.584ZM12.8916 174.192C11.2436 174.192 10.2676 173.264 10.2676 171.904C10.2676 170.48 11.3556 169.584 13.1636 169.44L15.7236 169.232V168.976C15.7236 167.456 14.8116 166.976 13.6756 166.976C12.3316 166.976 11.5316 167.584 11.5316 168.624H10.5236C10.5236 167.056 11.8036 166.048 13.7076 166.048C15.4996 166.048 16.8116 166.944 16.8116 168.992V174H15.8836L15.7396 172.64C15.2596 173.616 14.2036 174.192 12.8916 174.192ZM13.1476 173.296C14.7796 173.296 15.7236 172.16 15.7236 170.48V170.064L13.4356 170.24C11.9796 170.368 11.3876 171.008 11.3876 171.872C11.3876 172.816 12.0916 173.296 13.1476 173.296ZM18.0711 177.376V176.464H18.9191C19.5911 176.464 20.2631 176.416 20.6471 175.376L20.9831 174.464L17.8471 166.256H19.0151L21.5111 173.008L23.9591 166.256H25.0951L21.5431 175.776C21.0951 176.992 20.3431 177.488 19.2391 177.488C18.7751 177.488 18.4231 177.456 18.0711 177.376ZM27.4904 174H26.3864V166.256H27.3464L27.4744 167.36C27.8584 166.544 28.7224 166.048 29.8104 166.048C31.0264 166.048 31.9384 166.688 32.3064 167.696C32.6584 166.688 33.6024 166.048 34.8504 166.048C36.5304 166.048 37.6344 167.136 37.6344 168.928V174H36.5624V169.152C36.5624 167.824 35.8264 167.04 34.6424 167.04C33.3464 167.04 32.5784 168.016 32.5784 169.216V174H31.4904V169.136C31.4904 167.824 30.7384 167.056 29.5704 167.056C28.2744 167.056 27.4904 168.016 27.4904 169.2V174ZM43.1031 174.192C40.8311 174.192 39.3111 172.56 39.3111 170.128C39.3111 167.712 40.8151 166.048 43.0231 166.048C45.1191 166.048 46.5431 167.536 46.5431 169.728V170.272H40.3831C40.4631 172.16 41.4551 173.248 43.1191 173.248C44.3831 173.248 45.1991 172.704 45.4871 171.68H46.5431C46.1271 173.312 44.9271 174.192 43.1031 174.192ZM43.0231 166.992C41.5671 166.992 40.6071 167.952 40.4151 169.472H45.4391C45.4391 167.984 44.4791 166.992 43.0231 166.992ZM49.4123 174H48.3083V166.256H49.2682L49.4283 167.6C49.9403 166.608 50.9643 166.048 52.0843 166.048C54.2123 166.048 55.0923 167.312 55.0923 169.264V174H53.9883V169.504C53.9883 167.696 53.1723 167.056 51.8923 167.056C50.3083 167.056 49.4123 168.208 49.4123 169.952V174ZM59.0686 174H57.9806V167.184H56.4286V166.256H57.9806V163.808H59.0686V166.256H60.6206V167.184H59.0686V174ZM61.4023 171.824H62.4583C62.4583 172.72 63.1303 173.28 64.2183 173.28C65.4183 173.28 66.1223 172.768 66.1223 171.936C66.1223 171.296 65.8023 170.928 64.8903 170.704L63.5623 170.368C62.2183 170.032 61.5623 169.328 61.5623 168.272C61.5623 166.912 62.6983 166.048 64.3623 166.048C65.9943 166.048 67.0503 166.944 67.0983 168.384H66.0263C65.9943 167.488 65.3703 166.96 64.3303 166.96C63.2423 166.96 62.6343 167.424 62.6343 168.256C62.6343 168.848 63.0503 169.264 63.8983 169.472L65.2263 169.808C66.5703 170.144 67.1783 170.768 67.1783 171.888C67.1783 173.28 65.9943 174.192 64.2343 174.192C62.4903 174.192 61.4023 173.264 61.4023 171.824Z" fill="black" fill-opacity="0.6"/>
</svg>
