<svg width="136" height="178" viewBox="0 0 136 178" fill="none" xmlns="http://www.w3.org/2000/svg">
<path d="M2.912 15H1.344V3.432H2.912V8.408H8.64V3.432H10.208V15H8.64V9.864H2.912V15ZM22.9469 15H15.8909V3.432H22.9469V4.872H17.4589V8.488H22.4029V9.88H17.4589V13.544H22.9469V15ZM29.787 3.432V13.544H34.875V15H28.219V3.432H29.787ZM44.0744 10.872H41.1464V15H39.5784V3.432H44.0744C46.3464 3.432 47.8024 4.92 47.8024 7.144C47.8024 9.304 46.3304 10.872 44.0744 10.872ZM43.8024 4.84H41.1464V9.464H43.7384C45.2904 9.464 46.1544 8.552 46.1544 7.128C46.1544 5.672 45.2744 4.84 43.8024 4.84Z" fill="black"/>
<path d="M6.064 60.176C2.864 60.176 0.688 57.792 0.688 54.272C0.688 50.752 2.896 48.352 6.128 48.352C8.592 48.352 10.528 49.84 10.992 52.112H9.76C9.28 50.464 7.872 49.456 6.08 49.456C3.568 49.456 1.888 51.376 1.888 54.272C1.888 57.152 3.568 59.072 6.08 59.072C7.888 59.072 9.328 58.096 9.824 56.56H11.056C10.528 58.72 8.528 60.176 6.064 60.176ZM18.2483 52.256H19.3523V60H18.3923L18.2483 58.688C17.8163 59.584 16.7443 60.192 15.5283 60.192C13.7043 60.192 12.7122 58.944 12.7122 57.056V52.24H13.8323V56.704C13.8323 58.544 14.6483 59.2 15.8802 59.2C17.3683 59.2 18.2483 58.208 18.2483 56.368V52.256ZM20.8398 57.824H21.8958C21.8958 58.72 22.5678 59.28 23.6558 59.28C24.8558 59.28 25.5598 58.768 25.5598 57.936C25.5598 57.296 25.2398 56.928 24.3278 56.704L22.9998 56.368C21.6558 56.032 20.9998 55.328 20.9998 54.272C20.9998 52.912 22.1358 52.048 23.7998 52.048C25.4318 52.048 26.4878 52.944 26.5358 54.384H25.4638C25.4318 53.488 24.8078 52.96 23.7678 52.96C22.6798 52.96 22.0718 53.424 22.0718 54.256C22.0718 54.848 22.4878 55.264 23.3358 55.472L24.6638 55.808C26.0078 56.144 26.6158 56.768 26.6158 57.888C26.6158 59.28 25.4318 60.192 23.6718 60.192C21.9278 60.192 20.8398 59.264 20.8398 57.824ZM30.2093 60H29.1213V53.184H27.5693V52.256H29.1213V49.808H30.2093V52.256H31.7613V53.184H30.2093V60ZM32.5768 56.128C32.5768 53.76 34.2408 52.048 36.5128 52.048C38.7848 52.048 40.4488 53.76 40.4488 56.128C40.4488 58.48 38.7848 60.192 36.5128 60.192C34.2408 60.192 32.5768 58.48 32.5768 56.128ZM33.6968 56.112C33.6968 57.936 34.8488 59.2 36.5128 59.2C38.1608 59.2 39.3288 57.936 39.3288 56.112C39.3288 54.32 38.1608 53.04 36.5128 53.04C34.8488 53.04 33.6968 54.32 33.6968 56.112ZM43.3185 60H42.2145V52.256H43.1745L43.3025 53.36C43.6865 52.544 44.5505 52.048 45.6385 52.048C46.8545 52.048 47.7665 52.688 48.1345 53.696C48.4865 52.688 49.4305 52.048 50.6785 52.048C52.3585 52.048 53.4625 53.136 53.4625 54.928V60H52.3905V55.152C52.3905 53.824 51.6545 53.04 50.4705 53.04C49.1745 53.04 48.4065 54.016 48.4065 55.216V60H47.3185V55.136C47.3185 53.824 46.5665 53.056 45.3985 53.056C44.1025 53.056 43.3185 54.016 43.3185 55.2V60ZM58.9313 60.192C56.6593 60.192 55.1393 58.56 55.1393 56.128C55.1393 53.712 56.6432 52.048 58.8513 52.048C60.9473 52.048 62.3713 53.536 62.3713 55.728V56.272H56.2113C56.2913 58.16 57.2833 59.248 58.9473 59.248C60.2113 59.248 61.0273 58.704 61.3153 57.68H62.3713C61.9553 59.312 60.7553 60.192 58.9313 60.192ZM58.8513 52.992C57.3953 52.992 56.4353 53.952 56.2433 55.472H61.2673C61.2673 53.984 60.3073 52.992 58.8513 52.992ZM68.1844 52.16V53.152H67.5764C66.1524 53.152 65.2404 54.112 65.2404 55.584V60H64.1364V52.256H65.1764L65.2564 53.456C65.5604 52.624 66.3764 52.08 67.4644 52.08C67.7044 52.08 67.9124 52.096 68.1844 52.16ZM73.6415 51.52C73.6415 49.6 75.1775 48.336 77.4815 48.336C79.5455 48.336 80.9055 49.488 81.0815 51.408H79.9135C79.7855 50.112 78.9055 49.376 77.4655 49.376C75.8495 49.376 74.7935 50.208 74.7935 51.504C74.7935 52.512 75.3855 53.152 76.5855 53.456L78.5535 53.936C80.3455 54.368 81.2735 55.392 81.2735 56.944C81.2735 58.928 79.7375 60.192 77.3695 60.192C75.1455 60.192 73.6415 59.024 73.4975 57.152H74.6815C74.7455 58.352 75.8015 59.136 77.3695 59.136C79.0495 59.136 80.1215 58.32 80.1215 57.008C80.1215 55.984 79.5455 55.312 78.3135 55.024L76.3775 54.544C74.5855 54.112 73.6415 53.088 73.6415 51.52ZM88.5451 52.256H89.6491V60H88.6891L88.5451 58.688C88.1131 59.584 87.0411 60.192 85.8251 60.192C84.0011 60.192 83.0091 58.944 83.0091 57.056V52.24H84.1291V56.704C84.1291 58.544 84.9451 59.2 86.1771 59.2C87.6651 59.2 88.5451 58.208 88.5451 56.368V52.256ZM91.9489 63.376V52.256H92.9089L93.0209 53.824C93.5649 52.624 94.6529 52.048 95.9489 52.048C98.1889 52.048 99.5329 53.76 99.5329 56.096C99.5329 58.432 98.2369 60.192 95.9489 60.192C94.6369 60.192 93.5969 59.632 93.0529 58.512V63.376H91.9489ZM93.0689 56.128C93.0689 57.904 94.0609 59.2 95.7569 59.2C97.4369 59.2 98.4129 57.904 98.4129 56.128C98.4129 54.336 97.4369 53.056 95.7569 53.056C94.0609 53.056 93.0689 54.336 93.0689 56.128ZM101.293 63.376V52.256H102.253L102.365 53.824C102.909 52.624 103.997 52.048 105.293 52.048C107.533 52.048 108.877 53.76 108.877 56.096C108.877 58.432 107.581 60.192 105.293 60.192C103.981 60.192 102.941 59.632 102.397 58.512V63.376H101.293ZM102.413 56.128C102.413 57.904 103.405 59.2 105.101 59.2C106.781 59.2 107.757 57.904 107.757 56.128C107.757 54.336 106.781 53.056 105.101 53.056C103.405 53.056 102.413 54.336 102.413 56.128ZM110.092 56.128C110.092 53.76 111.756 52.048 114.028 52.048C116.3 52.048 117.964 53.76 117.964 56.128C117.964 58.48 116.3 60.192 114.028 60.192C111.756 60.192 110.092 58.48 110.092 56.128ZM111.212 56.112C111.212 57.936 112.364 59.2 114.028 59.2C115.676 59.2 116.844 57.936 116.844 56.112C116.844 54.32 115.676 53.04 114.028 53.04C112.364 53.04 111.212 54.32 111.212 56.112ZM123.778 52.16V53.152H123.17C121.746 53.152 120.834 54.112 120.834 55.584V60H119.73V52.256H120.77L120.85 53.456C121.154 52.624 121.97 52.08 123.058 52.08C123.298 52.08 123.506 52.096 123.778 52.16ZM127.334 60H126.246V53.184H124.694V52.256H126.246V49.808H127.334V52.256H128.886V53.184H127.334V60ZM4.88 98H1.392V86.544H4.848C8.304 86.544 10.608 88.848 10.608 92.272C10.608 95.696 8.32 98 4.88 98ZM4.8 87.6H2.544V96.944H4.832C7.632 96.944 9.424 95.12 9.424 92.272C9.424 89.408 7.632 87.6 4.8 87.6ZM15.6969 98.192C13.4249 98.192 11.9049 96.56 11.9049 94.128C11.9049 91.712 13.4089 90.048 15.6169 90.048C17.7129 90.048 19.1369 91.536 19.1369 93.728V94.272H12.9769C13.0569 96.16 14.0489 97.248 15.7129 97.248C16.9769 97.248 17.7929 96.704 18.0809 95.68H19.1369C18.7209 97.312 17.5209 98.192 15.6969 98.192ZM15.6169 90.992C14.1609 90.992 13.2009 91.952 13.0089 93.472H18.0329C18.0329 91.984 17.0729 90.992 15.6169 90.992ZM22.054 98H20.95V86.336H22.054V98ZM24.946 88.128C24.498 88.128 24.13 87.76 24.13 87.312C24.13 86.864 24.498 86.48 24.946 86.48C25.394 86.48 25.778 86.864 25.778 87.312C25.778 87.76 25.394 88.128 24.946 88.128ZM24.402 98V90.256H25.506V98H24.402ZM29.9683 98L26.8003 90.256H27.9843L29.9843 95.248C30.1923 95.808 30.4003 96.336 30.5443 96.848C30.6883 96.32 30.8963 95.808 31.1203 95.248L33.1523 90.256H34.2883L31.0723 98H29.9683ZM38.4938 98.192C36.2218 98.192 34.7018 96.56 34.7018 94.128C34.7018 91.712 36.2057 90.048 38.4138 90.048C40.5098 90.048 41.9338 91.536 41.9338 93.728V94.272H35.7738C35.8538 96.16 36.8458 97.248 38.5098 97.248C39.7738 97.248 40.5898 96.704 40.8778 95.68H41.9338C41.5178 97.312 40.3178 98.192 38.4938 98.192ZM38.4138 90.992C36.9578 90.992 35.9978 91.952 35.8058 93.472H40.8298C40.8298 91.984 39.8698 90.992 38.4138 90.992ZM47.7469 90.16V91.152H47.1389C45.7149 91.152 44.8029 92.112 44.8029 93.584V98H43.6989V90.256H44.7389L44.8189 91.456C45.1229 90.624 45.9389 90.08 47.0269 90.08C47.2669 90.08 47.4749 90.096 47.7469 90.16ZM48.6649 101.376V100.464H49.5129C50.1849 100.464 50.8569 100.416 51.2409 99.376L51.5769 98.464L48.4409 90.256H49.6089L52.1049 97.008L54.5529 90.256H55.6889L52.1369 99.776C51.6889 100.992 50.9369 101.488 49.8329 101.488C49.3689 101.488 49.0169 101.456 48.6649 101.376ZM65.1456 98H61.6576V86.544H65.1136C68.5696 86.544 70.8736 88.848 70.8736 92.272C70.8736 95.696 68.5856 98 65.1456 98ZM65.0656 87.6H62.8096V96.944H65.0976C67.8976 96.944 69.6896 95.12 69.6896 92.272C69.6896 89.408 67.8976 87.6 65.0656 87.6ZM75.9625 98.192C73.6905 98.192 72.1705 96.56 72.1705 94.128C72.1705 91.712 73.6745 90.048 75.8825 90.048C77.9785 90.048 79.4025 91.536 79.4025 93.728V94.272H73.2425C73.3225 96.16 74.3145 97.248 75.9785 97.248C77.2425 97.248 78.0585 96.704 78.3465 95.68H79.4025C78.9865 97.312 77.7865 98.192 75.9625 98.192ZM75.8825 90.992C74.4265 90.992 73.4665 91.952 73.2745 93.472H78.2985C78.2985 91.984 77.3385 90.992 75.8825 90.992ZM82.8655 98H81.7775V91.184H80.2255V90.256H81.7775V87.808H82.8655V90.256H84.4175V91.184H82.8655V98ZM87.9541 98.192C86.3061 98.192 85.3301 97.264 85.3301 95.904C85.3301 94.48 86.4181 93.584 88.2261 93.44L90.7861 93.232V92.976C90.7861 91.456 89.8741 90.976 88.7381 90.976C87.3941 90.976 86.5941 91.584 86.5941 92.624H85.5861C85.5861 91.056 86.8661 90.048 88.7701 90.048C90.5621 90.048 91.8741 90.944 91.8741 92.992V98H90.9461L90.8021 96.64C90.3221 97.616 89.2661 98.192 87.9541 98.192ZM88.2101 97.296C89.8421 97.296 90.7861 96.16 90.7861 94.48V94.064L88.4981 94.24C87.0421 94.368 86.4501 95.008 86.4501 95.872C86.4501 96.816 87.1541 97.296 88.2101 97.296ZM94.6335 88.128C94.1855 88.128 93.8175 87.76 93.8175 87.312C93.8175 86.864 94.1855 86.48 94.6335 86.48C95.0815 86.48 95.4655 86.864 95.4655 87.312C95.4655 87.76 95.0815 88.128 94.6335 88.128ZM94.0895 98V90.256H95.1935V98H94.0895ZM98.6478 98H97.5438V86.336H98.6478V98ZM100.34 95.824H101.396C101.396 96.72 102.068 97.28 103.156 97.28C104.356 97.28 105.06 96.768 105.06 95.936C105.06 95.296 104.74 94.928 103.828 94.704L102.5 94.368C101.156 94.032 100.5 93.328 100.5 92.272C100.5 90.912 101.636 90.048 103.3 90.048C104.932 90.048 105.988 90.944 106.036 92.384H104.964C104.932 91.488 104.308 90.96 103.268 90.96C102.18 90.96 101.572 91.424 101.572 92.256C101.572 92.848 101.988 93.264 102.836 93.472L104.164 93.808C105.508 94.144 106.116 94.768 106.116 95.888C106.116 97.28 104.932 98.192 103.172 98.192C101.428 98.192 100.34 97.264 100.34 95.824ZM0.192 125.6V124.544H8.4V125.6H4.864V136H3.712V125.6H0.192ZM11.8063 136.192C9.53425 136.192 8.01425 134.56 8.01425 132.128C8.01425 129.712 9.51825 128.048 11.7263 128.048C13.8223 128.048 15.2463 129.536 15.2463 131.728V132.272H9.08625C9.16625 134.16 10.1583 135.248 11.8223 135.248C13.0863 135.248 13.9023 134.704 14.1903 133.68H15.2463C14.8303 135.312 13.6303 136.192 11.8063 136.192ZM11.7263 128.992C10.2703 128.992 9.31025 129.952 9.11825 131.472H14.1423C14.1423 129.984 13.1823 128.992 11.7263 128.992ZM21.0594 128.16V129.152H20.4514C19.0274 129.152 18.1154 130.112 18.1154 131.584V136H17.0114V128.256H18.0514L18.1314 129.456C18.4354 128.624 19.2514 128.08 20.3394 128.08C20.5794 128.08 20.7874 128.096 21.0594 128.16ZM23.631 136H22.527V128.256H23.487L23.615 129.36C23.999 128.544 24.863 128.048 25.951 128.048C27.167 128.048 28.079 128.688 28.447 129.696C28.799 128.688 29.743 128.048 30.991 128.048C32.671 128.048 33.775 129.136 33.775 130.928V136H32.703V131.152C32.703 129.824 31.967 129.04 30.783 129.04C29.487 129.04 28.719 130.016 28.719 131.216V136H27.631V131.136C27.631 129.824 26.879 129.056 25.711 129.056C24.415 129.056 23.631 130.016 23.631 131.2V136ZM35.246 133.824H36.302C36.302 134.72 36.974 135.28 38.062 135.28C39.262 135.28 39.966 134.768 39.966 133.936C39.966 133.296 39.646 132.928 38.734 132.704L37.406 132.368C36.062 132.032 35.406 131.328 35.406 130.272C35.406 128.912 36.542 128.048 38.206 128.048C39.838 128.048 40.894 128.944 40.942 130.384H39.87C39.838 129.488 39.214 128.96 38.174 128.96C37.086 128.96 36.478 129.424 36.478 130.256C36.478 130.848 36.894 131.264 37.742 131.472L39.07 131.808C40.414 132.144 41.022 132.768 41.022 133.888C41.022 135.28 39.838 136.192 38.078 136.192C36.334 136.192 35.246 135.264 35.246 133.824ZM55.0326 136L54.0086 134.816C53.1126 135.712 51.8646 136.208 50.3606 136.208C47.9446 136.208 46.3766 134.976 46.3766 133.088C46.3766 131.632 47.2406 130.56 49.3046 129.44C48.2646 128.224 47.8486 127.536 47.8486 126.688C47.8486 125.312 48.8886 124.352 50.4406 124.352C51.9126 124.352 52.9206 125.248 52.9206 126.592C52.9206 127.728 52.3286 128.608 50.8086 129.632L53.9286 133.232C54.2486 132.56 54.4246 131.728 54.4246 130.768H55.4966C55.4966 132.048 55.1926 133.152 54.6326 134.032L56.3446 136H55.0326ZM50.2166 128.944L50.2326 128.96C51.3526 128.256 51.8646 127.52 51.8646 126.624C51.8646 125.792 51.3206 125.28 50.4246 125.28C49.4966 125.28 48.9206 125.824 48.9206 126.688C48.9206 127.264 49.1766 127.744 50.2166 128.944ZM47.5126 133.024C47.5126 134.416 48.6006 135.248 50.4246 135.248C51.6886 135.248 52.6806 134.848 53.3686 134.08L49.8806 130.096C48.1526 131.056 47.5126 131.856 47.5126 133.024ZM66.4078 136.176C63.2078 136.176 61.0318 133.792 61.0318 130.272C61.0318 126.752 63.2398 124.352 66.4718 124.352C68.9358 124.352 70.8718 125.84 71.3358 128.112H70.1038C69.6238 126.464 68.2158 125.456 66.4238 125.456C63.9118 125.456 62.2318 127.376 62.2318 130.272C62.2318 133.152 63.9118 135.072 66.4238 135.072C68.2318 135.072 69.6718 134.096 70.1678 132.56H71.3998C70.8718 134.72 68.8718 136.176 66.4078 136.176ZM72.608 132.128C72.608 129.76 74.272 128.048 76.544 128.048C78.816 128.048 80.48 129.76 80.48 132.128C80.48 134.48 78.816 136.192 76.544 136.192C74.272 136.192 72.608 134.48 72.608 132.128ZM73.728 132.112C73.728 133.936 74.88 135.2 76.544 135.2C78.192 135.2 79.36 133.936 79.36 132.112C79.36 130.32 78.192 129.04 76.544 129.04C74.88 129.04 73.728 130.32 73.728 132.112ZM83.3498 136H82.2458V128.256H83.2057L83.3658 129.6C83.8778 128.608 84.9018 128.048 86.0218 128.048C88.1498 128.048 89.0298 129.312 89.0298 131.264V136H87.9258V131.504C87.9258 129.696 87.1098 129.056 85.8298 129.056C84.2458 129.056 83.3498 130.208 83.3498 131.952V136ZM94.2701 136.192C92.0141 136.192 90.6861 134.464 90.6861 132.144C90.6861 129.808 92.0141 128.048 94.3181 128.048C95.5981 128.048 96.6221 128.608 97.1661 129.728V124.336H98.2701V136H97.3101L97.1981 134.416C96.6541 135.616 95.5661 136.192 94.2701 136.192ZM94.4621 135.184C96.1581 135.184 97.1501 133.904 97.1501 132.112C97.1501 130.336 96.1581 129.04 94.4621 129.04C92.7821 129.04 91.8061 130.336 91.8061 132.112C91.8061 133.904 92.7821 135.184 94.4621 135.184ZM101.118 126.128C100.67 126.128 100.302 125.76 100.302 125.312C100.302 124.864 100.67 124.48 101.118 124.48C101.566 124.48 101.95 124.864 101.95 125.312C101.95 125.76 101.566 126.128 101.118 126.128ZM100.574 136V128.256H101.678V136H100.574ZM105.756 136H104.668V129.184H103.116V128.256H104.668V125.808H105.756V128.256H107.308V129.184H105.756V136ZM109.29 126.128C108.842 126.128 108.474 125.76 108.474 125.312C108.474 124.864 108.842 124.48 109.29 124.48C109.738 124.48 110.122 124.864 110.122 125.312C110.122 125.76 109.738 126.128 109.29 126.128ZM108.746 136V128.256H109.85V136H108.746ZM111.608 132.128C111.608 129.76 113.272 128.048 115.544 128.048C117.816 128.048 119.48 129.76 119.48 132.128C119.48 134.48 117.816 136.192 115.544 136.192C113.272 136.192 111.608 134.48 111.608 132.128ZM112.728 132.112C112.728 133.936 113.88 135.2 115.544 135.2C117.192 135.2 118.36 133.936 118.36 132.112C118.36 130.32 117.192 129.04 115.544 129.04C113.88 129.04 112.728 130.32 112.728 132.112ZM122.35 136H121.246V128.256H122.206L122.366 129.6C122.878 128.608 123.902 128.048 125.022 128.048C127.15 128.048 128.03 129.312 128.03 131.264V136H126.926V131.504C126.926 129.696 126.11 129.056 124.83 129.056C123.246 129.056 122.35 130.208 122.35 131.952V136ZM129.48 133.824H130.536C130.536 134.72 131.208 135.28 132.296 135.28C133.496 135.28 134.2 134.768 134.2 133.936C134.2 133.296 133.88 132.928 132.968 132.704L131.64 132.368C130.296 132.032 129.64 131.328 129.64 130.272C129.64 128.912 130.776 128.048 132.44 128.048C134.072 128.048 135.128 128.944 135.176 130.384H134.104C134.072 129.488 133.448 128.96 132.408 128.96C131.32 128.96 130.712 129.424 130.712 130.256C130.712 130.848 131.128 131.264 131.976 131.472L133.304 131.808C134.648 132.144 135.256 132.768 135.256 133.888C135.256 135.28 134.072 136.192 132.312 136.192C130.568 136.192 129.48 135.264 129.48 133.824ZM5.76 169.792H2.544V174H1.392V162.544H5.76C7.968 162.544 9.36 163.984 9.36 166.144C9.36 168.224 7.952 169.792 5.76 169.792ZM5.6 163.584H2.544V168.752H5.536C7.2 168.752 8.16 167.696 8.16 166.128C8.16 164.544 7.184 163.584 5.6 163.584ZM15.0281 166.16V167.152H14.4201C12.9961 167.152 12.0841 168.112 12.0841 169.584V174H10.9801V166.256H12.0201L12.1001 167.456C12.4041 166.624 13.2201 166.08 14.3081 166.08C14.5481 166.08 14.7561 166.096 15.0281 166.16ZM17.0398 164.128C16.5918 164.128 16.2238 163.76 16.2238 163.312C16.2238 162.864 16.5918 162.48 17.0398 162.48C17.4878 162.48 17.8718 162.864 17.8718 163.312C17.8718 163.76 17.4878 164.128 17.0398 164.128ZM16.4958 174V166.256H17.5998V174H16.4958ZM22.062 174L18.894 166.256H20.078L22.078 171.248C22.286 171.808 22.494 172.336 22.638 172.848C22.782 172.32 22.99 171.808 23.214 171.248L25.246 166.256H26.382L23.166 174H22.062ZM29.5635 174.192C27.9155 174.192 26.9395 173.264 26.9395 171.904C26.9395 170.48 28.0275 169.584 29.8355 169.44L32.3955 169.232V168.976C32.3955 167.456 31.4835 166.976 30.3475 166.976C29.0035 166.976 28.2035 167.584 28.2035 168.624H27.1955C27.1955 167.056 28.4755 166.048 30.3795 166.048C32.1715 166.048 33.4835 166.944 33.4835 168.992V174H32.5555L32.4115 172.64C31.9315 173.616 30.8755 174.192 29.5635 174.192ZM29.8195 173.296C31.4515 173.296 32.3955 172.16 32.3955 170.48V170.064L30.1075 170.24C28.6515 170.368 28.0595 171.008 28.0595 171.872C28.0595 172.816 28.7635 173.296 29.8195 173.296ZM35.1549 170.144C35.1549 167.712 36.6429 166.048 38.8989 166.048C40.6909 166.048 42.0029 167.088 42.3069 168.688H41.2029C40.9149 167.616 39.9869 167.024 38.9149 167.024C37.3469 167.024 36.2429 168.224 36.2429 170.128C36.2429 171.968 37.2669 173.2 38.8349 173.2C39.9869 173.2 40.9149 172.56 41.2189 171.568H42.3389C41.9709 173.152 40.5949 174.192 38.8349 174.192C36.6429 174.192 35.1549 172.576 35.1549 170.144ZM43.0711 177.376V176.464H43.9191C44.5911 176.464 45.2631 176.416 45.6471 175.376L45.9831 174.464L42.8471 166.256H44.0151L46.5111 173.008L48.9591 166.256H50.0951L46.5431 175.776C46.0951 176.992 45.3431 177.488 44.2391 177.488C43.7751 177.488 43.4231 177.456 43.0711 177.376ZM60.4319 169.792H57.2159V174H56.0639V162.544H60.4319C62.6399 162.544 64.0319 163.984 64.0319 166.144C64.0319 168.224 62.6239 169.792 60.4319 169.792ZM60.2719 163.584H57.2159V168.752H60.2079C61.8719 168.752 62.8319 167.696 62.8319 166.128C62.8319 164.544 61.8559 163.584 60.2719 163.584ZM64.7643 170.128C64.7643 167.76 66.4283 166.048 68.7003 166.048C70.9723 166.048 72.6363 167.76 72.6363 170.128C72.6363 172.48 70.9723 174.192 68.7003 174.192C66.4283 174.192 64.7643 172.48 64.7643 170.128ZM65.8843 170.112C65.8843 171.936 67.0363 173.2 68.7003 173.2C70.3483 173.2 71.5163 171.936 71.5163 170.112C71.5163 168.32 70.3483 167.04 68.7003 167.04C67.0363 167.04 65.8843 168.32 65.8843 170.112ZM75.554 174H74.45V162.336H75.554V174ZM78.446 164.128C77.998 164.128 77.63 163.76 77.63 163.312C77.63 162.864 77.998 162.48 78.446 162.48C78.894 162.48 79.278 162.864 79.278 163.312C79.278 163.76 78.894 164.128 78.446 164.128ZM77.902 174V166.256H79.006V174H77.902ZM80.7643 170.144C80.7643 167.712 82.2523 166.048 84.5083 166.048C86.3003 166.048 87.6123 167.088 87.9163 168.688H86.8123C86.5243 167.616 85.5963 167.024 84.5243 167.024C82.9563 167.024 81.8523 168.224 81.8523 170.128C81.8523 171.968 82.8763 173.2 84.4443 173.2C85.5963 173.2 86.5243 172.56 86.8283 171.568H87.9483C87.5803 173.152 86.2043 174.192 84.4443 174.192C82.2523 174.192 80.7643 172.576 80.7643 170.144ZM88.6805 177.376V176.464H89.5285C90.2005 176.464 90.8725 176.416 91.2565 175.376L91.5925 174.464L88.4565 166.256H89.6245L92.1205 173.008L94.5685 166.256H95.7045L92.1525 175.776C91.7045 176.992 90.9525 177.488 89.8485 177.488C89.3845 177.488 89.0325 177.456 88.6805 177.376Z" fill="black" fill-opacity="0.6"/>
</svg>
