<svg width="149" height="178" viewBox="0 0 149 178" fill="none" xmlns="http://www.w3.org/2000/svg">
<path d="M2.912 15H1.344V3.432H5.712C8.192 3.432 9.664 4.744 9.664 6.904C9.664 8.504 8.864 9.656 7.424 10.12L9.776 15H8.032L5.872 10.424H2.912V15ZM2.912 4.84V9.032H5.728C7.184 9.032 8.016 8.248 8.016 6.92C8.016 5.576 7.152 4.84 5.712 4.84H2.912ZM21.8688 15H14.8128V3.432H21.8688V4.872H16.3808V8.488H21.3248V9.88H16.3808V13.544H21.8688V15ZM26.4689 6.552C26.4689 4.568 28.0689 3.224 30.4529 3.224C32.6609 3.224 34.0849 4.456 34.2129 6.456H32.6289C32.5489 5.304 31.7329 4.632 30.4369 4.632C28.9809 4.632 28.0369 5.368 28.0369 6.504C28.0369 7.432 28.5649 7.992 29.6529 8.248L31.5569 8.696C33.4449 9.128 34.4049 10.152 34.4049 11.784C34.4049 13.864 32.7889 15.192 30.3249 15.192C27.9729 15.192 26.4049 13.96 26.3089 11.976H27.9089C27.9409 13.08 28.8689 13.784 30.3249 13.784C31.8609 13.784 32.8369 13.064 32.8369 11.912C32.8369 11 32.3409 10.424 31.2369 10.168L29.3329 9.736C27.4449 9.304 26.4689 8.216 26.4689 6.552ZM49.8073 9.208C49.8073 12.728 47.5033 15.192 44.2233 15.192C40.9593 15.192 38.6873 12.728 38.6873 9.208C38.6873 5.704 40.9753 3.224 44.2393 3.224C47.5193 3.224 49.8073 5.688 49.8073 9.208ZM48.1593 9.208C48.1593 6.52 46.5913 4.744 44.2393 4.744C41.8873 4.744 40.3353 6.52 40.3353 9.208C40.3353 11.896 41.8873 13.688 44.2393 13.688C46.5913 13.688 48.1593 11.88 48.1593 9.208ZM54.7328 10.888V3.432H56.3008V10.792C56.3008 12.648 57.3248 13.672 59.1648 13.672C60.9888 13.672 61.9968 12.632 61.9968 10.792V3.432H63.5808V10.888C63.5808 13.544 61.8848 15.192 59.1648 15.192C56.4288 15.192 54.7328 13.56 54.7328 10.888ZM70.7558 15H69.1878V3.432H73.5558C76.0358 3.432 77.5078 4.744 77.5078 6.904C77.5078 8.504 76.7078 9.656 75.2678 10.12L77.6198 15H75.8758L73.7158 10.424H70.7558V15ZM70.7558 4.84V9.032H73.5718C75.0278 9.032 75.8598 8.248 75.8598 6.92C75.8598 5.576 74.9958 4.84 73.5558 4.84H70.7558ZM87.4096 15.176C84.1136 15.176 81.9216 12.808 81.9216 9.224C81.9216 5.656 84.1776 3.24 87.4896 3.24C90.0976 3.24 92.0976 4.792 92.5296 7.16H90.8496C90.4176 5.656 89.1216 4.744 87.4416 4.744C85.1056 4.744 83.5696 6.504 83.5696 9.208C83.5696 11.912 85.1056 13.672 87.4416 13.672C89.1376 13.672 90.4816 12.76 90.9136 11.336H92.5776C92.0816 13.64 90.0176 15.176 87.4096 15.176ZM104.556 15H97.5003V3.432H104.556V4.872H99.0683V8.488H104.012V9.88H99.0683V13.544H104.556V15ZM109.156 6.552C109.156 4.568 110.756 3.224 113.14 3.224C115.348 3.224 116.772 4.456 116.9 6.456H115.316C115.236 5.304 114.42 4.632 113.124 4.632C111.668 4.632 110.724 5.368 110.724 6.504C110.724 7.432 111.252 7.992 112.34 8.248L114.244 8.696C116.132 9.128 117.092 10.152 117.092 11.784C117.092 13.864 115.476 15.192 113.012 15.192C110.66 15.192 109.092 13.96 108.996 11.976H110.596C110.628 13.08 111.556 13.784 113.012 13.784C114.548 13.784 115.524 13.064 115.524 11.912C115.524 11 115.028 10.424 113.924 10.168L112.02 9.736C110.132 9.304 109.156 8.216 109.156 6.552Z" fill="black"/>
<path d="M7.232 54.96H2.544V60H1.392V48.544H8.144V49.6H2.544V53.92H7.232V54.96ZM13.4031 52.16V53.152H12.7951C11.3711 53.152 10.4591 54.112 10.4591 55.584V60H9.35513V52.256H10.3951L10.4751 53.456C10.7791 52.624 11.5951 52.08 12.6831 52.08C12.9231 52.08 13.1311 52.096 13.4031 52.16ZM17.8219 60.192C15.5499 60.192 14.0299 58.56 14.0299 56.128C14.0299 53.712 15.5339 52.048 17.7419 52.048C19.8379 52.048 21.2619 53.536 21.2619 55.728V56.272H15.1019C15.1819 58.16 16.1739 59.248 17.8379 59.248C19.1019 59.248 19.9179 58.704 20.2059 57.68H21.2619C20.8459 59.312 19.6459 60.192 17.8219 60.192ZM17.7419 52.992C16.2859 52.992 15.3259 53.952 15.1339 55.472H20.1579C20.1579 53.984 19.1979 52.992 17.7419 52.992ZM26.275 60.192C24.003 60.192 22.483 58.56 22.483 56.128C22.483 53.712 23.987 52.048 26.195 52.048C28.291 52.048 29.715 53.536 29.715 55.728V56.272H23.555C23.635 58.16 24.627 59.248 26.291 59.248C27.555 59.248 28.371 58.704 28.659 57.68H29.715C29.299 59.312 28.099 60.192 26.275 60.192ZM26.195 52.992C24.739 52.992 23.779 53.952 23.587 55.472H28.611C28.611 53.984 27.651 52.992 26.195 52.992ZM39.1656 60.192C36.8936 60.192 35.3736 58.56 35.3736 56.128C35.3736 53.712 36.8776 52.048 39.0856 52.048C41.1816 52.048 42.6056 53.536 42.6056 55.728V56.272H36.4456C36.5256 58.16 37.5176 59.248 39.1816 59.248C40.4456 59.248 41.2616 58.704 41.5496 57.68H42.6056C42.1896 59.312 40.9896 60.192 39.1656 60.192ZM39.0856 52.992C37.6296 52.992 36.6696 53.952 36.4776 55.472H41.5016C41.5016 53.984 40.5416 52.992 39.0856 52.992ZM44.6108 60V48.544H48.8028C51.0108 48.544 52.3708 49.664 52.3708 51.504C52.3708 52.848 51.7788 53.76 50.5948 54.224C51.9228 54.656 52.5948 55.584 52.5948 56.992C52.5948 58.832 51.2188 60 49.0428 60H44.6108ZM48.7868 49.568H45.7628V53.76H48.9308C50.3708 53.76 51.1868 52.96 51.1868 51.6C51.1868 50.32 50.3228 49.568 48.7868 49.568ZM49.0428 54.768H45.7628V58.96H49.0428C50.5468 58.96 51.4268 58.176 51.4268 56.848C51.4268 55.552 50.5308 54.768 49.0428 54.768ZM53.8893 56.128C53.8893 53.76 55.5533 52.048 57.8253 52.048C60.0973 52.048 61.7613 53.76 61.7613 56.128C61.7613 58.48 60.0973 60.192 57.8253 60.192C55.5533 60.192 53.8893 58.48 53.8893 56.128ZM55.0093 56.112C55.0093 57.936 56.1613 59.2 57.8253 59.2C59.4733 59.2 60.6413 57.936 60.6413 56.112C60.6413 54.32 59.4733 53.04 57.8253 53.04C56.1613 53.04 55.0093 54.32 55.0093 56.112ZM62.983 56.128C62.983 53.76 64.647 52.048 66.919 52.048C69.191 52.048 70.855 53.76 70.855 56.128C70.855 58.48 69.191 60.192 66.919 60.192C64.647 60.192 62.983 58.48 62.983 56.128ZM64.103 56.112C64.103 57.936 65.255 59.2 66.919 59.2C68.567 59.2 69.735 57.936 69.735 56.112C69.735 54.32 68.567 53.04 66.919 53.04C65.255 53.04 64.103 54.32 64.103 56.112ZM73.7728 60H72.6688V48.336H73.7728V56.256L77.6128 52.256H79.0048L76.0288 55.344L79.0208 60H77.7408L75.2768 56.128L73.7728 57.68V60ZM79.7929 57.824H80.8489C80.8489 58.72 81.5209 59.28 82.6089 59.28C83.8089 59.28 84.5129 58.768 84.5129 57.936C84.5129 57.296 84.1929 56.928 83.2809 56.704L81.9529 56.368C80.6089 56.032 79.9529 55.328 79.9529 54.272C79.9529 52.912 81.0889 52.048 82.7529 52.048C84.3849 52.048 85.4409 52.944 85.4889 54.384H84.4169C84.3849 53.488 83.7609 52.96 82.7209 52.96C81.6329 52.96 81.0249 53.424 81.0249 54.256C81.0249 54.848 81.4409 55.264 82.2889 55.472L83.6169 55.808C84.9609 56.144 85.5689 56.768 85.5689 57.888C85.5689 59.28 84.3849 60.192 82.6249 60.192C80.8809 60.192 79.7929 59.264 79.7929 57.824ZM4.88 98H1.392V86.544H4.848C8.304 86.544 10.608 88.848 10.608 92.272C10.608 95.696 8.32 98 4.88 98ZM4.8 87.6H2.544V96.944H4.832C7.632 96.944 9.424 95.12 9.424 92.272C9.424 89.408 7.632 87.6 4.8 87.6ZM15.6969 98.192C13.4249 98.192 11.9049 96.56 11.9049 94.128C11.9049 91.712 13.4089 90.048 15.6169 90.048C17.7129 90.048 19.1369 91.536 19.1369 93.728V94.272H12.9769C13.0569 96.16 14.0489 97.248 15.7129 97.248C16.9769 97.248 17.7929 96.704 18.0809 95.68H19.1369C18.7209 97.312 17.5209 98.192 15.6969 98.192ZM15.6169 90.992C14.1609 90.992 13.2009 91.952 13.0089 93.472H18.0329C18.0329 91.984 17.0729 90.992 15.6169 90.992ZM22.8589 98L19.6909 90.256H20.8749L22.8749 95.248C23.0829 95.808 23.2909 96.336 23.4349 96.848C23.5789 96.32 23.7869 95.808 24.0109 95.248L26.0429 90.256H27.1789L23.9629 98H22.8589ZM31.3844 98.192C29.1124 98.192 27.5924 96.56 27.5924 94.128C27.5924 91.712 29.0964 90.048 31.3044 90.048C33.4004 90.048 34.8244 91.536 34.8244 93.728V94.272H28.6644C28.7444 96.16 29.7364 97.248 31.4004 97.248C32.6644 97.248 33.4804 96.704 33.7684 95.68H34.8244C34.4084 97.312 33.2084 98.192 31.3844 98.192ZM31.3044 90.992C29.8484 90.992 28.8884 91.952 28.6964 93.472H33.7204C33.7204 91.984 32.7604 90.992 31.3044 90.992ZM37.7415 98H36.6375V86.336H37.7415V98ZM39.5455 94.128C39.5455 91.76 41.2095 90.048 43.4815 90.048C45.7535 90.048 47.4175 91.76 47.4175 94.128C47.4175 96.48 45.7535 98.192 43.4815 98.192C41.2095 98.192 39.5455 96.48 39.5455 94.128ZM40.6655 94.112C40.6655 95.936 41.8175 97.2 43.4815 97.2C45.1295 97.2 46.2975 95.936 46.2975 94.112C46.2975 92.32 45.1295 91.04 43.4815 91.04C41.8175 91.04 40.6655 92.32 40.6655 94.112ZM49.1833 101.376V90.256H50.1432L50.2553 91.824C50.7993 90.624 51.8873 90.048 53.1833 90.048C55.4233 90.048 56.7673 91.76 56.7673 94.096C56.7673 96.432 55.4713 98.192 53.1833 98.192C51.8713 98.192 50.8313 97.632 50.2873 96.512V101.376H49.1833ZM50.3033 94.128C50.3033 95.904 51.2953 97.2 52.9913 97.2C54.6713 97.2 55.6473 95.904 55.6473 94.128C55.6473 92.336 54.6713 91.056 52.9913 91.056C51.2953 91.056 50.3033 92.336 50.3033 94.128ZM59.631 98H58.527V90.256H59.487L59.615 91.36C59.999 90.544 60.863 90.048 61.951 90.048C63.167 90.048 64.079 90.688 64.447 91.696C64.799 90.688 65.743 90.048 66.991 90.048C68.671 90.048 69.775 91.136 69.775 92.928V98H68.703V93.152C68.703 91.824 67.967 91.04 66.783 91.04C65.487 91.04 64.719 92.016 64.719 93.216V98H63.631V93.136C63.631 91.824 62.879 91.056 61.711 91.056C60.415 91.056 59.631 92.016 59.631 93.2V98ZM75.2438 98.192C72.9718 98.192 71.4518 96.56 71.4518 94.128C71.4518 91.712 72.9557 90.048 75.1638 90.048C77.2598 90.048 78.6838 91.536 78.6838 93.728V94.272H72.5238C72.6038 96.16 73.5958 97.248 75.2598 97.248C76.5238 97.248 77.3398 96.704 77.6278 95.68H78.6838C78.2678 97.312 77.0678 98.192 75.2438 98.192ZM75.1638 90.992C73.7078 90.992 72.7478 91.952 72.5558 93.472H77.5798C77.5798 91.984 76.6198 90.992 75.1638 90.992ZM81.5529 98H80.4489V90.256H81.4089L81.5689 91.6C82.0809 90.608 83.1049 90.048 84.2249 90.048C86.3529 90.048 87.2329 91.312 87.2329 93.264V98H86.1289V93.504C86.1289 91.696 85.3129 91.056 84.0329 91.056C82.4489 91.056 81.5529 92.208 81.5529 93.952V98ZM91.2093 98H90.1213V91.184H88.5693V90.256H90.1213V87.808H91.2093V90.256H92.7613V91.184H91.2093V98ZM97.6764 87.6V86.544H105.884V87.6H102.348V98H101.196V87.6H97.6764ZM111.717 90.256H112.821V98H111.861L111.717 96.688C111.285 97.584 110.213 98.192 108.997 98.192C107.173 98.192 106.181 96.944 106.181 95.056V90.24H107.301V94.704C107.301 96.544 108.117 97.2 109.349 97.2C110.837 97.2 111.717 96.208 111.717 94.368V90.256ZM116.897 98H115.809V91.184H114.257V90.256H115.809V87.808H116.897V90.256H118.449V91.184H116.897V98ZM119.264 94.128C119.264 91.76 120.928 90.048 123.2 90.048C125.472 90.048 127.136 91.76 127.136 94.128C127.136 96.48 125.472 98.192 123.2 98.192C120.928 98.192 119.264 96.48 119.264 94.128ZM120.384 94.112C120.384 95.936 121.536 97.2 123.2 97.2C124.848 97.2 126.016 95.936 126.016 94.112C126.016 92.32 124.848 91.04 123.2 91.04C121.536 91.04 120.384 92.32 120.384 94.112ZM132.95 90.16V91.152H132.342C130.918 91.152 130.006 92.112 130.006 93.584V98H128.902V90.256H129.942L130.022 91.456C130.326 90.624 131.142 90.08 132.23 90.08C132.47 90.08 132.678 90.096 132.95 90.16ZM134.962 88.128C134.514 88.128 134.146 87.76 134.146 87.312C134.146 86.864 134.514 86.48 134.962 86.48C135.41 86.48 135.794 86.864 135.794 87.312C135.794 87.76 135.41 88.128 134.962 88.128ZM134.418 98V90.256H135.522V98H134.418ZM140.048 98.192C138.4 98.192 137.424 97.264 137.424 95.904C137.424 94.48 138.512 93.584 140.32 93.44L142.88 93.232V92.976C142.88 91.456 141.968 90.976 140.832 90.976C139.488 90.976 138.688 91.584 138.688 92.624H137.68C137.68 91.056 138.96 90.048 140.864 90.048C142.656 90.048 143.968 90.944 143.968 92.992V98H143.04L142.896 96.64C142.416 97.616 141.36 98.192 140.048 98.192ZM140.304 97.296C141.936 97.296 142.88 96.16 142.88 94.48V94.064L140.592 94.24C139.136 94.368 138.544 95.008 138.544 95.872C138.544 96.816 139.248 97.296 140.304 97.296ZM147.335 98H146.231V86.336H147.335V98ZM2.544 136H1.392V124.544H2.544V129.648H8.736V124.544H9.872V136H8.736V130.72H2.544V136ZM11.8893 132.128C11.8893 129.76 13.5533 128.048 15.8253 128.048C18.0973 128.048 19.7613 129.76 19.7613 132.128C19.7613 134.48 18.0973 136.192 15.8253 136.192C13.5533 136.192 11.8893 134.48 11.8893 132.128ZM13.0093 132.112C13.0093 133.936 14.1613 135.2 15.8253 135.2C17.4733 135.2 18.6413 133.936 18.6413 132.112C18.6413 130.32 17.4733 129.04 15.8253 129.04C14.1613 129.04 13.0093 130.32 13.0093 132.112ZM22.8153 136L20.2553 128.256H21.3913L22.9113 132.928C23.0873 133.44 23.2313 133.968 23.3913 134.592C23.5193 133.968 23.7753 133.184 23.8553 132.928L25.3913 128.256H26.5273L28.0473 132.928C28.1913 133.344 28.3833 134.016 28.5273 134.592C28.6873 133.952 28.7193 133.76 28.9913 132.928L30.5273 128.256H31.6793L29.0553 136H27.9833L26.3833 131.136C26.1913 130.56 26.0633 130.08 25.9673 129.616C25.8553 130.032 25.7273 130.496 25.5193 131.136L23.9193 136H22.8153ZM39.2718 136H38.1838V129.184H36.6318V128.256H38.1838V125.808H39.2718V128.256H40.8238V129.184H39.2718V136ZM41.6393 132.128C41.6393 129.76 43.3033 128.048 45.5753 128.048C47.8473 128.048 49.5113 129.76 49.5113 132.128C49.5113 134.48 47.8473 136.192 45.5753 136.192C43.3033 136.192 41.6393 134.48 41.6393 132.128ZM42.7593 132.112C42.7593 133.936 43.9113 135.2 45.5753 135.2C47.2233 135.2 48.3913 133.936 48.3913 132.112C48.3913 130.32 47.2233 129.04 45.5753 129.04C43.9113 129.04 42.7593 130.32 42.7593 132.112ZM55.5865 132.288V131.296H60.2265V132.288H55.5865ZM67.0795 136V124.544H71.2715C73.4795 124.544 74.8395 125.664 74.8395 127.504C74.8395 128.848 74.2475 129.76 73.0635 130.224C74.3915 130.656 75.0635 131.584 75.0635 132.992C75.0635 134.832 73.6875 136 71.5115 136H67.0795ZM71.2555 125.568H68.2315V129.76H71.3995C72.8395 129.76 73.6555 128.96 73.6555 127.6C73.6555 126.32 72.7915 125.568 71.2555 125.568ZM71.5115 130.768H68.2315V134.96H71.5115C73.0155 134.96 73.8955 134.176 73.8955 132.848C73.8955 131.552 72.9995 130.768 71.5115 130.768ZM78.054 136H76.95V124.336H78.054V136ZM79.858 132.128C79.858 129.76 81.522 128.048 83.794 128.048C86.066 128.048 87.73 129.76 87.73 132.128C87.73 134.48 86.066 136.192 83.794 136.192C81.522 136.192 79.858 134.48 79.858 132.128ZM80.978 132.112C80.978 133.936 82.13 135.2 83.794 135.2C85.442 135.2 86.61 133.936 86.61 132.112C86.61 130.32 85.442 129.04 83.794 129.04C82.13 129.04 80.978 130.32 80.978 132.112ZM88.9678 131.904C88.9678 129.792 90.3278 128.048 92.5998 128.048C93.9438 128.048 94.9678 128.672 95.4638 129.808L95.5758 128.256H96.5358V135.76C96.5358 138.064 95.0638 139.568 92.7918 139.568C90.8078 139.568 89.4158 138.448 89.1118 136.576H90.2158C90.4557 137.824 91.4158 138.56 92.8078 138.56C94.3918 138.56 95.4478 137.488 95.4478 135.872V134.032C94.9198 135.12 93.8478 135.76 92.5198 135.76C90.3118 135.76 88.9678 134.016 88.9678 131.904ZM90.0718 131.888C90.0718 133.472 91.0478 134.768 92.6798 134.768C94.3598 134.768 95.3518 133.552 95.3518 131.888C95.3518 130.24 94.3918 129.024 92.6958 129.024C91.0318 129.024 90.0718 130.32 90.0718 131.888ZM4.048 169.216L0.16 162.544H1.456L4.288 167.488C4.416 167.728 4.512 167.92 4.624 168.176C4.768 167.888 4.768 167.888 4.976 167.488L7.776 162.544H9.04L5.2 169.216V174H4.048V169.216ZM8.31113 170.128C8.31113 167.76 9.97513 166.048 12.2471 166.048C14.5191 166.048 16.1831 167.76 16.1831 170.128C16.1831 172.48 14.5191 174.192 12.2471 174.192C9.97513 174.192 8.31113 172.48 8.31113 170.128ZM9.43113 170.112C9.43113 171.936 10.5831 173.2 12.2471 173.2C13.8951 173.2 15.0631 171.936 15.0631 170.112C15.0631 168.32 13.8951 167.04 12.2471 167.04C10.5831 167.04 9.43113 168.32 9.43113 170.112ZM23.2014 166.256H24.3054V174H23.3454L23.2014 172.688C22.7694 173.584 21.6974 174.192 20.4814 174.192C18.6574 174.192 17.6654 172.944 17.6654 171.056V166.24H18.7854V170.704C18.7854 172.544 19.6014 173.2 20.8334 173.2C22.3214 173.2 23.2014 172.208 23.2014 170.368V166.256ZM28.3811 174H27.2931V167.184H25.7411V166.256H27.2931V163.808H28.3811V166.256H29.9331V167.184H28.3811V174ZM36.8108 166.256H37.9148V174H36.9548L36.8108 172.688C36.3788 173.584 35.3068 174.192 34.0908 174.192C32.2668 174.192 31.2747 172.944 31.2747 171.056V166.24H32.3948V170.704C32.3948 172.544 33.2108 173.2 34.4427 173.2C35.9308 173.2 36.8108 172.208 36.8108 170.368V166.256ZM41.1745 174H40.2145V162.336H41.3185V167.76C41.8625 166.624 42.9185 166.048 44.2305 166.048C46.4865 166.048 47.7985 167.808 47.7985 170.144C47.7985 172.464 46.4545 174.192 44.1985 174.192C42.9025 174.192 41.8305 173.616 41.2865 172.416L41.1745 174ZM41.3345 170.112C41.3345 171.904 42.3265 173.184 44.0225 173.184C45.7025 173.184 46.6785 171.904 46.6785 170.112C46.6785 168.336 45.7025 167.04 44.0225 167.04C42.3265 167.04 41.3345 168.336 41.3345 170.112ZM52.8063 174.192C50.5343 174.192 49.0143 172.56 49.0143 170.128C49.0143 167.712 50.5182 166.048 52.7263 166.048C54.8223 166.048 56.2463 167.536 56.2463 169.728V170.272H50.0863C50.1663 172.16 51.1583 173.248 52.8223 173.248C54.0863 173.248 54.9023 172.704 55.1903 171.68H56.2463C55.8303 173.312 54.6303 174.192 52.8063 174.192ZM52.7263 166.992C51.2703 166.992 50.3103 167.952 50.1183 169.472H55.1423C55.1423 167.984 54.1823 166.992 52.7263 166.992ZM67.0569 169.792H63.8409V174H62.6889V162.544H67.0569C69.2649 162.544 70.6569 163.984 70.6569 166.144C70.6569 168.224 69.2489 169.792 67.0569 169.792ZM66.8969 163.584H63.8409V168.752H66.8329C68.4969 168.752 69.4569 167.696 69.4569 166.128C69.4569 164.544 68.4809 163.584 66.8969 163.584ZM73.429 174H72.325V162.336H73.429V174ZM78.001 174.192C76.353 174.192 75.377 173.264 75.377 171.904C75.377 170.48 76.465 169.584 78.273 169.44L80.833 169.232V168.976C80.833 167.456 79.921 166.976 78.785 166.976C77.441 166.976 76.641 167.584 76.641 168.624H75.633C75.633 167.056 76.913 166.048 78.817 166.048C80.609 166.048 81.921 166.944 81.921 168.992V174H80.993L80.849 172.64C80.369 173.616 79.313 174.192 78.001 174.192ZM78.257 173.296C79.889 173.296 80.833 172.16 80.833 170.48V170.064L78.545 170.24C77.089 170.368 76.497 171.008 76.497 171.872C76.497 172.816 77.201 173.296 78.257 173.296ZM83.1805 177.376V176.464H84.0285C84.7005 176.464 85.3725 176.416 85.7565 175.376L86.0925 174.464L82.9565 166.256H84.1245L86.6205 173.008L89.0685 166.256H90.2045L86.6525 175.776C86.2045 176.992 85.4525 177.488 84.3485 177.488C83.8845 177.488 83.5325 177.456 83.1805 177.376ZM92.6478 174H91.5438V162.336H92.6478V174ZM95.5398 164.128C95.0918 164.128 94.7238 163.76 94.7238 163.312C94.7238 162.864 95.0918 162.48 95.5398 162.48C95.9878 162.48 96.3718 162.864 96.3718 163.312C96.3718 163.76 95.9878 164.128 95.5398 164.128ZM94.9958 174V166.256H96.0998V174H94.9958ZM97.746 171.824H98.802C98.802 172.72 99.474 173.28 100.562 173.28C101.762 173.28 102.466 172.768 102.466 171.936C102.466 171.296 102.146 170.928 101.234 170.704L99.906 170.368C98.562 170.032 97.906 169.328 97.906 168.272C97.906 166.912 99.042 166.048 100.706 166.048C102.338 166.048 103.394 166.944 103.442 168.384H102.37C102.338 167.488 101.714 166.96 100.674 166.96C99.586 166.96 98.978 167.424 98.978 168.256C98.978 168.848 99.394 169.264 100.242 169.472L101.57 169.808C102.914 170.144 103.522 170.768 103.522 171.888C103.522 173.28 102.338 174.192 100.578 174.192C98.834 174.192 97.746 173.264 97.746 171.824ZM107.116 174H106.028V167.184H104.476V166.256H106.028V163.808H107.116V166.256H108.668V167.184H107.116V174Z" fill="black" fill-opacity="0.6"/>
</svg>
