<svg width="610" height="242" viewBox="0 0 610 242" fill="none" xmlns="http://www.w3.org/2000/svg">
<rect x="0.5" y="0.5" width="609" height="240.579" rx="19.5" stroke="black" stroke-opacity="0.1"/>
<path d="M43.2895 28L46.4879 34.8872L54.0264 35.8008L48.4647 40.971L49.9253 48.4229L43.2895 44.731L36.6537 48.4229L38.1143 40.971L32.5525 35.8008L40.091 34.8872L43.2895 28Z" fill="#FFC633"/>
<path d="M72.3552 28L75.5536 34.8872L83.0921 35.8008L77.5304 40.971L78.991 48.4229L72.3552 44.731L65.7194 48.4229L67.18 40.971L61.6182 35.8008L69.1567 34.8872L72.3552 28Z" fill="#FFC633"/>
<path d="M101.421 28L104.62 34.8872L112.158 35.8008L106.596 40.971L108.057 48.4229L101.421 44.731L94.7853 48.4229L96.2459 40.971L90.6841 35.8008L98.2226 34.8872L101.421 28Z" fill="#FFC633"/>
<path d="M123.298 48.4229L129.934 44.731V28L126.736 34.8872L119.197 35.8008L124.759 40.971L123.298 48.4229Z" fill="#FFC633"/>
<path d="M42.7 85.079H33.62V70.459H42.7V72.819H36.18V76.579H42.02V78.839H36.18V82.719H42.7V85.079ZM48.4755 85.079H46.0355V77.239H44.1355V75.199H46.0355V72.119H48.4755V75.199H50.3955V77.239H48.4755V85.079ZM54.3523 85.079H51.9123V70.199H54.3723V76.479C54.9923 75.519 56.1523 74.899 57.5723 74.899C60.0123 74.899 61.2923 76.439 61.2923 78.999V85.079H58.8523V79.579C58.8523 77.919 58.0323 77.119 56.7923 77.119C55.2523 77.119 54.3523 78.199 54.3523 79.679V85.079ZM66.6297 85.339C64.5297 85.339 63.2497 84.119 63.2497 82.259C63.2497 80.439 64.5697 79.299 66.9097 79.119L69.8697 78.899V78.679C69.8697 77.339 69.0697 76.799 67.8297 76.799C66.3897 76.799 65.5897 77.399 65.5897 78.439H63.5097C63.5097 76.299 65.2697 74.899 67.9497 74.899C70.6097 74.899 72.2497 76.339 72.2497 79.079V85.079H70.1097L69.9297 83.619C69.5097 84.639 68.1697 85.339 66.6297 85.339ZM67.4297 83.499C68.9297 83.499 69.8897 82.599 69.8897 81.079V80.559L67.8297 80.719C66.3097 80.859 65.7297 81.359 65.7297 82.159C65.7297 83.059 66.3297 83.499 67.4297 83.499ZM77.0867 85.079H74.6467V75.199H76.9067L77.1067 76.479C77.7267 75.479 78.9267 74.899 80.2667 74.899C82.7467 74.899 84.0267 76.439 84.0267 78.999V85.079H81.5867V79.579C81.5867 77.919 80.7667 77.119 79.5067 77.119C78.0067 77.119 77.0867 78.159 77.0867 79.759V85.079ZM94.7347 85.079H92.1747V70.459H97.7547C101.075 70.459 103.015 72.139 103.015 75.019C103.015 76.979 102.095 78.379 100.375 79.079L103.155 85.079H100.355L97.8747 79.619H94.7347V85.079ZM94.7347 72.739V77.359H97.7547C99.3747 77.359 100.335 76.499 100.335 75.019C100.335 73.559 99.3747 72.739 97.7547 72.739H94.7347ZM106.716 85.319C105.836 85.319 105.096 84.599 105.096 83.739C105.096 82.859 105.836 82.139 106.716 82.139C107.596 82.139 108.336 82.859 108.336 83.739C108.336 84.599 107.596 85.319 106.716 85.319Z" fill="black"/>
<path d="M126 67.829C124.072 67.829 122.187 68.4008 120.583 69.4722C118.98 70.5435 117.73 72.0662 116.992 73.8478C116.254 75.6294 116.061 77.5898 116.437 79.4811C116.814 81.3724 117.742 83.1097 119.106 84.4733C120.469 85.8368 122.207 86.7654 124.098 87.1416C125.989 87.5178 127.95 87.3248 129.731 86.5868C131.513 85.8489 133.035 84.5992 134.107 82.9958C135.178 81.3924 135.75 79.5073 135.75 77.579C135.747 74.994 134.719 72.5156 132.891 70.6877C131.063 68.8598 128.585 67.8317 126 67.829ZM130.281 75.8596L125.031 81.1096C124.961 81.1793 124.878 81.2347 124.787 81.2724C124.696 81.3101 124.599 81.3296 124.5 81.3296C124.401 81.3296 124.304 81.3101 124.213 81.2724C124.122 81.2347 124.039 81.1793 123.969 81.1096L121.719 78.8596C121.579 78.7189 121.5 78.528 121.5 78.329C121.5 78.13 121.579 77.9391 121.719 77.7984C121.86 77.6576 122.051 77.5786 122.25 77.5786C122.449 77.5786 122.64 77.6576 122.781 77.7984L124.5 79.5187L129.219 74.7984C129.289 74.7287 129.372 74.6734 129.463 74.6357C129.554 74.598 129.651 74.5786 129.75 74.5786C129.849 74.5786 129.946 74.598 130.037 74.6357C130.128 74.6734 130.211 74.7287 130.281 74.7984C130.35 74.868 130.406 74.9508 130.443 75.0418C130.481 75.1329 130.5 75.2304 130.5 75.329C130.5 75.4275 130.481 75.5251 130.443 75.6162C130.406 75.7072 130.35 75.7899 130.281 75.8596Z" fill="#01AB31"/>
<path d="M34.08 107.907L33.776 111.091H33.056L32.736 107.907C32.672 107.347 33.072 107.091 33.424 107.091C33.76 107.091 34.144 107.347 34.08 107.907ZM36.336 107.907L36.032 111.091H35.312L34.992 107.907C34.928 107.347 35.328 107.091 35.68 107.091C36.016 107.091 36.4 107.347 36.336 107.907ZM37.5826 108.179V107.123H45.7906V108.179H42.2546V118.579H41.1026V108.179H37.5826ZM48.2404 118.563H47.1364V106.915H48.2404V112.179C48.7364 111.251 49.6804 110.627 50.9764 110.627C53.0084 110.627 53.9204 111.891 53.9204 113.843V118.579H52.8164V114.083C52.8164 112.275 51.9684 111.635 50.7684 111.635C49.1044 111.635 48.2404 112.867 48.2404 114.355V118.563ZM56.6648 108.707C56.2168 108.707 55.8488 108.339 55.8488 107.891C55.8488 107.443 56.2168 107.059 56.6648 107.059C57.1128 107.059 57.4968 107.443 57.4968 107.891C57.4968 108.339 57.1128 108.707 56.6648 108.707ZM56.1208 118.579V110.835H57.2248V118.579H56.1208ZM58.871 116.403H59.927C59.927 117.299 60.599 117.859 61.687 117.859C62.887 117.859 63.591 117.347 63.591 116.515C63.591 115.875 63.271 115.507 62.359 115.283L61.031 114.947C59.687 114.611 59.031 113.907 59.031 112.851C59.031 111.491 60.167 110.627 61.831 110.627C63.463 110.627 64.519 111.523 64.567 112.963H63.495C63.463 112.067 62.839 111.539 61.799 111.539C60.711 111.539 60.103 112.003 60.103 112.835C60.103 113.427 60.519 113.843 61.367 114.051L62.695 114.387C64.039 114.723 64.647 115.347 64.647 116.467C64.647 117.859 63.463 118.771 61.703 118.771C59.959 118.771 58.871 117.843 58.871 116.403ZM72.678 118.579H71.59V111.763H70.038V110.835H71.59V108.387H72.678V110.835H74.23V111.763H72.678V118.579ZM75.2271 114.867V113.875H79.8671V114.867H75.2271ZM81.3554 116.403H82.4114C82.4114 117.299 83.0834 117.859 84.1714 117.859C85.3714 117.859 86.0754 117.347 86.0754 116.515C86.0754 115.875 85.7554 115.507 84.8434 115.283L83.5154 114.947C82.1714 114.611 81.5154 113.907 81.5154 112.851C81.5154 111.491 82.6514 110.627 84.3154 110.627C85.9474 110.627 87.0034 111.523 87.0514 112.963H85.9794C85.9474 112.067 85.3234 111.539 84.2834 111.539C83.1954 111.539 82.5874 112.003 82.5874 112.835C82.5874 113.427 83.0034 113.843 83.8514 114.051L85.1794 114.387C86.5234 114.723 87.1314 115.347 87.1314 116.467C87.1314 117.859 85.9474 118.771 84.1874 118.771C82.4434 118.771 81.3554 117.843 81.3554 116.403ZM90.0529 118.563H88.9489V106.915H90.0529V112.179C90.5489 111.251 91.4929 110.627 92.7889 110.627C94.8209 110.627 95.7329 111.891 95.7329 113.843V118.579H94.6289V114.083C94.6289 112.275 93.7809 111.635 92.5809 111.635C90.9169 111.635 90.0529 112.867 90.0529 114.355V118.563ZM98.4773 108.707C98.0293 108.707 97.6613 108.339 97.6613 107.891C97.6613 107.443 98.0293 107.059 98.4773 107.059C98.9253 107.059 99.3093 107.443 99.3093 107.891C99.3093 108.339 98.9253 108.707 98.4773 108.707ZM97.9333 118.579V110.835H99.0373V118.579H97.9333ZM105.388 110.739V111.731H104.78C103.356 111.731 102.444 112.691 102.444 114.163V118.579H101.34V110.835H102.38L102.46 112.035C102.764 111.203 103.58 110.659 104.668 110.659C104.908 110.659 105.116 110.675 105.388 110.739ZM108.944 118.579H107.856V111.763H106.304V110.835H107.856V108.387H108.944V110.835H110.496V111.763H108.944V118.579ZM116.915 108.707C116.467 108.707 116.099 108.339 116.099 107.891C116.099 107.443 116.467 107.059 116.915 107.059C117.363 107.059 117.747 107.443 117.747 107.891C117.747 108.339 117.363 108.707 116.915 108.707ZM116.371 118.579V110.835H117.475V118.579H116.371ZM119.121 116.403H120.177C120.177 117.299 120.849 117.859 121.937 117.859C123.137 117.859 123.841 117.347 123.841 116.515C123.841 115.875 123.521 115.507 122.609 115.283L121.281 114.947C119.937 114.611 119.281 113.907 119.281 112.851C119.281 111.491 120.417 110.627 122.081 110.627C123.713 110.627 124.769 111.523 124.817 112.963H123.745C123.713 112.067 123.089 111.539 122.049 111.539C120.961 111.539 120.353 112.003 120.353 112.835C120.353 113.427 120.769 113.843 121.617 114.051L122.945 114.387C124.289 114.723 124.897 115.347 124.897 116.467C124.897 117.859 123.713 118.771 121.953 118.771C120.209 118.771 119.121 117.843 119.121 116.403ZM133.376 118.771C131.728 118.771 130.752 117.843 130.752 116.483C130.752 115.059 131.84 114.163 133.648 114.019L136.208 113.811V113.555C136.208 112.035 135.296 111.555 134.16 111.555C132.816 111.555 132.016 112.163 132.016 113.203H131.008C131.008 111.635 132.288 110.627 134.192 110.627C135.984 110.627 137.296 111.523 137.296 113.571V118.579H136.368L136.224 117.219C135.744 118.195 134.688 118.771 133.376 118.771ZM133.632 117.875C135.264 117.875 136.208 116.739 136.208 115.059V114.643L133.92 114.819C132.464 114.947 131.872 115.587 131.872 116.451C131.872 117.395 132.576 117.875 133.632 117.875ZM145.053 118.579H143.949V110.835H144.909L145.037 111.939C145.421 111.123 146.285 110.627 147.373 110.627C148.589 110.627 149.501 111.267 149.869 112.275C150.221 111.267 151.165 110.627 152.413 110.627C154.093 110.627 155.197 111.715 155.197 113.507V118.579H154.125V113.731C154.125 112.403 153.389 111.619 152.205 111.619C150.909 111.619 150.141 112.595 150.141 113.795V118.579H149.053V113.715C149.053 112.403 148.301 111.635 147.133 111.635C145.837 111.635 145.053 112.595 145.053 113.779V118.579ZM162.858 110.835H163.962V118.579H163.002L162.858 117.267C162.426 118.163 161.354 118.771 160.138 118.771C158.314 118.771 157.322 117.523 157.322 115.635V110.819H158.442V115.283C158.442 117.123 159.258 117.779 160.49 117.779C161.978 117.779 162.858 116.787 162.858 114.947V110.835ZM165.449 116.403H166.505C166.505 117.299 167.177 117.859 168.265 117.859C169.465 117.859 170.169 117.347 170.169 116.515C170.169 115.875 169.849 115.507 168.937 115.283L167.609 114.947C166.265 114.611 165.609 113.907 165.609 112.851C165.609 111.491 166.745 110.627 168.409 110.627C170.041 110.627 171.097 111.523 171.145 112.963H170.073C170.041 112.067 169.417 111.539 168.377 111.539C167.289 111.539 166.681 112.003 166.681 112.835C166.681 113.427 167.097 113.843 167.945 114.051L169.273 114.387C170.617 114.723 171.225 115.347 171.225 116.467C171.225 117.859 170.041 118.771 168.281 118.771C166.537 118.771 165.449 117.843 165.449 116.403ZM174.819 118.579H173.731V111.763H172.179V110.835H173.731V108.387H174.819V110.835H176.371V111.763H174.819V118.579ZM177.368 114.867V113.875H182.008V114.867H177.368ZM185.287 118.563H184.183V106.915H185.287V112.179C185.783 111.251 186.727 110.627 188.023 110.627C190.055 110.627 190.967 111.891 190.967 113.843V118.579H189.863V114.083C189.863 112.275 189.015 111.635 187.815 111.635C186.151 111.635 185.287 112.867 185.287 114.355V118.563ZM195.392 118.771C193.744 118.771 192.768 117.843 192.768 116.483C192.768 115.059 193.856 114.163 195.664 114.019L198.224 113.811V113.555C198.224 112.035 197.312 111.555 196.176 111.555C194.832 111.555 194.032 112.163 194.032 113.203H193.024C193.024 111.635 194.304 110.627 196.208 110.627C198 110.627 199.312 111.523 199.312 113.571V118.579H198.384L198.24 117.219C197.76 118.195 196.704 118.771 195.392 118.771ZM195.648 117.875C197.28 117.875 198.224 116.739 198.224 115.059V114.643L195.936 114.819C194.48 114.947 193.888 115.587 193.888 116.451C193.888 117.395 194.592 117.875 195.648 117.875ZM203.375 118.579L200.207 110.835H201.391L203.391 115.827C203.599 116.387 203.807 116.915 203.951 117.427C204.095 116.899 204.303 116.387 204.527 115.827L206.559 110.835H207.695L204.479 118.579H203.375ZM211.9 118.771C209.628 118.771 208.108 117.139 208.108 114.707C208.108 112.291 209.612 110.627 211.82 110.627C213.916 110.627 215.34 112.115 215.34 114.307V114.851H209.18C209.26 116.739 210.252 117.827 211.916 117.827C213.18 117.827 213.996 117.283 214.284 116.259H215.34C214.924 117.891 213.724 118.771 211.9 118.771ZM211.82 111.571C210.364 111.571 209.404 112.531 209.212 114.051H214.236C214.236 112.563 213.276 111.571 211.82 111.571ZM220.679 110.835H221.863V109.331C221.863 107.587 222.823 106.915 224.007 106.915C224.279 106.915 224.599 106.931 224.855 106.979V107.923H224.199C223.223 107.923 222.967 108.419 222.967 109.331V110.835H224.791V111.763H222.967V118.579H221.863V111.763H220.679V110.835ZM225.514 114.707C225.514 112.339 227.178 110.627 229.45 110.627C231.722 110.627 233.386 112.339 233.386 114.707C233.386 117.059 231.722 118.771 229.45 118.771C227.178 118.771 225.514 117.059 225.514 114.707ZM226.634 114.691C226.634 116.515 227.786 117.779 229.45 117.779C231.098 117.779 232.266 116.515 232.266 114.691C232.266 112.899 231.098 111.619 229.45 111.619C227.786 111.619 226.634 112.899 226.634 114.691ZM239.2 110.739V111.731H238.592C237.168 111.731 236.256 112.691 236.256 114.163V118.579H235.152V110.835H236.192L236.272 112.035C236.576 111.203 237.392 110.659 238.48 110.659C238.72 110.659 238.928 110.675 239.2 110.739ZM247.329 118.771C245.681 118.771 244.705 117.843 244.705 116.483C244.705 115.059 245.793 114.163 247.601 114.019L250.161 113.811V113.555C250.161 112.035 249.249 111.555 248.113 111.555C246.769 111.555 245.969 112.163 245.969 113.203H244.961C244.961 111.635 246.241 110.627 248.145 110.627C249.937 110.627 251.249 111.523 251.249 113.571V118.579H250.321L250.177 117.219C249.697 118.195 248.641 118.771 247.329 118.771ZM247.585 117.875C249.217 117.875 250.161 116.739 250.161 115.059V114.643L247.873 114.819C246.417 114.947 245.825 115.587 245.825 116.451C245.825 117.395 246.529 117.875 247.585 117.875ZM254.569 118.579H253.465V110.835H254.424L254.585 112.179C255.097 111.187 256.121 110.627 257.241 110.627C259.369 110.627 260.249 111.891 260.249 113.843V118.579H259.145V114.083C259.145 112.275 258.329 111.635 257.049 111.635C255.465 111.635 254.569 112.787 254.569 114.531V118.579ZM261.509 121.955V121.043H262.357C263.029 121.043 263.701 120.995 264.085 119.955L264.421 119.043L261.285 110.835H262.453L264.949 117.587L267.397 110.835H268.533L264.981 120.355C264.533 121.571 263.781 122.067 262.677 122.067C262.213 122.067 261.861 122.035 261.509 121.955ZM269.014 114.707C269.014 112.339 270.678 110.627 272.95 110.627C275.222 110.627 276.886 112.339 276.886 114.707C276.886 117.059 275.222 118.771 272.95 118.771C270.678 118.771 269.014 117.059 269.014 114.707ZM270.134 114.691C270.134 116.515 271.286 117.779 272.95 117.779C274.598 117.779 275.766 116.515 275.766 114.691C275.766 112.899 274.598 111.619 272.95 111.619C271.286 111.619 270.134 112.899 270.134 114.691ZM279.756 118.579H278.652V110.835H279.612L279.772 112.179C280.284 111.187 281.308 110.627 282.428 110.627C284.556 110.627 285.436 111.891 285.436 113.843V118.579H284.332V114.083C284.332 112.275 283.516 111.635 282.236 111.635C280.652 111.635 279.756 112.787 279.756 114.531V118.579ZM290.884 118.771C288.612 118.771 287.092 117.139 287.092 114.707C287.092 112.291 288.596 110.627 290.804 110.627C292.9 110.627 294.324 112.115 294.324 114.307V114.851H288.164C288.244 116.739 289.236 117.827 290.9 117.827C292.164 117.827 292.98 117.283 293.268 116.259H294.324C293.908 117.891 292.708 118.771 290.884 118.771ZM290.804 111.571C289.348 111.571 288.388 112.531 288.196 114.051H293.22C293.22 112.563 292.26 111.571 290.804 111.571ZM302.159 118.579L299.599 110.835H300.735L302.255 115.507C302.431 116.019 302.575 116.547 302.735 117.171C302.863 116.547 303.119 115.763 303.199 115.507L304.735 110.835H305.871L307.391 115.507C307.535 115.923 307.727 116.595 307.871 117.171C308.031 116.531 308.063 116.339 308.335 115.507L309.871 110.835H311.023L308.399 118.579H307.327L305.727 113.715C305.535 113.139 305.407 112.659 305.311 112.195C305.199 112.611 305.071 113.075 304.863 113.715L303.263 118.579H302.159ZM313.506 118.563H312.402V106.915H313.506V112.179C314.002 111.251 314.946 110.627 316.242 110.627C318.274 110.627 319.186 111.891 319.186 113.843V118.579H318.082V114.083C318.082 112.275 317.234 111.635 316.034 111.635C314.37 111.635 313.506 112.867 313.506 114.355V118.563ZM320.842 114.707C320.842 112.339 322.506 110.627 324.778 110.627C327.05 110.627 328.714 112.339 328.714 114.707C328.714 117.059 327.05 118.771 324.778 118.771C322.506 118.771 320.842 117.059 320.842 114.707ZM321.962 114.691C321.962 116.515 323.114 117.779 324.778 117.779C326.426 117.779 327.594 116.515 327.594 114.691C327.594 112.899 326.426 111.619 324.778 111.619C323.114 111.619 321.962 112.899 321.962 114.691ZM337.142 118.771C335.494 118.771 334.518 117.843 334.518 116.483C334.518 115.059 335.606 114.163 337.414 114.019L339.974 113.811V113.555C339.974 112.035 339.062 111.555 337.926 111.555C336.582 111.555 335.782 112.163 335.782 113.203H334.774C334.774 111.635 336.054 110.627 337.958 110.627C339.75 110.627 341.062 111.523 341.062 113.571V118.579H340.134L339.99 117.219C339.51 118.195 338.454 118.771 337.142 118.771ZM337.398 117.875C339.03 117.875 339.974 116.739 339.974 115.059V114.643L337.686 114.819C336.23 114.947 335.638 115.587 335.638 116.451C335.638 117.395 336.342 117.875 337.398 117.875ZM343.277 121.955V110.835H344.237L344.349 112.403C344.893 111.203 345.981 110.627 347.277 110.627C349.517 110.627 350.861 112.339 350.861 114.675C350.861 117.011 349.565 118.771 347.277 118.771C345.965 118.771 344.925 118.211 344.381 117.091V121.955H343.277ZM344.397 114.707C344.397 116.483 345.389 117.779 347.085 117.779C348.765 117.779 349.741 116.483 349.741 114.707C349.741 112.915 348.765 111.635 347.085 111.635C345.389 111.635 344.397 112.915 344.397 114.707ZM352.621 121.955V110.835H353.581L353.693 112.403C354.237 111.203 355.325 110.627 356.621 110.627C358.861 110.627 360.205 112.339 360.205 114.675C360.205 117.011 358.909 118.771 356.621 118.771C355.309 118.771 354.269 118.211 353.725 117.091V121.955H352.621ZM353.741 114.707C353.741 116.483 354.733 117.779 356.429 117.779C358.109 117.779 359.085 116.483 359.085 114.707C359.085 112.915 358.109 111.635 356.429 111.635C354.733 111.635 353.741 112.915 353.741 114.707ZM366.013 110.739V111.731H365.405C363.981 111.731 363.069 112.691 363.069 114.163V118.579H361.965V110.835H363.005L363.085 112.035C363.389 111.203 364.205 110.659 365.293 110.659C365.533 110.659 365.741 110.675 366.013 110.739ZM370.431 118.771C368.159 118.771 366.639 117.139 366.639 114.707C366.639 112.291 368.143 110.627 370.351 110.627C372.447 110.627 373.871 112.115 373.871 114.307V114.851H367.711C367.791 116.739 368.783 117.827 370.447 117.827C371.711 117.827 372.527 117.283 372.815 116.259H373.871C373.455 117.891 372.255 118.771 370.431 118.771ZM370.351 111.571C368.895 111.571 367.935 112.531 367.743 114.051H372.767C372.767 112.563 371.807 111.571 370.351 111.571ZM375.092 114.723C375.092 112.291 376.58 110.627 378.836 110.627C380.628 110.627 381.94 111.667 382.244 113.267H381.14C380.852 112.195 379.924 111.603 378.852 111.603C377.284 111.603 376.18 112.803 376.18 114.707C376.18 116.547 377.204 117.779 378.772 117.779C379.924 117.779 380.852 117.139 381.156 116.147H382.276C381.908 117.731 380.532 118.771 378.772 118.771C376.58 118.771 375.092 117.155 375.092 114.723ZM384.493 108.707C384.045 108.707 383.677 108.339 383.677 107.891C383.677 107.443 384.045 107.059 384.493 107.059C384.941 107.059 385.325 107.443 385.325 107.891C385.325 108.339 384.941 108.707 384.493 108.707ZM383.949 118.579V110.835H385.053V118.579H383.949ZM389.579 118.771C387.931 118.771 386.955 117.843 386.955 116.483C386.955 115.059 388.043 114.163 389.851 114.019L392.411 113.811V113.555C392.411 112.035 391.499 111.555 390.363 111.555C389.019 111.555 388.219 112.163 388.219 113.203H387.211C387.211 111.635 388.491 110.627 390.395 110.627C392.187 110.627 393.499 111.523 393.499 113.571V118.579H392.571L392.427 117.219C391.947 118.195 390.891 118.771 389.579 118.771ZM389.835 117.875C391.467 117.875 392.411 116.739 392.411 115.059V114.643L390.123 114.819C388.667 114.947 388.075 115.587 388.075 116.451C388.075 117.395 388.779 117.875 389.835 117.875ZM397.35 118.579H396.262V111.763H394.71V110.835H396.262V108.387H397.35V110.835H398.902V111.763H397.35V118.579ZM403.509 118.771C401.237 118.771 399.717 117.139 399.717 114.707C399.717 112.291 401.221 110.627 403.429 110.627C405.525 110.627 406.949 112.115 406.949 114.307V114.851H400.789C400.869 116.739 401.861 117.827 403.525 117.827C404.789 117.827 405.605 117.283 405.893 116.259H406.949C406.533 117.891 405.333 118.771 403.509 118.771ZM403.429 111.571C401.973 111.571 401.013 112.531 400.821 114.051H405.845C405.845 112.563 404.885 111.571 403.429 111.571ZM408.059 116.403H409.115C409.115 117.299 409.787 117.859 410.875 117.859C412.075 117.859 412.779 117.347 412.779 116.515C412.779 115.875 412.459 115.507 411.547 115.283L410.219 114.947C408.875 114.611 408.219 113.907 408.219 112.851C408.219 111.491 409.355 110.627 411.019 110.627C412.651 110.627 413.707 111.523 413.755 112.963H412.683C412.651 112.067 412.027 111.539 410.987 111.539C409.899 111.539 409.291 112.003 409.291 112.835C409.291 113.427 409.707 113.843 410.555 114.051L411.883 114.387C413.227 114.723 413.835 115.347 413.835 116.467C413.835 117.859 412.651 118.771 410.891 118.771C409.147 118.771 408.059 117.843 408.059 116.403ZM419.562 114.483C419.562 112.371 420.922 110.627 423.194 110.627C424.538 110.627 425.562 111.251 426.058 112.387L426.17 110.835H427.13V118.339C427.13 120.643 425.658 122.147 423.386 122.147C421.402 122.147 420.01 121.027 419.706 119.155H420.81C421.049 120.403 422.01 121.139 423.402 121.139C424.986 121.139 426.042 120.067 426.042 118.451V116.611C425.514 117.699 424.442 118.339 423.114 118.339C420.906 118.339 419.562 116.595 419.562 114.483ZM420.666 114.467C420.666 116.051 421.642 117.347 423.274 117.347C424.954 117.347 425.946 116.131 425.946 114.467C425.946 112.819 424.986 111.603 423.29 111.603C421.626 111.603 420.666 112.899 420.666 114.467ZM428.889 114.707C428.889 112.339 430.553 110.627 432.825 110.627C435.097 110.627 436.761 112.339 436.761 114.707C436.761 117.059 435.097 118.771 432.825 118.771C430.553 118.771 428.889 117.059 428.889 114.707ZM430.009 114.691C430.009 116.515 431.161 117.779 432.825 117.779C434.473 117.779 435.641 116.515 435.641 114.691C435.641 112.899 434.473 111.619 432.825 111.619C431.161 111.619 430.009 112.899 430.009 114.691ZM437.983 114.707C437.983 112.339 439.647 110.627 441.919 110.627C444.191 110.627 445.855 112.339 445.855 114.707C445.855 117.059 444.191 118.771 441.919 118.771C439.647 118.771 437.983 117.059 437.983 114.707ZM439.103 114.691C439.103 116.515 440.255 117.779 441.919 117.779C443.567 117.779 444.735 116.515 444.735 114.691C444.735 112.899 443.567 111.619 441.919 111.619C440.255 111.619 439.103 112.899 439.103 114.691ZM450.661 118.771C448.405 118.771 447.077 117.043 447.077 114.723C447.077 112.387 448.405 110.627 450.709 110.627C451.989 110.627 453.013 111.187 453.557 112.307V106.915H454.661V118.579H453.701L453.589 116.995C453.045 118.195 451.957 118.771 450.661 118.771ZM450.853 117.763C452.549 117.763 453.541 116.483 453.541 114.691C453.541 112.915 452.549 111.619 450.853 111.619C449.173 111.619 448.197 112.915 448.197 114.691C448.197 116.483 449.173 117.763 450.853 117.763ZM464.442 118.771C462.186 118.771 460.858 117.043 460.858 114.723C460.858 112.387 462.186 110.627 464.49 110.627C465.77 110.627 466.794 111.187 467.338 112.307V106.915H468.442V118.579H467.482L467.37 116.995C466.826 118.195 465.738 118.771 464.442 118.771ZM464.634 117.763C466.33 117.763 467.322 116.483 467.322 114.691C467.322 112.915 466.33 111.619 464.634 111.619C462.954 111.619 461.978 112.915 461.978 114.691C461.978 116.483 462.954 117.763 464.634 117.763ZM473.994 118.771C471.722 118.771 470.202 117.139 470.202 114.707C470.202 112.291 471.706 110.627 473.914 110.627C476.01 110.627 477.434 112.115 477.434 114.307V114.851H471.274C471.354 116.739 472.346 117.827 474.01 117.827C475.274 117.827 476.09 117.283 476.378 116.259H477.434C477.018 117.891 475.818 118.771 473.994 118.771ZM473.914 111.571C472.458 111.571 471.498 112.531 471.306 114.051H476.33C476.33 112.563 475.37 111.571 473.914 111.571ZM478.543 116.403H479.599C479.599 117.299 480.271 117.859 481.359 117.859C482.559 117.859 483.263 117.347 483.263 116.515C483.263 115.875 482.943 115.507 482.031 115.283L480.703 114.947C479.359 114.611 478.703 113.907 478.703 112.851C478.703 111.491 479.839 110.627 481.503 110.627C483.135 110.627 484.191 111.523 484.239 112.963H483.167C483.135 112.067 482.511 111.539 481.471 111.539C480.383 111.539 479.775 112.003 479.775 112.835C479.775 113.427 480.191 113.843 481.039 114.051L482.367 114.387C483.711 114.723 484.319 115.347 484.319 116.467C484.319 117.859 483.135 118.771 481.375 118.771C479.631 118.771 478.543 117.843 478.543 116.403ZM486.68 108.707C486.232 108.707 485.864 108.339 485.864 107.891C485.864 107.443 486.232 107.059 486.68 107.059C487.128 107.059 487.512 107.443 487.512 107.891C487.512 108.339 487.128 108.707 486.68 108.707ZM486.136 118.579V110.835H487.24V118.579H486.136ZM489.015 114.483C489.015 112.371 490.375 110.627 492.647 110.627C493.991 110.627 495.015 111.251 495.511 112.387L495.623 110.835H496.583V118.339C496.583 120.643 495.111 122.147 492.839 122.147C490.855 122.147 489.463 121.027 489.159 119.155H490.263C490.503 120.403 491.463 121.139 492.855 121.139C494.439 121.139 495.495 120.067 495.495 118.451V116.611C494.967 117.699 493.895 118.339 492.567 118.339C490.359 118.339 489.015 116.595 489.015 114.483ZM490.119 114.467C490.119 116.051 491.095 117.347 492.727 117.347C494.407 117.347 495.399 116.131 495.399 114.467C495.399 112.819 494.439 111.603 492.743 111.603C491.079 111.603 490.119 112.899 490.119 114.467ZM499.99 118.579H498.886V110.835H499.846L500.006 112.179C500.518 111.187 501.542 110.627 502.662 110.627C504.79 110.627 505.67 111.891 505.67 113.843V118.579H504.566V114.083C504.566 112.275 503.75 111.635 502.47 111.635C500.886 111.635 499.99 112.787 499.99 114.531V118.579ZM508.815 118.755C508.271 118.755 507.807 118.307 507.807 117.779C507.807 117.235 508.271 116.771 508.815 116.771C509.359 116.771 509.823 117.235 509.823 117.779C509.823 118.307 509.359 118.755 508.815 118.755ZM515.536 108.179V107.123H523.744V108.179H520.208V118.579H519.056V108.179H515.536ZM526.194 118.563H525.09V106.915H526.194V112.179C526.69 111.251 527.634 110.627 528.93 110.627C530.962 110.627 531.874 111.891 531.874 113.843V118.579H530.77V114.083C530.77 112.275 529.922 111.635 528.722 111.635C527.058 111.635 526.194 112.867 526.194 114.355V118.563ZM537.322 118.771C535.05 118.771 533.53 117.139 533.53 114.707C533.53 112.291 535.034 110.627 537.242 110.627C539.338 110.627 540.762 112.115 540.762 114.307V114.851H534.602C534.682 116.739 535.674 117.827 537.338 117.827C538.602 117.827 539.418 117.283 539.706 116.259H540.762C540.346 117.891 539.146 118.771 537.322 118.771ZM537.242 111.571C535.786 111.571 534.826 112.531 534.634 114.051H539.658C539.658 112.563 538.698 111.571 537.242 111.571ZM34.256 140.579H33.152V132.835H34.112L34.24 133.939C34.624 133.123 35.488 132.627 36.576 132.627C37.792 132.627 38.704 133.267 39.072 134.275C39.424 133.267 40.368 132.627 41.616 132.627C43.296 132.627 44.4 133.715 44.4 135.507V140.579H43.328V135.731C43.328 134.403 42.592 133.619 41.408 133.619C40.112 133.619 39.344 134.595 39.344 135.795V140.579H38.256V135.715C38.256 134.403 37.504 133.635 36.336 133.635C35.04 133.635 34.256 134.595 34.256 135.779V140.579ZM47.1648 130.707C46.7168 130.707 46.3488 130.339 46.3488 129.891C46.3488 129.443 46.7168 129.059 47.1648 129.059C47.6128 129.059 47.9968 129.443 47.9968 129.891C47.9968 130.339 47.6128 130.707 47.1648 130.707ZM46.6208 140.579V132.835H47.7248V140.579H46.6208ZM51.131 140.579H50.027V132.835H50.987L51.147 134.179C51.659 133.187 52.683 132.627 53.803 132.627C55.931 132.627 56.811 133.891 56.811 135.843V140.579H55.707V136.083C55.707 134.275 54.891 133.635 53.611 133.635C52.027 133.635 51.131 134.787 51.131 136.531V140.579ZM59.5554 130.707C59.1074 130.707 58.7394 130.339 58.7394 129.891C58.7394 129.443 59.1074 129.059 59.5554 129.059C60.0034 129.059 60.3874 129.443 60.3874 129.891C60.3874 130.339 60.0034 130.707 59.5554 130.707ZM59.0114 140.579V132.835H60.1154V140.579H59.0114ZM63.5216 140.579H62.4176V132.835H63.3776L63.5056 133.939C63.8896 133.123 64.7536 132.627 65.8416 132.627C67.0576 132.627 67.9696 133.267 68.3376 134.275C68.6896 133.267 69.6336 132.627 70.8816 132.627C72.5616 132.627 73.6656 133.715 73.6656 135.507V140.579H72.5936V135.731C72.5936 134.403 71.8576 133.619 70.6736 133.619C69.3776 133.619 68.6096 134.595 68.6096 135.795V140.579H67.5216V135.715C67.5216 134.403 66.7696 133.635 65.6016 133.635C64.3056 133.635 63.5216 134.595 63.5216 135.779V140.579ZM78.1104 140.771C76.4624 140.771 75.4864 139.843 75.4864 138.483C75.4864 137.059 76.5744 136.163 78.3824 136.019L80.9424 135.811V135.555C80.9424 134.035 80.0304 133.555 78.8944 133.555C77.5504 133.555 76.7504 134.163 76.7504 135.203H75.7424C75.7424 133.635 77.0224 132.627 78.9264 132.627C80.7184 132.627 82.0304 133.523 82.0304 135.571V140.579H81.1024L80.9584 139.219C80.4784 140.195 79.4224 140.771 78.1104 140.771ZM78.3664 139.875C79.9984 139.875 80.9424 138.739 80.9424 137.059V136.643L78.6544 136.819C77.1984 136.947 76.6064 137.587 76.6064 138.451C76.6064 139.395 77.3104 139.875 78.3664 139.875ZM85.3978 140.579H84.2938V128.915H85.3978V140.579ZM88.2898 130.707C87.8418 130.707 87.4738 130.339 87.4738 129.891C87.4738 129.443 87.8418 129.059 88.2898 129.059C88.7378 129.059 89.1218 129.443 89.1218 129.891C89.1218 130.339 88.7378 130.707 88.2898 130.707ZM87.7458 140.579V132.835H88.8498V140.579H87.7458ZM90.496 138.403H91.552C91.552 139.299 92.224 139.859 93.312 139.859C94.512 139.859 95.216 139.347 95.216 138.515C95.216 137.875 94.896 137.507 93.984 137.283L92.656 136.947C91.312 136.611 90.656 135.907 90.656 134.851C90.656 133.491 91.792 132.627 93.456 132.627C95.088 132.627 96.144 133.523 96.192 134.963H95.12C95.088 134.067 94.464 133.539 93.424 133.539C92.336 133.539 91.728 134.003 91.728 134.835C91.728 135.427 92.144 135.843 92.992 136.051L94.32 136.387C95.664 136.723 96.272 137.347 96.272 138.467C96.272 139.859 95.088 140.771 93.328 140.771C91.584 140.771 90.496 139.843 90.496 138.403ZM99.8655 140.579H98.7775V133.763H97.2255V132.835H98.7775V130.387H99.8655V132.835H101.418V133.763H99.8655V140.579ZM103.399 130.707C102.951 130.707 102.583 130.339 102.583 129.891C102.583 129.443 102.951 129.059 103.399 129.059C103.847 129.059 104.231 129.443 104.231 129.891C104.231 130.339 103.847 130.707 103.399 130.707ZM102.855 140.579V132.835H103.959V140.579H102.855ZM105.717 136.723C105.717 134.291 107.205 132.627 109.461 132.627C111.253 132.627 112.565 133.667 112.869 135.267H111.765C111.477 134.195 110.549 133.603 109.477 133.603C107.909 133.603 106.805 134.803 106.805 136.707C106.805 138.547 107.829 139.779 109.397 139.779C110.549 139.779 111.477 139.139 111.781 138.147H112.901C112.533 139.731 111.157 140.771 109.397 140.771C107.205 140.771 105.717 139.155 105.717 136.723ZM118.227 143.955V143.043H119.075C119.747 143.043 120.419 142.995 120.803 141.955L121.139 141.043L118.003 132.835H119.171L121.667 139.587L124.115 132.835H125.251L121.699 142.355C121.251 143.571 120.499 144.067 119.395 144.067C118.931 144.067 118.579 144.035 118.227 143.955ZM129.525 140.771C127.253 140.771 125.733 139.139 125.733 136.707C125.733 134.291 127.237 132.627 129.445 132.627C131.541 132.627 132.965 134.115 132.965 136.307V136.851H126.805C126.885 138.739 127.877 139.827 129.541 139.827C130.805 139.827 131.621 139.283 131.909 138.259H132.965C132.549 139.891 131.349 140.771 129.525 140.771ZM129.445 133.571C127.989 133.571 127.029 134.531 126.837 136.051H131.861C131.861 134.563 130.901 133.571 129.445 133.571ZM136.428 140.579H135.34V133.763H133.788V132.835H135.34V130.387H136.428V132.835H137.98V133.763H136.428V140.579ZM143.199 138.403H144.255C144.255 139.299 144.927 139.859 146.015 139.859C147.215 139.859 147.919 139.347 147.919 138.515C147.919 137.875 147.599 137.507 146.687 137.283L145.359 136.947C144.015 136.611 143.359 135.907 143.359 134.851C143.359 133.491 144.495 132.627 146.159 132.627C147.791 132.627 148.847 133.523 148.895 134.963H147.823C147.791 134.067 147.167 133.539 146.127 133.539C145.039 133.539 144.431 134.003 144.431 134.835C144.431 135.427 144.847 135.843 145.695 136.051L147.023 136.387C148.367 136.723 148.975 137.347 148.975 138.467C148.975 139.859 147.791 140.771 146.031 140.771C144.287 140.771 143.199 139.843 143.199 138.403ZM152.569 140.579H151.481V133.763H149.929V132.835H151.481V130.387H152.569V132.835H154.121V133.763H152.569V140.579ZM154.774 143.955V143.043H155.622C156.294 143.043 156.966 142.995 157.35 141.955L157.686 141.043L154.55 132.835H155.718L158.214 139.587L160.662 132.835H161.798L158.246 142.355C157.798 143.571 157.046 144.067 155.942 144.067C155.478 144.067 155.126 144.035 154.774 143.955ZM164.242 140.579H163.138V128.915H164.242V140.579ZM167.134 130.707C166.686 130.707 166.318 130.339 166.318 129.891C166.318 129.443 166.686 129.059 167.134 129.059C167.582 129.059 167.966 129.443 167.966 129.891C167.966 130.339 167.582 130.707 167.134 130.707ZM166.59 140.579V132.835H167.694V140.579H166.59ZM169.34 138.403H170.396C170.396 139.299 171.068 139.859 172.156 139.859C173.356 139.859 174.06 139.347 174.06 138.515C174.06 137.875 173.74 137.507 172.828 137.283L171.5 136.947C170.156 136.611 169.5 135.907 169.5 134.851C169.5 133.491 170.636 132.627 172.3 132.627C173.932 132.627 174.988 133.523 175.036 134.963H173.964C173.932 134.067 173.308 133.539 172.268 133.539C171.18 133.539 170.572 134.003 170.572 134.835C170.572 135.427 170.988 135.843 171.836 136.051L173.164 136.387C174.508 136.723 175.116 137.347 175.116 138.467C175.116 139.859 173.932 140.771 172.172 140.771C170.428 140.771 169.34 139.843 169.34 138.403ZM178.037 140.563H176.933V128.915H178.037V134.179C178.533 133.251 179.477 132.627 180.773 132.627C182.805 132.627 183.717 133.891 183.717 135.843V140.579H182.613V136.083C182.613 134.275 181.765 133.635 180.565 133.635C178.901 133.635 178.037 134.867 178.037 136.355V140.563ZM190.355 143.955V132.835H191.315L191.427 134.403C191.971 133.203 193.059 132.627 194.355 132.627C196.595 132.627 197.939 134.339 197.939 136.675C197.939 139.011 196.643 140.771 194.355 140.771C193.043 140.771 192.003 140.211 191.459 139.091V143.955H190.355ZM191.475 136.707C191.475 138.483 192.467 139.779 194.163 139.779C195.843 139.779 196.819 138.483 196.819 136.707C196.819 134.915 195.843 133.635 194.163 133.635C192.467 133.635 191.475 134.915 191.475 136.707ZM201.923 140.771C200.275 140.771 199.299 139.843 199.299 138.483C199.299 137.059 200.387 136.163 202.195 136.019L204.755 135.811V135.555C204.755 134.035 203.843 133.555 202.707 133.555C201.363 133.555 200.563 134.163 200.563 135.203H199.555C199.555 133.635 200.835 132.627 202.739 132.627C204.531 132.627 205.843 133.523 205.843 135.571V140.579H204.915L204.771 139.219C204.291 140.195 203.235 140.771 201.923 140.771ZM202.179 139.875C203.811 139.875 204.755 138.739 204.755 137.059V136.643L202.467 136.819C201.011 136.947 200.419 137.587 200.419 138.451C200.419 139.395 201.123 139.875 202.179 139.875ZM209.694 140.579H208.606V133.763H207.054V132.835H208.606V130.387H209.694V132.835H211.246V133.763H209.694V140.579ZM214.522 140.579H213.434V133.763H211.882V132.835H213.434V130.387H214.522V132.835H216.074V133.763H214.522V140.579ZM220.681 140.771C218.409 140.771 216.889 139.139 216.889 136.707C216.889 134.291 218.393 132.627 220.601 132.627C222.697 132.627 224.121 134.115 224.121 136.307V136.851H217.961C218.041 138.739 219.033 139.827 220.697 139.827C221.961 139.827 222.777 139.283 223.065 138.259H224.121C223.705 139.891 222.505 140.771 220.681 140.771ZM220.601 133.571C219.145 133.571 218.185 134.531 217.993 136.051H223.017C223.017 134.563 222.057 133.571 220.601 133.571ZM229.934 132.739V133.731H229.326C227.902 133.731 226.99 134.691 226.99 136.163V140.579H225.886V132.835H226.926L227.006 134.035C227.31 133.203 228.126 132.659 229.214 132.659C229.454 132.659 229.662 132.675 229.934 132.739ZM232.506 140.579H231.402V132.835H232.362L232.522 134.179C233.034 133.187 234.058 132.627 235.178 132.627C237.306 132.627 238.186 133.891 238.186 135.843V140.579H237.082V136.083C237.082 134.275 236.266 133.635 234.986 133.635C233.402 133.635 232.506 134.787 232.506 136.531V140.579ZM244.28 136.723C244.28 134.291 245.768 132.627 248.024 132.627C249.816 132.627 251.128 133.667 251.432 135.267H250.328C250.04 134.195 249.112 133.603 248.04 133.603C246.472 133.603 245.368 134.803 245.368 136.707C245.368 138.547 246.392 139.779 247.96 139.779C249.112 139.779 250.04 139.139 250.344 138.147H251.464C251.096 139.731 249.72 140.771 247.96 140.771C245.768 140.771 244.28 139.155 244.28 136.723ZM255.36 140.771C253.712 140.771 252.736 139.843 252.736 138.483C252.736 137.059 253.824 136.163 255.632 136.019L258.192 135.811V135.555C258.192 134.035 257.28 133.555 256.144 133.555C254.8 133.555 254 134.163 254 135.203H252.992C252.992 133.635 254.272 132.627 256.176 132.627C257.968 132.627 259.28 133.523 259.28 135.571V140.579H258.352L258.208 139.219C257.728 140.195 256.672 140.771 255.36 140.771ZM255.616 139.875C257.248 139.875 258.192 138.739 258.192 137.059V136.643L255.904 136.819C254.448 136.947 253.856 137.587 253.856 138.451C253.856 139.395 254.56 139.875 255.616 139.875ZM266.936 132.835H268.04V140.579H267.08L266.936 139.267C266.504 140.163 265.432 140.771 264.216 140.771C262.392 140.771 261.4 139.523 261.4 137.635V132.819H262.52V137.283C262.52 139.123 263.336 139.779 264.568 139.779C266.056 139.779 266.936 138.787 266.936 136.947V132.835ZM269.812 136.483C269.812 134.371 271.172 132.627 273.444 132.627C274.788 132.627 275.812 133.251 276.308 134.387L276.42 132.835H277.38V140.339C277.38 142.643 275.908 144.147 273.636 144.147C271.652 144.147 270.26 143.027 269.956 141.155H271.06C271.299 142.403 272.26 143.139 273.652 143.139C275.236 143.139 276.292 142.067 276.292 140.451V138.611C275.764 139.699 274.692 140.339 273.364 140.339C271.156 140.339 269.812 138.595 269.812 136.483ZM270.916 136.467C270.916 138.051 271.892 139.347 273.524 139.347C275.204 139.347 276.196 138.131 276.196 136.467C276.196 134.819 275.236 133.603 273.54 133.603C271.876 133.603 270.916 134.899 270.916 136.467ZM280.787 140.563H279.683V128.915H280.787V134.179C281.283 133.251 282.227 132.627 283.523 132.627C285.555 132.627 286.467 133.891 286.467 135.843V140.579H285.363V136.083C285.363 134.275 284.515 133.635 283.315 133.635C281.651 133.635 280.787 134.867 280.787 136.355V140.563ZM290.444 140.579H289.356V133.763H287.804V132.835H289.356V130.387H290.444V132.835H291.996V133.763H290.444V140.579ZM298.975 140.579H297.871V132.835H298.831L298.959 133.939C299.343 133.123 300.207 132.627 301.295 132.627C302.511 132.627 303.423 133.267 303.791 134.275C304.143 133.267 305.087 132.627 306.335 132.627C308.015 132.627 309.119 133.715 309.119 135.507V140.579H308.047V135.731C308.047 134.403 307.311 133.619 306.127 133.619C304.831 133.619 304.063 134.595 304.063 135.795V140.579H302.975V135.715C302.975 134.403 302.223 133.635 301.055 133.635C299.759 133.635 298.975 134.595 298.975 135.779V140.579ZM310.399 143.955V143.043H311.247C311.919 143.043 312.591 142.995 312.975 141.955L313.311 141.043L310.175 132.835H311.343L313.839 139.587L316.287 132.835H317.423L313.871 142.355C313.423 143.571 312.671 144.067 311.567 144.067C311.103 144.067 310.751 144.035 310.399 143.955ZM326.4 140.771C324.128 140.771 322.608 139.139 322.608 136.707C322.608 134.291 324.112 132.627 326.32 132.627C328.416 132.627 329.84 134.115 329.84 136.307V136.851H323.68C323.76 138.739 324.752 139.827 326.416 139.827C327.68 139.827 328.496 139.283 328.784 138.259H329.84C329.424 139.891 328.224 140.771 326.4 140.771ZM326.32 133.571C324.864 133.571 323.904 134.531 323.712 136.051H328.736C328.736 134.563 327.776 133.571 326.32 133.571ZM330.634 143.955V143.043H331.482C332.154 143.043 332.826 142.995 333.21 141.955L333.546 141.043L330.41 132.835H331.578L334.074 139.587L336.522 132.835H337.658L334.106 142.355C333.658 143.571 332.906 144.067 331.802 144.067C331.338 144.067 330.986 144.035 330.634 143.955ZM341.931 140.771C339.659 140.771 338.139 139.139 338.139 136.707C338.139 134.291 339.643 132.627 341.851 132.627C343.947 132.627 345.371 134.115 345.371 136.307V136.851H339.211C339.291 138.739 340.283 139.827 341.947 139.827C343.211 139.827 344.027 139.283 344.315 138.259H345.371C344.955 139.891 343.755 140.771 341.931 140.771ZM341.851 133.571C340.395 133.571 339.435 134.531 339.243 136.051H344.267C344.267 134.563 343.307 133.571 341.851 133.571ZM348.604 140.035C348.604 141.027 347.836 141.891 346.844 142.035V141.443C347.42 141.347 347.836 140.931 347.836 140.483C347.74 140.547 347.612 140.595 347.42 140.595C346.972 140.595 346.588 140.275 346.588 139.731C346.588 139.171 346.972 138.771 347.532 138.771C348.108 138.771 348.604 139.235 348.604 140.035ZM357.501 140.771C355.853 140.771 354.877 139.843 354.877 138.483C354.877 137.059 355.965 136.163 357.773 136.019L360.333 135.811V135.555C360.333 134.035 359.421 133.555 358.285 133.555C356.941 133.555 356.141 134.163 356.141 135.203H355.133C355.133 133.635 356.413 132.627 358.317 132.627C360.109 132.627 361.421 133.523 361.421 135.571V140.579H360.493L360.349 139.219C359.869 140.195 358.813 140.771 357.501 140.771ZM357.757 139.875C359.389 139.875 360.333 138.739 360.333 137.059V136.643L358.045 136.819C356.589 136.947 355.997 137.587 355.997 138.451C355.997 139.395 356.701 139.875 357.757 139.875ZM364.74 140.579H363.636V132.835H364.596L364.756 134.179C365.268 133.187 366.292 132.627 367.412 132.627C369.54 132.627 370.42 133.891 370.42 135.843V140.579H369.316V136.083C369.316 134.275 368.5 133.635 367.22 133.635C365.636 133.635 364.74 134.787 364.74 136.531V140.579ZM375.661 140.771C373.405 140.771 372.077 139.043 372.077 136.723C372.077 134.387 373.405 132.627 375.709 132.627C376.989 132.627 378.013 133.187 378.557 134.307V128.915H379.661V140.579H378.701L378.589 138.995C378.045 140.195 376.957 140.771 375.661 140.771ZM375.853 139.763C377.549 139.763 378.541 138.483 378.541 136.691C378.541 134.915 377.549 133.619 375.853 133.619C374.173 133.619 373.197 134.915 373.197 136.691C373.197 138.483 374.173 139.763 375.853 139.763ZM388.178 140.579H387.09V133.763H385.538V132.835H387.09V130.387H388.178V132.835H389.73V133.763H388.178V140.579ZM392.272 140.563H391.168V128.915H392.272V134.179C392.768 133.251 393.712 132.627 395.008 132.627C397.04 132.627 397.952 133.891 397.952 135.843V140.579H396.848V136.083C396.848 134.275 396 133.635 394.8 133.635C393.136 133.635 392.272 134.867 392.272 136.355V140.563ZM403.4 140.771C401.128 140.771 399.608 139.139 399.608 136.707C399.608 134.291 401.112 132.627 403.32 132.627C405.416 132.627 406.84 134.115 406.84 136.307V136.851H400.68C400.76 138.739 401.752 139.827 403.416 139.827C404.68 139.827 405.496 139.283 405.784 138.259H406.84C406.424 139.891 405.224 140.771 403.4 140.771ZM403.32 133.571C401.864 133.571 400.904 134.531 400.712 136.051H405.736C405.736 134.563 404.776 133.571 403.32 133.571ZM418.147 140.579V133.763H414.467V140.579H413.363V133.763H412.179V132.835H413.363V131.331C413.363 129.587 414.307 128.915 415.459 128.915C415.731 128.915 416.067 128.931 416.323 128.979V129.939H415.651C414.723 129.939 414.467 130.419 414.467 131.331V132.835H419.251V140.579H418.147ZM418.691 130.627C418.243 130.627 417.923 130.307 417.923 129.859C417.923 129.411 418.243 129.075 418.691 129.075C419.123 129.075 419.459 129.411 419.459 129.859C419.459 130.307 419.123 130.627 418.691 130.627ZM423.287 140.579H422.199V133.763H420.647V132.835H422.199V130.387H423.287V132.835H424.839V133.763H423.287V140.579ZM431.259 130.707C430.811 130.707 430.443 130.339 430.443 129.891C430.443 129.443 430.811 129.059 431.259 129.059C431.707 129.059 432.091 129.443 432.091 129.891C432.091 130.339 431.707 130.707 431.259 130.707ZM430.715 140.579V132.835H431.819V140.579H430.715ZM433.465 138.403H434.521C434.521 139.299 435.193 139.859 436.281 139.859C437.481 139.859 438.185 139.347 438.185 138.515C438.185 137.875 437.865 137.507 436.953 137.283L435.625 136.947C434.281 136.611 433.625 135.907 433.625 134.851C433.625 133.491 434.761 132.627 436.425 132.627C438.057 132.627 439.113 133.523 439.161 134.963H438.089C438.057 134.067 437.433 133.539 436.393 133.539C435.305 133.539 434.697 134.003 434.697 134.835C434.697 135.427 435.113 135.843 435.961 136.051L437.289 136.387C438.633 136.723 439.241 137.347 439.241 138.467C439.241 139.859 438.057 140.771 436.297 140.771C434.553 140.771 433.465 139.843 433.465 138.403ZM445.496 143.955V132.835H446.456L446.568 134.403C447.112 133.203 448.2 132.627 449.496 132.627C451.736 132.627 453.08 134.339 453.08 136.675C453.08 139.011 451.784 140.771 449.496 140.771C448.184 140.771 447.144 140.211 446.6 139.091V143.955H445.496ZM446.616 136.707C446.616 138.483 447.608 139.779 449.304 139.779C450.984 139.779 451.96 138.483 451.96 136.707C451.96 134.915 450.984 133.635 449.304 133.635C447.608 133.635 446.616 134.915 446.616 136.707ZM458.088 140.771C455.816 140.771 454.296 139.139 454.296 136.707C454.296 134.291 455.799 132.627 458.008 132.627C460.104 132.627 461.528 134.115 461.528 136.307V136.851H455.368C455.448 138.739 456.44 139.827 458.104 139.827C459.368 139.827 460.184 139.283 460.472 138.259H461.528C461.112 139.891 459.912 140.771 458.088 140.771ZM458.008 133.571C456.552 133.571 455.592 134.531 455.4 136.051H460.424C460.424 134.563 459.464 133.571 458.008 133.571ZM467.341 132.739V133.731H466.733C465.309 133.731 464.397 134.691 464.397 136.163V140.579H463.293V132.835H464.333L464.413 134.035C464.717 133.203 465.533 132.659 466.621 132.659C466.861 132.659 467.069 132.675 467.341 132.739ZM468.257 132.835H469.441V131.331C469.441 129.587 470.401 128.915 471.585 128.915C471.857 128.915 472.177 128.931 472.433 128.979V129.923H471.777C470.801 129.923 470.545 130.419 470.545 131.331V132.835H472.369V133.763H470.545V140.579H469.441V133.763H468.257V132.835ZM476.884 140.771C474.612 140.771 473.092 139.139 473.092 136.707C473.092 134.291 474.596 132.627 476.804 132.627C478.9 132.627 480.324 134.115 480.324 136.307V136.851H474.164C474.244 138.739 475.236 139.827 476.9 139.827C478.164 139.827 478.98 139.283 479.268 138.259H480.324C479.908 139.891 478.708 140.771 476.884 140.771ZM476.804 133.571C475.348 133.571 474.388 134.531 474.196 136.051H479.22C479.22 134.563 478.26 133.571 476.804 133.571ZM481.546 136.723C481.546 134.291 483.034 132.627 485.29 132.627C487.082 132.627 488.394 133.667 488.698 135.267H487.594C487.306 134.195 486.378 133.603 485.306 133.603C483.738 133.603 482.634 134.803 482.634 136.707C482.634 138.547 483.658 139.779 485.226 139.779C486.378 139.779 487.306 139.139 487.61 138.147H488.73C488.362 139.731 486.986 140.771 485.226 140.771C483.034 140.771 481.546 139.155 481.546 136.723ZM492.178 140.579H491.09V133.763H489.538V132.835H491.09V130.387H492.178V132.835H493.73V133.763H492.178V140.579ZM495.627 140.755C495.083 140.755 494.619 140.307 494.619 139.779C494.619 139.235 495.083 138.771 495.627 138.771C496.171 138.771 496.635 139.235 496.635 139.779C496.635 140.307 496.171 140.755 495.627 140.755ZM504.7 129.123V140.579H503.548V129.123H504.7ZM511.139 136.723C511.139 134.291 512.627 132.627 514.883 132.627C516.675 132.627 517.987 133.667 518.291 135.267H517.187C516.899 134.195 515.971 133.603 514.899 133.603C513.331 133.603 512.227 134.803 512.227 136.707C512.227 138.547 513.251 139.779 514.819 139.779C515.971 139.779 516.899 139.139 517.203 138.147H518.323C517.955 139.731 516.579 140.771 514.819 140.771C512.627 140.771 511.139 139.155 511.139 136.723ZM522.22 140.771C520.572 140.771 519.596 139.843 519.596 138.483C519.596 137.059 520.684 136.163 522.492 136.019L525.052 135.811V135.555C525.052 134.035 524.14 133.555 523.004 133.555C521.66 133.555 520.86 134.163 520.86 135.203H519.852C519.852 133.635 521.132 132.627 523.036 132.627C524.828 132.627 526.14 133.523 526.14 135.571V140.579H525.212L525.068 139.219C524.588 140.195 523.532 140.771 522.22 140.771ZM522.476 139.875C524.108 139.875 525.052 138.739 525.052 137.059V136.643L522.764 136.819C521.308 136.947 520.716 137.587 520.716 138.451C520.716 139.395 521.42 139.875 522.476 139.875ZM529.459 140.579H528.355V132.835H529.315L529.475 134.179C529.987 133.187 531.011 132.627 532.131 132.627C534.259 132.627 535.139 133.891 535.139 135.843V140.579H534.035V136.083C534.035 134.275 533.219 133.635 531.939 133.635C530.355 133.635 529.459 134.787 529.459 136.531V140.579ZM32.496 160.403H33.552C33.552 161.299 34.224 161.859 35.312 161.859C36.512 161.859 37.216 161.347 37.216 160.515C37.216 159.875 36.896 159.507 35.984 159.283L34.656 158.947C33.312 158.611 32.656 157.907 32.656 156.851C32.656 155.491 33.792 154.627 35.456 154.627C37.088 154.627 38.144 155.523 38.192 156.963H37.12C37.088 156.067 36.464 155.539 35.424 155.539C34.336 155.539 33.728 156.003 33.728 156.835C33.728 157.427 34.144 157.843 34.992 158.051L36.32 158.387C37.664 158.723 38.272 159.347 38.272 160.467C38.272 161.859 37.088 162.771 35.328 162.771C33.584 162.771 32.496 161.843 32.496 160.403ZM43.3375 162.771C41.0655 162.771 39.5455 161.139 39.5455 158.707C39.5455 156.291 41.0495 154.627 43.2575 154.627C45.3535 154.627 46.7775 156.115 46.7775 158.307V158.851H40.6175C40.6975 160.739 41.6895 161.827 43.3535 161.827C44.6175 161.827 45.4335 161.283 45.7215 160.259H46.7775C46.3615 161.891 45.1615 162.771 43.3375 162.771ZM43.2575 155.571C41.8015 155.571 40.8415 156.531 40.6495 158.051H45.6735C45.6735 156.563 44.7135 155.571 43.2575 155.571ZM51.7906 162.771C49.5186 162.771 47.9986 161.139 47.9986 158.707C47.9986 156.291 49.5026 154.627 51.7106 154.627C53.8066 154.627 55.2306 156.115 55.2306 158.307V158.851H49.0706C49.1506 160.739 50.1426 161.827 51.8066 161.827C53.0706 161.827 53.8866 161.283 54.1746 160.259H55.2306C54.8146 161.891 53.6146 162.771 51.7906 162.771ZM51.7106 155.571C50.2546 155.571 49.2946 156.531 49.1026 158.051H54.1266C54.1266 156.563 53.1666 155.571 51.7106 155.571ZM63.2093 162.579H62.1213V155.763H60.5693V154.835H62.1213V152.387H63.2093V154.835H64.7613V155.763H63.2093V162.579ZM67.3029 162.563H66.1989V150.915H67.3029V156.179C67.7989 155.251 68.7429 154.627 70.0389 154.627C72.0709 154.627 72.9829 155.891 72.9829 157.843V162.579H71.8789V158.083C71.8789 156.275 71.0309 155.635 69.8309 155.635C68.1669 155.635 67.3029 156.867 67.3029 158.355V162.563ZM78.4313 162.771C76.1593 162.771 74.6393 161.139 74.6393 158.707C74.6393 156.291 76.1432 154.627 78.3513 154.627C80.4473 154.627 81.8713 156.115 81.8713 158.307V158.851H75.7113C75.7913 160.739 76.7833 161.827 78.4473 161.827C79.7113 161.827 80.5273 161.283 80.8153 160.259H81.8713C81.4553 161.891 80.2553 162.771 78.4313 162.771ZM78.3513 155.571C76.8953 155.571 75.9353 156.531 75.7433 158.051H80.7673C80.7673 156.563 79.8073 155.571 78.3513 155.571ZM91.1139 162.771C88.8579 162.771 87.5299 161.043 87.5299 158.723C87.5299 156.387 88.8579 154.627 91.1619 154.627C92.4419 154.627 93.4659 155.187 94.0099 156.307V150.915H95.1139V162.579H94.1539L94.0419 160.995C93.4979 162.195 92.4099 162.771 91.1139 162.771ZM91.3059 161.763C93.0019 161.763 93.9939 160.483 93.9939 158.691C93.9939 156.915 93.0019 155.619 91.3059 155.619C89.6259 155.619 88.6499 156.915 88.6499 158.691C88.6499 160.483 89.6259 161.763 91.3059 161.763ZM100.666 162.771C98.3936 162.771 96.8736 161.139 96.8736 158.707C96.8736 156.291 98.3776 154.627 100.586 154.627C102.682 154.627 104.106 156.115 104.106 158.307V158.851H97.9456C98.0256 160.739 99.0176 161.827 100.682 161.827C101.946 161.827 102.762 161.283 103.05 160.259H104.106C103.69 161.891 102.49 162.771 100.666 162.771ZM100.586 155.571C99.1296 155.571 98.1696 156.531 97.9776 158.051H103.002C103.002 156.563 102.042 155.571 100.586 155.571ZM105.215 160.403H106.271C106.271 161.299 106.943 161.859 108.031 161.859C109.231 161.859 109.935 161.347 109.935 160.515C109.935 159.875 109.615 159.507 108.703 159.283L107.375 158.947C106.031 158.611 105.375 157.907 105.375 156.851C105.375 155.491 106.511 154.627 108.175 154.627C109.807 154.627 110.863 155.523 110.911 156.963H109.839C109.807 156.067 109.183 155.539 108.143 155.539C107.055 155.539 106.447 156.003 106.447 156.835C106.447 157.427 106.863 157.843 107.711 158.051L109.039 158.387C110.383 158.723 110.991 159.347 110.991 160.467C110.991 161.859 109.807 162.771 108.047 162.771C106.303 162.771 105.215 161.843 105.215 160.403ZM113.352 152.707C112.904 152.707 112.536 152.339 112.536 151.891C112.536 151.443 112.904 151.059 113.352 151.059C113.8 151.059 114.184 151.443 114.184 151.891C114.184 152.339 113.8 152.707 113.352 152.707ZM112.808 162.579V154.835H113.912V162.579H112.808ZM115.687 158.483C115.687 156.371 117.047 154.627 119.319 154.627C120.663 154.627 121.687 155.251 122.183 156.387L122.295 154.835H123.255V162.339C123.255 164.643 121.783 166.147 119.511 166.147C117.527 166.147 116.135 165.027 115.831 163.155H116.935C117.174 164.403 118.135 165.139 119.527 165.139C121.111 165.139 122.167 164.067 122.167 162.451V160.611C121.639 161.699 120.567 162.339 119.239 162.339C117.031 162.339 115.687 160.595 115.687 158.483ZM116.791 158.467C116.791 160.051 117.767 161.347 119.399 161.347C121.079 161.347 122.071 160.131 122.071 158.467C122.071 156.819 121.111 155.603 119.415 155.603C117.751 155.603 116.791 156.899 116.791 158.467ZM126.662 162.579H125.558V154.835H126.518L126.678 156.179C127.19 155.187 128.214 154.627 129.334 154.627C131.462 154.627 132.342 155.891 132.342 157.843V162.579H131.238V158.083C131.238 156.275 130.422 155.635 129.142 155.635C127.558 155.635 126.662 156.787 126.662 158.531V162.579ZM137.791 162.771C135.519 162.771 133.999 161.139 133.999 158.707C133.999 156.291 135.503 154.627 137.711 154.627C139.807 154.627 141.231 156.115 141.231 158.307V158.851H135.071C135.151 160.739 136.143 161.827 137.807 161.827C139.071 161.827 139.887 161.283 140.175 160.259H141.231C140.815 161.891 139.615 162.771 137.791 162.771ZM137.711 155.571C136.255 155.571 135.295 156.531 135.103 158.051H140.127C140.127 156.563 139.167 155.571 137.711 155.571ZM147.044 154.739V155.731H146.436C145.012 155.731 144.1 156.691 144.1 158.163V162.579H142.996V154.835H144.036L144.116 156.035C144.42 155.203 145.236 154.659 146.324 154.659C146.564 154.659 146.772 154.675 147.044 154.739ZM149.924 151.907L149.62 155.091H148.9L148.58 151.907C148.516 151.347 148.916 151.091 149.268 151.091C149.604 151.091 149.988 151.347 149.924 151.907ZM150.84 160.403H151.896C151.896 161.299 152.568 161.859 153.656 161.859C154.856 161.859 155.56 161.347 155.56 160.515C155.56 159.875 155.24 159.507 154.328 159.283L153 158.947C151.656 158.611 151 157.907 151 156.851C151 155.491 152.136 154.627 153.8 154.627C155.432 154.627 156.488 155.523 156.536 156.963H155.464C155.432 156.067 154.808 155.539 153.768 155.539C152.68 155.539 152.072 156.003 152.072 156.835C152.072 157.427 152.488 157.843 153.336 158.051L154.664 158.387C156.008 158.723 156.616 159.347 156.616 160.467C156.616 161.859 155.432 162.771 153.672 162.771C151.928 162.771 150.84 161.843 150.84 160.403ZM164.647 162.579H163.559V155.763H162.007V154.835H163.559V152.387H164.647V154.835H166.199V155.763H164.647V162.579ZM167.014 158.707C167.014 156.339 168.678 154.627 170.95 154.627C173.222 154.627 174.886 156.339 174.886 158.707C174.886 161.059 173.222 162.771 170.95 162.771C168.678 162.771 167.014 161.059 167.014 158.707ZM168.134 158.691C168.134 160.515 169.286 161.779 170.95 161.779C172.598 161.779 173.766 160.515 173.766 158.691C173.766 156.899 172.598 155.619 170.95 155.619C169.286 155.619 168.134 156.899 168.134 158.691ZM181.905 154.835H183.009V162.579H182.049L181.905 161.267C181.473 162.163 180.401 162.771 179.185 162.771C177.361 162.771 176.368 161.523 176.368 159.635V154.819H177.489V159.283C177.489 161.123 178.305 161.779 179.536 161.779C181.025 161.779 181.905 160.787 181.905 158.947V154.835ZM184.608 158.723C184.608 156.291 186.096 154.627 188.352 154.627C190.144 154.627 191.456 155.667 191.76 157.267H190.656C190.368 156.195 189.44 155.603 188.368 155.603C186.8 155.603 185.696 156.803 185.696 158.707C185.696 160.547 186.72 161.779 188.288 161.779C189.44 161.779 190.368 161.139 190.672 160.147H191.792C191.424 161.731 190.048 162.771 188.288 162.771C186.096 162.771 184.608 161.155 184.608 158.723ZM194.569 162.563H193.465V150.915H194.569V156.179C195.065 155.251 196.009 154.627 197.305 154.627C199.337 154.627 200.249 155.891 200.249 157.843V162.579H199.145V158.083C199.145 156.275 198.297 155.635 197.097 155.635C195.433 155.635 194.569 156.867 194.569 158.355V162.563ZM207.43 152.707C206.982 152.707 206.614 152.339 206.614 151.891C206.614 151.443 206.982 151.059 207.43 151.059C207.878 151.059 208.262 151.443 208.262 151.891C208.262 152.339 207.878 152.707 207.43 152.707ZM206.886 162.579V154.835H207.99V162.579H206.886ZM211.397 162.579H210.293V154.835H211.253L211.413 156.179C211.925 155.187 212.949 154.627 214.069 154.627C216.197 154.627 217.077 155.891 217.077 157.843V162.579H215.973V158.083C215.973 156.275 215.157 155.635 213.877 155.635C212.293 155.635 211.397 156.787 211.397 158.531V162.579ZM226.963 162.771C224.691 162.771 223.171 161.139 223.171 158.707C223.171 156.291 224.674 154.627 226.883 154.627C228.979 154.627 230.403 156.115 230.403 158.307V158.851H224.243C224.323 160.739 225.315 161.827 226.979 161.827C228.243 161.827 229.059 161.283 229.347 160.259H230.403C229.987 161.891 228.787 162.771 226.963 162.771ZM226.883 155.571C225.427 155.571 224.467 156.531 224.275 158.051H229.299C229.299 156.563 228.339 155.571 226.883 155.571ZM234.125 162.579L230.957 154.835H232.141L234.141 159.827C234.349 160.387 234.557 160.915 234.701 161.427C234.845 160.899 235.053 160.387 235.277 159.827L237.309 154.835H238.445L235.229 162.579H234.125ZM242.65 162.771C240.378 162.771 238.858 161.139 238.858 158.707C238.858 156.291 240.362 154.627 242.57 154.627C244.666 154.627 246.09 156.115 246.09 158.307V158.851H239.93C240.01 160.739 241.002 161.827 242.666 161.827C243.93 161.827 244.746 161.283 245.034 160.259H246.09C245.674 161.891 244.474 162.771 242.65 162.771ZM242.57 155.571C241.114 155.571 240.154 156.531 239.962 158.051H244.986C244.986 156.563 244.026 155.571 242.57 155.571ZM251.903 154.739V155.731H251.295C249.871 155.731 248.959 156.691 248.959 158.163V162.579H247.855V154.835H248.895L248.975 156.035C249.279 155.203 250.095 154.659 251.183 154.659C251.423 154.659 251.631 154.675 251.903 154.739ZM252.821 165.955V165.043H253.669C254.341 165.043 255.013 164.995 255.397 163.955L255.733 163.043L252.597 154.835H253.765L256.261 161.587L258.709 154.835H259.845L256.293 164.355C255.845 165.571 255.093 166.067 253.989 166.067C253.525 166.067 253.173 166.035 252.821 165.955ZM267.798 162.771C266.15 162.771 265.174 161.843 265.174 160.483C265.174 159.059 266.262 158.163 268.07 158.019L270.63 157.811V157.555C270.63 156.035 269.718 155.555 268.582 155.555C267.238 155.555 266.438 156.163 266.438 157.203H265.43C265.43 155.635 266.71 154.627 268.614 154.627C270.406 154.627 271.718 155.523 271.718 157.571V162.579H270.79L270.646 161.219C270.166 162.195 269.11 162.771 267.798 162.771ZM268.054 161.875C269.686 161.875 270.63 160.739 270.63 159.059V158.643L268.342 158.819C266.886 158.947 266.294 159.587 266.294 160.451C266.294 161.395 266.998 161.875 268.054 161.875ZM273.277 160.403H274.333C274.333 161.299 275.005 161.859 276.093 161.859C277.293 161.859 277.997 161.347 277.997 160.515C277.997 159.875 277.677 159.507 276.765 159.283L275.437 158.947C274.093 158.611 273.437 157.907 273.437 156.851C273.437 155.491 274.573 154.627 276.237 154.627C277.869 154.627 278.925 155.523 278.973 156.963H277.901C277.869 156.067 277.245 155.539 276.205 155.539C275.117 155.539 274.509 156.003 274.509 156.835C274.509 157.427 274.925 157.843 275.773 158.051L277.101 158.387C278.445 158.723 279.053 159.347 279.053 160.467C279.053 161.859 277.869 162.771 276.109 162.771C274.365 162.771 273.277 161.843 273.277 160.403ZM280.871 165.955V154.835H281.831L281.943 156.403C282.487 155.203 283.575 154.627 284.871 154.627C287.111 154.627 288.455 156.339 288.455 158.675C288.455 161.011 287.159 162.771 284.871 162.771C283.559 162.771 282.519 162.211 281.975 161.091V165.955H280.871ZM281.991 158.707C281.991 160.483 282.983 161.779 284.679 161.779C286.359 161.779 287.335 160.483 287.335 158.707C287.335 156.915 286.359 155.635 284.679 155.635C282.983 155.635 281.991 156.915 281.991 158.707ZM293.463 162.771C291.191 162.771 289.671 161.139 289.671 158.707C289.671 156.291 291.174 154.627 293.383 154.627C295.479 154.627 296.903 156.115 296.903 158.307V158.851H290.743C290.823 160.739 291.815 161.827 293.479 161.827C294.743 161.827 295.559 161.283 295.847 160.259H296.903C296.487 161.891 295.287 162.771 293.463 162.771ZM293.383 155.571C291.927 155.571 290.967 156.531 290.775 158.051H295.799C295.799 156.563 294.839 155.571 293.383 155.571ZM298.124 158.723C298.124 156.291 299.612 154.627 301.868 154.627C303.66 154.627 304.972 155.667 305.276 157.267H304.172C303.884 156.195 302.956 155.603 301.884 155.603C300.316 155.603 299.212 156.803 299.212 158.707C299.212 160.547 300.236 161.779 301.804 161.779C302.956 161.779 303.884 161.139 304.188 160.147H305.308C304.94 161.731 303.564 162.771 301.804 162.771C299.612 162.771 298.124 161.155 298.124 158.723ZM308.756 162.579H307.668V155.763H306.116V154.835H307.668V152.387H308.756V154.835H310.308V155.763H308.756V162.579ZM315.639 158.707C315.639 156.339 317.303 154.627 319.575 154.627C321.847 154.627 323.511 156.339 323.511 158.707C323.511 161.059 321.847 162.771 319.575 162.771C317.303 162.771 315.639 161.059 315.639 158.707ZM316.759 158.691C316.759 160.515 317.911 161.779 319.575 161.779C321.223 161.779 322.391 160.515 322.391 158.691C322.391 156.899 321.223 155.619 319.575 155.619C317.911 155.619 316.759 156.899 316.759 158.691ZM324.351 154.835H325.535V153.331C325.535 151.587 326.495 150.915 327.679 150.915C327.951 150.915 328.271 150.931 328.527 150.979V151.923H327.871C326.895 151.923 326.639 152.419 326.639 153.331V154.835H328.463V155.763H326.639V162.579H325.535V155.763H324.351V154.835ZM336.178 162.579H335.09V155.763H333.538V154.835H335.09V152.387H336.178V154.835H337.73V155.763H336.178V162.579ZM340.272 162.563H339.168V150.915H340.272V156.179C340.768 155.251 341.712 154.627 343.008 154.627C345.04 154.627 345.952 155.891 345.952 157.843V162.579H344.848V158.083C344.848 156.275 344 155.635 342.8 155.635C341.136 155.635 340.272 156.867 340.272 158.355V162.563ZM348.696 152.707C348.248 152.707 347.88 152.339 347.88 151.891C347.88 151.443 348.248 151.059 348.696 151.059C349.144 151.059 349.528 151.443 349.528 151.891C349.528 152.339 349.144 152.707 348.696 152.707ZM348.152 162.579V154.835H349.256V162.579H348.152ZM350.902 160.403H351.958C351.958 161.299 352.63 161.859 353.718 161.859C354.918 161.859 355.622 161.347 355.622 160.515C355.622 159.875 355.302 159.507 354.39 159.283L353.062 158.947C351.718 158.611 351.062 157.907 351.062 156.851C351.062 155.491 352.198 154.627 353.862 154.627C355.494 154.627 356.55 155.523 356.598 156.963H355.526C355.494 156.067 354.87 155.539 353.83 155.539C352.742 155.539 352.134 156.003 352.134 156.835C352.134 157.427 352.55 157.843 353.398 158.051L354.726 158.387C356.07 158.723 356.678 159.347 356.678 160.467C356.678 161.859 355.494 162.771 353.734 162.771C351.99 162.771 350.902 161.843 350.902 160.403ZM362.277 160.403H363.333C363.333 161.299 364.005 161.859 365.093 161.859C366.293 161.859 366.997 161.347 366.997 160.515C366.997 159.875 366.677 159.507 365.765 159.283L364.437 158.947C363.093 158.611 362.437 157.907 362.437 156.851C362.437 155.491 363.573 154.627 365.237 154.627C366.869 154.627 367.925 155.523 367.973 156.963H366.901C366.869 156.067 366.245 155.539 365.205 155.539C364.117 155.539 363.509 156.003 363.509 156.835C363.509 157.427 363.925 157.843 364.773 158.051L366.101 158.387C367.445 158.723 368.053 159.347 368.053 160.467C368.053 161.859 366.869 162.771 365.109 162.771C363.365 162.771 362.277 161.843 362.277 160.403ZM370.975 162.563H369.871V150.915H370.975V156.179C371.471 155.251 372.415 154.627 373.711 154.627C375.743 154.627 376.655 155.891 376.655 157.843V162.579H375.551V158.083C375.551 156.275 374.703 155.635 373.503 155.635C371.839 155.635 370.975 156.867 370.975 158.355V162.563ZM379.399 152.707C378.951 152.707 378.583 152.339 378.583 151.891C378.583 151.443 378.951 151.059 379.399 151.059C379.847 151.059 380.231 151.443 380.231 151.891C380.231 152.339 379.847 152.707 379.399 152.707ZM378.855 162.579V154.835H379.959V162.579H378.855ZM386.309 154.739V155.731H385.701C384.277 155.731 383.365 156.691 383.365 158.163V162.579H382.261V154.835H383.301L383.381 156.035C383.685 155.203 384.501 154.659 385.589 154.659C385.829 154.659 386.037 154.675 386.309 154.739ZM389.866 162.579H388.778V155.763H387.226V154.835H388.778V152.387H389.866V154.835H391.418V155.763H389.866V162.579ZM393.315 162.755C392.771 162.755 392.307 162.307 392.307 161.779C392.307 161.235 392.771 160.771 393.315 160.771C393.859 160.771 394.323 161.235 394.323 161.779C394.323 162.307 393.859 162.755 393.315 162.755ZM396.143 151.907L395.839 155.091H395.118L394.799 151.907C394.735 151.347 395.135 151.091 395.487 151.091C395.823 151.091 396.207 151.347 396.143 151.907ZM398.399 151.907L398.095 155.091H397.375L397.055 151.907C396.991 151.347 397.391 151.091 397.743 151.091C398.079 151.091 398.463 151.347 398.399 151.907Z" fill="black" fill-opacity="0.6"/>
<path d="M568.625 40C568.625 40.5192 568.471 41.0267 568.183 41.4584C567.894 41.8901 567.484 42.2265 567.005 42.4252C566.525 42.6239 565.997 42.6758 565.488 42.5746C564.979 42.4733 564.511 42.2233 564.144 41.8562C563.777 41.489 563.527 41.0213 563.425 40.5121C563.324 40.0029 563.376 39.4751 563.575 38.9955C563.773 38.5158 564.11 38.1058 564.542 37.8174C564.973 37.529 565.481 37.375 566 37.375C566.696 37.375 567.364 37.6516 567.856 38.1438C568.348 38.6361 568.625 39.3038 568.625 40ZM558.5 37.375C557.981 37.375 557.473 37.529 557.042 37.8174C556.61 38.1058 556.273 38.5158 556.075 38.9955C555.876 39.4751 555.824 40.0029 555.925 40.5121C556.027 41.0213 556.277 41.489 556.644 41.8562C557.011 42.2233 557.479 42.4733 557.988 42.5746C558.497 42.6758 559.025 42.6239 559.505 42.4252C559.984 42.2265 560.394 41.8901 560.683 41.4584C560.971 41.0267 561.125 40.5192 561.125 40C561.125 39.3038 560.848 38.6361 560.356 38.1438C559.864 37.6516 559.196 37.375 558.5 37.375ZM573.5 37.375C572.981 37.375 572.473 37.529 572.042 37.8174C571.61 38.1058 571.273 38.5158 571.075 38.9955C570.876 39.4751 570.824 40.0029 570.925 40.5121C571.027 41.0213 571.277 41.489 571.644 41.8562C572.011 42.2233 572.479 42.4733 572.988 42.5746C573.497 42.6758 574.025 42.6239 574.505 42.4252C574.984 42.2265 575.394 41.8901 575.683 41.4584C575.971 41.0267 576.125 40.5192 576.125 40C576.125 39.6553 576.057 39.3139 575.925 38.9955C575.793 38.677 575.6 38.3876 575.356 38.1438C575.112 37.9001 574.823 37.7067 574.505 37.5748C574.186 37.4429 573.845 37.375 573.5 37.375Z" fill="black" fill-opacity="0.4"/>
<path d="M37.84 204.451H34.912V208.579H33.344V197.011H37.84C40.112 197.011 41.568 198.499 41.568 200.723C41.568 202.883 40.096 204.451 37.84 204.451ZM37.568 198.419H34.912V203.043H37.504C39.056 203.043 39.92 202.131 39.92 200.707C39.92 199.251 39.04 198.419 37.568 198.419ZM42.2166 204.659C42.2166 202.243 43.9446 200.547 46.2966 200.547C48.6326 200.547 50.3606 202.243 50.3606 204.659C50.3606 207.075 48.6326 208.771 46.2966 208.771C43.9446 208.771 42.2166 207.075 42.2166 204.659ZM43.7366 204.659C43.7366 206.291 44.7766 207.427 46.2966 207.427C47.8006 207.427 48.8566 206.291 48.8566 204.659C48.8566 203.027 47.8006 201.891 46.2966 201.891C44.7766 201.891 43.7366 203.027 43.7366 204.659ZM51.3855 206.307H52.8255C52.8255 207.107 53.4335 207.587 54.4255 207.587C55.4815 207.587 56.0895 207.155 56.0895 206.435C56.0895 205.907 55.8335 205.587 55.0175 205.379L53.6415 205.059C52.2495 204.723 51.5935 204.035 51.5935 202.883C51.5935 201.443 52.8095 200.531 54.5375 200.531C56.2495 200.531 57.3695 201.491 57.4015 202.979H55.9615C55.9295 202.195 55.4015 201.699 54.4895 201.699C53.5455 201.699 53.0175 202.115 53.0175 202.835C53.0175 203.363 53.4015 203.715 54.1695 203.907L55.5455 204.243C56.8735 204.563 57.5295 205.171 57.5295 206.339C57.5295 207.827 56.2495 208.771 54.3935 208.771C52.5535 208.771 51.3855 207.795 51.3855 206.307ZM61.4054 208.579H59.9014V202.019H58.3654V200.755H59.9014V198.307H61.4054V200.755H62.9414V202.019H61.4054V208.579ZM67.589 208.771C65.285 208.771 63.701 207.107 63.701 204.675C63.701 202.227 65.253 200.531 67.525 200.531C69.749 200.531 71.205 202.067 71.205 204.387V204.947L65.157 204.963C65.269 206.611 66.133 207.523 67.621 207.523C68.789 207.523 69.557 207.043 69.813 206.147H71.221C70.837 207.827 69.525 208.771 67.589 208.771ZM67.525 201.795C66.213 201.795 65.381 202.579 65.189 203.955H69.701C69.701 202.659 68.853 201.795 67.525 201.795ZM76.0209 208.771C73.7489 208.771 72.3729 207.075 72.3729 204.691C72.3729 202.291 73.7649 200.531 76.0849 200.531C77.2849 200.531 78.2929 201.059 78.8209 202.019V196.803H80.3089V208.579H78.9649L78.8369 207.155C78.3249 208.227 77.2689 208.771 76.0209 208.771ZM76.3249 207.411C77.8609 207.411 78.8049 206.275 78.8049 204.643C78.8049 203.043 77.8609 201.891 76.3249 201.891C74.7889 201.891 73.8929 203.043 73.8929 204.643C73.8929 206.259 74.7889 207.411 76.3249 207.411ZM86.3416 204.659C86.3416 202.243 88.0696 200.547 90.4216 200.547C92.7576 200.547 94.4856 202.243 94.4856 204.659C94.4856 207.075 92.7576 208.771 90.4216 208.771C88.0696 208.771 86.3416 207.075 86.3416 204.659ZM87.8616 204.659C87.8616 206.291 88.9016 207.427 90.4216 207.427C91.9256 207.427 92.9816 206.291 92.9816 204.659C92.9816 203.027 91.9256 201.891 90.4216 201.891C88.9016 201.891 87.8616 203.027 87.8616 204.659ZM97.6545 208.579H96.1505V200.755H97.5105L97.6705 201.955C98.1665 201.059 99.1585 200.531 100.263 200.531C102.327 200.531 103.271 201.795 103.271 203.795V208.579H101.767V204.131C101.767 202.547 101.031 201.907 99.8785 201.907C98.4705 201.907 97.6545 202.915 97.6545 204.435V208.579ZM110.465 208.579H108.833L113.057 197.011H114.801L119.041 208.579H117.393L116.353 205.699H111.489L110.465 208.579ZM113.729 199.507L111.969 204.339H115.889L114.113 199.507C114.033 199.283 113.953 199.011 113.921 198.835C113.889 198.995 113.809 199.267 113.729 199.507ZM125.512 200.755H127V208.579H125.656L125.496 207.395C125.048 208.211 124.008 208.771 122.856 208.771C121.032 208.771 120.008 207.539 120.008 205.619V200.755H121.512V205.123C121.512 206.803 122.232 207.443 123.384 207.443C124.76 207.443 125.512 206.563 125.512 204.883V200.755ZM128.686 204.467C128.686 202.259 130.11 200.531 132.382 200.531C133.646 200.531 134.622 201.107 135.118 202.083L135.23 200.755H136.574V208.259C136.574 210.723 135.054 212.291 132.654 212.291C130.526 212.291 129.07 211.091 128.782 209.107H130.286C130.478 210.259 131.342 210.931 132.654 210.931C134.126 210.931 135.086 209.971 135.086 208.483V206.915C134.574 207.827 133.55 208.371 132.318 208.371C130.094 208.371 128.686 206.659 128.686 204.467ZM130.19 204.435C130.19 205.907 131.102 207.059 132.574 207.059C134.094 207.059 135.022 205.971 135.022 204.435C135.022 202.931 134.126 201.843 132.59 201.843C131.086 201.843 130.19 202.995 130.19 204.435ZM144.152 200.755H145.64V208.579H144.296L144.136 207.395C143.688 208.211 142.648 208.771 141.496 208.771C139.672 208.771 138.648 207.539 138.648 205.619V200.755H140.152V205.123C140.152 206.803 140.872 207.443 142.024 207.443C143.4 207.443 144.152 206.563 144.152 204.883V200.755ZM147.026 206.307H148.466C148.466 207.107 149.074 207.587 150.066 207.587C151.122 207.587 151.73 207.155 151.73 206.435C151.73 205.907 151.474 205.587 150.658 205.379L149.282 205.059C147.89 204.723 147.234 204.035 147.234 202.883C147.234 201.443 148.45 200.531 150.178 200.531C151.89 200.531 153.01 201.491 153.042 202.979H151.602C151.57 202.195 151.042 201.699 150.13 201.699C149.186 201.699 148.658 202.115 148.658 202.835C148.658 203.363 149.042 203.715 149.81 203.907L151.186 204.243C152.514 204.563 153.17 205.171 153.17 206.339C153.17 207.827 151.89 208.771 150.034 208.771C148.194 208.771 147.026 207.795 147.026 206.307ZM157.046 208.579H155.542V202.019H154.006V200.755H155.542V198.307H157.046V200.755H158.582V202.019H157.046V208.579ZM166.211 198.419H163.779V197.011H167.715V208.579H166.211V198.419ZM171.303 200.675L174.007 197.011H175.831L172.935 200.851C173.335 200.691 173.751 200.611 174.151 200.611C176.551 200.611 178.167 202.339 178.167 204.627C178.167 207.043 176.343 208.771 173.959 208.771C171.559 208.771 169.703 206.963 169.703 204.627C169.703 203.251 170.119 202.291 171.303 200.675ZM171.303 204.643C171.303 206.227 172.391 207.363 173.959 207.363C175.495 207.363 176.583 206.227 176.583 204.643C176.583 203.059 175.495 201.939 173.959 201.939C172.391 201.939 171.303 203.059 171.303 204.643ZM181.828 207.955C181.828 209.107 180.964 210.067 179.828 210.211V209.539C180.484 209.427 180.948 208.995 180.948 208.499C180.836 208.563 180.708 208.595 180.516 208.595C179.988 208.595 179.54 208.211 179.54 207.619C179.54 206.979 179.972 206.515 180.612 206.515C181.284 206.515 181.828 207.075 181.828 207.955ZM195.825 208.563L188.017 208.579V207.379L191.745 204.163C193.617 202.547 194.145 201.763 194.145 200.531C194.145 199.075 193.313 198.211 191.921 198.211C190.497 198.211 189.569 199.251 189.537 200.899H187.969C188.017 198.419 189.585 196.803 191.937 196.803C194.257 196.803 195.745 198.211 195.745 200.435C195.745 202.083 194.929 203.251 192.881 205.027L190.481 207.107H195.825V208.563ZM197.268 202.803C197.268 199.219 199.124 196.787 202.036 196.787C204.932 196.787 206.788 199.219 206.788 202.803C206.788 206.403 205.012 208.787 202.036 208.787C199.044 208.787 197.268 206.403 197.268 202.803ZM198.82 202.803C198.82 205.651 200.004 207.379 202.036 207.379C204.068 207.379 205.236 205.651 205.236 202.803C205.236 199.923 204.068 198.195 202.036 198.195C200.004 198.195 198.82 199.923 198.82 202.803ZM216.122 208.563L208.314 208.579V207.379L212.042 204.163C213.914 202.547 214.442 201.763 214.442 200.531C214.442 199.075 213.61 198.211 212.218 198.211C210.794 198.211 209.866 199.251 209.834 200.899H208.266C208.314 198.419 209.882 196.803 212.234 196.803C214.554 196.803 216.042 198.211 216.042 200.435C216.042 202.083 215.226 203.251 213.178 205.027L210.778 207.107H216.122V208.563ZM220.94 202.595H219.788V201.555L223.068 198.403H217.868V197.011H225.052V198.275L221.884 201.299C223.852 201.539 225.34 202.867 225.34 204.947C225.34 207.283 223.58 208.771 221.228 208.771C218.956 208.771 217.324 207.379 217.324 204.979H218.876C218.876 206.483 219.804 207.363 221.26 207.363C222.764 207.363 223.74 206.403 223.74 204.915C223.74 203.523 222.78 202.595 220.94 202.595Z" fill="black" fill-opacity="0.6"/>
</svg>
