<svg width="610" height="242" viewBox="0 0 610 242" fill="none" xmlns="http://www.w3.org/2000/svg">
<rect x="0.5" y="0.5" width="609" height="240.579" rx="19.5" stroke="black" stroke-opacity="0.1"/>
<path d="M43.2895 28L46.4879 34.8872L54.0264 35.8008L48.4647 40.971L49.9253 48.4229L43.2895 44.731L36.6537 48.4229L38.1143 40.971L32.5525 35.8008L40.091 34.8872L43.2895 28Z" fill="#FFC633"/>
<path d="M72.3552 28L75.5536 34.8872L83.0921 35.8008L77.5304 40.971L78.991 48.4229L72.3552 44.731L65.7194 48.4229L67.18 40.971L61.6182 35.8008L69.1567 34.8872L72.3552 28Z" fill="#FFC633"/>
<path d="M101.421 28L104.62 34.8872L112.158 35.8008L106.596 40.971L108.057 48.4229L101.421 44.731L94.7853 48.4229L96.2459 40.971L90.6841 35.8008L98.2226 34.8872L101.421 28Z" fill="#FFC633"/>
<path d="M130.487 28L133.685 34.8872L141.224 35.8008L135.662 40.971L137.123 48.4229L130.487 44.731L123.851 48.4229L125.312 40.971L119.75 35.8008L127.288 34.8872L130.487 28Z" fill="#FFC633"/>
<path d="M152.364 48.4229L159 44.731V28L155.802 34.8872L148.263 35.8008L153.825 40.971L152.364 48.4229Z" fill="#FFC633"/>
<path d="M32.78 74.539C32.78 71.979 34.9 70.199 37.98 70.199C40.94 70.199 42.82 71.839 42.9 74.479H40.34C40.28 73.219 39.38 72.479 37.94 72.479C36.36 72.479 35.34 73.239 35.34 74.459C35.34 75.499 35.9 76.079 37.12 76.359L39.42 76.859C41.92 77.399 43.14 78.679 43.14 80.859C43.14 83.579 41.02 85.339 37.8 85.339C34.68 85.339 32.64 83.679 32.58 81.059H35.14C35.16 82.299 36.16 83.039 37.8 83.039C39.5 83.039 40.58 82.299 40.58 81.079C40.58 80.099 40.08 79.519 38.88 79.259L36.56 78.739C34.08 78.199 32.78 76.779 32.78 74.539ZM48.0359 85.339C45.9359 85.339 44.6559 84.119 44.6559 82.259C44.6559 80.439 45.9759 79.299 48.3159 79.119L51.2759 78.899V78.679C51.2759 77.339 50.4759 76.799 49.2359 76.799C47.7959 76.799 46.9959 77.399 46.9959 78.439H44.9159C44.9159 76.299 46.6759 74.899 49.3559 74.899C52.0159 74.899 53.6559 76.339 53.6559 79.079V85.079H51.5159L51.3359 83.619C50.9159 84.639 49.5759 85.339 48.0359 85.339ZM48.8359 83.499C50.3359 83.499 51.2959 82.599 51.2959 81.079V80.559L49.2359 80.719C47.7159 80.859 47.1359 81.359 47.1359 82.159C47.1359 83.059 47.7359 83.499 48.8359 83.499ZM58.493 85.079H56.053V75.199H58.293L58.493 76.359C58.993 75.539 59.993 74.899 61.413 74.899C62.913 74.899 63.953 75.639 64.473 76.779C64.973 75.639 66.133 74.899 67.633 74.899C70.033 74.899 71.353 76.339 71.353 78.619V85.079H68.933V79.259C68.933 77.839 68.173 77.099 67.013 77.099C65.833 77.099 64.933 77.859 64.933 79.479V85.079H62.493V79.239C62.493 77.859 61.753 77.119 60.593 77.119C59.433 77.119 58.493 77.879 58.493 79.479V85.079ZM76.6883 85.339C74.5883 85.339 73.3083 84.119 73.3083 82.259C73.3083 80.439 74.6283 79.299 76.9683 79.119L79.9283 78.899V78.679C79.9283 77.339 79.1283 76.799 77.8883 76.799C76.4483 76.799 75.6483 77.399 75.6483 78.439H73.5683C73.5683 76.299 75.3283 74.899 78.0083 74.899C80.6683 74.899 82.3083 76.339 82.3083 79.079V85.079H80.1683L79.9883 83.619C79.5683 84.639 78.2283 85.339 76.6883 85.339ZM77.4883 83.499C78.9883 83.499 79.9483 82.599 79.9483 81.079V80.559L77.8883 80.719C76.3683 80.859 75.7883 81.359 75.7883 82.159C75.7883 83.059 76.3883 83.499 77.4883 83.499ZM87.1453 85.079H84.7053V75.199H86.9653L87.1653 76.479C87.7853 75.479 88.9853 74.899 90.3253 74.899C92.8053 74.899 94.0853 76.439 94.0853 78.999V85.079H91.6453V79.579C91.6453 77.919 90.8253 77.119 89.5653 77.119C88.0653 77.119 87.1453 78.159 87.1453 79.759V85.079ZM99.8427 85.079H97.4027V77.239H95.5027V75.199H97.4027V72.119H99.8427V75.199H101.763V77.239H99.8427V85.079ZM105.72 85.079H103.28V70.199H105.74V76.479C106.36 75.519 107.52 74.899 108.94 74.899C111.38 74.899 112.66 76.439 112.66 78.999V85.079H110.22V79.579C110.22 77.919 109.4 77.119 108.16 77.119C106.62 77.119 105.72 78.199 105.72 79.679V85.079ZM117.997 85.339C115.897 85.339 114.617 84.119 114.617 82.259C114.617 80.439 115.937 79.299 118.277 79.119L121.237 78.899V78.679C121.237 77.339 120.437 76.799 119.197 76.799C117.757 76.799 116.957 77.399 116.957 78.439H114.877C114.877 76.299 116.637 74.899 119.317 74.899C121.977 74.899 123.617 76.339 123.617 79.079V85.079H121.477L121.297 83.619C120.877 84.639 119.537 85.339 117.997 85.339ZM118.797 83.499C120.297 83.499 121.257 82.599 121.257 81.079V80.559L119.197 80.719C117.677 80.859 117.097 81.359 117.097 82.159C117.097 83.059 117.697 83.499 118.797 83.499ZM137.025 85.079H131.765V70.459H136.885C141.205 70.459 144.185 73.439 144.185 77.799C144.185 82.099 141.265 85.079 137.025 85.079ZM136.645 72.819H134.325V82.719H136.785C139.705 82.719 141.485 80.839 141.485 77.799C141.485 74.699 139.665 72.819 136.645 72.819ZM146.951 85.319C146.071 85.319 145.331 84.599 145.331 83.739C145.331 82.859 146.071 82.139 146.951 82.139C147.831 82.139 148.571 82.859 148.571 83.739C148.571 84.599 147.831 85.319 146.951 85.319Z" fill="black"/>
<path d="M166 67.829C164.072 67.829 162.187 68.4008 160.583 69.4722C158.98 70.5435 157.73 72.0662 156.992 73.8478C156.254 75.6294 156.061 77.5898 156.437 79.4811C156.814 81.3724 157.742 83.1097 159.106 84.4733C160.469 85.8368 162.207 86.7654 164.098 87.1416C165.989 87.5178 167.95 87.3248 169.731 86.5868C171.513 85.8489 173.035 84.5992 174.107 82.9958C175.178 81.3924 175.75 79.5073 175.75 77.579C175.747 74.994 174.719 72.5156 172.891 70.6877C171.063 68.8598 168.585 67.8317 166 67.829ZM170.281 75.8596L165.031 81.1096C164.961 81.1793 164.878 81.2347 164.787 81.2724C164.696 81.3101 164.599 81.3296 164.5 81.3296C164.401 81.3296 164.304 81.3101 164.213 81.2724C164.122 81.2347 164.039 81.1793 163.969 81.1096L161.719 78.8596C161.579 78.7189 161.5 78.528 161.5 78.329C161.5 78.13 161.579 77.9391 161.719 77.7984C161.86 77.6576 162.051 77.5786 162.25 77.5786C162.449 77.5786 162.64 77.6576 162.781 77.7984L164.5 79.5187L169.219 74.7984C169.289 74.7287 169.372 74.6734 169.463 74.6357C169.554 74.598 169.651 74.5786 169.75 74.5786C169.849 74.5786 169.946 74.598 170.037 74.6357C170.128 74.6734 170.211 74.7287 170.281 74.7984C170.35 74.868 170.406 74.9508 170.443 75.0418C170.481 75.1329 170.5 75.2304 170.5 75.329C170.5 75.4275 170.481 75.5251 170.443 75.6162C170.406 75.7072 170.35 75.7899 170.281 75.8596Z" fill="#01AB31"/>
<path d="M34.08 107.907L33.776 111.091H33.056L32.736 107.907C32.672 107.347 33.072 107.091 33.424 107.091C33.76 107.091 34.144 107.347 34.08 107.907ZM36.336 107.907L36.032 111.091H35.312L34.992 107.907C34.928 107.347 35.328 107.091 35.68 107.091C36.016 107.091 36.4 107.347 36.336 107.907ZM39.6221 107.123V118.579H38.4701V107.123H39.6221ZM48.8291 118.771C47.1811 118.771 46.2051 117.843 46.2051 116.483C46.2051 115.059 47.2931 114.163 49.1011 114.019L51.6611 113.811V113.555C51.6611 112.035 50.7491 111.555 49.6131 111.555C48.2691 111.555 47.4691 112.163 47.4691 113.203H46.4611C46.4611 111.635 47.7411 110.627 49.6451 110.627C51.4371 110.627 52.7491 111.523 52.7491 113.571V118.579H51.8211L51.6771 117.219C51.1971 118.195 50.1411 118.771 48.8291 118.771ZM49.0851 117.875C50.7171 117.875 51.6611 116.739 51.6611 115.059V114.643L49.3731 114.819C47.9171 114.947 47.3251 115.587 47.3251 116.451C47.3251 117.395 48.0291 117.875 49.0851 117.875ZM55.9245 118.579H54.9645V106.915H56.0685V112.339C56.6125 111.203 57.6685 110.627 58.9805 110.627C61.2365 110.627 62.5485 112.387 62.5485 114.723C62.5485 117.043 61.2045 118.771 58.9485 118.771C57.6525 118.771 56.5805 118.195 56.0365 116.995L55.9245 118.579ZM56.0845 114.691C56.0845 116.483 57.0765 117.763 58.7725 117.763C60.4525 117.763 61.4285 116.483 61.4285 114.691C61.4285 112.915 60.4525 111.619 58.7725 111.619C57.0765 111.619 56.0845 112.915 56.0845 114.691ZM63.6523 116.403H64.7083C64.7083 117.299 65.3803 117.859 66.4683 117.859C67.6683 117.859 68.3723 117.347 68.3723 116.515C68.3723 115.875 68.0523 115.507 67.1403 115.283L65.8123 114.947C64.4683 114.611 63.8123 113.907 63.8123 112.851C63.8123 111.491 64.9483 110.627 66.6123 110.627C68.2443 110.627 69.3003 111.523 69.3483 112.963H68.2763C68.2443 112.067 67.6203 111.539 66.5803 111.539C65.4923 111.539 64.8843 112.003 64.8843 112.835C64.8843 113.427 65.3003 113.843 66.1483 114.051L67.4763 114.387C68.8203 114.723 69.4283 115.347 69.4283 116.467C69.4283 117.859 68.2443 118.771 66.4843 118.771C64.7403 118.771 63.6523 117.843 63.6523 116.403ZM70.7018 114.707C70.7018 112.339 72.3658 110.627 74.6378 110.627C76.9098 110.627 78.5738 112.339 78.5738 114.707C78.5738 117.059 76.9098 118.771 74.6378 118.771C72.3658 118.771 70.7018 117.059 70.7018 114.707ZM71.8218 114.691C71.8218 116.515 72.9738 117.779 74.6378 117.779C76.2858 117.779 77.4538 116.515 77.4538 114.691C77.4538 112.899 76.2858 111.619 74.6378 111.619C72.9738 111.619 71.8218 112.899 71.8218 114.691ZM81.4915 118.579H80.3875V106.915H81.4915V118.579ZM89.2795 110.835H90.3835V118.579H89.4235L89.2795 117.267C88.8475 118.163 87.7755 118.771 86.5595 118.771C84.7355 118.771 83.7435 117.523 83.7435 115.635V110.819H84.8635V115.283C84.8635 117.123 85.6795 117.779 86.9115 117.779C88.3995 117.779 89.2795 116.787 89.2795 114.947V110.835ZM94.4593 118.579H93.3713V111.763H91.8193V110.835H93.3713V108.387H94.4593V110.835H96.0113V111.763H94.4593V118.579ZM100.619 118.771C98.3468 118.771 96.8268 117.139 96.8268 114.707C96.8268 112.291 98.3307 110.627 100.539 110.627C102.635 110.627 104.059 112.115 104.059 114.307V114.851H97.8988C97.9788 116.739 98.9708 117.827 100.635 117.827C101.899 117.827 102.715 117.283 103.003 116.259H104.059C103.643 117.891 102.443 118.771 100.619 118.771ZM100.539 111.571C99.0828 111.571 98.1228 112.531 97.9308 114.051H102.955C102.955 112.563 101.995 111.571 100.539 111.571ZM106.976 118.579H105.872V106.915H106.976V118.579ZM108.54 121.955V121.043H109.388C110.06 121.043 110.732 120.995 111.116 119.955L111.452 119.043L108.316 110.835H109.484L111.98 117.587L114.428 110.835H115.564L112.012 120.355C111.564 121.571 110.812 122.067 109.708 122.067C109.244 122.067 108.892 122.035 108.54 121.955ZM122.445 118.579H121.341V106.915H122.445V118.579ZM124.249 114.707C124.249 112.339 125.913 110.627 128.185 110.627C130.457 110.627 132.121 112.339 132.121 114.707C132.121 117.059 130.457 118.771 128.185 118.771C125.913 118.771 124.249 117.059 124.249 114.707ZM125.369 114.691C125.369 116.515 126.521 117.779 128.185 117.779C129.833 117.779 131.001 116.515 131.001 114.691C131.001 112.899 129.833 111.619 128.185 111.619C126.521 111.619 125.369 112.899 125.369 114.691ZM135.703 118.579L132.535 110.835H133.719L135.719 115.827C135.927 116.387 136.135 116.915 136.279 117.427C136.423 116.899 136.631 116.387 136.855 115.827L138.887 110.835H140.023L136.807 118.579H135.703ZM144.228 118.771C141.956 118.771 140.436 117.139 140.436 114.707C140.436 112.291 141.94 110.627 144.148 110.627C146.244 110.627 147.668 112.115 147.668 114.307V114.851H141.508C141.588 116.739 142.58 117.827 144.244 117.827C145.508 117.827 146.324 117.283 146.612 116.259H147.668C147.252 117.891 146.052 118.771 144.228 118.771ZM144.148 111.571C142.692 111.571 141.732 112.531 141.54 114.051H146.564C146.564 112.563 145.604 111.571 144.148 111.571ZM155.647 118.579H154.559V111.763H153.007V110.835H154.559V108.387H155.647V110.835H157.199V111.763H155.647V118.579ZM159.74 118.563H158.636V106.915H159.74V112.179C160.236 111.251 161.18 110.627 162.476 110.627C164.508 110.627 165.42 111.891 165.42 113.843V118.579H164.316V114.083C164.316 112.275 163.468 111.635 162.268 111.635C160.604 111.635 159.74 112.867 159.74 114.355V118.563ZM168.165 108.707C167.717 108.707 167.349 108.339 167.349 107.891C167.349 107.443 167.717 107.059 168.165 107.059C168.613 107.059 168.997 107.443 168.997 107.891C168.997 108.339 168.613 108.707 168.165 108.707ZM167.621 118.579V110.835H168.725V118.579H167.621ZM170.371 116.403H171.427C171.427 117.299 172.099 117.859 173.187 117.859C174.387 117.859 175.091 117.347 175.091 116.515C175.091 115.875 174.771 115.507 173.859 115.283L172.531 114.947C171.187 114.611 170.531 113.907 170.531 112.851C170.531 111.491 171.667 110.627 173.331 110.627C174.963 110.627 176.019 111.523 176.067 112.963H174.995C174.963 112.067 174.339 111.539 173.299 111.539C172.211 111.539 171.603 112.003 171.603 112.835C171.603 113.427 172.019 113.843 172.867 114.051L174.195 114.387C175.539 114.723 176.147 115.347 176.147 116.467C176.147 117.859 174.963 118.771 173.203 118.771C171.459 118.771 170.371 117.843 170.371 116.403ZM184.178 118.579H183.09V111.763H181.538V110.835H183.09V108.387H184.178V110.835H185.73V111.763H184.178V118.579ZM186.727 114.867V113.875H191.367V114.867H186.727ZM192.855 116.403H193.911C193.911 117.299 194.583 117.859 195.671 117.859C196.871 117.859 197.575 117.347 197.575 116.515C197.575 115.875 197.255 115.507 196.343 115.283L195.015 114.947C193.671 114.611 193.015 113.907 193.015 112.851C193.015 111.491 194.151 110.627 195.815 110.627C197.447 110.627 198.503 111.523 198.551 112.963H197.479C197.447 112.067 196.823 111.539 195.783 111.539C194.695 111.539 194.087 112.003 194.087 112.835C194.087 113.427 194.503 113.843 195.351 114.051L196.679 114.387C198.023 114.723 198.631 115.347 198.631 116.467C198.631 117.859 197.447 118.771 195.687 118.771C193.943 118.771 192.855 117.843 192.855 116.403ZM201.553 118.563H200.449V106.915H201.553V112.179C202.049 111.251 202.993 110.627 204.289 110.627C206.321 110.627 207.233 111.891 207.233 113.843V118.579H206.129V114.083C206.129 112.275 205.281 111.635 204.081 111.635C202.417 111.635 201.553 112.867 201.553 114.355V118.563ZM209.977 108.707C209.529 108.707 209.161 108.339 209.161 107.891C209.161 107.443 209.529 107.059 209.977 107.059C210.425 107.059 210.809 107.443 210.809 107.891C210.809 108.339 210.425 108.707 209.977 108.707ZM209.433 118.579V110.835H210.537V118.579H209.433ZM216.888 110.739V111.731H216.28C214.856 111.731 213.944 112.691 213.944 114.163V118.579H212.84V110.835H213.88L213.96 112.035C214.264 111.203 215.08 110.659 216.168 110.659C216.408 110.659 216.616 110.675 216.888 110.739ZM220.444 118.579H219.356V111.763H217.804V110.835H219.356V108.387H220.444V110.835H221.996V111.763H220.444V118.579ZM224.841 115.139H224.041C223.913 114.003 223.849 111.891 223.849 109.827V107.123H225.049V109.827C225.049 111.907 224.969 114.003 224.841 115.139ZM224.457 118.803C223.897 118.803 223.449 118.339 223.449 117.795C223.449 117.251 223.897 116.803 224.457 116.803C224.985 116.803 225.449 117.251 225.449 117.795C225.449 118.339 224.985 118.803 224.457 118.803ZM231.255 108.179V107.123H239.463V108.179H235.927V118.579H234.775V108.179H231.255ZM241.912 118.563H240.808V106.915H241.912V112.179C242.408 111.251 243.352 110.627 244.648 110.627C246.68 110.627 247.592 111.891 247.592 113.843V118.579H246.488V114.083C246.488 112.275 245.64 111.635 244.44 111.635C242.776 111.635 241.912 112.867 241.912 114.355V118.563ZM253.041 118.771C250.769 118.771 249.249 117.139 249.249 114.707C249.249 112.291 250.753 110.627 252.961 110.627C255.057 110.627 256.481 112.115 256.481 114.307V114.851H250.321C250.401 116.739 251.393 117.827 253.057 117.827C254.321 117.827 255.137 117.283 255.425 116.259H256.481C256.065 117.891 254.865 118.771 253.041 118.771ZM252.961 111.571C251.505 111.571 250.545 112.531 250.353 114.051H255.377C255.377 112.563 254.417 111.571 252.961 111.571ZM265.723 118.771C263.467 118.771 262.139 117.043 262.139 114.723C262.139 112.387 263.467 110.627 265.771 110.627C267.051 110.627 268.075 111.187 268.619 112.307V106.915H269.723V118.579H268.763L268.651 116.995C268.107 118.195 267.019 118.771 265.723 118.771ZM265.915 117.763C267.611 117.763 268.603 116.483 268.603 114.691C268.603 112.915 267.611 111.619 265.915 111.619C264.235 111.619 263.259 112.915 263.259 114.691C263.259 116.483 264.235 117.763 265.915 117.763ZM275.275 118.771C273.003 118.771 271.483 117.139 271.483 114.707C271.483 112.291 272.987 110.627 275.195 110.627C277.291 110.627 278.715 112.115 278.715 114.307V114.851H272.555C272.635 116.739 273.627 117.827 275.291 117.827C276.555 117.827 277.371 117.283 277.659 116.259H278.715C278.299 117.891 277.099 118.771 275.275 118.771ZM275.195 111.571C273.739 111.571 272.779 112.531 272.587 114.051H277.611C277.611 112.563 276.651 111.571 275.195 111.571ZM279.824 116.403H280.88C280.88 117.299 281.552 117.859 282.64 117.859C283.84 117.859 284.544 117.347 284.544 116.515C284.544 115.875 284.224 115.507 283.312 115.283L281.984 114.947C280.64 114.611 279.984 113.907 279.984 112.851C279.984 111.491 281.12 110.627 282.784 110.627C284.416 110.627 285.472 111.523 285.52 112.963H284.448C284.416 112.067 283.792 111.539 282.752 111.539C281.664 111.539 281.056 112.003 281.056 112.835C281.056 113.427 281.472 113.843 282.32 114.051L283.648 114.387C284.992 114.723 285.6 115.347 285.6 116.467C285.6 117.859 284.416 118.771 282.656 118.771C280.912 118.771 279.824 117.843 279.824 116.403ZM287.962 108.707C287.514 108.707 287.146 108.339 287.146 107.891C287.146 107.443 287.514 107.059 287.962 107.059C288.41 107.059 288.794 107.443 288.794 107.891C288.794 108.339 288.41 108.707 287.962 108.707ZM287.418 118.579V110.835H288.522V118.579H287.418ZM290.296 114.483C290.296 112.371 291.656 110.627 293.928 110.627C295.272 110.627 296.296 111.251 296.792 112.387L296.904 110.835H297.864V118.339C297.864 120.643 296.392 122.147 294.12 122.147C292.136 122.147 290.744 121.027 290.44 119.155H291.544C291.784 120.403 292.744 121.139 294.136 121.139C295.72 121.139 296.776 120.067 296.776 118.451V116.611C296.248 117.699 295.176 118.339 293.848 118.339C291.64 118.339 290.296 116.595 290.296 114.483ZM291.4 114.467C291.4 116.051 292.376 117.347 294.008 117.347C295.688 117.347 296.68 116.131 296.68 114.467C296.68 112.819 295.72 111.603 294.024 111.603C292.36 111.603 291.4 112.899 291.4 114.467ZM301.272 118.579H300.168V110.835H301.128L301.288 112.179C301.8 111.187 302.824 110.627 303.944 110.627C306.072 110.627 306.952 111.891 306.952 113.843V118.579H305.848V114.083C305.848 112.275 305.032 111.635 303.752 111.635C302.168 111.635 301.272 112.787 301.272 114.531V118.579ZM314.134 108.707C313.686 108.707 313.318 108.339 313.318 107.891C313.318 107.443 313.686 107.059 314.134 107.059C314.582 107.059 314.966 107.443 314.966 107.891C314.966 108.339 314.582 108.707 314.134 108.707ZM313.59 118.579V110.835H314.694V118.579H313.59ZM316.34 116.403H317.396C317.396 117.299 318.068 117.859 319.156 117.859C320.356 117.859 321.06 117.347 321.06 116.515C321.06 115.875 320.74 115.507 319.828 115.283L318.5 114.947C317.156 114.611 316.5 113.907 316.5 112.851C316.5 111.491 317.636 110.627 319.3 110.627C320.932 110.627 321.988 111.523 322.036 112.963H320.964C320.932 112.067 320.308 111.539 319.268 111.539C318.18 111.539 317.572 112.003 317.572 112.835C317.572 113.427 317.988 113.843 318.836 114.051L320.164 114.387C321.508 114.723 322.116 115.347 322.116 116.467C322.116 117.859 320.932 118.771 319.172 118.771C317.428 118.771 316.34 117.843 316.34 116.403ZM333.811 110.835H334.915V118.579H333.955L333.811 117.267C333.379 118.163 332.307 118.771 331.091 118.771C329.267 118.771 328.275 117.523 328.275 115.635V110.819H329.395V115.283C329.395 117.123 330.211 117.779 331.443 117.779C332.931 117.779 333.811 116.787 333.811 114.947V110.835ZM338.319 118.579H337.215V110.835H338.174L338.335 112.179C338.847 111.187 339.871 110.627 340.991 110.627C343.119 110.627 343.999 111.891 343.999 113.843V118.579H342.895V114.083C342.895 112.275 342.079 111.635 340.799 111.635C339.215 111.635 338.319 112.787 338.319 114.531V118.579ZM346.743 108.707C346.295 108.707 345.927 108.339 345.927 107.891C345.927 107.443 346.295 107.059 346.743 107.059C347.191 107.059 347.575 107.443 347.575 107.891C347.575 108.339 347.191 108.707 346.743 108.707ZM346.199 118.579V110.835H347.303V118.579H346.199ZM349.061 114.675C349.061 112.339 350.405 110.627 352.645 110.627C353.941 110.627 355.013 111.203 355.573 112.403L355.685 110.835H356.645V121.955H355.541V117.091C354.997 118.211 353.957 118.771 352.645 118.771C350.357 118.771 349.061 117.011 349.061 114.675ZM350.181 114.707C350.181 116.483 351.157 117.779 352.837 117.779C354.533 117.779 355.525 116.483 355.525 114.707C355.525 112.915 354.533 111.635 352.837 111.635C351.157 111.635 350.181 112.915 350.181 114.707ZM364.389 110.835H365.493V118.579H364.533L364.389 117.267C363.957 118.163 362.885 118.771 361.669 118.771C359.845 118.771 358.853 117.523 358.853 115.635V110.819H359.973V115.283C359.973 117.123 360.789 117.779 362.021 117.779C363.509 117.779 364.389 116.787 364.389 114.947V110.835ZM370.884 118.771C368.612 118.771 367.092 117.139 367.092 114.707C367.092 112.291 368.596 110.627 370.804 110.627C372.9 110.627 374.324 112.115 374.324 114.307V114.851H368.164C368.244 116.739 369.236 117.827 370.9 117.827C372.164 117.827 372.98 117.283 373.268 116.259H374.324C373.908 117.891 372.708 118.771 370.884 118.771ZM370.804 111.571C369.348 111.571 368.388 112.531 368.196 114.051H373.22C373.22 112.563 372.26 111.571 370.804 111.571ZM382.751 118.771C381.103 118.771 380.127 117.843 380.127 116.483C380.127 115.059 381.215 114.163 383.023 114.019L385.583 113.811V113.555C385.583 112.035 384.671 111.555 383.535 111.555C382.191 111.555 381.391 112.163 381.391 113.203H380.383C380.383 111.635 381.663 110.627 383.567 110.627C385.359 110.627 386.671 111.523 386.671 113.571V118.579H385.743L385.599 117.219C385.119 118.195 384.063 118.771 382.751 118.771ZM383.007 117.875C384.639 117.875 385.583 116.739 385.583 115.059V114.643L383.295 114.819C381.839 114.947 381.247 115.587 381.247 116.451C381.247 117.395 381.951 117.875 383.007 117.875ZM389.99 118.579H388.886V110.835H389.846L390.006 112.179C390.518 111.187 391.542 110.627 392.662 110.627C394.79 110.627 395.67 111.891 395.67 113.843V118.579H394.566V114.083C394.566 112.275 393.75 111.635 392.47 111.635C390.886 111.635 389.99 112.787 389.99 114.531V118.579ZM400.911 118.771C398.655 118.771 397.327 117.043 397.327 114.723C397.327 112.387 398.655 110.627 400.959 110.627C402.239 110.627 403.263 111.187 403.807 112.307V106.915H404.911V118.579H403.951L403.839 116.995C403.295 118.195 402.207 118.771 400.911 118.771ZM401.103 117.763C402.799 117.763 403.791 116.483 403.791 114.691C403.791 112.915 402.799 111.619 401.103 111.619C399.423 111.619 398.447 112.915 398.447 114.691C398.447 116.483 399.423 117.763 401.103 117.763ZM413.428 118.579H412.34V111.763H410.788V110.835H412.34V108.387H413.428V110.835H414.98V111.763H413.428V118.579ZM417.522 118.563H416.418V106.915H417.522V112.179C418.018 111.251 418.962 110.627 420.258 110.627C422.29 110.627 423.202 111.891 423.202 113.843V118.579H422.098V114.083C422.098 112.275 421.25 111.635 420.05 111.635C418.386 111.635 417.522 112.867 417.522 114.355V118.563ZM428.65 118.771C426.378 118.771 424.858 117.139 424.858 114.707C424.858 112.291 426.362 110.627 428.57 110.627C430.666 110.627 432.09 112.115 432.09 114.307V114.851H425.93C426.01 116.739 427.002 117.827 428.666 117.827C429.93 117.827 430.746 117.283 431.034 116.259H432.09C431.674 117.891 430.474 118.771 428.65 118.771ZM428.57 111.571C427.114 111.571 426.154 112.531 425.962 114.051H430.986C430.986 112.563 430.026 111.571 428.57 111.571ZM437.429 110.835H438.613V109.331C438.613 107.587 439.573 106.915 440.757 106.915C441.029 106.915 441.349 106.931 441.605 106.979V107.923H440.949C439.973 107.923 439.717 108.419 439.717 109.331V110.835H441.541V111.763H439.717V118.579H438.613V111.763H437.429V110.835ZM444.985 118.771C443.337 118.771 442.361 117.843 442.361 116.483C442.361 115.059 443.449 114.163 445.257 114.019L447.817 113.811V113.555C447.817 112.035 446.905 111.555 445.769 111.555C444.425 111.555 443.625 112.163 443.625 113.203H442.617C442.617 111.635 443.897 110.627 445.801 110.627C447.593 110.627 448.905 111.523 448.905 113.571V118.579H447.977L447.833 117.219C447.353 118.195 446.297 118.771 444.985 118.771ZM445.241 117.875C446.873 117.875 447.817 116.739 447.817 115.059V114.643L445.529 114.819C444.073 114.947 443.481 115.587 443.481 116.451C443.481 117.395 444.185 117.875 445.241 117.875ZM452.081 118.579H451.121V106.915H452.225V112.339C452.769 111.203 453.825 110.627 455.137 110.627C457.393 110.627 458.705 112.387 458.705 114.723C458.705 117.043 457.361 118.771 455.105 118.771C453.809 118.771 452.737 118.195 452.193 116.995L452.081 118.579ZM452.241 114.691C452.241 116.483 453.233 117.763 454.929 117.763C456.609 117.763 457.585 116.483 457.585 114.691C457.585 112.915 456.609 111.619 454.929 111.619C453.233 111.619 452.241 112.915 452.241 114.691ZM464.513 110.739V111.731H463.905C462.481 111.731 461.569 112.691 461.569 114.163V118.579H460.465V110.835H461.505L461.585 112.035C461.889 111.203 462.705 110.659 463.793 110.659C464.033 110.659 464.241 110.675 464.513 110.739ZM466.524 108.707C466.076 108.707 465.708 108.339 465.708 107.891C465.708 107.443 466.076 107.059 466.524 107.059C466.972 107.059 467.356 107.443 467.356 107.891C467.356 108.339 466.972 108.707 466.524 108.707ZM465.98 118.579V110.835H467.084V118.579H465.98ZM468.842 114.723C468.842 112.291 470.33 110.627 472.586 110.627C474.378 110.627 475.69 111.667 475.994 113.267H474.89C474.602 112.195 473.674 111.603 472.602 111.603C471.034 111.603 469.93 112.803 469.93 114.707C469.93 116.547 470.954 117.779 472.522 117.779C473.674 117.779 474.602 117.139 474.906 116.147H476.026C475.658 117.731 474.282 118.771 472.522 118.771C470.33 118.771 468.842 117.155 468.842 114.723ZM481.272 110.835H482.456V109.331C482.456 107.587 483.416 106.915 484.6 106.915C484.872 106.915 485.192 106.931 485.448 106.979V107.923H484.792C483.816 107.923 483.56 108.419 483.56 109.331V110.835H485.384V111.763H483.56V118.579H482.456V111.763H481.272V110.835ZM489.9 118.771C487.628 118.771 486.108 117.139 486.108 114.707C486.108 112.291 487.612 110.627 489.82 110.627C491.916 110.627 493.34 112.115 493.34 114.307V114.851H487.18C487.26 116.739 488.252 117.827 489.916 117.827C491.18 117.827 491.996 117.283 492.284 116.259H493.34C492.924 117.891 491.724 118.771 489.9 118.771ZM489.82 111.571C488.364 111.571 487.404 112.531 487.212 114.051H492.236C492.236 112.563 491.276 111.571 489.82 111.571ZM498.353 118.771C496.081 118.771 494.561 117.139 494.561 114.707C494.561 112.291 496.065 110.627 498.273 110.627C500.369 110.627 501.793 112.115 501.793 114.307V114.851H495.633C495.713 116.739 496.705 117.827 498.369 117.827C499.633 117.827 500.449 117.283 500.737 116.259H501.793C501.377 117.891 500.177 118.771 498.353 118.771ZM498.273 111.571C496.817 111.571 495.857 112.531 495.665 114.051H500.689C500.689 112.563 499.729 111.571 498.273 111.571ZM504.71 118.579H503.606V106.915H504.71V118.579ZM506.402 116.403H507.458C507.458 117.299 508.13 117.859 509.218 117.859C510.418 117.859 511.122 117.347 511.122 116.515C511.122 115.875 510.802 115.507 509.89 115.283L508.562 114.947C507.218 114.611 506.562 113.907 506.562 112.851C506.562 111.491 507.698 110.627 509.362 110.627C510.994 110.627 512.05 111.523 512.098 112.963H511.026C510.994 112.067 510.37 111.539 509.33 111.539C508.242 111.539 507.634 112.003 507.634 112.835C507.634 113.427 508.05 113.843 508.898 114.051L510.226 114.387C511.57 114.723 512.178 115.347 512.178 116.467C512.178 117.859 510.994 118.771 509.234 118.771C507.49 118.771 506.402 117.843 506.402 116.403ZM517.777 116.403H518.833C518.833 117.299 519.505 117.859 520.593 117.859C521.793 117.859 522.497 117.347 522.497 116.515C522.497 115.875 522.177 115.507 521.265 115.283L519.937 114.947C518.593 114.611 517.937 113.907 517.937 112.851C517.937 111.491 519.073 110.627 520.737 110.627C522.369 110.627 523.425 111.523 523.473 112.963H522.401C522.369 112.067 521.745 111.539 520.705 111.539C519.617 111.539 519.009 112.003 519.009 112.835C519.009 113.427 519.425 113.843 520.273 114.051L521.601 114.387C522.945 114.723 523.553 115.347 523.553 116.467C523.553 117.859 522.369 118.771 520.609 118.771C518.865 118.771 517.777 117.843 517.777 116.403ZM524.827 114.707C524.827 112.339 526.491 110.627 528.763 110.627C531.035 110.627 532.699 112.339 532.699 114.707C532.699 117.059 531.035 118.771 528.763 118.771C526.491 118.771 524.827 117.059 524.827 114.707ZM525.947 114.691C525.947 116.515 527.099 117.779 528.763 117.779C530.411 117.779 531.579 116.515 531.579 114.691C531.579 112.899 530.411 111.619 528.763 111.619C527.099 111.619 525.947 112.899 525.947 114.691ZM32.608 136.723C32.608 134.291 34.096 132.627 36.352 132.627C38.144 132.627 39.456 133.667 39.76 135.267H38.656C38.368 134.195 37.44 133.603 36.368 133.603C34.8 133.603 33.696 134.803 33.696 136.707C33.696 138.547 34.72 139.779 36.288 139.779C37.44 139.779 38.368 139.139 38.672 138.147H39.792C39.424 139.731 38.048 140.771 36.288 140.771C34.096 140.771 32.608 139.155 32.608 136.723ZM40.9205 136.707C40.9205 134.339 42.5845 132.627 44.8565 132.627C47.1285 132.627 48.7925 134.339 48.7925 136.707C48.7925 139.059 47.1285 140.771 44.8565 140.771C42.5845 140.771 40.9205 139.059 40.9205 136.707ZM42.0405 136.691C42.0405 138.515 43.1925 139.779 44.8565 139.779C46.5045 139.779 47.6725 138.515 47.6725 136.691C47.6725 134.899 46.5045 133.619 44.8565 133.619C43.1925 133.619 42.0405 134.899 42.0405 136.691ZM51.6623 140.579H50.5583V132.835H51.5182L51.6463 133.939C52.0303 133.123 52.8943 132.627 53.9823 132.627C55.1983 132.627 56.1103 133.267 56.4783 134.275C56.8303 133.267 57.7743 132.627 59.0223 132.627C60.7023 132.627 61.8063 133.715 61.8063 135.507V140.579H60.7343V135.731C60.7343 134.403 59.9983 133.619 58.8142 133.619C57.5183 133.619 56.7503 134.595 56.7503 135.795V140.579H55.6623V135.715C55.6623 134.403 54.9103 133.635 53.7423 133.635C52.4463 133.635 51.6623 134.595 51.6623 135.779V140.579ZM63.163 132.835H64.347V131.331C64.347 129.587 65.307 128.915 66.491 128.915C66.763 128.915 67.083 128.931 67.339 128.979V129.923H66.683C65.707 129.923 65.451 130.419 65.451 131.331V132.835H67.275V133.763H65.451V140.579H64.347V133.763H63.163V132.835ZM67.9986 136.707C67.9986 134.339 69.6626 132.627 71.9346 132.627C74.2066 132.627 75.8706 134.339 75.8706 136.707C75.8706 139.059 74.2066 140.771 71.9346 140.771C69.6626 140.771 67.9986 139.059 67.9986 136.707ZM69.1186 136.691C69.1186 138.515 70.2706 139.779 71.9346 139.779C73.5826 139.779 74.7506 138.515 74.7506 136.691C74.7506 134.899 73.5826 133.619 71.9346 133.619C70.2706 133.619 69.1186 134.899 69.1186 136.691ZM81.6844 132.739V133.731H81.0764C79.6524 133.731 78.7404 134.691 78.7404 136.163V140.579H77.6364V132.835H78.6764L78.7564 134.035C79.0604 133.203 79.8764 132.659 80.9644 132.659C81.2044 132.659 81.4124 132.675 81.6844 132.739ZM85.2405 140.579H84.1525V133.763H82.6005V132.835H84.1525V130.387H85.2405V132.835H86.7925V133.763H85.2405V140.579ZM90.3291 140.771C88.6811 140.771 87.7051 139.843 87.7051 138.483C87.7051 137.059 88.7931 136.163 90.6011 136.019L93.1611 135.811V135.555C93.1611 134.035 92.2491 133.555 91.1131 133.555C89.7691 133.555 88.9691 134.163 88.9691 135.203H87.9611C87.9611 133.635 89.2411 132.627 91.1451 132.627C92.9371 132.627 94.2491 133.523 94.2491 135.571V140.579H93.3211L93.1771 139.219C92.6971 140.195 91.6411 140.771 90.3291 140.771ZM90.5851 139.875C92.2171 139.875 93.1611 138.739 93.1611 137.059V136.643L90.8731 136.819C89.4171 136.947 88.8251 137.587 88.8251 138.451C88.8251 139.395 89.5291 139.875 90.5851 139.875ZM97.4245 140.579H96.4645V128.915H97.5685V134.339C98.1125 133.203 99.1685 132.627 100.481 132.627C102.737 132.627 104.049 134.387 104.049 136.723C104.049 139.043 102.705 140.771 100.449 140.771C99.1525 140.771 98.0805 140.195 97.5365 138.995L97.4245 140.579ZM97.5845 136.691C97.5845 138.483 98.5765 139.763 100.273 139.763C101.953 139.763 102.929 138.483 102.929 136.691C102.929 134.915 101.953 133.619 100.273 133.619C98.5765 133.619 97.5845 134.915 97.5845 136.691ZM106.96 140.579H105.856V128.915H106.96V140.579ZM112.556 140.771C110.284 140.771 108.764 139.139 108.764 136.707C108.764 134.291 110.268 132.627 112.476 132.627C114.572 132.627 115.996 134.115 115.996 136.307V136.851H109.836C109.916 138.739 110.908 139.827 112.572 139.827C113.836 139.827 114.652 139.283 114.94 138.259H115.996C115.58 139.891 114.38 140.771 112.556 140.771ZM112.476 133.571C111.02 133.571 110.06 134.531 109.868 136.051H114.892C114.892 134.563 113.932 133.571 112.476 133.571ZM118.221 140.755C117.677 140.755 117.213 140.307 117.213 139.779C117.213 139.235 117.677 138.771 118.221 138.771C118.765 138.771 119.229 139.235 119.229 139.779C119.229 140.307 118.765 140.755 118.221 140.755ZM126.142 140.579H124.974L129.182 129.123H130.606L134.862 140.579H133.662L132.542 137.539H127.262L126.142 140.579ZM129.742 130.739L127.614 136.531H132.174L130.03 130.739C129.982 130.579 129.902 130.387 129.886 130.275C129.87 130.371 129.806 130.579 129.742 130.739ZM135.559 138.403H136.615C136.615 139.299 137.287 139.859 138.375 139.859C139.575 139.859 140.279 139.347 140.279 138.515C140.279 137.875 139.959 137.507 139.047 137.283L137.719 136.947C136.375 136.611 135.719 135.907 135.719 134.851C135.719 133.491 136.855 132.627 138.519 132.627C140.151 132.627 141.207 133.523 141.255 134.963H140.183C140.151 134.067 139.527 133.539 138.487 133.539C137.399 133.539 136.791 134.003 136.791 134.835C136.791 135.427 137.207 135.843 138.055 136.051L139.383 136.387C140.727 136.723 141.335 137.347 141.335 138.467C141.335 139.859 140.151 140.771 138.391 140.771C136.647 140.771 135.559 139.843 135.559 138.403ZM149.814 140.771C148.166 140.771 147.19 139.843 147.19 138.483C147.19 137.059 148.278 136.163 150.086 136.019L152.646 135.811V135.555C152.646 134.035 151.734 133.555 150.598 133.555C149.254 133.555 148.454 134.163 148.454 135.203H147.446C147.446 133.635 148.726 132.627 150.63 132.627C152.422 132.627 153.734 133.523 153.734 135.571V140.579H152.806L152.662 139.219C152.182 140.195 151.126 140.771 149.814 140.771ZM150.07 139.875C151.702 139.875 152.646 138.739 152.646 137.059V136.643L150.358 136.819C148.902 136.947 148.31 137.587 148.31 138.451C148.31 139.395 149.014 139.875 150.07 139.875ZM159.522 132.835H160.706V131.331C160.706 129.587 161.666 128.915 162.85 128.915C163.122 128.915 163.442 128.931 163.698 128.979V129.923H163.042C162.066 129.923 161.81 130.419 161.81 131.331V132.835H163.634V133.763H161.81V140.579H160.706V133.763H159.522V132.835ZM168.15 140.771C165.878 140.771 164.358 139.139 164.358 136.707C164.358 134.291 165.862 132.627 168.07 132.627C170.166 132.627 171.59 134.115 171.59 136.307V136.851H165.43C165.51 138.739 166.502 139.827 168.166 139.827C169.43 139.827 170.246 139.283 170.534 138.259H171.59C171.174 139.891 169.974 140.771 168.15 140.771ZM168.07 133.571C166.614 133.571 165.654 134.531 165.462 136.051H170.486C170.486 134.563 169.526 133.571 168.07 133.571ZM174.507 140.579H173.403V128.915H174.507V140.579ZM178.007 140.579H176.903V128.915H178.007V140.579ZM179.811 136.707C179.811 134.339 181.475 132.627 183.747 132.627C186.019 132.627 187.683 134.339 187.683 136.707C187.683 139.059 186.019 140.771 183.747 140.771C181.475 140.771 179.811 139.059 179.811 136.707ZM180.931 136.691C180.931 138.515 182.083 139.779 183.747 139.779C185.395 139.779 186.563 138.515 186.563 136.691C186.563 134.899 185.395 133.619 183.747 133.619C182.083 133.619 180.931 134.899 180.931 136.691ZM190.737 140.579L188.177 132.835H189.313L190.833 137.507C191.009 138.019 191.153 138.547 191.313 139.171C191.441 138.547 191.697 137.763 191.777 137.507L193.313 132.835H194.449L195.969 137.507C196.113 137.923 196.305 138.595 196.449 139.171C196.609 138.531 196.641 138.339 196.913 137.507L198.449 132.835H199.601L196.977 140.579H195.905L194.305 135.715C194.113 135.139 193.985 134.659 193.889 134.195C193.777 134.611 193.649 135.075 193.441 135.715L191.841 140.579H190.737ZM208.458 140.771C206.202 140.771 204.874 139.043 204.874 136.723C204.874 134.387 206.202 132.627 208.506 132.627C209.786 132.627 210.81 133.187 211.354 134.307V128.915H212.458V140.579H211.498L211.386 138.995C210.842 140.195 209.754 140.771 208.458 140.771ZM208.65 139.763C210.346 139.763 211.338 138.483 211.338 136.691C211.338 134.915 210.346 133.619 208.65 133.619C206.97 133.619 205.994 134.915 205.994 136.691C205.994 138.483 206.97 139.763 208.65 139.763ZM218.009 140.771C215.737 140.771 214.217 139.139 214.217 136.707C214.217 134.291 215.721 132.627 217.929 132.627C220.025 132.627 221.449 134.115 221.449 136.307V136.851H215.289C215.369 138.739 216.361 139.827 218.025 139.827C219.289 139.827 220.105 139.283 220.393 138.259H221.449C221.033 139.891 219.833 140.771 218.009 140.771ZM217.929 133.571C216.473 133.571 215.513 134.531 215.321 136.051H220.345C220.345 134.563 219.385 133.571 217.929 133.571ZM222.559 138.403H223.615C223.615 139.299 224.287 139.859 225.375 139.859C226.575 139.859 227.279 139.347 227.279 138.515C227.279 137.875 226.959 137.507 226.047 137.283L224.719 136.947C223.375 136.611 222.719 135.907 222.719 134.851C222.719 133.491 223.855 132.627 225.519 132.627C227.151 132.627 228.207 133.523 228.255 134.963H227.183C227.151 134.067 226.527 133.539 225.487 133.539C224.399 133.539 223.791 134.003 223.791 134.835C223.791 135.427 224.207 135.843 225.055 136.051L226.383 136.387C227.727 136.723 228.335 137.347 228.335 138.467C228.335 139.859 227.151 140.771 225.391 140.771C223.647 140.771 222.559 139.843 222.559 138.403ZM230.696 130.707C230.248 130.707 229.88 130.339 229.88 129.891C229.88 129.443 230.248 129.059 230.696 129.059C231.144 129.059 231.528 129.443 231.528 129.891C231.528 130.339 231.144 130.707 230.696 130.707ZM230.152 140.579V132.835H231.256V140.579H230.152ZM233.03 136.483C233.03 134.371 234.39 132.627 236.662 132.627C238.006 132.627 239.03 133.251 239.526 134.387L239.638 132.835H240.598V140.339C240.598 142.643 239.126 144.147 236.854 144.147C234.87 144.147 233.478 143.027 233.174 141.155H234.278C234.518 142.403 235.478 143.139 236.87 143.139C238.454 143.139 239.51 142.067 239.51 140.451V138.611C238.982 139.699 237.91 140.339 236.582 140.339C234.374 140.339 233.03 138.595 233.03 136.483ZM234.134 136.467C234.134 138.051 235.11 139.347 236.742 139.347C238.422 139.347 239.414 138.131 239.414 136.467C239.414 134.819 238.454 133.603 236.758 133.603C235.094 133.603 234.134 134.899 234.134 136.467ZM244.006 140.579H242.902V132.835H243.862L244.022 134.179C244.534 133.187 245.558 132.627 246.678 132.627C248.806 132.627 249.686 133.891 249.686 135.843V140.579H248.582V136.083C248.582 134.275 247.766 133.635 246.486 133.635C244.902 133.635 244.006 134.787 244.006 136.531V140.579ZM255.134 140.771C252.862 140.771 251.342 139.139 251.342 136.707C251.342 134.291 252.846 132.627 255.054 132.627C257.15 132.627 258.574 134.115 258.574 136.307V136.851H252.414C252.494 138.739 253.486 139.827 255.15 139.827C256.414 139.827 257.23 139.283 257.518 138.259H258.574C258.158 139.891 256.958 140.771 255.134 140.771ZM255.054 133.571C253.598 133.571 252.638 134.531 252.446 136.051H257.47C257.47 134.563 256.51 133.571 255.054 133.571ZM264.388 132.739V133.731H263.78C262.356 133.731 261.444 134.691 261.444 136.163V140.579H260.34V132.835H261.38L261.46 134.035C261.764 133.203 262.58 132.659 263.668 132.659C263.908 132.659 264.116 132.675 264.388 132.739ZM266.62 140.035C266.62 141.027 265.852 141.891 264.86 142.035V141.443C265.436 141.347 265.852 140.931 265.852 140.483C265.756 140.547 265.628 140.595 265.436 140.595C264.988 140.595 264.604 140.275 264.604 139.731C264.604 139.171 264.988 138.771 265.548 138.771C266.124 138.771 266.62 139.235 266.62 140.035ZM274.685 129.123V140.579H273.533V129.123H274.685ZM283.892 140.771C282.244 140.771 281.268 139.843 281.268 138.483C281.268 137.059 282.356 136.163 284.164 136.019L286.724 135.811V135.555C286.724 134.035 285.812 133.555 284.676 133.555C283.332 133.555 282.532 134.163 282.532 135.203H281.524C281.524 133.635 282.804 132.627 284.708 132.627C286.5 132.627 287.812 133.523 287.812 135.571V140.579H286.884L286.74 139.219C286.26 140.195 285.204 140.771 283.892 140.771ZM284.148 139.875C285.78 139.875 286.724 138.739 286.724 137.059V136.643L284.436 136.819C282.98 136.947 282.388 137.587 282.388 138.451C282.388 139.395 283.092 139.875 284.148 139.875ZM290.027 143.955V132.835H290.987L291.099 134.403C291.643 133.203 292.731 132.627 294.027 132.627C296.267 132.627 297.611 134.339 297.611 136.675C297.611 139.011 296.315 140.771 294.027 140.771C292.715 140.771 291.675 140.211 291.131 139.091V143.955H290.027ZM291.147 136.707C291.147 138.483 292.139 139.779 293.835 139.779C295.515 139.779 296.491 138.483 296.491 136.707C296.491 134.915 295.515 133.635 293.835 133.635C292.139 133.635 291.147 134.915 291.147 136.707ZM299.371 143.955V132.835H300.331L300.443 134.403C300.987 133.203 302.075 132.627 303.371 132.627C305.611 132.627 306.955 134.339 306.955 136.675C306.955 139.011 305.659 140.771 303.371 140.771C302.059 140.771 301.019 140.211 300.475 139.091V143.955H299.371ZM300.491 136.707C300.491 138.483 301.483 139.779 303.179 139.779C304.859 139.779 305.835 138.483 305.835 136.707C305.835 134.915 304.859 133.635 303.179 133.635C301.483 133.635 300.491 134.915 300.491 136.707ZM312.763 132.739V133.731H312.155C310.731 133.731 309.819 134.691 309.819 136.163V140.579H308.715V132.835H309.755L309.835 134.035C310.139 133.203 310.955 132.659 312.043 132.659C312.283 132.659 312.491 132.675 312.763 132.739ZM317.181 140.771C314.909 140.771 313.389 139.139 313.389 136.707C313.389 134.291 314.893 132.627 317.101 132.627C319.197 132.627 320.621 134.115 320.621 136.307V136.851H314.461C314.541 138.739 315.533 139.827 317.197 139.827C318.461 139.827 319.277 139.283 319.565 138.259H320.621C320.205 139.891 319.005 140.771 317.181 140.771ZM317.101 133.571C315.645 133.571 314.685 134.531 314.493 136.051H319.517C319.517 134.563 318.557 133.571 317.101 133.571ZM321.842 136.723C321.842 134.291 323.33 132.627 325.586 132.627C327.378 132.627 328.69 133.667 328.994 135.267H327.89C327.602 134.195 326.674 133.603 325.602 133.603C324.034 133.603 322.93 134.803 322.93 136.707C322.93 138.547 323.954 139.779 325.522 139.779C326.674 139.779 327.602 139.139 327.906 138.147H329.026C328.658 139.731 327.282 140.771 325.522 140.771C323.33 140.771 321.842 139.155 321.842 136.723ZM331.243 130.707C330.795 130.707 330.427 130.339 330.427 129.891C330.427 129.443 330.795 129.059 331.243 129.059C331.691 129.059 332.075 129.443 332.075 129.891C332.075 130.339 331.691 130.707 331.243 130.707ZM330.699 140.579V132.835H331.803V140.579H330.699ZM336.329 140.771C334.681 140.771 333.705 139.843 333.705 138.483C333.705 137.059 334.793 136.163 336.601 136.019L339.161 135.811V135.555C339.161 134.035 338.249 133.555 337.113 133.555C335.769 133.555 334.969 134.163 334.969 135.203H333.961C333.961 133.635 335.241 132.627 337.145 132.627C338.937 132.627 340.249 133.523 340.249 135.571V140.579H339.321L339.177 139.219C338.697 140.195 337.641 140.771 336.329 140.771ZM336.585 139.875C338.217 139.875 339.161 138.739 339.161 137.059V136.643L336.873 136.819C335.417 136.947 334.825 137.587 334.825 138.451C334.825 139.395 335.529 139.875 336.585 139.875ZM344.1 140.579H343.012V133.763H341.46V132.835H343.012V130.387H344.1V132.835H345.652V133.763H344.1V140.579ZM350.259 140.771C347.987 140.771 346.467 139.139 346.467 136.707C346.467 134.291 347.971 132.627 350.179 132.627C352.275 132.627 353.699 134.115 353.699 136.307V136.851H347.539C347.619 138.739 348.611 139.827 350.275 139.827C351.539 139.827 352.355 139.283 352.643 138.259H353.699C353.283 139.891 352.083 140.771 350.259 140.771ZM350.179 133.571C348.723 133.571 347.763 134.531 347.571 136.051H352.595C352.595 134.563 351.635 133.571 350.179 133.571ZM361.678 140.579H360.59V133.763H359.038V132.835H360.59V130.387H361.678V132.835H363.23V133.763H361.678V140.579ZM365.772 140.563H364.668V128.915H365.772V134.179C366.268 133.251 367.212 132.627 368.508 132.627C370.54 132.627 371.452 133.891 371.452 135.843V140.579H370.348V136.083C370.348 134.275 369.5 133.635 368.3 133.635C366.636 133.635 365.772 134.867 365.772 136.355V140.563ZM376.9 140.771C374.628 140.771 373.108 139.139 373.108 136.707C373.108 134.291 374.612 132.627 376.82 132.627C378.916 132.627 380.34 134.115 380.34 136.307V136.851H374.18C374.26 138.739 375.252 139.827 376.916 139.827C378.18 139.827 378.996 139.283 379.284 138.259H380.34C379.924 139.891 378.724 140.771 376.9 140.771ZM376.82 133.571C375.364 133.571 374.404 134.531 374.212 136.051H379.236C379.236 134.563 378.276 133.571 376.82 133.571ZM388.767 140.771C387.119 140.771 386.143 139.843 386.143 138.483C386.143 137.059 387.231 136.163 389.039 136.019L391.599 135.811V135.555C391.599 134.035 390.687 133.555 389.551 133.555C388.207 133.555 387.407 134.163 387.407 135.203H386.399C386.399 133.635 387.679 132.627 389.583 132.627C391.375 132.627 392.687 133.523 392.687 135.571V140.579H391.759L391.615 139.219C391.135 140.195 390.079 140.771 388.767 140.771ZM389.023 139.875C390.655 139.875 391.599 138.739 391.599 137.059V136.643L389.311 136.819C387.855 136.947 387.263 137.587 387.263 138.451C387.263 139.395 387.967 139.875 389.023 139.875ZM396.537 140.579H395.449V133.763H393.897V132.835H395.449V130.387H396.537V132.835H398.089V133.763H396.537V140.579ZM401.366 140.579H400.278V133.763H398.726V132.835H400.278V130.387H401.366V132.835H402.918V133.763H401.366V140.579ZM407.525 140.771C405.253 140.771 403.733 139.139 403.733 136.707C403.733 134.291 405.237 132.627 407.445 132.627C409.541 132.627 410.965 134.115 410.965 136.307V136.851H404.805C404.885 138.739 405.877 139.827 407.541 139.827C408.805 139.827 409.621 139.283 409.909 138.259H410.965C410.549 139.891 409.349 140.771 407.525 140.771ZM407.445 133.571C405.989 133.571 405.029 134.531 404.837 136.051H409.861C409.861 134.563 408.901 133.571 407.445 133.571ZM413.834 140.579H412.73V132.835H413.69L413.85 134.179C414.362 133.187 415.386 132.627 416.506 132.627C418.634 132.627 419.514 133.891 419.514 135.843V140.579H418.41V136.083C418.41 134.275 417.594 133.635 416.314 133.635C414.73 133.635 413.834 134.787 413.834 136.531V140.579ZM423.491 140.579H422.403V133.763H420.851V132.835H422.403V130.387H423.491V132.835H425.043V133.763H423.491V140.579ZM427.024 130.707C426.576 130.707 426.208 130.339 426.208 129.891C426.208 129.443 426.576 129.059 427.024 129.059C427.472 129.059 427.856 129.443 427.856 129.891C427.856 130.339 427.472 130.707 427.024 130.707ZM426.48 140.579V132.835H427.584V140.579H426.48ZM429.342 136.707C429.342 134.339 431.006 132.627 433.278 132.627C435.55 132.627 437.214 134.339 437.214 136.707C437.214 139.059 435.55 140.771 433.278 140.771C431.006 140.771 429.342 139.059 429.342 136.707ZM430.462 136.691C430.462 138.515 431.614 139.779 433.278 139.779C434.926 139.779 436.094 138.515 436.094 136.691C436.094 134.899 434.926 133.619 433.278 133.619C431.614 133.619 430.462 134.899 430.462 136.691ZM440.084 140.579H438.98V132.835H439.94L440.1 134.179C440.612 133.187 441.636 132.627 442.756 132.627C444.884 132.627 445.764 133.891 445.764 135.843V140.579H444.66V136.083C444.66 134.275 443.844 133.635 442.564 133.635C440.98 133.635 440.084 134.787 440.084 136.531V140.579ZM454.178 140.579H453.09V133.763H451.538V132.835H453.09V130.387H454.178V132.835H455.73V133.763H454.178V140.579ZM456.546 136.707C456.546 134.339 458.21 132.627 460.482 132.627C462.754 132.627 464.418 134.339 464.418 136.707C464.418 139.059 462.754 140.771 460.482 140.771C458.21 140.771 456.546 139.059 456.546 136.707ZM457.666 136.691C457.666 138.515 458.818 139.779 460.482 139.779C462.13 139.779 463.298 138.515 463.298 136.691C463.298 134.899 462.13 133.619 460.482 133.619C458.818 133.619 457.666 134.899 457.666 136.691ZM473.661 140.771C471.405 140.771 470.077 139.043 470.077 136.723C470.077 134.387 471.405 132.627 473.709 132.627C474.989 132.627 476.013 133.187 476.557 134.307V128.915H477.661V140.579H476.701L476.589 138.995C476.045 140.195 474.957 140.771 473.661 140.771ZM473.853 139.763C475.549 139.763 476.541 138.483 476.541 136.691C476.541 134.915 475.549 133.619 473.853 133.619C472.173 133.619 471.197 134.915 471.197 136.691C471.197 138.483 472.173 139.763 473.853 139.763ZM483.213 140.771C480.941 140.771 479.421 139.139 479.421 136.707C479.421 134.291 480.924 132.627 483.133 132.627C485.229 132.627 486.653 134.115 486.653 136.307V136.851H480.493C480.573 138.739 481.565 139.827 483.229 139.827C484.493 139.827 485.309 139.283 485.597 138.259H486.653C486.237 139.891 485.037 140.771 483.213 140.771ZM483.133 133.571C481.677 133.571 480.717 134.531 480.525 136.051H485.549C485.549 134.563 484.589 133.571 483.133 133.571ZM490.116 140.579H489.028V133.763H487.476V132.835H489.028V130.387H490.116V132.835H491.668V133.763H490.116V140.579ZM495.204 140.771C493.556 140.771 492.58 139.843 492.58 138.483C492.58 137.059 493.668 136.163 495.476 136.019L498.036 135.811V135.555C498.036 134.035 497.124 133.555 495.988 133.555C494.644 133.555 493.844 134.163 493.844 135.203H492.836C492.836 133.635 494.116 132.627 496.02 132.627C497.812 132.627 499.124 133.523 499.124 135.571V140.579H498.196L498.052 139.219C497.572 140.195 496.516 140.771 495.204 140.771ZM495.46 139.875C497.092 139.875 498.036 138.739 498.036 137.059V136.643L495.748 136.819C494.292 136.947 493.7 137.587 493.7 138.451C493.7 139.395 494.404 139.875 495.46 139.875ZM501.884 130.707C501.436 130.707 501.068 130.339 501.068 129.891C501.068 129.443 501.436 129.059 501.884 129.059C502.332 129.059 502.716 129.443 502.716 129.891C502.716 130.339 502.332 130.707 501.884 130.707ZM501.34 140.579V132.835H502.444V140.579H501.34ZM505.898 140.579H504.794V128.915H505.898V140.579ZM509.19 140.755C508.646 140.755 508.182 140.307 508.182 139.779C508.182 139.235 508.646 138.771 509.19 138.771C509.734 138.771 510.198 139.235 510.198 139.779C510.198 140.307 509.734 140.755 509.19 140.755ZM518.263 129.123V140.579H517.111V129.123H518.263ZM522.584 140.579H521.496V133.763H519.944V132.835H521.496V130.387H522.584V132.835H524.136V133.763H522.584V140.579ZM526.564 129.907L526.26 133.091H525.54L525.22 129.907C525.156 129.347 525.556 129.091 525.908 129.091C526.244 129.091 526.628 129.347 526.564 129.907ZM527.48 138.403H528.536C528.536 139.299 529.208 139.859 530.296 139.859C531.496 139.859 532.2 139.347 532.2 138.515C532.2 137.875 531.88 137.507 530.968 137.283L529.64 136.947C528.296 136.611 527.64 135.907 527.64 134.851C527.64 133.491 528.776 132.627 530.44 132.627C532.072 132.627 533.128 133.523 533.176 134.963H532.104C532.072 134.067 531.448 133.539 530.408 133.539C529.32 133.539 528.712 134.003 528.712 134.835C528.712 135.427 529.128 135.843 529.976 136.051L531.304 136.387C532.648 136.723 533.256 137.347 533.256 138.467C533.256 139.859 532.072 140.771 530.312 140.771C528.568 140.771 527.48 139.843 527.48 138.403ZM34.112 162.579H33.152V150.915H34.256V156.339C34.8 155.203 35.856 154.627 37.168 154.627C39.424 154.627 40.736 156.387 40.736 158.723C40.736 161.043 39.392 162.771 37.136 162.771C35.84 162.771 34.768 162.195 34.224 160.995L34.112 162.579ZM34.272 158.691C34.272 160.483 35.264 161.763 36.96 161.763C38.64 161.763 39.616 160.483 39.616 158.691C39.616 156.915 38.64 155.619 36.96 155.619C35.264 155.619 34.272 156.915 34.272 158.691ZM45.7438 162.771C43.4718 162.771 41.9518 161.139 41.9518 158.707C41.9518 156.291 43.4557 154.627 45.6638 154.627C47.7598 154.627 49.1838 156.115 49.1838 158.307V158.851H43.0238C43.1038 160.739 44.0958 161.827 45.7598 161.827C47.0238 161.827 47.8398 161.283 48.1278 160.259H49.1838C48.7678 161.891 47.5678 162.771 45.7438 162.771ZM45.6638 155.571C44.2078 155.571 43.2478 156.531 43.0558 158.051H48.0798C48.0798 156.563 47.1198 155.571 45.6638 155.571ZM50.4049 158.723C50.4049 156.291 51.8929 154.627 54.1489 154.627C55.9409 154.627 57.2529 155.667 57.5569 157.267H56.4529C56.1649 156.195 55.2369 155.603 54.1649 155.603C52.5969 155.603 51.4929 156.803 51.4929 158.707C51.4929 160.547 52.5169 161.779 54.0849 161.779C55.2369 161.779 56.1649 161.139 56.4689 160.147H57.5889C57.2209 161.731 55.8449 162.771 54.0849 162.771C51.8929 162.771 50.4049 161.155 50.4049 158.723ZM58.7174 158.707C58.7174 156.339 60.3814 154.627 62.6534 154.627C64.9254 154.627 66.5894 156.339 66.5894 158.707C66.5894 161.059 64.9254 162.771 62.6534 162.771C60.3814 162.771 58.7174 161.059 58.7174 158.707ZM59.8374 158.691C59.8374 160.515 60.9894 161.779 62.6534 161.779C64.3014 161.779 65.4694 160.515 65.4694 158.691C65.4694 156.899 64.3014 155.619 62.6534 155.619C60.9894 155.619 59.8374 156.899 59.8374 158.691ZM69.4591 162.579H68.3551V154.835H69.3151L69.4431 155.939C69.8271 155.123 70.6911 154.627 71.7791 154.627C72.9951 154.627 73.9071 155.267 74.2751 156.275C74.6271 155.267 75.5711 154.627 76.8191 154.627C78.4991 154.627 79.6031 155.715 79.6031 157.507V162.579H78.5311V157.731C78.5311 156.403 77.7951 155.619 76.6111 155.619C75.3151 155.619 74.5471 156.595 74.5471 157.795V162.579H73.4591V157.715C73.4591 156.403 72.7071 155.635 71.5391 155.635C70.2431 155.635 69.4591 156.595 69.4591 157.779V162.579ZM85.0719 162.771C82.7999 162.771 81.2799 161.139 81.2799 158.707C81.2799 156.291 82.7839 154.627 84.9919 154.627C87.0879 154.627 88.5119 156.115 88.5119 158.307V158.851H82.3519C82.4319 160.739 83.4239 161.827 85.0879 161.827C86.3519 161.827 87.1679 161.283 87.4559 160.259H88.5119C88.0959 161.891 86.8959 162.771 85.0719 162.771ZM84.9919 155.571C83.5359 155.571 82.5759 156.531 82.3839 158.051H87.4079C87.4079 156.563 86.4479 155.571 84.9919 155.571ZM95.8185 162.579H94.7145V154.835H95.6745L95.8025 155.939C96.1865 155.123 97.0505 154.627 98.1385 154.627C99.3545 154.627 100.267 155.267 100.635 156.275C100.987 155.267 101.931 154.627 103.179 154.627C104.859 154.627 105.963 155.715 105.963 157.507V162.579H104.891V157.731C104.891 156.403 104.155 155.619 102.97 155.619C101.675 155.619 100.907 156.595 100.907 157.795V162.579H99.8185V157.715C99.8185 156.403 99.0665 155.635 97.8985 155.635C96.6025 155.635 95.8185 156.595 95.8185 157.779V162.579ZM107.243 165.955V165.043H108.091C108.763 165.043 109.435 164.995 109.819 163.955L110.155 163.043L107.019 154.835H108.187L110.683 161.587L113.131 154.835H114.267L110.715 164.355C110.267 165.571 109.515 166.067 108.411 166.067C107.947 166.067 107.595 166.035 107.243 165.955ZM119.132 154.835H120.316V153.331C120.316 151.587 121.276 150.915 122.46 150.915C122.732 150.915 123.052 150.931 123.308 150.979V151.923H122.652C121.676 151.923 121.42 152.419 121.42 153.331V154.835H123.244V155.763H121.42V162.579H120.316V155.763H119.132V154.835ZM126.689 162.771C125.041 162.771 124.065 161.843 124.065 160.483C124.065 159.059 125.153 158.163 126.961 158.019L129.521 157.811V157.555C129.521 156.035 128.609 155.555 127.473 155.555C126.129 155.555 125.329 156.163 125.329 157.203H124.321C124.321 155.635 125.601 154.627 127.505 154.627C129.297 154.627 130.609 155.523 130.609 157.571V162.579H129.681L129.537 161.219C129.057 162.195 128.001 162.771 126.689 162.771ZM126.945 161.875C128.577 161.875 129.521 160.739 129.521 159.059V158.643L127.233 158.819C125.777 158.947 125.185 159.587 125.185 160.451C125.185 161.395 125.889 161.875 126.945 161.875ZM134.671 162.579L131.503 154.835H132.687L134.687 159.827C134.895 160.387 135.103 160.915 135.247 161.427C135.391 160.899 135.599 160.387 135.823 159.827L137.855 154.835H138.991L135.775 162.579H134.671ZM139.405 158.707C139.405 156.339 141.069 154.627 143.341 154.627C145.613 154.627 147.277 156.339 147.277 158.707C147.277 161.059 145.613 162.771 143.341 162.771C141.069 162.771 139.405 161.059 139.405 158.707ZM140.525 158.691C140.525 160.515 141.677 161.779 143.341 161.779C144.989 161.779 146.157 160.515 146.157 158.691C146.157 156.899 144.989 155.619 143.341 155.619C141.677 155.619 140.525 156.899 140.525 158.691ZM153.091 154.739V155.731H152.483C151.059 155.731 150.147 156.691 150.147 158.163V162.579H149.043V154.835H150.083L150.163 156.035C150.467 155.203 151.283 154.659 152.371 154.659C152.611 154.659 152.819 154.675 153.091 154.739ZM155.102 152.707C154.654 152.707 154.286 152.339 154.286 151.891C154.286 151.443 154.654 151.059 155.102 151.059C155.55 151.059 155.934 151.443 155.934 151.891C155.934 152.339 155.55 152.707 155.102 152.707ZM154.558 162.579V154.835H155.662V162.579H154.558ZM159.741 162.579H158.653V155.763H157.101V154.835H158.653V152.387H159.741V154.835H161.293V155.763H159.741V162.579ZM165.9 162.771C163.628 162.771 162.108 161.139 162.108 158.707C162.108 156.291 163.612 154.627 165.82 154.627C167.916 154.627 169.34 156.115 169.34 158.307V158.851H163.18C163.26 160.739 164.252 161.827 165.916 161.827C167.18 161.827 167.996 161.283 168.284 160.259H169.34C168.924 161.891 167.724 162.771 165.9 162.771ZM165.82 155.571C164.364 155.571 163.404 156.531 163.212 158.051H168.236C168.236 156.563 167.276 155.571 165.82 155.571ZM175.015 158.483C175.015 156.371 176.375 154.627 178.647 154.627C179.991 154.627 181.015 155.251 181.511 156.387L181.623 154.835H182.583V162.339C182.583 164.643 181.111 166.147 178.839 166.147C176.855 166.147 175.463 165.027 175.159 163.155H176.263C176.503 164.403 177.463 165.139 178.855 165.139C180.439 165.139 181.495 164.067 181.495 162.451V160.611C180.967 161.699 179.895 162.339 178.567 162.339C176.359 162.339 175.015 160.595 175.015 158.483ZM176.119 158.467C176.119 160.051 177.095 161.347 178.727 161.347C180.407 161.347 181.399 160.131 181.399 158.467C181.399 156.819 180.439 155.603 178.743 155.603C177.079 155.603 176.119 156.899 176.119 158.467ZM184.342 158.707C184.342 156.339 186.006 154.627 188.278 154.627C190.55 154.627 192.214 156.339 192.214 158.707C192.214 161.059 190.55 162.771 188.278 162.771C186.006 162.771 184.342 161.059 184.342 158.707ZM185.462 158.691C185.462 160.515 186.614 161.779 188.278 161.779C189.926 161.779 191.094 160.515 191.094 158.691C191.094 156.899 189.926 155.619 188.278 155.619C186.614 155.619 185.462 156.899 185.462 158.691ZM193.852 158.867V157.875H198.492V158.867H193.852ZM202.131 162.579H201.043V155.763H199.491V154.835H201.043V152.387H202.131V154.835H203.683V155.763H202.131V162.579ZM204.499 158.707C204.499 156.339 206.163 154.627 208.435 154.627C210.707 154.627 212.371 156.339 212.371 158.707C212.371 161.059 210.707 162.771 208.435 162.771C206.163 162.771 204.499 161.059 204.499 158.707ZM205.619 158.691C205.619 160.515 206.771 161.779 208.435 161.779C210.083 161.779 211.251 160.515 211.251 158.691C211.251 156.899 210.083 155.619 208.435 155.619C206.771 155.619 205.619 156.899 205.619 158.691ZM217.918 160.403H218.974C218.974 161.299 219.646 161.859 220.734 161.859C221.934 161.859 222.638 161.347 222.638 160.515C222.638 159.875 222.318 159.507 221.406 159.283L220.078 158.947C218.734 158.611 218.078 157.907 218.078 156.851C218.078 155.491 219.214 154.627 220.878 154.627C222.51 154.627 223.566 155.523 223.614 156.963H222.542C222.51 156.067 221.886 155.539 220.846 155.539C219.758 155.539 219.15 156.003 219.15 156.835C219.15 157.427 219.566 157.843 220.414 158.051L221.742 158.387C223.086 158.723 223.694 159.347 223.694 160.467C223.694 161.859 222.51 162.771 220.75 162.771C219.006 162.771 217.918 161.843 217.918 160.403ZM226.615 162.563H225.511V150.915H226.615V156.179C227.111 155.251 228.055 154.627 229.351 154.627C231.383 154.627 232.295 155.891 232.295 157.843V162.579H231.191V158.083C231.191 156.275 230.343 155.635 229.143 155.635C227.479 155.635 226.615 156.867 226.615 158.355V162.563ZM235.04 152.707C234.592 152.707 234.224 152.339 234.224 151.891C234.224 151.443 234.592 151.059 235.04 151.059C235.488 151.059 235.872 151.443 235.872 151.891C235.872 152.339 235.488 152.707 235.04 152.707ZM234.496 162.579V154.835H235.6V162.579H234.496ZM241.95 154.739V155.731H241.342C239.918 155.731 239.006 156.691 239.006 158.163V162.579H237.902V154.835H238.942L239.022 156.035C239.326 155.203 240.142 154.659 241.23 154.659C241.47 154.659 241.678 154.675 241.95 154.739ZM245.506 162.579H244.418V155.763H242.866V154.835H244.418V152.387H245.506V154.835H247.058V155.763H245.506V162.579ZM248.955 162.755C248.411 162.755 247.947 162.307 247.947 161.779C247.947 161.235 248.411 160.771 248.955 160.771C249.499 160.771 249.963 161.235 249.963 161.779C249.963 162.307 249.499 162.755 248.955 162.755ZM251.783 151.907L251.479 155.091H250.759L250.439 151.907C250.375 151.347 250.775 151.091 251.127 151.091C251.463 151.091 251.847 151.347 251.783 151.907ZM254.039 151.907L253.735 155.091H253.015L252.695 151.907C252.631 151.347 253.031 151.091 253.383 151.091C253.719 151.091 254.103 151.347 254.039 151.907Z" fill="black" fill-opacity="0.6"/>
<path d="M568.625 40C568.625 40.5192 568.471 41.0267 568.183 41.4584C567.894 41.8901 567.484 42.2265 567.005 42.4252C566.525 42.6239 565.997 42.6758 565.488 42.5746C564.979 42.4733 564.511 42.2233 564.144 41.8562C563.777 41.489 563.527 41.0213 563.425 40.5121C563.324 40.0029 563.376 39.4751 563.575 38.9955C563.773 38.5158 564.11 38.1058 564.542 37.8174C564.973 37.529 565.481 37.375 566 37.375C566.696 37.375 567.364 37.6516 567.856 38.1438C568.348 38.6361 568.625 39.3038 568.625 40ZM558.5 37.375C557.981 37.375 557.473 37.529 557.042 37.8174C556.61 38.1058 556.273 38.5158 556.075 38.9955C555.876 39.4751 555.824 40.0029 555.925 40.5121C556.027 41.0213 556.277 41.489 556.644 41.8562C557.011 42.2233 557.479 42.4733 557.988 42.5746C558.497 42.6758 559.025 42.6239 559.505 42.4252C559.984 42.2265 560.394 41.8901 560.683 41.4584C560.971 41.0267 561.125 40.5192 561.125 40C561.125 39.3038 560.848 38.6361 560.356 38.1438C559.864 37.6516 559.196 37.375 558.5 37.375ZM573.5 37.375C572.981 37.375 572.473 37.529 572.042 37.8174C571.61 38.1058 571.273 38.5158 571.075 38.9955C570.876 39.4751 570.824 40.0029 570.925 40.5121C571.027 41.0213 571.277 41.489 571.644 41.8562C572.011 42.2233 572.479 42.4733 572.988 42.5746C573.497 42.6758 574.025 42.6239 574.505 42.4252C574.984 42.2265 575.394 41.8901 575.683 41.4584C575.971 41.0267 576.125 40.5192 576.125 40C576.125 39.6553 576.057 39.3139 575.925 38.9955C575.793 38.677 575.6 38.3876 575.356 38.1438C575.112 37.9001 574.823 37.7067 574.505 37.5748C574.186 37.4429 573.845 37.375 573.5 37.375Z" fill="black" fill-opacity="0.4"/>
<path d="M37.84 204.451H34.912V208.579H33.344V197.011H37.84C40.112 197.011 41.568 198.499 41.568 200.723C41.568 202.883 40.096 204.451 37.84 204.451ZM37.568 198.419H34.912V203.043H37.504C39.056 203.043 39.92 202.131 39.92 200.707C39.92 199.251 39.04 198.419 37.568 198.419ZM42.2166 204.659C42.2166 202.243 43.9446 200.547 46.2966 200.547C48.6326 200.547 50.3606 202.243 50.3606 204.659C50.3606 207.075 48.6326 208.771 46.2966 208.771C43.9446 208.771 42.2166 207.075 42.2166 204.659ZM43.7366 204.659C43.7366 206.291 44.7766 207.427 46.2966 207.427C47.8006 207.427 48.8566 206.291 48.8566 204.659C48.8566 203.027 47.8006 201.891 46.2966 201.891C44.7766 201.891 43.7366 203.027 43.7366 204.659ZM51.3855 206.307H52.8255C52.8255 207.107 53.4335 207.587 54.4255 207.587C55.4815 207.587 56.0895 207.155 56.0895 206.435C56.0895 205.907 55.8335 205.587 55.0175 205.379L53.6415 205.059C52.2495 204.723 51.5935 204.035 51.5935 202.883C51.5935 201.443 52.8095 200.531 54.5375 200.531C56.2495 200.531 57.3695 201.491 57.4015 202.979H55.9615C55.9295 202.195 55.4015 201.699 54.4895 201.699C53.5455 201.699 53.0175 202.115 53.0175 202.835C53.0175 203.363 53.4015 203.715 54.1695 203.907L55.5455 204.243C56.8735 204.563 57.5295 205.171 57.5295 206.339C57.5295 207.827 56.2495 208.771 54.3935 208.771C52.5535 208.771 51.3855 207.795 51.3855 206.307ZM61.4054 208.579H59.9014V202.019H58.3654V200.755H59.9014V198.307H61.4054V200.755H62.9414V202.019H61.4054V208.579ZM67.589 208.771C65.285 208.771 63.701 207.107 63.701 204.675C63.701 202.227 65.253 200.531 67.525 200.531C69.749 200.531 71.205 202.067 71.205 204.387V204.947L65.157 204.963C65.269 206.611 66.133 207.523 67.621 207.523C68.789 207.523 69.557 207.043 69.813 206.147H71.221C70.837 207.827 69.525 208.771 67.589 208.771ZM67.525 201.795C66.213 201.795 65.381 202.579 65.189 203.955H69.701C69.701 202.659 68.853 201.795 67.525 201.795ZM76.0209 208.771C73.7489 208.771 72.3729 207.075 72.3729 204.691C72.3729 202.291 73.7649 200.531 76.0849 200.531C77.2849 200.531 78.2929 201.059 78.8209 202.019V196.803H80.3089V208.579H78.9649L78.8369 207.155C78.3249 208.227 77.2689 208.771 76.0209 208.771ZM76.3249 207.411C77.8609 207.411 78.8049 206.275 78.8049 204.643C78.8049 203.043 77.8609 201.891 76.3249 201.891C74.7889 201.891 73.8929 203.043 73.8929 204.643C73.8929 206.259 74.7889 207.411 76.3249 207.411ZM86.3416 204.659C86.3416 202.243 88.0696 200.547 90.4216 200.547C92.7576 200.547 94.4856 202.243 94.4856 204.659C94.4856 207.075 92.7576 208.771 90.4216 208.771C88.0696 208.771 86.3416 207.075 86.3416 204.659ZM87.8616 204.659C87.8616 206.291 88.9016 207.427 90.4216 207.427C91.9256 207.427 92.9816 206.291 92.9816 204.659C92.9816 203.027 91.9256 201.891 90.4216 201.891C88.9016 201.891 87.8616 203.027 87.8616 204.659ZM97.6545 208.579H96.1505V200.755H97.5105L97.6705 201.955C98.1665 201.059 99.1585 200.531 100.263 200.531C102.327 200.531 103.271 201.795 103.271 203.795V208.579H101.767V204.131C101.767 202.547 101.031 201.907 99.8785 201.907C98.4705 201.907 97.6545 202.915 97.6545 204.435V208.579ZM110.465 208.579H108.833L113.057 197.011H114.801L119.041 208.579H117.393L116.353 205.699H111.489L110.465 208.579ZM113.729 199.507L111.969 204.339H115.889L114.113 199.507C114.033 199.283 113.953 199.011 113.921 198.835C113.889 198.995 113.809 199.267 113.729 199.507ZM125.512 200.755H127V208.579H125.656L125.496 207.395C125.048 208.211 124.008 208.771 122.856 208.771C121.032 208.771 120.008 207.539 120.008 205.619V200.755H121.512V205.123C121.512 206.803 122.232 207.443 123.384 207.443C124.76 207.443 125.512 206.563 125.512 204.883V200.755ZM128.686 204.467C128.686 202.259 130.11 200.531 132.382 200.531C133.646 200.531 134.622 201.107 135.118 202.083L135.23 200.755H136.574V208.259C136.574 210.723 135.054 212.291 132.654 212.291C130.526 212.291 129.07 211.091 128.782 209.107H130.286C130.478 210.259 131.342 210.931 132.654 210.931C134.126 210.931 135.086 209.971 135.086 208.483V206.915C134.574 207.827 133.55 208.371 132.318 208.371C130.094 208.371 128.686 206.659 128.686 204.467ZM130.19 204.435C130.19 205.907 131.102 207.059 132.574 207.059C134.094 207.059 135.022 205.971 135.022 204.435C135.022 202.931 134.126 201.843 132.59 201.843C131.086 201.843 130.19 202.995 130.19 204.435ZM144.152 200.755H145.64V208.579H144.296L144.136 207.395C143.688 208.211 142.648 208.771 141.496 208.771C139.672 208.771 138.648 207.539 138.648 205.619V200.755H140.152V205.123C140.152 206.803 140.872 207.443 142.024 207.443C143.4 207.443 144.152 206.563 144.152 204.883V200.755ZM147.026 206.307H148.466C148.466 207.107 149.074 207.587 150.066 207.587C151.122 207.587 151.73 207.155 151.73 206.435C151.73 205.907 151.474 205.587 150.658 205.379L149.282 205.059C147.89 204.723 147.234 204.035 147.234 202.883C147.234 201.443 148.45 200.531 150.178 200.531C151.89 200.531 153.01 201.491 153.042 202.979H151.602C151.57 202.195 151.042 201.699 150.13 201.699C149.186 201.699 148.658 202.115 148.658 202.835C148.658 203.363 149.042 203.715 149.81 203.907L151.186 204.243C152.514 204.563 153.17 205.171 153.17 206.339C153.17 207.827 151.89 208.771 150.034 208.771C148.194 208.771 147.026 207.795 147.026 206.307ZM157.046 208.579H155.542V202.019H154.006V200.755H155.542V198.307H157.046V200.755H158.582V202.019H157.046V208.579ZM166.211 198.419H163.779V197.011H167.715V208.579H166.211V198.419ZM178.455 206.243H177.079V208.579H175.575V206.243H169.591V204.851L175.047 197.011H177.079V204.851H178.455V206.243ZM171.287 204.851H175.575V198.675L171.287 204.851ZM182.219 207.955C182.219 209.107 181.355 210.067 180.219 210.211V209.539C180.875 209.427 181.339 208.995 181.339 208.499C181.227 208.563 181.099 208.595 180.907 208.595C180.379 208.595 179.931 208.211 179.931 207.619C179.931 206.979 180.363 206.515 181.003 206.515C181.675 206.515 182.219 207.075 182.219 207.955ZM196.216 208.563L188.408 208.579V207.379L192.136 204.163C194.008 202.547 194.536 201.763 194.536 200.531C194.536 199.075 193.704 198.211 192.312 198.211C190.888 198.211 189.96 199.251 189.928 200.899H188.36C188.408 198.419 189.976 196.803 192.328 196.803C194.648 196.803 196.136 198.211 196.136 200.435C196.136 202.083 195.32 203.251 193.272 205.027L190.872 207.107H196.216V208.563ZM197.659 202.803C197.659 199.219 199.515 196.787 202.427 196.787C205.323 196.787 207.179 199.219 207.179 202.803C207.179 206.403 205.403 208.787 202.427 208.787C199.435 208.787 197.659 206.403 197.659 202.803ZM199.211 202.803C199.211 205.651 200.395 207.379 202.427 207.379C204.459 207.379 205.627 205.651 205.627 202.803C205.627 199.923 204.459 198.195 202.427 198.195C200.395 198.195 199.211 199.923 199.211 202.803ZM216.513 208.563L208.705 208.579V207.379L212.433 204.163C214.305 202.547 214.833 201.763 214.833 200.531C214.833 199.075 214.001 198.211 212.609 198.211C211.185 198.211 210.257 199.251 210.225 200.899H208.657C208.705 198.419 210.273 196.803 212.625 196.803C214.945 196.803 216.433 198.211 216.433 200.435C216.433 202.083 215.617 203.251 213.569 205.027L211.169 207.107H216.513V208.563ZM221.33 202.595H220.178V201.555L223.458 198.403H218.258V197.011H225.442V198.275L222.274 201.299C224.242 201.539 225.73 202.867 225.73 204.947C225.73 207.283 223.97 208.771 221.618 208.771C219.346 208.771 217.714 207.379 217.714 204.979H219.266C219.266 206.483 220.194 207.363 221.65 207.363C223.154 207.363 224.13 206.403 224.13 204.915C224.13 203.523 223.17 202.595 221.33 202.595Z" fill="black" fill-opacity="0.6"/>
</svg>
