<svg width="610" height="242" viewBox="0 0 610 242" fill="none" xmlns="http://www.w3.org/2000/svg">
<rect x="0.5" y="0.5" width="609" height="240.579" rx="19.5" stroke="black" stroke-opacity="0.1"/>
<path d="M43.2895 28L46.4879 34.8872L54.0264 35.8008L48.4647 40.971L49.9253 48.4229L43.2895 44.731L36.6537 48.4229L38.1143 40.971L32.5525 35.8008L40.091 34.8872L43.2895 28Z" fill="#FFC633"/>
<path d="M72.3552 28L75.5536 34.8872L83.0921 35.8008L77.5304 40.971L78.991 48.4229L72.3552 44.731L65.7194 48.4229L67.18 40.971L61.6182 35.8008L69.1567 34.8872L72.3552 28Z" fill="#FFC633"/>
<path d="M101.421 28L104.62 34.8872L112.158 35.8008L106.596 40.971L108.057 48.4229L101.421 44.731L94.7853 48.4229L96.2459 40.971L90.6841 35.8008L98.2226 34.8872L101.421 28Z" fill="#FFC633"/>
<path d="M130.487 28L133.685 34.8872L141.224 35.8008L135.662 40.971L137.123 48.4229L130.487 44.731L123.851 48.4229L125.312 40.971L119.75 35.8008L127.288 34.8872L130.487 28Z" fill="#FFC633"/>
<path d="M152.364 48.4229L159 44.731V28L155.802 34.8872L148.263 35.8008L153.825 40.971L152.364 48.4229Z" fill="#FFC633"/>
<path d="M34.88 85.079H32.22L37.5 70.459H40.12L45.4 85.079H42.7L41.52 81.699H36.06L34.88 85.079ZM38.48 74.819L36.82 79.539H40.78L39.1 74.819C38.98 74.439 38.84 73.999 38.8 73.699C38.74 73.979 38.62 74.419 38.48 74.819ZM48.9311 85.079L45.0111 75.199H47.6111L49.3311 79.739C49.7511 80.919 50.0911 81.939 50.2111 82.479C50.3511 81.859 50.7111 80.819 51.1311 79.739L52.9311 75.199H55.4511L51.3311 85.079H48.9311ZM59.3055 85.339C57.2055 85.339 55.9255 84.119 55.9255 82.259C55.9255 80.439 57.2455 79.299 59.5855 79.119L62.5455 78.899V78.679C62.5455 77.339 61.7455 76.799 60.5055 76.799C59.0655 76.799 58.2655 77.399 58.2655 78.439H56.1855C56.1855 76.299 57.9455 74.899 60.6255 74.899C63.2855 74.899 64.9255 76.339 64.9255 79.079V85.079H62.7855L62.6055 83.619C62.1855 84.639 60.8455 85.339 59.3055 85.339ZM60.1055 83.499C61.6055 83.499 62.5655 82.599 62.5655 81.079V80.559L60.5055 80.719C58.9855 80.859 58.4055 81.359 58.4055 82.159C58.4055 83.059 59.0055 83.499 60.1055 83.499ZM75.6331 85.079H73.0731V70.459H75.6331V76.499H82.1131V70.459H84.6731V85.079H82.1131V78.879H75.6331V85.079ZM89.1969 85.319C88.3169 85.319 87.5769 84.599 87.5769 83.739C87.5769 82.859 88.3169 82.139 89.1969 82.139C90.0769 82.139 90.8169 82.859 90.8169 83.739C90.8169 84.599 90.0769 85.319 89.1969 85.319Z" fill="black"/>
<path d="M109 67.829C107.072 67.829 105.187 68.4008 103.583 69.4722C101.98 70.5435 100.73 72.0662 99.9922 73.8478C99.2542 75.6294 99.0611 77.5898 99.4373 79.4811C99.8136 81.3724 100.742 83.1097 102.106 84.4733C103.469 85.8368 105.207 86.7654 107.098 87.1416C108.989 87.5178 110.95 87.3248 112.731 86.5868C114.513 85.8489 116.035 84.5992 117.107 82.9958C118.178 81.3924 118.75 79.5073 118.75 77.579C118.747 74.994 117.719 72.5156 115.891 70.6877C114.063 68.8598 111.585 67.8317 109 67.829ZM113.281 75.8596L108.031 81.1096C107.961 81.1793 107.878 81.2347 107.787 81.2724C107.696 81.3101 107.599 81.3296 107.5 81.3296C107.401 81.3296 107.304 81.3101 107.213 81.2724C107.122 81.2347 107.039 81.1793 106.969 81.1096L104.719 78.8596C104.579 78.7189 104.5 78.528 104.5 78.329C104.5 78.13 104.579 77.9391 104.719 77.7984C104.86 77.6576 105.051 77.5786 105.25 77.5786C105.449 77.5786 105.64 77.6576 105.781 77.7984L107.5 79.5187L112.219 74.7984C112.289 74.7287 112.372 74.6734 112.463 74.6357C112.554 74.598 112.651 74.5786 112.75 74.5786C112.849 74.5786 112.946 74.598 113.037 74.6357C113.128 74.6734 113.211 74.7287 113.281 74.7984C113.35 74.868 113.406 74.9508 113.443 75.0418C113.481 75.1329 113.5 75.2304 113.5 75.329C113.5 75.4275 113.481 75.5251 113.443 75.6162C113.406 75.7072 113.35 75.7899 113.281 75.8596Z" fill="#01AB31"/>
<path d="M34.08 107.907L33.776 111.091H33.056L32.736 107.907C32.672 107.347 33.072 107.091 33.424 107.091C33.76 107.091 34.144 107.347 34.08 107.907ZM36.336 107.907L36.032 111.091H35.312L34.992 107.907C34.928 107.347 35.328 107.091 35.68 107.091C36.016 107.091 36.4 107.347 36.336 107.907ZM39.6221 107.123V118.579H38.4701V107.123H39.6221ZM43.0956 107.907L42.7916 111.091H42.0716L41.7516 107.907C41.6876 107.347 42.0876 107.091 42.4396 107.091C42.7756 107.091 43.1596 107.347 43.0956 107.907ZM46.0841 118.579H44.9801V110.835H45.9401L46.0681 111.939C46.4521 111.123 47.3161 110.627 48.4041 110.627C49.6201 110.627 50.5321 111.267 50.9001 112.275C51.2521 111.267 52.1961 110.627 53.4441 110.627C55.1241 110.627 56.2281 111.715 56.2281 113.507V118.579H55.1561V113.731C55.1561 112.403 54.4201 111.619 53.2361 111.619C51.9401 111.619 51.1721 112.595 51.1721 113.795V118.579H50.0841V113.715C50.0841 112.403 49.3321 111.635 48.1641 111.635C46.8681 111.635 46.0841 112.595 46.0841 113.779V118.579ZM63.9904 118.579H62.8864V110.835H63.8464L64.0064 112.179C64.5184 111.187 65.5424 110.627 66.6624 110.627C68.7904 110.627 69.6704 111.891 69.6704 113.843V118.579H68.5664V114.083C68.5664 112.275 67.7504 111.635 66.4704 111.635C64.8864 111.635 63.9904 112.787 63.9904 114.531V118.579ZM71.3268 114.707C71.3268 112.339 72.9908 110.627 75.2628 110.627C77.5348 110.627 79.1988 112.339 79.1988 114.707C79.1988 117.059 77.5348 118.771 75.2628 118.771C72.9908 118.771 71.3268 117.059 71.3268 114.707ZM72.4468 114.691C72.4468 116.515 73.5988 117.779 75.2628 117.779C76.9108 117.779 78.0788 116.515 78.0788 114.691C78.0788 112.899 76.9108 111.619 75.2628 111.619C73.5988 111.619 72.4468 112.899 72.4468 114.691ZM82.6624 118.579H81.5744V111.763H80.0224V110.835H81.5744V108.387H82.6624V110.835H84.2144V111.763H82.6624V118.579ZM90.6495 108.707C90.1855 108.707 89.8175 108.339 89.8175 107.891C89.8175 107.443 90.1855 107.059 90.6495 107.059C91.0815 107.059 91.4655 107.443 91.4655 107.891C91.4655 108.339 91.0815 108.707 90.6495 108.707ZM88.0255 121.971L88.2335 120.963C88.5535 121.043 88.7455 121.075 88.9855 121.075C89.7535 121.075 90.0895 120.627 90.0895 119.683V110.835H91.1935V119.747C91.1935 121.219 90.4255 122.115 89.0655 122.115C88.6495 122.115 88.4255 122.083 88.0255 121.971ZM98.9358 110.835H100.04V118.579H99.0798L98.9358 117.267C98.5038 118.163 97.4318 118.771 96.2158 118.771C94.3918 118.771 93.3997 117.523 93.3997 115.635V110.819H94.5198V115.283C94.5198 117.123 95.3358 117.779 96.5677 117.779C98.0558 117.779 98.9358 116.787 98.9358 114.947V110.835ZM101.527 116.403H102.583C102.583 117.299 103.255 117.859 104.343 117.859C105.543 117.859 106.247 117.347 106.247 116.515C106.247 115.875 105.927 115.507 105.015 115.283L103.687 114.947C102.343 114.611 101.687 113.907 101.687 112.851C101.687 111.491 102.823 110.627 104.487 110.627C106.119 110.627 107.175 111.523 107.223 112.963H106.151C106.119 112.067 105.495 111.539 104.455 111.539C103.367 111.539 102.759 112.003 102.759 112.835C102.759 113.427 103.175 113.843 104.023 114.051L105.351 114.387C106.695 114.723 107.303 115.347 107.303 116.467C107.303 117.859 106.119 118.771 104.359 118.771C102.615 118.771 101.527 117.843 101.527 116.403ZM110.897 118.579H109.809V111.763H108.257V110.835H109.809V108.387H110.897V110.835H112.449V111.763H110.897V118.579ZM119.956 118.579L117.396 110.835H118.532L120.052 115.507C120.228 116.019 120.372 116.547 120.532 117.171C120.66 116.547 120.916 115.763 120.996 115.507L122.532 110.835H123.668L125.188 115.507C125.332 115.923 125.524 116.595 125.668 117.171C125.828 116.531 125.86 116.339 126.132 115.507L127.668 110.835H128.82L126.196 118.579H125.124L123.524 113.715C123.332 113.139 123.204 112.659 123.108 112.195C122.996 112.611 122.868 113.075 122.66 113.715L121.06 118.579H119.956ZM133.103 118.771C130.831 118.771 129.311 117.139 129.311 114.707C129.311 112.291 130.815 110.627 133.023 110.627C135.119 110.627 136.543 112.115 136.543 114.307V114.851H130.383C130.463 116.739 131.455 117.827 133.119 117.827C134.383 117.827 135.199 117.283 135.487 116.259H136.543C136.127 117.891 134.927 118.771 133.103 118.771ZM133.023 111.571C131.567 111.571 130.607 112.531 130.415 114.051H135.439C135.439 112.563 134.479 111.571 133.023 111.571ZM140.454 118.771C138.806 118.771 137.83 117.843 137.83 116.483C137.83 115.059 138.918 114.163 140.726 114.019L143.286 113.811V113.555C143.286 112.035 142.374 111.555 141.238 111.555C139.894 111.555 139.094 112.163 139.094 113.203H138.086C138.086 111.635 139.366 110.627 141.27 110.627C143.062 110.627 144.374 111.523 144.374 113.571V118.579H143.446L143.302 117.219C142.822 118.195 141.766 118.771 140.454 118.771ZM140.71 117.875C142.342 117.875 143.286 116.739 143.286 115.059V114.643L140.998 114.819C139.542 114.947 138.95 115.587 138.95 116.451C138.95 117.395 139.654 117.875 140.71 117.875ZM150.638 110.739V111.731H150.03C148.606 111.731 147.694 112.691 147.694 114.163V118.579H146.59V110.835H147.63L147.71 112.035C148.014 111.203 148.83 110.659 149.918 110.659C150.158 110.659 150.366 110.675 150.638 110.739ZM152.649 108.707C152.201 108.707 151.833 108.339 151.833 107.891C151.833 107.443 152.201 107.059 152.649 107.059C153.097 107.059 153.481 107.443 153.481 107.891C153.481 108.339 153.097 108.707 152.649 108.707ZM152.105 118.579V110.835H153.209V118.579H152.105ZM156.615 118.579H155.511V110.835H156.471L156.631 112.179C157.143 111.187 158.167 110.627 159.287 110.627C161.415 110.627 162.295 111.891 162.295 113.843V118.579H161.191V114.083C161.191 112.275 160.375 111.635 159.095 111.635C157.511 111.635 156.615 112.787 156.615 114.531V118.579ZM163.968 114.483C163.968 112.371 165.328 110.627 167.6 110.627C168.944 110.627 169.968 111.251 170.464 112.387L170.576 110.835H171.536V118.339C171.536 120.643 170.064 122.147 167.792 122.147C165.808 122.147 164.416 121.027 164.112 119.155H165.216C165.456 120.403 166.416 121.139 167.808 121.139C169.392 121.139 170.448 120.067 170.448 118.451V116.611C169.92 117.699 168.848 118.339 167.52 118.339C165.312 118.339 163.968 116.595 163.968 114.483ZM165.072 114.467C165.072 116.051 166.048 117.347 167.68 117.347C169.36 117.347 170.352 116.131 170.352 114.467C170.352 112.819 169.392 111.603 167.696 111.603C166.032 111.603 165.072 112.899 165.072 114.467ZM180.501 118.771C178.853 118.771 177.877 117.843 177.877 116.483C177.877 115.059 178.965 114.163 180.773 114.019L183.333 113.811V113.555C183.333 112.035 182.421 111.555 181.285 111.555C179.941 111.555 179.141 112.163 179.141 113.203H178.133C178.133 111.635 179.413 110.627 181.317 110.627C183.109 110.627 184.421 111.523 184.421 113.571V118.579H183.493L183.349 117.219C182.869 118.195 181.813 118.771 180.501 118.771ZM180.757 117.875C182.389 117.875 183.333 116.739 183.333 115.059V114.643L181.045 114.819C179.589 114.947 178.997 115.587 178.997 116.451C178.997 117.395 179.701 117.875 180.757 117.875ZM192.85 118.579H191.762V111.763H190.21V110.835H191.762V108.387H192.85V110.835H194.402V111.763H192.85V118.579ZM195.399 114.867V113.875H200.039V114.867H195.399ZM201.527 116.403H202.583C202.583 117.299 203.255 117.859 204.343 117.859C205.543 117.859 206.247 117.347 206.247 116.515C206.247 115.875 205.927 115.507 205.015 115.283L203.687 114.947C202.343 114.611 201.687 113.907 201.687 112.851C201.687 111.491 202.823 110.627 204.487 110.627C206.119 110.627 207.175 111.523 207.223 112.963H206.151C206.119 112.067 205.495 111.539 204.455 111.539C203.367 111.539 202.759 112.003 202.759 112.835C202.759 113.427 203.175 113.843 204.023 114.051L205.351 114.387C206.695 114.723 207.303 115.347 207.303 116.467C207.303 117.859 206.119 118.771 204.359 118.771C202.615 118.771 201.527 117.843 201.527 116.403ZM210.225 118.563H209.121V106.915H210.225V112.179C210.721 111.251 211.665 110.627 212.961 110.627C214.993 110.627 215.905 111.891 215.905 113.843V118.579H214.801V114.083C214.801 112.275 213.953 111.635 212.753 111.635C211.089 111.635 210.225 112.867 210.225 114.355V118.563ZM218.649 108.707C218.201 108.707 217.833 108.339 217.833 107.891C217.833 107.443 218.201 107.059 218.649 107.059C219.097 107.059 219.481 107.443 219.481 107.891C219.481 108.339 219.097 108.707 218.649 108.707ZM218.105 118.579V110.835H219.209V118.579H218.105ZM225.559 110.739V111.731H224.951C223.527 111.731 222.615 112.691 222.615 114.163V118.579H221.511V110.835H222.551L222.631 112.035C222.935 111.203 223.751 110.659 224.839 110.659C225.079 110.659 225.287 110.675 225.559 110.739ZM229.116 118.579H228.028V111.763H226.476V110.835H228.028V108.387H229.116V110.835H230.668V111.763H229.116V118.579ZM233.209 112.627C232.665 112.627 232.201 112.163 232.201 111.635C232.201 111.091 232.665 110.643 233.209 110.643C233.753 110.643 234.217 111.091 234.217 111.635C234.217 112.163 233.753 112.627 233.209 112.627ZM234.217 118.035C234.217 119.027 233.449 119.891 232.457 120.035V119.443C233.033 119.347 233.449 118.931 233.449 118.483C233.353 118.547 233.225 118.595 233.033 118.595C232.585 118.595 232.201 118.275 232.201 117.731C232.201 117.171 232.585 116.771 233.145 116.771C233.721 116.771 234.217 117.235 234.217 118.035ZM242.45 107.123V118.579H241.298V107.123H242.45ZM245.924 107.907L245.62 111.091H244.9L244.58 107.907C244.516 107.347 244.916 107.091 245.268 107.091C245.604 107.091 245.988 107.347 245.924 107.907ZM248.912 118.579H247.808V110.835H248.768L248.896 111.939C249.28 111.123 250.144 110.627 251.232 110.627C252.448 110.627 253.36 111.267 253.728 112.275C254.08 111.267 255.024 110.627 256.272 110.627C257.952 110.627 259.056 111.715 259.056 113.507V118.579H257.984V113.731C257.984 112.403 257.248 111.619 256.064 111.619C254.768 111.619 254 112.595 254 113.795V118.579H252.912V113.715C252.912 112.403 252.16 111.635 250.992 111.635C249.696 111.635 248.912 112.595 248.912 113.779V118.579ZM267.347 118.579L264.787 110.835H265.923L267.443 115.507C267.619 116.019 267.763 116.547 267.923 117.171C268.051 116.547 268.307 115.763 268.387 115.507L269.923 110.835H271.059L272.579 115.507C272.723 115.923 272.915 116.595 273.059 117.171C273.219 116.531 273.251 116.339 273.523 115.507L275.059 110.835H276.211L273.587 118.579H272.515L270.915 113.715C270.723 113.139 270.595 112.659 270.499 112.195C270.387 112.611 270.259 113.075 270.051 113.715L268.451 118.579H267.347ZM280.494 118.771C278.222 118.771 276.702 117.139 276.702 114.707C276.702 112.291 278.206 110.627 280.414 110.627C282.51 110.627 283.934 112.115 283.934 114.307V114.851H277.774C277.854 116.739 278.846 117.827 280.51 117.827C281.774 117.827 282.59 117.283 282.878 116.259H283.934C283.518 117.891 282.318 118.771 280.494 118.771ZM280.414 111.571C278.958 111.571 277.998 112.531 277.806 114.051H282.83C282.83 112.563 281.87 111.571 280.414 111.571ZM287.845 118.771C286.197 118.771 285.221 117.843 285.221 116.483C285.221 115.059 286.309 114.163 288.117 114.019L290.677 113.811V113.555C290.677 112.035 289.765 111.555 288.629 111.555C287.285 111.555 286.485 112.163 286.485 113.203H285.477C285.477 111.635 286.757 110.627 288.661 110.627C290.453 110.627 291.765 111.523 291.765 113.571V118.579H290.837L290.693 117.219C290.213 118.195 289.157 118.771 287.845 118.771ZM288.101 117.875C289.733 117.875 290.677 116.739 290.677 115.059V114.643L288.389 114.819C286.933 114.947 286.341 115.587 286.341 116.451C286.341 117.395 287.045 117.875 288.101 117.875ZM298.028 110.739V111.731H297.42C295.996 111.731 295.084 112.691 295.084 114.163V118.579H293.98V110.835H295.02L295.1 112.035C295.404 111.203 296.22 110.659 297.308 110.659C297.548 110.659 297.756 110.675 298.028 110.739ZM300.04 108.707C299.592 108.707 299.224 108.339 299.224 107.891C299.224 107.443 299.592 107.059 300.04 107.059C300.488 107.059 300.872 107.443 300.872 107.891C300.872 108.339 300.488 108.707 300.04 108.707ZM299.496 118.579V110.835H300.6V118.579H299.496ZM304.006 118.579H302.902V110.835H303.862L304.022 112.179C304.534 111.187 305.558 110.627 306.678 110.627C308.806 110.627 309.686 111.891 309.686 113.843V118.579H308.582V114.083C308.582 112.275 307.766 111.635 306.486 111.635C304.902 111.635 304.006 112.787 304.006 114.531V118.579ZM311.358 114.483C311.358 112.371 312.718 110.627 314.99 110.627C316.334 110.627 317.358 111.251 317.854 112.387L317.966 110.835H318.926V118.339C318.926 120.643 317.454 122.147 315.182 122.147C313.198 122.147 311.806 121.027 311.502 119.155H312.606C312.846 120.403 313.806 121.139 315.198 121.139C316.782 121.139 317.838 120.067 317.838 118.451V116.611C317.31 117.699 316.238 118.339 314.91 118.339C312.702 118.339 311.358 116.595 311.358 114.483ZM312.462 114.467C312.462 116.051 313.438 117.347 315.07 117.347C316.75 117.347 317.742 116.131 317.742 114.467C317.742 112.819 316.782 111.603 315.086 111.603C313.422 111.603 312.462 112.899 312.462 114.467ZM327.892 118.771C326.244 118.771 325.268 117.843 325.268 116.483C325.268 115.059 326.356 114.163 328.164 114.019L330.724 113.811V113.555C330.724 112.035 329.812 111.555 328.676 111.555C327.332 111.555 326.532 112.163 326.532 113.203H325.524C325.524 111.635 326.804 110.627 328.708 110.627C330.5 110.627 331.812 111.523 331.812 113.571V118.579H330.884L330.74 117.219C330.26 118.195 329.204 118.771 327.892 118.771ZM328.148 117.875C329.78 117.875 330.724 116.739 330.724 115.059V114.643L328.436 114.819C326.98 114.947 326.388 115.587 326.388 116.451C326.388 117.395 327.092 117.875 328.148 117.875ZM338.465 121.955V110.835H339.424L339.537 112.403C340.081 111.203 341.169 110.627 342.465 110.627C344.705 110.627 346.049 112.339 346.049 114.675C346.049 117.011 344.753 118.771 342.465 118.771C341.153 118.771 340.113 118.211 339.569 117.091V121.955H338.465ZM339.585 114.707C339.585 116.483 340.577 117.779 342.273 117.779C343.953 117.779 344.929 116.483 344.929 114.707C344.929 112.915 343.953 111.635 342.273 111.635C340.577 111.635 339.585 112.915 339.585 114.707ZM348.352 108.707C347.904 108.707 347.536 108.339 347.536 107.891C347.536 107.443 347.904 107.059 348.352 107.059C348.8 107.059 349.184 107.443 349.184 107.891C349.184 108.339 348.8 108.707 348.352 108.707ZM347.808 118.579V110.835H348.912V118.579H347.808ZM354.463 118.771C352.191 118.771 350.671 117.139 350.671 114.707C350.671 112.291 352.174 110.627 354.383 110.627C356.479 110.627 357.903 112.115 357.903 114.307V114.851H351.743C351.823 116.739 352.815 117.827 354.479 117.827C355.743 117.827 356.559 117.283 356.847 116.259H357.903C357.487 117.891 356.287 118.771 354.463 118.771ZM354.383 111.571C352.927 111.571 351.967 112.531 351.775 114.051H356.799C356.799 112.563 355.839 111.571 354.383 111.571ZM359.124 114.723C359.124 112.291 360.612 110.627 362.868 110.627C364.66 110.627 365.972 111.667 366.276 113.267H365.172C364.884 112.195 363.956 111.603 362.884 111.603C361.316 111.603 360.212 112.803 360.212 114.707C360.212 116.547 361.236 117.779 362.804 117.779C363.956 117.779 364.884 117.139 365.188 116.147H366.308C365.94 117.731 364.564 118.771 362.804 118.771C360.612 118.771 359.124 117.155 359.124 114.723ZM371.228 118.771C368.956 118.771 367.436 117.139 367.436 114.707C367.436 112.291 368.94 110.627 371.148 110.627C373.244 110.627 374.668 112.115 374.668 114.307V114.851H368.508C368.588 116.739 369.58 117.827 371.244 117.827C372.508 117.827 373.324 117.283 373.612 116.259H374.668C374.252 117.891 373.052 118.771 371.228 118.771ZM371.148 111.571C369.692 111.571 368.732 112.531 368.54 114.051H373.564C373.564 112.563 372.604 111.571 371.148 111.571ZM380.327 114.707C380.327 112.339 381.991 110.627 384.263 110.627C386.535 110.627 388.199 112.339 388.199 114.707C388.199 117.059 386.535 118.771 384.263 118.771C381.991 118.771 380.327 117.059 380.327 114.707ZM381.447 114.691C381.447 116.515 382.599 117.779 384.263 117.779C385.911 117.779 387.079 116.515 387.079 114.691C387.079 112.899 385.911 111.619 384.263 111.619C382.599 111.619 381.447 112.899 381.447 114.691ZM389.038 110.835H390.222V109.331C390.222 107.587 391.182 106.915 392.366 106.915C392.638 106.915 392.958 106.931 393.214 106.979V107.923H392.558C391.582 107.923 391.326 108.419 391.326 109.331V110.835H393.15V111.763H391.326V118.579H390.222V111.763H389.038V110.835ZM402.13 118.771C399.874 118.771 398.546 117.043 398.546 114.723C398.546 112.387 399.874 110.627 402.178 110.627C403.458 110.627 404.482 111.187 405.026 112.307V106.915H406.13V118.579H405.17L405.058 116.995C404.514 118.195 403.426 118.771 402.13 118.771ZM402.322 117.763C404.018 117.763 405.01 116.483 405.01 114.691C405.01 112.915 404.018 111.619 402.322 111.619C400.642 111.619 399.666 112.915 399.666 114.691C399.666 116.483 400.642 117.763 402.322 117.763ZM411.681 118.771C409.409 118.771 407.889 117.139 407.889 114.707C407.889 112.291 409.393 110.627 411.601 110.627C413.697 110.627 415.121 112.115 415.121 114.307V114.851H408.961C409.041 116.739 410.033 117.827 411.697 117.827C412.961 117.827 413.777 117.283 414.065 116.259H415.121C414.705 117.891 413.505 118.771 411.681 118.771ZM411.601 111.571C410.145 111.571 409.185 112.531 408.993 114.051H414.017C414.017 112.563 413.057 111.571 411.601 111.571ZM416.23 116.403H417.286C417.286 117.299 417.958 117.859 419.046 117.859C420.246 117.859 420.95 117.347 420.95 116.515C420.95 115.875 420.63 115.507 419.718 115.283L418.39 114.947C417.046 114.611 416.39 113.907 416.39 112.851C416.39 111.491 417.526 110.627 419.19 110.627C420.822 110.627 421.878 111.523 421.926 112.963H420.854C420.822 112.067 420.198 111.539 419.158 111.539C418.07 111.539 417.462 112.003 417.462 112.835C417.462 113.427 417.878 113.843 418.726 114.051L420.054 114.387C421.398 114.723 422.006 115.347 422.006 116.467C422.006 117.859 420.822 118.771 419.062 118.771C417.318 118.771 416.23 117.843 416.23 116.403ZM424.368 108.707C423.92 108.707 423.552 108.339 423.552 107.891C423.552 107.443 423.92 107.059 424.368 107.059C424.816 107.059 425.2 107.443 425.2 107.891C425.2 108.339 424.816 108.707 424.368 108.707ZM423.824 118.579V110.835H424.928V118.579H423.824ZM426.702 114.483C426.702 112.371 428.062 110.627 430.334 110.627C431.678 110.627 432.702 111.251 433.198 112.387L433.31 110.835H434.27V118.339C434.27 120.643 432.798 122.147 430.526 122.147C428.542 122.147 427.15 121.027 426.846 119.155H427.95C428.19 120.403 429.15 121.139 430.542 121.139C432.126 121.139 433.182 120.067 433.182 118.451V116.611C432.654 117.699 431.582 118.339 430.254 118.339C428.046 118.339 426.702 116.595 426.702 114.483ZM427.806 114.467C427.806 116.051 428.782 117.347 430.414 117.347C432.094 117.347 433.086 116.131 433.086 114.467C433.086 112.819 432.126 111.603 430.43 111.603C428.766 111.603 427.806 112.899 427.806 114.467ZM437.678 118.579H436.574V110.835H437.534L437.694 112.179C438.206 111.187 439.23 110.627 440.35 110.627C442.478 110.627 443.358 111.891 443.358 113.843V118.579H442.254V114.083C442.254 112.275 441.438 111.635 440.158 111.635C438.574 111.635 437.678 112.787 437.678 114.531V118.579ZM449.996 121.955V110.835H450.956L451.068 112.403C451.612 111.203 452.7 110.627 453.996 110.627C456.236 110.627 457.58 112.339 457.58 114.675C457.58 117.011 456.284 118.771 453.996 118.771C452.684 118.771 451.644 118.211 451.1 117.091V121.955H449.996ZM451.116 114.707C451.116 116.483 452.108 117.779 453.804 117.779C455.484 117.779 456.46 116.483 456.46 114.707C456.46 112.915 455.484 111.635 453.804 111.635C452.108 111.635 451.116 112.915 451.116 114.707ZM460.444 118.563H459.34V106.915H460.444V112.179C460.94 111.251 461.884 110.627 463.18 110.627C465.212 110.627 466.124 111.891 466.124 113.843V118.579H465.02V114.083C465.02 112.275 464.172 111.635 462.972 111.635C461.308 111.635 460.444 112.867 460.444 114.355V118.563ZM468.868 108.707C468.42 108.707 468.052 108.339 468.052 107.891C468.052 107.443 468.42 107.059 468.868 107.059C469.316 107.059 469.7 107.443 469.7 107.891C469.7 108.339 469.316 108.707 468.868 108.707ZM468.324 118.579V110.835H469.428V118.579H468.324ZM472.882 118.579H471.778V106.915H472.882V118.579ZM474.686 114.707C474.686 112.339 476.35 110.627 478.622 110.627C480.894 110.627 482.558 112.339 482.558 114.707C482.558 117.059 480.894 118.771 478.622 118.771C476.35 118.771 474.686 117.059 474.686 114.707ZM475.806 114.691C475.806 116.515 476.958 117.779 478.622 117.779C480.27 117.779 481.438 116.515 481.438 114.691C481.438 112.899 480.27 111.619 478.622 111.619C476.958 111.619 475.806 112.899 475.806 114.691ZM483.668 116.403H484.724C484.724 117.299 485.396 117.859 486.484 117.859C487.684 117.859 488.388 117.347 488.388 116.515C488.388 115.875 488.068 115.507 487.156 115.283L485.828 114.947C484.484 114.611 483.828 113.907 483.828 112.851C483.828 111.491 484.964 110.627 486.628 110.627C488.26 110.627 489.316 111.523 489.364 112.963H488.292C488.26 112.067 487.636 111.539 486.596 111.539C485.508 111.539 484.9 112.003 484.9 112.835C484.9 113.427 485.316 113.843 486.164 114.051L487.492 114.387C488.836 114.723 489.444 115.347 489.444 116.467C489.444 117.859 488.26 118.771 486.5 118.771C484.756 118.771 483.668 117.843 483.668 116.403ZM490.717 114.707C490.717 112.339 492.381 110.627 494.653 110.627C496.925 110.627 498.589 112.339 498.589 114.707C498.589 117.059 496.925 118.771 494.653 118.771C492.381 118.771 490.717 117.059 490.717 114.707ZM491.837 114.691C491.837 116.515 492.989 117.779 494.653 117.779C496.301 117.779 497.469 116.515 497.469 114.691C497.469 112.899 496.301 111.619 494.653 111.619C492.989 111.619 491.837 112.899 491.837 114.691ZM500.355 121.955V110.835H501.315L501.427 112.403C501.971 111.203 503.059 110.627 504.355 110.627C506.595 110.627 507.939 112.339 507.939 114.675C507.939 117.011 506.643 118.771 504.355 118.771C503.043 118.771 502.003 118.211 501.459 117.091V121.955H500.355ZM501.475 114.707C501.475 116.483 502.467 117.779 504.163 117.779C505.843 117.779 506.819 116.483 506.819 114.707C506.819 112.915 505.843 111.635 504.163 111.635C502.467 111.635 501.475 112.915 501.475 114.707ZM510.803 118.563H509.699V106.915H510.803V112.179C511.299 111.251 512.243 110.627 513.539 110.627C515.571 110.627 516.483 111.891 516.483 113.843V118.579H515.379V114.083C515.379 112.275 514.531 111.635 513.331 111.635C511.667 111.635 510.803 112.867 510.803 114.355V118.563ZM517.743 121.955V121.043H518.591C519.263 121.043 519.935 120.995 520.319 119.955L520.655 119.043L517.519 110.835H518.687L521.183 117.587L523.631 110.835H524.767L521.215 120.355C520.767 121.571 520.015 122.067 518.911 122.067C518.447 122.067 518.095 122.035 517.743 121.955ZM525.784 118.755C525.24 118.755 524.776 118.307 524.776 117.779C524.776 117.235 525.24 116.771 525.784 116.771C526.328 116.771 526.792 117.235 526.792 117.779C526.792 118.307 526.328 118.755 525.784 118.755ZM32.192 130.179V129.123H40.4V130.179H36.864V140.579H35.712V130.179H32.192ZM42.8498 140.563H41.7458V128.915H42.8498V134.179C43.3458 133.251 44.2898 132.627 45.5858 132.627C47.6178 132.627 48.5298 133.891 48.5298 135.843V140.579H47.4258V136.083C47.4258 134.275 46.5778 133.635 45.3778 133.635C43.7138 133.635 42.8498 134.867 42.8498 136.355V140.563ZM53.9781 140.771C51.7061 140.771 50.1861 139.139 50.1861 136.707C50.1861 134.291 51.6901 132.627 53.8981 132.627C55.9941 132.627 57.4181 134.115 57.4181 136.307V136.851H51.2581C51.3381 138.739 52.3301 139.827 53.9941 139.827C55.2581 139.827 56.0741 139.283 56.3621 138.259H57.4181C57.0021 139.891 55.8021 140.771 53.9781 140.771ZM53.8981 133.571C52.4421 133.571 51.4821 134.531 51.2901 136.051H56.3141C56.3141 134.563 55.3541 133.571 53.8981 133.571ZM64.1648 130.707C63.7168 130.707 63.3488 130.339 63.3488 129.891C63.3488 129.443 63.7168 129.059 64.1648 129.059C64.6128 129.059 64.9968 129.443 64.9968 129.891C64.9968 130.339 64.6128 130.707 64.1648 130.707ZM63.6208 140.579V132.835H64.7248V140.579H63.6208ZM68.131 140.579H67.027V132.835H67.987L68.147 134.179C68.659 133.187 69.683 132.627 70.803 132.627C72.931 132.627 73.811 133.891 73.811 135.843V140.579H72.707V136.083C72.707 134.275 71.891 133.635 70.611 133.635C69.027 133.635 68.131 134.787 68.131 136.531V140.579ZM77.7874 140.579H76.6994V133.763H75.1474V132.835H76.6994V130.387H77.7874V132.835H79.3394V133.763H77.7874V140.579ZM84.825 132.739V133.731H84.217C82.793 133.731 81.881 134.691 81.881 136.163V140.579H80.777V132.835H81.817L81.897 134.035C82.201 133.203 83.017 132.659 84.105 132.659C84.345 132.659 84.553 132.675 84.825 132.739ZM86.8366 130.707C86.3886 130.707 86.0206 130.339 86.0206 129.891C86.0206 129.443 86.3886 129.059 86.8366 129.059C87.2846 129.059 87.6686 129.443 87.6686 129.891C87.6686 130.339 87.2846 130.707 86.8366 130.707ZM86.2926 140.579V132.835H87.3966V140.579H86.2926ZM89.1549 136.723C89.1549 134.291 90.6429 132.627 92.8989 132.627C94.6909 132.627 96.0029 133.667 96.3069 135.267H95.2029C94.9149 134.195 93.9869 133.603 92.9149 133.603C91.3469 133.603 90.2429 134.803 90.2429 136.707C90.2429 138.547 91.2669 139.779 92.8349 139.779C93.9869 139.779 94.9149 139.139 95.2189 138.147H96.3389C95.9709 139.731 94.5949 140.771 92.8349 140.771C90.6429 140.771 89.1549 139.155 89.1549 136.723ZM100.235 140.771C98.5874 140.771 97.6114 139.843 97.6114 138.483C97.6114 137.059 98.6994 136.163 100.507 136.019L103.067 135.811V135.555C103.067 134.035 102.155 133.555 101.019 133.555C99.6754 133.555 98.8754 134.163 98.8754 135.203H97.8674C97.8674 133.635 99.1474 132.627 101.051 132.627C102.843 132.627 104.155 133.523 104.155 135.571V140.579H103.227L103.083 139.219C102.603 140.195 101.547 140.771 100.235 140.771ZM100.491 139.875C102.123 139.875 103.067 138.739 103.067 137.059V136.643L100.779 136.819C99.3234 136.947 98.7314 137.587 98.7314 138.451C98.7314 139.395 99.4354 139.875 100.491 139.875ZM108.006 140.579H106.918V133.763H105.366V132.835H106.918V130.387H108.006V132.835H109.558V133.763H108.006V140.579ZM114.166 140.771C111.894 140.771 110.374 139.139 110.374 136.707C110.374 134.291 111.878 132.627 114.086 132.627C116.182 132.627 117.606 134.115 117.606 136.307V136.851H111.446C111.526 138.739 112.518 139.827 114.182 139.827C115.446 139.827 116.262 139.283 116.55 138.259H117.606C117.19 139.891 115.99 140.771 114.166 140.771ZM114.086 133.571C112.63 133.571 111.67 134.531 111.478 136.051H116.502C116.502 134.563 115.542 133.571 114.086 133.571ZM126.848 140.771C124.592 140.771 123.264 139.043 123.264 136.723C123.264 134.387 124.592 132.627 126.896 132.627C128.176 132.627 129.2 133.187 129.744 134.307V128.915H130.848V140.579H129.888L129.776 138.995C129.232 140.195 128.144 140.771 126.848 140.771ZM127.04 139.763C128.736 139.763 129.728 138.483 129.728 136.691C129.728 134.915 128.736 133.619 127.04 133.619C125.36 133.619 124.384 134.915 124.384 136.691C124.384 138.483 125.36 139.763 127.04 139.763ZM136.4 140.771C134.128 140.771 132.608 139.139 132.608 136.707C132.608 134.291 134.112 132.627 136.32 132.627C138.416 132.627 139.84 134.115 139.84 136.307V136.851H133.68C133.76 138.739 134.752 139.827 136.416 139.827C137.68 139.827 138.496 139.283 138.784 138.259H139.84C139.424 139.891 138.224 140.771 136.4 140.771ZM136.32 133.571C134.864 133.571 133.904 134.531 133.712 136.051H138.736C138.736 134.563 137.776 133.571 136.32 133.571ZM143.303 140.579H142.215V133.763H140.663V132.835H142.215V130.387H143.303V132.835H144.855V133.763H143.303V140.579ZM148.392 140.771C146.744 140.771 145.768 139.843 145.768 138.483C145.768 137.059 146.856 136.163 148.664 136.019L151.224 135.811V135.555C151.224 134.035 150.312 133.555 149.176 133.555C147.832 133.555 147.032 134.163 147.032 135.203H146.024C146.024 133.635 147.304 132.627 149.208 132.627C151 132.627 152.312 133.523 152.312 135.571V140.579H151.384L151.24 139.219C150.76 140.195 149.704 140.771 148.392 140.771ZM148.648 139.875C150.28 139.875 151.224 138.739 151.224 137.059V136.643L148.936 136.819C147.48 136.947 146.888 137.587 146.888 138.451C146.888 139.395 147.592 139.875 148.648 139.875ZM155.071 130.707C154.623 130.707 154.255 130.339 154.255 129.891C154.255 129.443 154.623 129.059 155.071 129.059C155.519 129.059 155.903 129.443 155.903 129.891C155.903 130.339 155.519 130.707 155.071 130.707ZM154.527 140.579V132.835H155.631V140.579H154.527ZM159.085 140.579H157.981V128.915H159.085V140.579ZM160.777 138.403H161.833C161.833 139.299 162.505 139.859 163.593 139.859C164.793 139.859 165.497 139.347 165.497 138.515C165.497 137.875 165.177 137.507 164.265 137.283L162.937 136.947C161.593 136.611 160.937 135.907 160.937 134.851C160.937 133.491 162.073 132.627 163.737 132.627C165.369 132.627 166.425 133.523 166.473 134.963H165.401C165.369 134.067 164.745 133.539 163.705 133.539C162.617 133.539 162.009 134.003 162.009 134.835C162.009 135.427 162.425 135.843 163.273 136.051L164.601 136.387C165.945 136.723 166.553 137.347 166.553 138.467C166.553 139.859 165.369 140.771 163.609 140.771C161.865 140.771 160.777 139.843 160.777 138.403ZM175.032 140.771C173.384 140.771 172.408 139.843 172.408 138.483C172.408 137.059 173.496 136.163 175.304 136.019L177.864 135.811V135.555C177.864 134.035 176.952 133.555 175.816 133.555C174.472 133.555 173.672 134.163 173.672 135.203H172.664C172.664 133.635 173.944 132.627 175.848 132.627C177.64 132.627 178.952 133.523 178.952 135.571V140.579H178.024L177.88 139.219C177.4 140.195 176.344 140.771 175.032 140.771ZM175.288 139.875C176.92 139.875 177.864 138.739 177.864 137.059V136.643L175.576 136.819C174.12 136.947 173.528 137.587 173.528 138.451C173.528 139.395 174.232 139.875 175.288 139.875ZM182.272 140.579H181.168V132.835H182.128L182.288 134.179C182.8 133.187 183.824 132.627 184.944 132.627C187.072 132.627 187.952 133.891 187.952 135.843V140.579H186.848V136.083C186.848 134.275 186.032 133.635 184.752 133.635C183.168 133.635 182.272 134.787 182.272 136.531V140.579ZM193.192 140.771C190.936 140.771 189.608 139.043 189.608 136.723C189.608 134.387 190.936 132.627 193.24 132.627C194.52 132.627 195.544 133.187 196.088 134.307V128.915H197.192V140.579H196.232L196.12 138.995C195.576 140.195 194.488 140.771 193.192 140.771ZM193.384 139.763C195.08 139.763 196.072 138.483 196.072 136.691C196.072 134.915 195.08 133.619 193.384 133.619C191.704 133.619 190.728 134.915 190.728 136.691C190.728 138.483 191.704 139.763 193.384 139.763ZM205.709 140.579H204.621V133.763H203.069V132.835H204.621V130.387H205.709V132.835H207.261V133.763H205.709V140.579ZM209.803 140.563H208.699V128.915H209.803V134.179C210.299 133.251 211.243 132.627 212.539 132.627C214.571 132.627 215.483 133.891 215.483 135.843V140.579H214.379V136.083C214.379 134.275 213.531 133.635 212.331 133.635C210.667 133.635 209.803 134.867 209.803 136.355V140.563ZM217.139 136.707C217.139 134.339 218.803 132.627 221.075 132.627C223.347 132.627 225.011 134.339 225.011 136.707C225.011 139.059 223.347 140.771 221.075 140.771C218.803 140.771 217.139 139.059 217.139 136.707ZM218.259 136.691C218.259 138.515 219.411 139.779 221.075 139.779C222.723 139.779 223.891 138.515 223.891 136.691C223.891 134.899 222.723 133.619 221.075 133.619C219.411 133.619 218.259 134.899 218.259 136.691ZM232.03 132.835H233.134V140.579H232.174L232.03 139.267C231.598 140.163 230.526 140.771 229.31 140.771C227.486 140.771 226.493 139.523 226.493 137.635V132.819H227.614V137.283C227.614 139.123 228.43 139.779 229.661 139.779C231.15 139.779 232.03 138.787 232.03 136.947V132.835ZM234.905 136.483C234.905 134.371 236.265 132.627 238.537 132.627C239.881 132.627 240.905 133.251 241.401 134.387L241.513 132.835H242.473V140.339C242.473 142.643 241.001 144.147 238.729 144.147C236.745 144.147 235.353 143.027 235.049 141.155H236.153C236.393 142.403 237.353 143.139 238.745 143.139C240.329 143.139 241.385 142.067 241.385 140.451V138.611C240.857 139.699 239.785 140.339 238.457 140.339C236.249 140.339 234.905 138.595 234.905 136.483ZM236.009 136.467C236.009 138.051 236.985 139.347 238.617 139.347C240.297 139.347 241.289 138.131 241.289 136.467C241.289 134.819 240.329 133.603 238.633 133.603C236.969 133.603 236.009 134.899 236.009 136.467ZM245.881 140.563H244.777V128.915H245.881V134.179C246.377 133.251 247.321 132.627 248.617 132.627C250.649 132.627 251.561 133.891 251.561 135.843V140.579H250.457V136.083C250.457 134.275 249.609 133.635 248.409 133.635C246.745 133.635 245.881 134.867 245.881 136.355V140.563ZM255.537 140.579H254.449V133.763H252.897V132.835H254.449V130.387H255.537V132.835H257.089V133.763H255.537V140.579ZM257.726 132.835H258.91V131.331C258.91 129.587 259.87 128.915 261.054 128.915C261.326 128.915 261.646 128.931 261.902 128.979V129.923H261.246C260.27 129.923 260.014 130.419 260.014 131.331V132.835H261.838V133.763H260.014V140.579H258.91V133.763H257.726V132.835ZM268.78 132.835H269.884V140.579H268.924L268.78 139.267C268.348 140.163 267.276 140.771 266.06 140.771C264.236 140.771 263.243 139.523 263.243 137.635V132.819H264.364V137.283C264.364 139.123 265.18 139.779 266.411 139.779C267.9 139.779 268.78 138.787 268.78 136.947V132.835ZM273.335 140.579H272.231V128.915H273.335V140.579ZM281.273 140.579H280.169V128.915H281.273V140.579ZM285.845 140.771C284.197 140.771 283.221 139.843 283.221 138.483C283.221 137.059 284.309 136.163 286.117 136.019L288.677 135.811V135.555C288.677 134.035 287.765 133.555 286.629 133.555C285.285 133.555 284.485 134.163 284.485 135.203H283.477C283.477 133.635 284.757 132.627 286.661 132.627C288.453 132.627 289.765 133.523 289.765 135.571V140.579H288.837L288.693 139.219C288.213 140.195 287.157 140.771 285.845 140.771ZM286.101 139.875C287.733 139.875 288.677 138.739 288.677 137.059V136.643L286.389 136.819C284.933 136.947 284.341 137.587 284.341 138.451C284.341 139.395 285.045 139.875 286.101 139.875ZM291.024 143.955V143.043H291.872C292.544 143.043 293.216 142.995 293.6 141.955L293.936 141.043L290.8 132.835H291.968L294.464 139.587L296.912 132.835H298.048L294.496 142.355C294.048 143.571 293.296 144.067 292.192 144.067C291.728 144.067 291.376 144.035 291.024 143.955ZM298.53 136.707C298.53 134.339 300.194 132.627 302.466 132.627C304.738 132.627 306.402 134.339 306.402 136.707C306.402 139.059 304.738 140.771 302.466 140.771C300.194 140.771 298.53 139.059 298.53 136.707ZM299.65 136.691C299.65 138.515 300.802 139.779 302.466 139.779C304.114 139.779 305.282 138.515 305.282 136.691C305.282 134.899 304.114 133.619 302.466 133.619C300.802 133.619 299.65 134.899 299.65 136.691ZM313.42 132.835H314.524V140.579H313.564L313.42 139.267C312.988 140.163 311.916 140.771 310.7 140.771C308.876 140.771 307.884 139.523 307.884 137.635V132.819H309.004V137.283C309.004 139.123 309.82 139.779 311.052 139.779C312.54 139.779 313.42 138.787 313.42 136.947V132.835ZM318.6 140.579H317.512V133.763H315.96V132.835H317.512V130.387H318.6V132.835H320.152V133.763H318.6V140.579ZM325.483 136.707C325.483 134.339 327.147 132.627 329.419 132.627C331.691 132.627 333.355 134.339 333.355 136.707C333.355 139.059 331.691 140.771 329.419 140.771C327.147 140.771 325.483 139.059 325.483 136.707ZM326.603 136.691C326.603 138.515 327.755 139.779 329.419 139.779C331.067 139.779 332.235 138.515 332.235 136.691C332.235 134.899 331.067 133.619 329.419 133.619C327.755 133.619 326.603 134.899 326.603 136.691ZM334.194 132.835H335.378V131.331C335.378 129.587 336.338 128.915 337.522 128.915C337.794 128.915 338.114 128.931 338.37 128.979V129.923H337.714C336.738 129.923 336.482 130.419 336.482 131.331V132.835H338.306V133.763H336.482V140.579H335.378V133.763H334.194V132.835ZM346.022 140.579H344.934V133.763H343.382V132.835H344.934V130.387H346.022V132.835H347.574V133.763H346.022V140.579ZM350.115 140.563H349.011V128.915H350.115V134.179C350.611 133.251 351.555 132.627 352.851 132.627C354.883 132.627 355.795 133.891 355.795 135.843V140.579H354.691V136.083C354.691 134.275 353.843 133.635 352.643 133.635C350.979 133.635 350.115 134.867 350.115 136.355V140.563ZM361.244 140.771C358.972 140.771 357.452 139.139 357.452 136.707C357.452 134.291 358.956 132.627 361.164 132.627C363.26 132.627 364.684 134.115 364.684 136.307V136.851H358.524C358.604 138.739 359.596 139.827 361.26 139.827C362.524 139.827 363.34 139.283 363.628 138.259H364.684C364.268 139.891 363.068 140.771 361.244 140.771ZM361.164 133.571C359.708 133.571 358.748 134.531 358.556 136.051H363.58C363.58 134.563 362.62 133.571 361.164 133.571ZM373.926 140.771C371.67 140.771 370.342 139.043 370.342 136.723C370.342 134.387 371.67 132.627 373.974 132.627C375.254 132.627 376.278 133.187 376.822 134.307V128.915H377.926V140.579H376.966L376.854 138.995C376.31 140.195 375.222 140.771 373.926 140.771ZM374.118 139.763C375.814 139.763 376.806 138.483 376.806 136.691C376.806 134.915 375.814 133.619 374.118 133.619C372.438 133.619 371.462 134.915 371.462 136.691C371.462 138.483 372.438 139.763 374.118 139.763ZM383.478 140.771C381.206 140.771 379.686 139.139 379.686 136.707C379.686 134.291 381.19 132.627 383.398 132.627C385.494 132.627 386.918 134.115 386.918 136.307V136.851H380.758C380.838 138.739 381.83 139.827 383.494 139.827C384.758 139.827 385.574 139.283 385.862 138.259H386.918C386.502 139.891 385.302 140.771 383.478 140.771ZM383.398 133.571C381.942 133.571 380.982 134.531 380.79 136.051H385.814C385.814 134.563 384.854 133.571 383.398 133.571ZM388.027 138.403H389.083C389.083 139.299 389.755 139.859 390.843 139.859C392.043 139.859 392.747 139.347 392.747 138.515C392.747 137.875 392.427 137.507 391.515 137.283L390.187 136.947C388.843 136.611 388.187 135.907 388.187 134.851C388.187 133.491 389.323 132.627 390.987 132.627C392.619 132.627 393.675 133.523 393.723 134.963H392.651C392.619 134.067 391.995 133.539 390.955 133.539C389.867 133.539 389.259 134.003 389.259 134.835C389.259 135.427 389.675 135.843 390.523 136.051L391.851 136.387C393.195 136.723 393.803 137.347 393.803 138.467C393.803 139.859 392.619 140.771 390.859 140.771C389.115 140.771 388.027 139.843 388.027 138.403ZM396.165 130.707C395.717 130.707 395.349 130.339 395.349 129.891C395.349 129.443 395.717 129.059 396.165 129.059C396.613 129.059 396.997 129.443 396.997 129.891C396.997 130.339 396.613 130.707 396.165 130.707ZM395.621 140.579V132.835H396.725V140.579H395.621ZM398.499 136.483C398.499 134.371 399.859 132.627 402.131 132.627C403.475 132.627 404.499 133.251 404.995 134.387L405.107 132.835H406.067V140.339C406.067 142.643 404.595 144.147 402.323 144.147C400.339 144.147 398.947 143.027 398.643 141.155H399.747C399.987 142.403 400.947 143.139 402.339 143.139C403.923 143.139 404.979 142.067 404.979 140.451V138.611C404.451 139.699 403.379 140.339 402.051 140.339C399.843 140.339 398.499 138.595 398.499 136.483ZM399.603 136.467C399.603 138.051 400.579 139.347 402.211 139.347C403.891 139.347 404.883 138.131 404.883 136.467C404.883 134.819 403.923 133.603 402.227 133.603C400.563 133.603 399.603 134.899 399.603 136.467ZM409.475 140.579H408.371V132.835H409.331L409.491 134.179C410.003 133.187 411.027 132.627 412.147 132.627C414.275 132.627 415.155 133.891 415.155 135.843V140.579H414.051V136.083C414.051 134.275 413.235 133.635 411.955 133.635C410.371 133.635 409.475 134.787 409.475 136.531V140.579ZM422.897 140.579H421.793V132.835H422.753L422.881 133.939C423.265 133.123 424.129 132.627 425.217 132.627C426.433 132.627 427.345 133.267 427.713 134.275C428.065 133.267 429.009 132.627 430.257 132.627C431.937 132.627 433.041 133.715 433.041 135.507V140.579H431.969V135.731C431.969 134.403 431.233 133.619 430.049 133.619C428.753 133.619 427.985 134.595 427.985 135.795V140.579H426.897V135.715C426.897 134.403 426.145 133.635 424.977 133.635C423.681 133.635 422.897 134.595 422.897 135.779V140.579ZM437.485 140.771C435.837 140.771 434.861 139.843 434.861 138.483C434.861 137.059 435.949 136.163 437.757 136.019L440.317 135.811V135.555C440.317 134.035 439.405 133.555 438.269 133.555C436.925 133.555 436.125 134.163 436.125 135.203H435.117C435.117 133.635 436.397 132.627 438.301 132.627C440.093 132.627 441.405 133.523 441.405 135.571V140.579H440.477L440.333 139.219C439.853 140.195 438.797 140.771 437.485 140.771ZM437.741 139.875C439.373 139.875 440.317 138.739 440.317 137.059V136.643L438.029 136.819C436.573 136.947 435.981 137.587 435.981 138.451C435.981 139.395 436.685 139.875 437.741 139.875ZM444.773 140.579H443.669V128.915H444.773V136.835L448.613 132.835H450.005L447.029 135.923L450.021 140.579H448.741L446.277 136.707L444.773 138.259V140.579ZM454.322 140.771C452.05 140.771 450.53 139.139 450.53 136.707C450.53 134.291 452.034 132.627 454.242 132.627C456.338 132.627 457.762 134.115 457.762 136.307V136.851H451.602C451.682 138.739 452.674 139.827 454.338 139.827C455.602 139.827 456.418 139.283 456.706 138.259H457.762C457.346 139.891 456.146 140.771 454.322 140.771ZM454.242 133.571C452.786 133.571 451.826 134.531 451.634 136.051H456.658C456.658 134.563 455.698 133.571 454.242 133.571ZM465.741 140.579H464.653V133.763H463.101V132.835H464.653V130.387H465.741V132.835H467.293V133.763H465.741V140.579ZM469.834 140.563H468.73V128.915H469.834V134.179C470.33 133.251 471.274 132.627 472.57 132.627C474.602 132.627 475.514 133.891 475.514 135.843V140.579H474.41V136.083C474.41 134.275 473.562 133.635 472.362 133.635C470.698 133.635 469.834 134.867 469.834 136.355V140.563ZM478.259 130.707C477.811 130.707 477.443 130.339 477.443 129.891C477.443 129.443 477.811 129.059 478.259 129.059C478.707 129.059 479.091 129.443 479.091 129.891C479.091 130.339 478.707 130.707 478.259 130.707ZM477.715 140.579V132.835H478.819V140.579H477.715ZM480.465 138.403H481.521C481.521 139.299 482.193 139.859 483.281 139.859C484.481 139.859 485.185 139.347 485.185 138.515C485.185 137.875 484.865 137.507 483.953 137.283L482.625 136.947C481.281 136.611 480.625 135.907 480.625 134.851C480.625 133.491 481.761 132.627 483.425 132.627C485.057 132.627 486.113 133.523 486.161 134.963H485.089C485.057 134.067 484.433 133.539 483.393 133.539C482.305 133.539 481.697 134.003 481.697 134.835C481.697 135.427 482.113 135.843 482.961 136.051L484.289 136.387C485.633 136.723 486.241 137.347 486.241 138.467C486.241 139.859 485.057 140.771 483.297 140.771C481.553 140.771 480.465 139.843 480.465 138.403ZM491.84 138.403H492.896C492.896 139.299 493.568 139.859 494.656 139.859C495.856 139.859 496.56 139.347 496.56 138.515C496.56 137.875 496.24 137.507 495.328 137.283L494 136.947C492.656 136.611 492 135.907 492 134.851C492 133.491 493.136 132.627 494.8 132.627C496.432 132.627 497.488 133.523 497.536 134.963H496.464C496.432 134.067 495.808 133.539 494.768 133.539C493.68 133.539 493.072 134.003 493.072 134.835C493.072 135.427 493.488 135.843 494.336 136.051L495.664 136.387C497.008 136.723 497.616 137.347 497.616 138.467C497.616 139.859 496.432 140.771 494.672 140.771C492.928 140.771 491.84 139.843 491.84 138.403ZM500.537 140.563H499.433V128.915H500.537V134.179C501.033 133.251 501.977 132.627 503.273 132.627C505.305 132.627 506.217 133.891 506.217 135.843V140.579H505.113V136.083C505.113 134.275 504.265 133.635 503.065 133.635C501.401 133.635 500.537 134.867 500.537 136.355V140.563ZM508.962 130.707C508.514 130.707 508.146 130.339 508.146 129.891C508.146 129.443 508.514 129.059 508.962 129.059C509.41 129.059 509.794 129.443 509.794 129.891C509.794 130.339 509.41 130.707 508.962 130.707ZM508.418 140.579V132.835H509.522V140.579H508.418ZM515.872 132.739V133.731H515.264C513.84 133.731 512.928 134.691 512.928 136.163V140.579H511.824V132.835H512.864L512.944 134.035C513.248 133.203 514.064 132.659 515.152 132.659C515.392 132.659 515.6 132.675 515.872 132.739ZM519.428 140.579H518.34V133.763H516.788V132.835H518.34V130.387H519.428V132.835H520.98V133.763H519.428V140.579ZM529.079 140.771C527.431 140.771 526.455 139.843 526.455 138.483C526.455 137.059 527.543 136.163 529.351 136.019L531.911 135.811V135.555C531.911 134.035 530.999 133.555 529.863 133.555C528.519 133.555 527.719 134.163 527.719 135.203H526.711C526.711 133.635 527.991 132.627 529.895 132.627C531.687 132.627 532.999 133.523 532.999 135.571V140.579H532.071L531.927 139.219C531.447 140.195 530.391 140.771 529.079 140.771ZM529.335 139.875C530.967 139.875 531.911 138.739 531.911 137.059V136.643L529.623 136.819C528.167 136.947 527.575 137.587 527.575 138.451C527.575 139.395 528.279 139.875 529.335 139.875ZM32.608 158.723C32.608 156.291 34.096 154.627 36.352 154.627C38.144 154.627 39.456 155.667 39.76 157.267H38.656C38.368 156.195 37.44 155.603 36.368 155.603C34.8 155.603 33.696 156.803 33.696 158.707C33.696 160.547 34.72 161.779 36.288 161.779C37.44 161.779 38.368 161.139 38.672 160.147H39.792C39.424 161.731 38.048 162.771 36.288 162.771C34.096 162.771 32.608 161.155 32.608 158.723ZM40.9205 158.707C40.9205 156.339 42.5845 154.627 44.8565 154.627C47.1285 154.627 48.7925 156.339 48.7925 158.707C48.7925 161.059 47.1285 162.771 44.8565 162.771C42.5845 162.771 40.9205 161.059 40.9205 158.707ZM42.0405 158.691C42.0405 160.515 43.1925 161.779 44.8565 161.779C46.5045 161.779 47.6725 160.515 47.6725 158.691C47.6725 156.899 46.5045 155.619 44.8565 155.619C43.1925 155.619 42.0405 156.899 42.0405 158.691ZM51.6623 162.579H50.5583V154.835H51.5182L51.6783 156.179C52.1903 155.187 53.2143 154.627 54.3343 154.627C56.4623 154.627 57.3423 155.891 57.3423 157.843V162.579H56.2383V158.083C56.2383 156.275 55.4223 155.635 54.1423 155.635C52.5583 155.635 51.6623 156.787 51.6623 158.531V162.579ZM61.5464 162.579L58.3784 154.835H59.5624L61.5624 159.827C61.7704 160.387 61.9784 160.915 62.1224 161.427C62.2664 160.899 62.4744 160.387 62.6984 159.827L64.7304 154.835H65.8664L62.6504 162.579H61.5464ZM70.0719 162.771C67.7999 162.771 66.2799 161.139 66.2799 158.707C66.2799 156.291 67.7839 154.627 69.9919 154.627C72.0879 154.627 73.5119 156.115 73.5119 158.307V158.851H67.3519C67.4319 160.739 68.4239 161.827 70.0879 161.827C71.3519 161.827 72.1679 161.283 72.4559 160.259H73.5119C73.0959 161.891 71.8959 162.771 70.0719 162.771ZM69.9919 155.571C68.5359 155.571 67.5759 156.531 67.3839 158.051H72.4079C72.4079 156.563 71.4479 155.571 69.9919 155.571ZM79.325 154.739V155.731H78.717C77.293 155.731 76.381 156.691 76.381 158.163V162.579H75.277V154.835H76.317L76.397 156.035C76.701 155.203 77.517 154.659 78.605 154.659C78.845 154.659 79.053 154.675 79.325 154.739ZM80.1366 160.403H81.1926C81.1926 161.299 81.8646 161.859 82.9526 161.859C84.1526 161.859 84.8566 161.347 84.8566 160.515C84.8566 159.875 84.5366 159.507 83.6246 159.283L82.2966 158.947C80.9526 158.611 80.2966 157.907 80.2966 156.851C80.2966 155.491 81.4326 154.627 83.0966 154.627C84.7286 154.627 85.7846 155.523 85.8326 156.963H84.7606C84.7286 156.067 84.1046 155.539 83.0646 155.539C81.9766 155.539 81.3686 156.003 81.3686 156.835C81.3686 157.427 81.7846 157.843 82.6326 158.051L83.9606 158.387C85.3046 158.723 85.9126 159.347 85.9126 160.467C85.9126 161.859 84.7286 162.771 82.9686 162.771C81.2246 162.771 80.1366 161.843 80.1366 160.403ZM89.9541 162.771C88.3061 162.771 87.3301 161.843 87.3301 160.483C87.3301 159.059 88.4181 158.163 90.2261 158.019L92.7861 157.811V157.555C92.7861 156.035 91.8741 155.555 90.7381 155.555C89.3941 155.555 88.5941 156.163 88.5941 157.203H87.5861C87.5861 155.635 88.8661 154.627 90.7701 154.627C92.5621 154.627 93.8741 155.523 93.8741 157.571V162.579H92.9461L92.8021 161.219C92.3221 162.195 91.2661 162.771 89.9541 162.771ZM90.2101 161.875C91.8421 161.875 92.7861 160.739 92.7861 159.059V158.643L90.4981 158.819C89.0421 158.947 88.4501 159.587 88.4501 160.451C88.4501 161.395 89.1541 161.875 90.2101 161.875ZM97.7249 162.579H96.6369V155.763H95.0849V154.835H96.6369V152.387H97.7249V154.835H99.2769V155.763H97.7249V162.579ZM101.259 152.707C100.811 152.707 100.443 152.339 100.443 151.891C100.443 151.443 100.811 151.059 101.259 151.059C101.707 151.059 102.091 151.443 102.091 151.891C102.091 152.339 101.707 152.707 101.259 152.707ZM100.715 162.579V154.835H101.819V162.579H100.715ZM103.577 158.707C103.577 156.339 105.241 154.627 107.513 154.627C109.785 154.627 111.449 156.339 111.449 158.707C111.449 161.059 109.785 162.771 107.513 162.771C105.241 162.771 103.577 161.059 103.577 158.707ZM104.697 158.691C104.697 160.515 105.849 161.779 107.513 161.779C109.161 161.779 110.329 160.515 110.329 158.691C110.329 156.899 109.161 155.619 107.513 155.619C105.849 155.619 104.697 156.899 104.697 158.691ZM114.319 162.579H113.215V154.835H114.174L114.335 156.179C114.847 155.187 115.871 154.627 116.991 154.627C119.119 154.627 119.999 155.891 119.999 157.843V162.579H118.895V158.083C118.895 156.275 118.079 155.635 116.799 155.635C115.215 155.635 114.319 156.787 114.319 158.531V162.579ZM125.98 160.403H127.036C127.036 161.299 127.708 161.859 128.796 161.859C129.996 161.859 130.7 161.347 130.7 160.515C130.7 159.875 130.38 159.507 129.468 159.283L128.14 158.947C126.796 158.611 126.14 157.907 126.14 156.851C126.14 155.491 127.276 154.627 128.94 154.627C130.572 154.627 131.628 155.523 131.676 156.963H130.604C130.572 156.067 129.948 155.539 128.908 155.539C127.82 155.539 127.212 156.003 127.212 156.835C127.212 157.427 127.628 157.843 128.476 158.051L129.804 158.387C131.148 158.723 131.756 159.347 131.756 160.467C131.756 161.859 130.572 162.771 128.812 162.771C127.068 162.771 125.98 161.843 125.98 160.403ZM135.35 162.579H134.262V155.763H132.71V154.835H134.262V152.387H135.35V154.835H136.902V155.763H135.35V162.579ZM140.439 162.771C138.791 162.771 137.815 161.843 137.815 160.483C137.815 159.059 138.903 158.163 140.711 158.019L143.271 157.811V157.555C143.271 156.035 142.359 155.555 141.223 155.555C139.879 155.555 139.079 156.163 139.079 157.203H138.071C138.071 155.635 139.351 154.627 141.255 154.627C143.047 154.627 144.359 155.523 144.359 157.571V162.579H143.431L143.287 161.219C142.807 162.195 141.751 162.771 140.439 162.771ZM140.695 161.875C142.327 161.875 143.271 160.739 143.271 159.059V158.643L140.983 158.819C139.527 158.947 138.935 159.587 138.935 160.451C138.935 161.395 139.639 161.875 140.695 161.875ZM150.622 154.739V155.731H150.014C148.59 155.731 147.678 156.691 147.678 158.163V162.579H146.574V154.835H147.614L147.694 156.035C147.998 155.203 148.814 154.659 149.902 154.659C150.142 154.659 150.35 154.675 150.622 154.739ZM154.178 162.579H153.09V155.763H151.538V154.835H153.09V152.387H154.178V154.835H155.73V155.763H154.178V162.579ZM160.338 162.771C158.066 162.771 156.546 161.139 156.546 158.707C156.546 156.291 158.049 154.627 160.258 154.627C162.354 154.627 163.778 156.115 163.778 158.307V158.851H157.618C157.698 160.739 158.69 161.827 160.354 161.827C161.618 161.827 162.434 161.283 162.722 160.259H163.778C163.362 161.891 162.162 162.771 160.338 162.771ZM160.258 155.571C158.802 155.571 157.842 156.531 157.65 158.051H162.674C162.674 156.563 161.714 155.571 160.258 155.571ZM169.591 154.739V155.731H168.983C167.559 155.731 166.647 156.691 166.647 158.163V162.579H165.543V154.835H166.583L166.663 156.035C166.967 155.203 167.783 154.659 168.871 154.659C169.111 154.659 169.319 154.675 169.591 154.739ZM170.815 162.755C170.271 162.755 169.807 162.307 169.807 161.779C169.807 161.235 170.271 160.771 170.815 160.771C171.359 160.771 171.823 161.235 171.823 161.779C171.823 162.307 171.359 162.755 170.815 162.755ZM173.643 151.907L173.339 155.091H172.618L172.299 151.907C172.235 151.347 172.635 151.091 172.987 151.091C173.323 151.091 173.707 151.347 173.643 151.907ZM175.899 151.907L175.595 155.091H174.875L174.555 151.907C174.491 151.347 174.891 151.091 175.243 151.091C175.579 151.091 175.963 151.347 175.899 151.907Z" fill="black" fill-opacity="0.6"/>
<path d="M568.625 40C568.625 40.5192 568.471 41.0267 568.183 41.4584C567.894 41.8901 567.484 42.2265 567.005 42.4252C566.525 42.6239 565.997 42.6758 565.488 42.5746C564.979 42.4733 564.511 42.2233 564.144 41.8562C563.777 41.489 563.527 41.0213 563.425 40.5121C563.324 40.0029 563.376 39.4751 563.575 38.9955C563.773 38.5158 564.11 38.1058 564.542 37.8174C564.973 37.529 565.481 37.375 566 37.375C566.696 37.375 567.364 37.6516 567.856 38.1438C568.348 38.6361 568.625 39.3038 568.625 40ZM558.5 37.375C557.981 37.375 557.473 37.529 557.042 37.8174C556.61 38.1058 556.273 38.5158 556.075 38.9955C555.876 39.4751 555.824 40.0029 555.925 40.5121C556.027 41.0213 556.277 41.489 556.644 41.8562C557.011 42.2233 557.479 42.4733 557.988 42.5746C558.497 42.6758 559.025 42.6239 559.505 42.4252C559.984 42.2265 560.394 41.8901 560.683 41.4584C560.971 41.0267 561.125 40.5192 561.125 40C561.125 39.3038 560.848 38.6361 560.356 38.1438C559.864 37.6516 559.196 37.375 558.5 37.375ZM573.5 37.375C572.981 37.375 572.473 37.529 572.042 37.8174C571.61 38.1058 571.273 38.5158 571.075 38.9955C570.876 39.4751 570.824 40.0029 570.925 40.5121C571.027 41.0213 571.277 41.489 571.644 41.8562C572.011 42.2233 572.479 42.4733 572.988 42.5746C573.497 42.6758 574.025 42.6239 574.505 42.4252C574.984 42.2265 575.394 41.8901 575.683 41.4584C575.971 41.0267 576.125 40.5192 576.125 40C576.125 39.6553 576.057 39.3139 575.925 38.9955C575.793 38.677 575.6 38.3876 575.356 38.1438C575.112 37.9001 574.823 37.7067 574.505 37.5748C574.186 37.4429 573.845 37.375 573.5 37.375Z" fill="black" fill-opacity="0.4"/>
<path d="M37.84 204.451H34.912V208.579H33.344V197.011H37.84C40.112 197.011 41.568 198.499 41.568 200.723C41.568 202.883 40.096 204.451 37.84 204.451ZM37.568 198.419H34.912V203.043H37.504C39.056 203.043 39.92 202.131 39.92 200.707C39.92 199.251 39.04 198.419 37.568 198.419ZM42.2166 204.659C42.2166 202.243 43.9446 200.547 46.2966 200.547C48.6326 200.547 50.3606 202.243 50.3606 204.659C50.3606 207.075 48.6326 208.771 46.2966 208.771C43.9446 208.771 42.2166 207.075 42.2166 204.659ZM43.7366 204.659C43.7366 206.291 44.7766 207.427 46.2966 207.427C47.8006 207.427 48.8566 206.291 48.8566 204.659C48.8566 203.027 47.8006 201.891 46.2966 201.891C44.7766 201.891 43.7366 203.027 43.7366 204.659ZM51.3855 206.307H52.8255C52.8255 207.107 53.4335 207.587 54.4255 207.587C55.4815 207.587 56.0895 207.155 56.0895 206.435C56.0895 205.907 55.8335 205.587 55.0175 205.379L53.6415 205.059C52.2495 204.723 51.5935 204.035 51.5935 202.883C51.5935 201.443 52.8095 200.531 54.5375 200.531C56.2495 200.531 57.3695 201.491 57.4015 202.979H55.9615C55.9295 202.195 55.4015 201.699 54.4895 201.699C53.5455 201.699 53.0175 202.115 53.0175 202.835C53.0175 203.363 53.4015 203.715 54.1695 203.907L55.5455 204.243C56.8735 204.563 57.5295 205.171 57.5295 206.339C57.5295 207.827 56.2495 208.771 54.3935 208.771C52.5535 208.771 51.3855 207.795 51.3855 206.307ZM61.4054 208.579H59.9014V202.019H58.3654V200.755H59.9014V198.307H61.4054V200.755H62.9414V202.019H61.4054V208.579ZM67.589 208.771C65.285 208.771 63.701 207.107 63.701 204.675C63.701 202.227 65.253 200.531 67.525 200.531C69.749 200.531 71.205 202.067 71.205 204.387V204.947L65.157 204.963C65.269 206.611 66.133 207.523 67.621 207.523C68.789 207.523 69.557 207.043 69.813 206.147H71.221C70.837 207.827 69.525 208.771 67.589 208.771ZM67.525 201.795C66.213 201.795 65.381 202.579 65.189 203.955H69.701C69.701 202.659 68.853 201.795 67.525 201.795ZM76.0209 208.771C73.7489 208.771 72.3729 207.075 72.3729 204.691C72.3729 202.291 73.7649 200.531 76.0849 200.531C77.2849 200.531 78.2929 201.059 78.8209 202.019V196.803H80.3089V208.579H78.9649L78.8369 207.155C78.3249 208.227 77.2689 208.771 76.0209 208.771ZM76.3249 207.411C77.8609 207.411 78.8049 206.275 78.8049 204.643C78.8049 203.043 77.8609 201.891 76.3249 201.891C74.7889 201.891 73.8929 203.043 73.8929 204.643C73.8929 206.259 74.7889 207.411 76.3249 207.411ZM86.3416 204.659C86.3416 202.243 88.0696 200.547 90.4216 200.547C92.7576 200.547 94.4856 202.243 94.4856 204.659C94.4856 207.075 92.7576 208.771 90.4216 208.771C88.0696 208.771 86.3416 207.075 86.3416 204.659ZM87.8616 204.659C87.8616 206.291 88.9016 207.427 90.4216 207.427C91.9256 207.427 92.9816 206.291 92.9816 204.659C92.9816 203.027 91.9256 201.891 90.4216 201.891C88.9016 201.891 87.8616 203.027 87.8616 204.659ZM97.6545 208.579H96.1505V200.755H97.5105L97.6705 201.955C98.1665 201.059 99.1585 200.531 100.263 200.531C102.327 200.531 103.271 201.795 103.271 203.795V208.579H101.767V204.131C101.767 202.547 101.031 201.907 99.8785 201.907C98.4705 201.907 97.6545 202.915 97.6545 204.435V208.579ZM110.465 208.579H108.833L113.057 197.011H114.801L119.041 208.579H117.393L116.353 205.699H111.489L110.465 208.579ZM113.729 199.507L111.969 204.339H115.889L114.113 199.507C114.033 199.283 113.953 199.011 113.921 198.835C113.889 198.995 113.809 199.267 113.729 199.507ZM125.512 200.755H127V208.579H125.656L125.496 207.395C125.048 208.211 124.008 208.771 122.856 208.771C121.032 208.771 120.008 207.539 120.008 205.619V200.755H121.512V205.123C121.512 206.803 122.232 207.443 123.384 207.443C124.76 207.443 125.512 206.563 125.512 204.883V200.755ZM128.686 204.467C128.686 202.259 130.11 200.531 132.382 200.531C133.646 200.531 134.622 201.107 135.118 202.083L135.23 200.755H136.574V208.259C136.574 210.723 135.054 212.291 132.654 212.291C130.526 212.291 129.07 211.091 128.782 209.107H130.286C130.478 210.259 131.342 210.931 132.654 210.931C134.126 210.931 135.086 209.971 135.086 208.483V206.915C134.574 207.827 133.55 208.371 132.318 208.371C130.094 208.371 128.686 206.659 128.686 204.467ZM130.19 204.435C130.19 205.907 131.102 207.059 132.574 207.059C134.094 207.059 135.022 205.971 135.022 204.435C135.022 202.931 134.126 201.843 132.59 201.843C131.086 201.843 130.19 202.995 130.19 204.435ZM144.152 200.755H145.64V208.579H144.296L144.136 207.395C143.688 208.211 142.648 208.771 141.496 208.771C139.672 208.771 138.648 207.539 138.648 205.619V200.755H140.152V205.123C140.152 206.803 140.872 207.443 142.024 207.443C143.4 207.443 144.152 206.563 144.152 204.883V200.755ZM147.026 206.307H148.466C148.466 207.107 149.074 207.587 150.066 207.587C151.122 207.587 151.73 207.155 151.73 206.435C151.73 205.907 151.474 205.587 150.658 205.379L149.282 205.059C147.89 204.723 147.234 204.035 147.234 202.883C147.234 201.443 148.45 200.531 150.178 200.531C151.89 200.531 153.01 201.491 153.042 202.979H151.602C151.57 202.195 151.042 201.699 150.13 201.699C149.186 201.699 148.658 202.115 148.658 202.835C148.658 203.363 149.042 203.715 149.81 203.907L151.186 204.243C152.514 204.563 153.17 205.171 153.17 206.339C153.17 207.827 151.89 208.771 150.034 208.771C148.194 208.771 147.026 207.795 147.026 206.307ZM157.046 208.579H155.542V202.019H154.006V200.755H155.542V198.307H157.046V200.755H158.582V202.019H157.046V208.579ZM166.211 198.419H163.779V197.011H167.715V208.579H166.211V198.419ZM176.567 204.915L173.863 208.579H172.039L174.935 204.739C174.535 204.899 174.119 204.979 173.719 204.979C171.319 204.979 169.703 203.251 169.703 200.947C169.703 198.547 171.527 196.803 173.911 196.803C176.311 196.803 178.167 198.611 178.167 200.963C178.167 202.323 177.751 203.299 176.567 204.915ZM176.567 200.947C176.567 199.363 175.479 198.211 173.911 198.211C172.375 198.211 171.287 199.363 171.287 200.947C171.287 202.531 172.375 203.651 173.911 203.651C175.479 203.651 176.567 202.531 176.567 200.947ZM181.516 207.955C181.516 209.107 180.652 210.067 179.516 210.211V209.539C180.172 209.427 180.636 208.995 180.636 208.499C180.524 208.563 180.396 208.595 180.204 208.595C179.676 208.595 179.228 208.211 179.228 207.619C179.228 206.979 179.66 206.515 180.3 206.515C180.972 206.515 181.516 207.075 181.516 207.955ZM195.513 208.563L187.705 208.579V207.379L191.433 204.163C193.305 202.547 193.833 201.763 193.833 200.531C193.833 199.075 193.001 198.211 191.609 198.211C190.185 198.211 189.257 199.251 189.225 200.899H187.657C187.705 198.419 189.273 196.803 191.625 196.803C193.945 196.803 195.433 198.211 195.433 200.435C195.433 202.083 194.617 203.251 192.569 205.027L190.169 207.107H195.513V208.563ZM196.956 202.803C196.956 199.219 198.812 196.787 201.724 196.787C204.62 196.787 206.476 199.219 206.476 202.803C206.476 206.403 204.7 208.787 201.724 208.787C198.732 208.787 196.956 206.403 196.956 202.803ZM198.508 202.803C198.508 205.651 199.692 207.379 201.724 207.379C203.756 207.379 204.924 205.651 204.924 202.803C204.924 199.923 203.756 198.195 201.724 198.195C199.692 198.195 198.508 199.923 198.508 202.803ZM215.81 208.563L208.002 208.579V207.379L211.73 204.163C213.602 202.547 214.13 201.763 214.13 200.531C214.13 199.075 213.298 198.211 211.906 198.211C210.482 198.211 209.554 199.251 209.522 200.899H207.954C208.002 198.419 209.57 196.803 211.922 196.803C214.242 196.803 215.73 198.211 215.73 200.435C215.73 202.083 214.914 203.251 212.866 205.027L210.466 207.107H215.81V208.563ZM220.627 202.595H219.475V201.555L222.755 198.403H217.555V197.011H224.739V198.275L221.571 201.299C223.539 201.539 225.027 202.867 225.027 204.947C225.027 207.283 223.267 208.771 220.915 208.771C218.643 208.771 217.011 207.379 217.011 204.979H218.563C218.563 206.483 219.491 207.363 220.947 207.363C222.451 207.363 223.427 206.403 223.427 204.915C223.427 203.523 222.467 202.595 220.627 202.595Z" fill="black" fill-opacity="0.6"/>
</svg>
