<svg width="610" height="242" viewBox="0 0 610 242" fill="none" xmlns="http://www.w3.org/2000/svg">
<rect x="0.5" y="0.5" width="609" height="240.579" rx="19.5" stroke="black" stroke-opacity="0.1"/>
<path d="M43.2895 28L46.4879 34.8872L54.0264 35.8008L48.4647 40.971L49.9253 48.4229L43.2895 44.731L36.6537 48.4229L38.1143 40.971L32.5525 35.8008L40.091 34.8872L43.2895 28Z" fill="#FFC633"/>
<path d="M72.3552 28L75.5536 34.8872L83.0921 35.8008L77.5304 40.971L78.991 48.4229L72.3552 44.731L65.7194 48.4229L67.18 40.971L61.6182 35.8008L69.1567 34.8872L72.3552 28Z" fill="#FFC633"/>
<path d="M101.421 28L104.62 34.8872L112.158 35.8008L106.596 40.971L108.057 48.4229L101.421 44.731L94.7853 48.4229L96.2459 40.971L90.6841 35.8008L98.2226 34.8872L101.421 28Z" fill="#FFC633"/>
<path d="M130.487 28L133.685 34.8872L141.224 35.8008L135.662 40.971L137.123 48.4229L130.487 44.731L123.851 48.4229L125.312 40.971L119.75 35.8008L127.288 34.8872L130.487 28Z" fill="#FFC633"/>
<path d="M34.88 85.079H32.22L37.5 70.459H40.12L45.4 85.079H42.7L41.52 81.699H36.06L34.88 85.079ZM38.48 74.819L36.82 79.539H40.78L39.1 74.819C38.98 74.439 38.84 73.999 38.8 73.699C38.74 73.979 38.62 74.419 38.48 74.819ZM49.3333 85.079H46.9133V70.199H49.3333V85.079ZM56.3128 85.339C53.3728 85.339 51.3128 83.199 51.3128 80.139C51.3128 77.039 53.3328 74.899 56.2328 74.899C59.1928 74.899 61.0728 76.879 61.0728 79.959V80.699L53.6328 80.719C53.8128 82.459 54.7328 83.339 56.3528 83.339C57.6928 83.339 58.5728 82.819 58.8528 81.879H61.1128C60.6928 84.039 58.8928 85.339 56.3128 85.339ZM56.2528 76.899C54.8128 76.899 53.9328 77.679 53.6928 79.159H58.6528C58.6528 77.799 57.7128 76.899 56.2528 76.899ZM64.2964 85.079H61.5164L64.9164 80.239L61.5164 75.199H64.3564L66.5364 78.559L68.6364 75.199H71.3764L68.0164 80.199L71.2764 85.079H68.4764L66.3764 81.819L64.2964 85.079ZM81.0609 85.079H78.5809V70.459H81.0609L85.7809 82.099L90.5009 70.459H93.0209V85.079H90.5409V80.579C90.5409 77.639 90.5409 76.779 90.6809 75.739L86.9609 85.079H84.6009L80.9009 75.759C81.0409 76.639 81.0609 78.019 81.0609 79.839V85.079ZM97.5367 85.319C96.6567 85.319 95.9167 84.599 95.9167 83.739C95.9167 82.859 96.6567 82.139 97.5367 82.139C98.4167 82.139 99.1567 82.859 99.1567 83.739C99.1567 84.599 98.4167 85.319 97.5367 85.319Z" fill="black"/>
<path d="M117 67.829C115.072 67.829 113.187 68.4008 111.583 69.4722C109.98 70.5435 108.73 72.0662 107.992 73.8478C107.254 75.6294 107.061 77.5898 107.437 79.4811C107.814 81.3724 108.742 83.1097 110.106 84.4733C111.469 85.8368 113.207 86.7654 115.098 87.1416C116.989 87.5178 118.95 87.3248 120.731 86.5868C122.513 85.8489 124.035 84.5992 125.107 82.9958C126.178 81.3924 126.75 79.5073 126.75 77.579C126.747 74.994 125.719 72.5156 123.891 70.6877C122.063 68.8598 119.585 67.8317 117 67.829ZM121.281 75.8596L116.031 81.1096C115.961 81.1793 115.878 81.2347 115.787 81.2724C115.696 81.3101 115.599 81.3296 115.5 81.3296C115.401 81.3296 115.304 81.3101 115.213 81.2724C115.122 81.2347 115.039 81.1793 114.969 81.1096L112.719 78.8596C112.579 78.7189 112.5 78.528 112.5 78.329C112.5 78.13 112.579 77.9391 112.719 77.7984C112.86 77.6576 113.051 77.5786 113.25 77.5786C113.449 77.5786 113.64 77.6576 113.781 77.7984L115.5 79.5187L120.219 74.7984C120.289 74.7287 120.372 74.6734 120.463 74.6357C120.554 74.598 120.651 74.5786 120.75 74.5786C120.849 74.5786 120.946 74.598 121.037 74.6357C121.128 74.6734 121.211 74.7287 121.281 74.7984C121.35 74.868 121.406 74.9508 121.443 75.0418C121.481 75.1329 121.5 75.2304 121.5 75.329C121.5 75.4275 121.481 75.5251 121.443 75.6162C121.406 75.7072 121.35 75.7899 121.281 75.8596Z" fill="#01AB31"/>
<path d="M34.08 107.907L33.776 111.091H33.056L32.736 107.907C32.672 107.347 33.072 107.091 33.424 107.091C33.76 107.091 34.144 107.347 34.08 107.907ZM36.336 107.907L36.032 111.091H35.312L34.992 107.907C34.928 107.347 35.328 107.091 35.68 107.091C36.016 107.091 36.4 107.347 36.336 107.907ZM37.5826 108.179V107.123H45.7906V108.179H42.2546V118.579H41.1026V108.179H37.5826ZM48.2404 118.563H47.1364V106.915H48.2404V112.179C48.7364 111.251 49.6804 110.627 50.9764 110.627C53.0084 110.627 53.9204 111.891 53.9204 113.843V118.579H52.8164V114.083C52.8164 112.275 51.9684 111.635 50.7684 111.635C49.1044 111.635 48.2404 112.867 48.2404 114.355V118.563ZM59.3688 118.771C57.0968 118.771 55.5768 117.139 55.5768 114.707C55.5768 112.291 57.0807 110.627 59.2888 110.627C61.3848 110.627 62.8088 112.115 62.8088 114.307V114.851H56.6488C56.7288 116.739 57.7208 117.827 59.3848 117.827C60.6488 117.827 61.4648 117.283 61.7528 116.259H62.8088C62.3928 117.891 61.1928 118.771 59.3688 118.771ZM59.2888 111.571C57.8328 111.571 56.8728 112.531 56.6808 114.051H61.7048C61.7048 112.563 60.7448 111.571 59.2888 111.571ZM70.7874 118.579H69.6994V111.763H68.1474V110.835H69.6994V108.387H70.7874V110.835H72.3394V111.763H70.7874V118.579ZM73.3365 114.867V113.875H77.9765V114.867H73.3365ZM79.4648 116.403H80.5208C80.5208 117.299 81.1928 117.859 82.2808 117.859C83.4808 117.859 84.1848 117.347 84.1848 116.515C84.1848 115.875 83.8648 115.507 82.9528 115.283L81.6248 114.947C80.2808 114.611 79.6248 113.907 79.6248 112.851C79.6248 111.491 80.7608 110.627 82.4248 110.627C84.0568 110.627 85.1128 111.523 85.1608 112.963H84.0888C84.0568 112.067 83.4328 111.539 82.3928 111.539C81.3048 111.539 80.6968 112.003 80.6968 112.835C80.6968 113.427 81.1128 113.843 81.9608 114.051L83.2888 114.387C84.6328 114.723 85.2408 115.347 85.2408 116.467C85.2408 117.859 84.0568 118.771 82.2968 118.771C80.5528 118.771 79.4648 117.843 79.4648 116.403ZM88.1623 118.563H87.0583V106.915H88.1623V112.179C88.6583 111.251 89.6023 110.627 90.8983 110.627C92.9303 110.627 93.8423 111.891 93.8423 113.843V118.579H92.7383V114.083C92.7383 112.275 91.8903 111.635 90.6903 111.635C89.0263 111.635 88.1623 112.867 88.1623 114.355V118.563ZM96.5866 108.707C96.1386 108.707 95.7706 108.339 95.7706 107.891C95.7706 107.443 96.1386 107.059 96.5866 107.059C97.0346 107.059 97.4186 107.443 97.4186 107.891C97.4186 108.339 97.0346 108.707 96.5866 108.707ZM96.0426 118.579V110.835H97.1466V118.579H96.0426ZM103.497 110.739V111.731H102.889C101.465 111.731 100.553 112.691 100.553 114.163V118.579H99.4489V110.835H100.489L100.569 112.035C100.873 111.203 101.689 110.659 102.777 110.659C103.017 110.659 103.225 110.675 103.497 110.739ZM107.053 118.579H105.965V111.763H104.413V110.835H105.965V108.387H107.053V110.835H108.605V111.763H107.053V118.579ZM117.728 118.771C115.456 118.771 113.936 117.139 113.936 114.707C113.936 112.291 115.44 110.627 117.648 110.627C119.744 110.627 121.168 112.115 121.168 114.307V114.851H115.008C115.088 116.739 116.08 117.827 117.744 117.827C119.008 117.827 119.824 117.283 120.112 116.259H121.168C120.752 117.891 119.552 118.771 117.728 118.771ZM117.648 111.571C116.192 111.571 115.232 112.531 115.04 114.051H120.064C120.064 112.563 119.104 111.571 117.648 111.571ZM122.972 118.579H121.676L124.444 114.707L121.692 110.835H122.988L125.18 113.939L127.356 110.835H128.636L125.884 114.723L128.62 118.579H127.308L125.132 115.475L122.972 118.579ZM129.139 114.723C129.139 112.291 130.627 110.627 132.883 110.627C134.675 110.627 135.987 111.667 136.291 113.267H135.187C134.899 112.195 133.971 111.603 132.899 111.603C131.331 111.603 130.227 112.803 130.227 114.707C130.227 116.547 131.251 117.779 132.819 117.779C133.971 117.779 134.899 117.139 135.203 116.147H136.323C135.955 117.731 134.579 118.771 132.819 118.771C130.627 118.771 129.139 117.155 129.139 114.723ZM141.244 118.771C138.972 118.771 137.452 117.139 137.452 114.707C137.452 112.291 138.956 110.627 141.164 110.627C143.26 110.627 144.684 112.115 144.684 114.307V114.851H138.524C138.604 116.739 139.596 117.827 141.26 117.827C142.524 117.827 143.34 117.283 143.628 116.259H144.684C144.268 117.891 143.068 118.771 141.244 118.771ZM141.164 111.571C139.708 111.571 138.748 112.531 138.556 114.051H143.58C143.58 112.563 142.62 111.571 141.164 111.571ZM149.697 118.771C147.425 118.771 145.905 117.139 145.905 114.707C145.905 112.291 147.409 110.627 149.617 110.627C151.713 110.627 153.137 112.115 153.137 114.307V114.851H146.977C147.057 116.739 148.049 117.827 149.713 117.827C150.977 117.827 151.793 117.283 152.081 116.259H153.137C152.721 117.891 151.521 118.771 149.697 118.771ZM149.617 111.571C148.161 111.571 147.201 112.531 147.009 114.051H152.033C152.033 112.563 151.073 111.571 149.617 111.571ZM157.942 118.771C155.686 118.771 154.358 117.043 154.358 114.723C154.358 112.387 155.686 110.627 157.99 110.627C159.27 110.627 160.294 111.187 160.838 112.307V106.915H161.942V118.579H160.982L160.87 116.995C160.326 118.195 159.238 118.771 157.942 118.771ZM158.134 117.763C159.83 117.763 160.822 116.483 160.822 114.691C160.822 112.915 159.83 111.619 158.134 111.619C156.454 111.619 155.478 112.915 155.478 114.691C155.478 116.483 156.454 117.763 158.134 117.763ZM167.494 118.771C165.222 118.771 163.702 117.139 163.702 114.707C163.702 112.291 165.206 110.627 167.414 110.627C169.51 110.627 170.934 112.115 170.934 114.307V114.851H164.774C164.854 116.739 165.846 117.827 167.51 117.827C168.774 117.827 169.59 117.283 169.878 116.259H170.934C170.518 117.891 169.318 118.771 167.494 118.771ZM167.414 111.571C165.958 111.571 164.998 112.531 164.806 114.051H169.83C169.83 112.563 168.87 111.571 167.414 111.571ZM175.739 118.771C173.483 118.771 172.155 117.043 172.155 114.723C172.155 112.387 173.483 110.627 175.787 110.627C177.067 110.627 178.091 111.187 178.635 112.307V106.915H179.739V118.579H178.779L178.667 116.995C178.123 118.195 177.035 118.771 175.739 118.771ZM175.931 117.763C177.627 117.763 178.619 116.483 178.619 114.691C178.619 112.915 177.627 111.619 175.931 111.619C174.251 111.619 173.275 112.915 173.275 114.691C173.275 116.483 174.251 117.763 175.931 117.763ZM187.584 118.579H186.48V110.835H187.44L187.568 111.939C187.952 111.123 188.816 110.627 189.904 110.627C191.12 110.627 192.032 111.267 192.4 112.275C192.752 111.267 193.696 110.627 194.944 110.627C196.624 110.627 197.728 111.715 197.728 113.507V118.579H196.656V113.731C196.656 112.403 195.92 111.619 194.736 111.619C193.44 111.619 192.672 112.595 192.672 113.795V118.579H191.584V113.715C191.584 112.403 190.832 111.635 189.664 111.635C188.368 111.635 187.584 112.595 187.584 113.779V118.579ZM199.009 121.955V121.043H199.857C200.529 121.043 201.201 120.995 201.585 119.955L201.921 119.043L198.785 110.835H199.953L202.449 117.587L204.897 110.835H206.033L202.481 120.355C202.033 121.571 201.281 122.067 200.177 122.067C199.713 122.067 199.361 122.035 199.009 121.955ZM215.009 118.771C212.737 118.771 211.217 117.139 211.217 114.707C211.217 112.291 212.721 110.627 214.929 110.627C217.025 110.627 218.449 112.115 218.449 114.307V114.851H212.289C212.369 116.739 213.361 117.827 215.025 117.827C216.289 117.827 217.105 117.283 217.393 116.259H218.449C218.033 117.891 216.833 118.771 215.009 118.771ZM214.929 111.571C213.473 111.571 212.513 112.531 212.321 114.051H217.345C217.345 112.563 216.385 111.571 214.929 111.571ZM220.253 118.579H218.957L221.725 114.707L218.973 110.835H220.269L222.461 113.939L224.637 110.835H225.917L223.165 114.723L225.901 118.579H224.589L222.413 115.475L220.253 118.579ZM227.23 121.955V110.835H228.19L228.302 112.403C228.846 111.203 229.934 110.627 231.23 110.627C233.47 110.627 234.814 112.339 234.814 114.675C234.814 117.011 233.518 118.771 231.23 118.771C229.918 118.771 228.878 118.211 228.334 117.091V121.955H227.23ZM228.35 114.707C228.35 116.483 229.342 117.779 231.038 117.779C232.718 117.779 233.694 116.483 233.694 114.707C233.694 112.915 232.718 111.635 231.038 111.635C229.342 111.635 228.35 112.915 228.35 114.707ZM239.822 118.771C237.55 118.771 236.03 117.139 236.03 114.707C236.03 112.291 237.534 110.627 239.742 110.627C241.838 110.627 243.262 112.115 243.262 114.307V114.851H237.102C237.182 116.739 238.174 117.827 239.838 117.827C241.102 117.827 241.918 117.283 242.206 116.259H243.262C242.846 117.891 241.646 118.771 239.822 118.771ZM239.742 111.571C238.286 111.571 237.326 112.531 237.134 114.051H242.158C242.158 112.563 241.198 111.571 239.742 111.571ZM244.483 114.723C244.483 112.291 245.971 110.627 248.227 110.627C250.019 110.627 251.331 111.667 251.635 113.267H250.531C250.243 112.195 249.315 111.603 248.243 111.603C246.675 111.603 245.571 112.803 245.571 114.707C245.571 116.547 246.595 117.779 248.163 117.779C249.315 117.779 250.243 117.139 250.547 116.147H251.667C251.299 117.731 249.923 118.771 248.163 118.771C245.971 118.771 244.483 117.155 244.483 114.723ZM255.116 118.579H254.028V111.763H252.476V110.835H254.028V108.387H255.116V110.835H256.668V111.763H255.116V118.579ZM260.204 118.771C258.556 118.771 257.58 117.843 257.58 116.483C257.58 115.059 258.668 114.163 260.476 114.019L263.036 113.811V113.555C263.036 112.035 262.124 111.555 260.988 111.555C259.644 111.555 258.844 112.163 258.844 113.203H257.836C257.836 111.635 259.116 110.627 261.02 110.627C262.812 110.627 264.124 111.523 264.124 113.571V118.579H263.196L263.052 117.219C262.572 118.195 261.516 118.771 260.204 118.771ZM260.46 117.875C262.092 117.875 263.036 116.739 263.036 115.059V114.643L260.748 114.819C259.292 114.947 258.7 115.587 258.7 116.451C258.7 117.395 259.404 117.875 260.46 117.875ZM267.975 118.579H266.887V111.763H265.335V110.835H266.887V108.387H267.975V110.835H269.527V111.763H267.975V118.579ZM271.509 108.707C271.061 108.707 270.693 108.339 270.693 107.891C270.693 107.443 271.061 107.059 271.509 107.059C271.957 107.059 272.341 107.443 272.341 107.891C272.341 108.339 271.957 108.707 271.509 108.707ZM270.965 118.579V110.835H272.069V118.579H270.965ZM273.827 114.707C273.827 112.339 275.491 110.627 277.763 110.627C280.035 110.627 281.699 112.339 281.699 114.707C281.699 117.059 280.035 118.771 277.763 118.771C275.491 118.771 273.827 117.059 273.827 114.707ZM274.947 114.691C274.947 116.515 276.099 117.779 277.763 117.779C279.411 117.779 280.579 116.515 280.579 114.691C280.579 112.899 279.411 111.619 277.763 111.619C276.099 111.619 274.947 112.899 274.947 114.691ZM284.569 118.579H283.465V110.835H284.424L284.585 112.179C285.097 111.187 286.121 110.627 287.241 110.627C289.369 110.627 290.249 111.891 290.249 113.843V118.579H289.145V114.083C289.145 112.275 288.329 111.635 287.049 111.635C285.465 111.635 284.569 112.787 284.569 114.531V118.579ZM291.699 116.403H292.755C292.755 117.299 293.427 117.859 294.515 117.859C295.715 117.859 296.419 117.347 296.419 116.515C296.419 115.875 296.099 115.507 295.187 115.283L293.859 114.947C292.515 114.611 291.859 113.907 291.859 112.851C291.859 111.491 292.995 110.627 294.659 110.627C296.291 110.627 297.347 111.523 297.395 112.963H296.323C296.291 112.067 295.667 111.539 294.627 111.539C293.539 111.539 292.931 112.003 292.931 112.835C292.931 113.427 293.347 113.843 294.195 114.051L295.523 114.387C296.867 114.723 297.475 115.347 297.475 116.467C297.475 117.859 296.291 118.771 294.531 118.771C292.787 118.771 291.699 117.843 291.699 116.403ZM300.701 115.139H299.901C299.773 114.003 299.709 111.891 299.709 109.827V107.123H300.909V109.827C300.909 111.907 300.829 114.003 300.701 115.139ZM300.317 118.803C299.757 118.803 299.309 118.339 299.309 117.795C299.309 117.251 299.757 116.803 300.317 116.803C300.845 116.803 301.309 117.251 301.309 117.795C301.309 118.339 300.845 118.803 300.317 118.803ZM307.114 108.179V107.123H315.322V108.179H311.786V118.579H310.634V108.179H307.114ZM317.772 118.563H316.668V106.915H317.772V112.179C318.268 111.251 319.212 110.627 320.508 110.627C322.54 110.627 323.452 111.891 323.452 113.843V118.579H322.348V114.083C322.348 112.275 321.5 111.635 320.3 111.635C318.636 111.635 317.772 112.867 317.772 114.355V118.563ZM328.9 118.771C326.628 118.771 325.108 117.139 325.108 114.707C325.108 112.291 326.612 110.627 328.82 110.627C330.916 110.627 332.34 112.115 332.34 114.307V114.851H326.18C326.26 116.739 327.252 117.827 328.916 117.827C330.18 117.827 330.996 117.283 331.284 116.259H332.34C331.924 117.891 330.724 118.771 328.9 118.771ZM328.82 111.571C327.364 111.571 326.404 112.531 326.212 114.051H331.236C331.236 112.563 330.276 111.571 328.82 111.571ZM337.999 114.723C337.999 112.291 339.487 110.627 341.743 110.627C343.535 110.627 344.847 111.667 345.151 113.267H344.047C343.759 112.195 342.831 111.603 341.759 111.603C340.191 111.603 339.087 112.803 339.087 114.707C339.087 116.547 340.111 117.779 341.679 117.779C342.831 117.779 343.759 117.139 344.063 116.147H345.183C344.815 117.731 343.439 118.771 341.679 118.771C339.487 118.771 337.999 117.155 337.999 114.723ZM346.311 114.707C346.311 112.339 347.975 110.627 350.247 110.627C352.519 110.627 354.183 112.339 354.183 114.707C354.183 117.059 352.519 118.771 350.247 118.771C347.975 118.771 346.311 117.059 346.311 114.707ZM347.431 114.691C347.431 116.515 348.583 117.779 350.247 117.779C351.895 117.779 353.063 116.515 353.063 114.691C353.063 112.899 351.895 111.619 350.247 111.619C348.583 111.619 347.431 112.899 347.431 114.691ZM357.101 118.579H355.997V106.915H357.101V118.579ZM358.905 114.707C358.905 112.339 360.569 110.627 362.841 110.627C365.113 110.627 366.777 112.339 366.777 114.707C366.777 117.059 365.113 118.771 362.841 118.771C360.569 118.771 358.905 117.059 358.905 114.707ZM360.025 114.691C360.025 116.515 361.177 117.779 362.841 117.779C364.489 117.779 365.657 116.515 365.657 114.691C365.657 112.899 364.489 111.619 362.841 111.619C361.177 111.619 360.025 112.899 360.025 114.691ZM372.591 110.739V111.731H371.983C370.559 111.731 369.647 112.691 369.647 114.163V118.579H368.543V110.835H369.583L369.663 112.035C369.967 111.203 370.783 110.659 371.871 110.659C372.111 110.659 372.319 110.675 372.591 110.739ZM373.402 116.403H374.458C374.458 117.299 375.13 117.859 376.218 117.859C377.418 117.859 378.122 117.347 378.122 116.515C378.122 115.875 377.802 115.507 376.89 115.283L375.562 114.947C374.218 114.611 373.562 113.907 373.562 112.851C373.562 111.491 374.698 110.627 376.362 110.627C377.994 110.627 379.05 111.523 379.098 112.963H378.026C377.994 112.067 377.37 111.539 376.33 111.539C375.242 111.539 374.634 112.003 374.634 112.835C374.634 113.427 375.05 113.843 375.898 114.051L377.226 114.387C378.57 114.723 379.178 115.347 379.178 116.467C379.178 117.859 377.994 118.771 376.234 118.771C374.49 118.771 373.402 117.843 373.402 116.403ZM387.657 118.771C386.009 118.771 385.033 117.843 385.033 116.483C385.033 115.059 386.121 114.163 387.929 114.019L390.489 113.811V113.555C390.489 112.035 389.577 111.555 388.441 111.555C387.097 111.555 386.297 112.163 386.297 113.203H385.289C385.289 111.635 386.569 110.627 388.473 110.627C390.265 110.627 391.577 111.523 391.577 113.571V118.579H390.649L390.505 117.219C390.025 118.195 388.969 118.771 387.657 118.771ZM387.913 117.875C389.545 117.875 390.489 116.739 390.489 115.059V114.643L388.201 114.819C386.745 114.947 386.153 115.587 386.153 116.451C386.153 117.395 386.857 117.875 387.913 117.875ZM397.841 110.739V111.731H397.233C395.809 111.731 394.897 112.691 394.897 114.163V118.579H393.793V110.835H394.833L394.913 112.035C395.217 111.203 396.033 110.659 397.121 110.659C397.361 110.659 397.569 110.675 397.841 110.739ZM402.259 118.771C399.987 118.771 398.467 117.139 398.467 114.707C398.467 112.291 399.971 110.627 402.179 110.627C404.275 110.627 405.699 112.115 405.699 114.307V114.851H399.539C399.619 116.739 400.611 117.827 402.275 117.827C403.539 117.827 404.355 117.283 404.643 116.259H405.699C405.283 117.891 404.083 118.771 402.259 118.771ZM402.179 111.571C400.723 111.571 399.763 112.531 399.571 114.051H404.595C404.595 112.563 403.635 111.571 402.179 111.571ZM414.062 118.579L410.894 110.835H412.078L414.078 115.827C414.286 116.387 414.494 116.915 414.638 117.427C414.782 116.899 414.99 116.387 415.214 115.827L417.246 110.835H418.382L415.166 118.579H414.062ZM420.227 108.707C419.779 108.707 419.411 108.339 419.411 107.891C419.411 107.443 419.779 107.059 420.227 107.059C420.675 107.059 421.059 107.443 421.059 107.891C421.059 108.339 420.675 108.707 420.227 108.707ZM419.683 118.579V110.835H420.787V118.579H419.683ZM424.049 118.579H423.09V106.915H424.194V112.339C424.738 111.203 425.794 110.627 427.106 110.627C429.362 110.627 430.674 112.387 430.674 114.723C430.674 117.043 429.33 118.771 427.074 118.771C425.778 118.771 424.706 118.195 424.162 116.995L424.049 118.579ZM424.21 114.691C424.21 116.483 425.202 117.763 426.898 117.763C428.578 117.763 429.554 116.483 429.554 114.691C429.554 112.915 428.578 111.619 426.898 111.619C425.202 111.619 424.21 112.915 424.21 114.691ZM436.481 110.739V111.731H435.873C434.449 111.731 433.537 112.691 433.537 114.163V118.579H432.433V110.835H433.473L433.553 112.035C433.857 111.203 434.673 110.659 435.761 110.659C436.001 110.659 436.209 110.675 436.481 110.739ZM439.86 118.771C438.212 118.771 437.236 117.843 437.236 116.483C437.236 115.059 438.324 114.163 440.132 114.019L442.692 113.811V113.555C442.692 112.035 441.78 111.555 440.644 111.555C439.3 111.555 438.5 112.163 438.5 113.203H437.492C437.492 111.635 438.772 110.627 440.676 110.627C442.468 110.627 443.78 111.523 443.78 113.571V118.579H442.852L442.708 117.219C442.228 118.195 441.172 118.771 439.86 118.771ZM440.116 117.875C441.748 117.875 442.692 116.739 442.692 115.059V114.643L440.404 114.819C438.948 114.947 438.356 115.587 438.356 116.451C438.356 117.395 439.06 117.875 440.116 117.875ZM447.1 118.579H445.996V110.835H446.956L447.116 112.179C447.628 111.187 448.652 110.627 449.772 110.627C451.9 110.627 452.78 111.891 452.78 113.843V118.579H451.676V114.083C451.676 112.275 450.86 111.635 449.58 111.635C447.996 111.635 447.1 112.787 447.1 114.531V118.579ZM456.756 118.579H455.668V111.763H454.116V110.835H455.668V108.387H456.756V110.835H458.308V111.763H456.756V118.579ZM466.407 118.771C464.759 118.771 463.783 117.843 463.783 116.483C463.783 115.059 464.871 114.163 466.679 114.019L469.239 113.811V113.555C469.239 112.035 468.327 111.555 467.191 111.555C465.847 111.555 465.047 112.163 465.047 113.203H464.039C464.039 111.635 465.319 110.627 467.223 110.627C469.015 110.627 470.327 111.523 470.327 113.571V118.579H469.399L469.255 117.219C468.775 118.195 467.719 118.771 466.407 118.771ZM466.663 117.875C468.295 117.875 469.239 116.739 469.239 115.059V114.643L466.951 114.819C465.495 114.947 464.903 115.587 464.903 116.451C464.903 117.395 465.607 117.875 466.663 117.875ZM473.647 118.579H472.543V110.835H473.503L473.663 112.179C474.175 111.187 475.199 110.627 476.319 110.627C478.447 110.627 479.327 111.891 479.327 113.843V118.579H478.223V114.083C478.223 112.275 477.407 111.635 476.127 111.635C474.543 111.635 473.647 112.787 473.647 114.531V118.579ZM484.567 118.771C482.311 118.771 480.983 117.043 480.983 114.723C480.983 112.387 482.311 110.627 484.615 110.627C485.895 110.627 486.919 111.187 487.463 112.307V106.915H488.567V118.579H487.607L487.495 116.995C486.951 118.195 485.863 118.771 484.567 118.771ZM484.759 117.763C486.455 117.763 487.447 116.483 487.447 114.691C487.447 112.915 486.455 111.619 484.759 111.619C483.079 111.619 482.103 112.915 482.103 114.691C482.103 116.483 483.079 117.763 484.759 117.763ZM497.084 118.579H495.996V111.763H494.444V110.835H495.996V108.387H497.084V110.835H498.636V111.763H497.084V118.579ZM501.178 118.563H500.074V106.915H501.178V112.179C501.674 111.251 502.618 110.627 503.914 110.627C505.946 110.627 506.858 111.891 506.858 113.843V118.579H505.754V114.083C505.754 112.275 504.906 111.635 503.706 111.635C502.042 111.635 501.178 112.867 501.178 114.355V118.563ZM512.306 118.771C510.034 118.771 508.514 117.139 508.514 114.707C508.514 112.291 510.018 110.627 512.226 110.627C514.322 110.627 515.746 112.115 515.746 114.307V114.851H509.586C509.666 116.739 510.658 117.827 512.322 117.827C513.586 117.827 514.402 117.283 514.69 116.259H515.746C515.33 117.891 514.13 118.771 512.306 118.771ZM512.226 111.571C510.77 111.571 509.81 112.531 509.618 114.051H514.642C514.642 112.563 513.682 111.571 512.226 111.571ZM521.949 121.955V110.835H522.909L523.021 112.403C523.565 111.203 524.653 110.627 525.949 110.627C528.189 110.627 529.533 112.339 529.533 114.675C529.533 117.011 528.237 118.771 525.949 118.771C524.637 118.771 523.597 118.211 523.053 117.091V121.955H521.949ZM523.069 114.707C523.069 116.483 524.061 117.779 525.757 117.779C527.437 117.779 528.413 116.483 528.413 114.707C528.413 112.915 527.437 111.635 525.757 111.635C524.061 111.635 523.069 112.915 523.069 114.707ZM535.341 110.739V111.731H534.733C533.309 111.731 532.397 112.691 532.397 114.163V118.579H531.293V110.835H532.333L532.413 112.035C532.717 111.203 533.533 110.659 534.621 110.659C534.861 110.659 535.069 110.675 535.341 110.739ZM537.352 108.707C536.904 108.707 536.536 108.339 536.536 107.891C536.536 107.443 536.904 107.059 537.352 107.059C537.8 107.059 538.184 107.443 538.184 107.891C538.184 108.339 537.8 108.707 537.352 108.707ZM536.808 118.579V110.835H537.912V118.579H536.808ZM541.319 118.579H540.215V110.835H541.174L541.335 112.179C541.847 111.187 542.871 110.627 543.991 110.627C546.119 110.627 546.999 111.891 546.999 113.843V118.579H545.895V114.083C545.895 112.275 545.079 111.635 543.799 111.635C542.215 111.635 541.319 112.787 541.319 114.531V118.579ZM550.975 118.579H549.887V111.763H548.335V110.835H549.887V108.387H550.975V110.835H552.527V111.763H550.975V118.579ZM32.608 136.675C32.608 134.339 33.952 132.627 36.192 132.627C37.488 132.627 38.56 133.203 39.12 134.403L39.232 132.835H40.192V143.955H39.088V139.091C38.544 140.211 37.504 140.771 36.192 140.771C33.904 140.771 32.608 139.011 32.608 136.675ZM33.728 136.707C33.728 138.483 34.704 139.779 36.384 139.779C38.08 139.779 39.072 138.483 39.072 136.707C39.072 134.915 38.08 133.635 36.384 133.635C34.704 133.635 33.728 134.915 33.728 136.707ZM47.9358 132.835H49.0398V140.579H48.0798L47.9358 139.267C47.5038 140.163 46.4318 140.771 45.2158 140.771C43.3918 140.771 42.3997 139.523 42.3997 137.635V132.819H43.5198V137.283C43.5198 139.123 44.3358 139.779 45.5677 139.779C47.0558 139.779 47.9358 138.787 47.9358 136.947V132.835ZM53.5635 140.771C51.9155 140.771 50.9395 139.843 50.9395 138.483C50.9395 137.059 52.0275 136.163 53.8355 136.019L56.3955 135.811V135.555C56.3955 134.035 55.4835 133.555 54.3475 133.555C53.0035 133.555 52.2035 134.163 52.2035 135.203H51.1955C51.1955 133.635 52.4755 132.627 54.3795 132.627C56.1715 132.627 57.4835 133.523 57.4835 135.571V140.579H56.5555L56.4115 139.219C55.9315 140.195 54.8755 140.771 53.5635 140.771ZM53.8195 139.875C55.4515 139.875 56.3955 138.739 56.3955 137.059V136.643L54.1075 136.819C52.6515 136.947 52.0595 137.587 52.0595 138.451C52.0595 139.395 52.7635 139.875 53.8195 139.875ZM60.8509 140.579H59.7469V128.915H60.8509V140.579ZM63.7429 130.707C63.2949 130.707 62.9269 130.339 62.9269 129.891C62.9269 129.443 63.2949 129.059 63.7429 129.059C64.1909 129.059 64.5749 129.443 64.5749 129.891C64.5749 130.339 64.1909 130.707 63.7429 130.707ZM63.1989 140.579V132.835H64.3029V140.579H63.1989ZM68.3811 140.579H67.2931V133.763H65.7411V132.835H67.2931V130.387H68.3811V132.835H69.9331V133.763H68.3811V140.579ZM70.5868 143.955V143.043H71.4348C72.1068 143.043 72.7788 142.995 73.1628 141.955L73.4988 141.043L70.3628 132.835H71.5308L74.0268 139.587L76.4748 132.835H77.6108L74.0588 142.355C73.6108 143.571 72.8588 144.067 71.7548 144.067C71.2908 144.067 70.9388 144.035 70.5868 143.955ZM83.8835 130.707C83.4355 130.707 83.0675 130.339 83.0675 129.891C83.0675 129.443 83.4355 129.059 83.8835 129.059C84.3315 129.059 84.7155 129.443 84.7155 129.891C84.7155 130.339 84.3315 130.707 83.8835 130.707ZM83.3395 140.579V132.835H84.4435V140.579H83.3395ZM86.0898 138.403H87.1458C87.1458 139.299 87.8178 139.859 88.9058 139.859C90.1058 139.859 90.8098 139.347 90.8098 138.515C90.8098 137.875 90.4898 137.507 89.5778 137.283L88.2498 136.947C86.9058 136.611 86.2498 135.907 86.2498 134.851C86.2498 133.491 87.3858 132.627 89.0498 132.627C90.6818 132.627 91.7378 133.523 91.7858 134.963H90.7138C90.6818 134.067 90.0578 133.539 89.0178 133.539C87.9298 133.539 87.3218 134.003 87.3218 134.835C87.3218 135.427 87.7378 135.843 88.5858 136.051L89.9138 136.387C91.2578 136.723 91.8658 137.347 91.8658 138.467C91.8658 139.859 90.6818 140.771 88.9218 140.771C87.1778 140.771 86.0898 139.843 86.0898 138.403ZM99.8968 140.579H98.8088V133.763H97.2568V132.835H98.8088V130.387H99.8968V132.835H101.449V133.763H99.8968V140.579ZM102.264 136.707C102.264 134.339 103.928 132.627 106.2 132.627C108.472 132.627 110.136 134.339 110.136 136.707C110.136 139.059 108.472 140.771 106.2 140.771C103.928 140.771 102.264 139.059 102.264 136.707ZM103.384 136.691C103.384 138.515 104.536 139.779 106.2 139.779C107.848 139.779 109.016 138.515 109.016 136.691C109.016 134.899 107.848 133.619 106.2 133.619C104.536 133.619 103.384 134.899 103.384 136.691ZM111.902 143.955V132.835H112.862L112.974 134.403C113.518 133.203 114.606 132.627 115.902 132.627C118.142 132.627 119.486 134.339 119.486 136.675C119.486 139.011 118.19 140.771 115.902 140.771C114.59 140.771 113.55 140.211 113.006 139.091V143.955H111.902ZM113.022 136.707C113.022 138.483 114.014 139.779 115.71 139.779C117.39 139.779 118.366 138.483 118.366 136.707C118.366 134.915 117.39 133.635 115.71 133.635C114.014 133.635 113.022 134.915 113.022 136.707ZM121.118 136.867V135.875H125.758V136.867H121.118ZM129.037 140.579H127.933V132.835H128.893L129.053 134.179C129.565 133.187 130.589 132.627 131.709 132.627C133.837 132.627 134.717 133.891 134.717 135.843V140.579H133.613V136.083C133.613 134.275 132.797 133.635 131.517 133.635C129.933 133.635 129.037 134.787 129.037 136.531V140.579ZM136.374 136.707C136.374 134.339 138.038 132.627 140.31 132.627C142.582 132.627 144.246 134.339 144.246 136.707C144.246 139.059 142.582 140.771 140.31 140.771C138.038 140.771 136.374 139.059 136.374 136.707ZM137.494 136.691C137.494 138.515 138.646 139.779 140.31 139.779C141.958 139.779 143.126 138.515 143.126 136.691C143.126 134.899 141.958 133.619 140.31 133.619C138.646 133.619 137.494 134.899 137.494 136.691ZM147.709 140.579H146.621V133.763H145.069V132.835H146.621V130.387H147.709V132.835H149.261V133.763H147.709V140.579ZM150.077 136.723C150.077 134.291 151.565 132.627 153.821 132.627C155.613 132.627 156.925 133.667 157.229 135.267H156.125C155.837 134.195 154.909 133.603 153.837 133.603C152.269 133.603 151.165 134.803 151.165 136.707C151.165 138.547 152.189 139.779 153.757 139.779C154.909 139.779 155.837 139.139 156.141 138.147H157.261C156.893 139.731 155.517 140.771 153.757 140.771C151.565 140.771 150.077 139.155 150.077 136.723ZM160.037 140.563H158.933V128.915H160.037V134.179C160.533 133.251 161.477 132.627 162.773 132.627C164.805 132.627 165.717 133.891 165.717 135.843V140.579H164.613V136.083C164.613 134.275 163.765 133.635 162.565 133.635C160.901 133.635 160.037 134.867 160.037 136.355V140.563ZM168.862 140.755C168.318 140.755 167.854 140.307 167.854 139.779C167.854 139.235 168.318 138.771 168.862 138.771C169.406 138.771 169.87 139.235 169.87 139.779C169.87 140.307 169.406 140.755 168.862 140.755ZM176.783 140.579V129.123H180.975C183.183 129.123 184.543 130.243 184.543 132.083C184.543 133.427 183.951 134.339 182.767 134.803C184.095 135.235 184.767 136.163 184.767 137.571C184.767 139.411 183.391 140.579 181.215 140.579H176.783ZM180.959 130.147H177.935V134.339H181.103C182.543 134.339 183.359 133.539 183.359 132.179C183.359 130.899 182.495 130.147 180.959 130.147ZM181.215 135.347H177.935V139.539H181.215C182.719 139.539 183.599 138.755 183.599 137.427C183.599 136.131 182.703 135.347 181.215 135.347ZM189.853 140.771C187.581 140.771 186.061 139.139 186.061 136.707C186.061 134.291 187.565 132.627 189.773 132.627C191.869 132.627 193.293 134.115 193.293 136.307V136.851H187.133C187.213 138.739 188.205 139.827 189.869 139.827C191.133 139.827 191.949 139.283 192.237 138.259H193.293C192.877 139.891 191.677 140.771 189.853 140.771ZM189.773 133.571C188.317 133.571 187.357 134.531 187.165 136.051H192.189C192.189 134.563 191.229 133.571 189.773 133.571ZM195.602 130.707C195.154 130.707 194.786 130.339 194.786 129.891C194.786 129.443 195.154 129.059 195.602 129.059C196.05 129.059 196.434 129.443 196.434 129.891C196.434 130.339 196.05 130.707 195.602 130.707ZM195.058 140.579V132.835H196.162V140.579H195.058ZM199.569 140.579H198.465V132.835H199.424L199.585 134.179C200.097 133.187 201.121 132.627 202.241 132.627C204.369 132.627 205.249 133.891 205.249 135.843V140.579H204.145V136.083C204.145 134.275 203.329 133.635 202.049 133.635C200.465 133.635 199.569 134.787 199.569 136.531V140.579ZM206.921 136.483C206.921 134.371 208.281 132.627 210.553 132.627C211.897 132.627 212.921 133.251 213.417 134.387L213.529 132.835H214.489V140.339C214.489 142.643 213.017 144.147 210.745 144.147C208.761 144.147 207.369 143.027 207.065 141.155H208.169C208.409 142.403 209.369 143.139 210.761 143.139C212.345 143.139 213.401 142.067 213.401 140.451V138.611C212.873 139.699 211.801 140.339 210.473 140.339C208.265 140.339 206.921 138.595 206.921 136.483ZM208.025 136.467C208.025 138.051 209.001 139.347 210.633 139.347C212.313 139.347 213.305 138.131 213.305 136.467C213.305 134.819 212.345 133.603 210.649 133.603C208.985 133.603 208.025 134.899 208.025 136.467ZM223.454 140.771C221.806 140.771 220.83 139.843 220.83 138.483C220.83 137.059 221.918 136.163 223.726 136.019L226.286 135.811V135.555C226.286 134.035 225.374 133.555 224.238 133.555C222.894 133.555 222.094 134.163 222.094 135.203H221.086C221.086 133.635 222.366 132.627 224.27 132.627C226.062 132.627 227.374 133.523 227.374 135.571V140.579H226.446L226.302 139.219C225.822 140.195 224.766 140.771 223.454 140.771ZM223.71 139.875C225.342 139.875 226.286 138.739 226.286 137.059V136.643L223.998 136.819C222.542 136.947 221.95 137.587 221.95 138.451C221.95 139.395 222.654 139.875 223.71 139.875ZM234.187 136.595V129.123H235.339V136.547C235.339 138.563 236.443 139.651 238.443 139.651C240.395 139.651 241.499 138.531 241.499 136.547V129.123H242.651V136.595C242.651 139.187 241.051 140.771 238.443 140.771C235.787 140.771 234.187 139.203 234.187 136.595ZM246.513 129.123V140.579H245.361V129.123H246.513ZM248.994 140.579H247.906L252.37 129.123H253.49L248.994 140.579ZM254.796 136.595V129.123H255.948V136.547C255.948 138.563 257.052 139.651 259.052 139.651C261.004 139.651 262.108 138.531 262.108 136.547V129.123H263.26V136.595C263.26 139.187 261.66 140.771 259.052 140.771C256.396 140.771 254.796 139.203 254.796 136.595ZM268.802 134.867L264.802 129.123H266.162L268.29 132.131C268.834 132.899 269.202 133.507 269.474 134.019L272.802 129.123H274.13L270.194 134.835L274.194 140.579H272.818L270.642 137.507C270.258 136.963 269.794 136.259 269.506 135.747L266.162 140.579H264.818L268.802 134.867ZM283.005 140.771C280.749 140.771 279.421 139.043 279.421 136.723C279.421 134.387 280.749 132.627 283.053 132.627C284.333 132.627 285.357 133.187 285.901 134.307V128.915H287.005V140.579H286.045L285.933 138.995C285.389 140.195 284.301 140.771 283.005 140.771ZM283.197 139.763C284.893 139.763 285.885 138.483 285.885 136.691C285.885 134.915 284.893 133.619 283.197 133.619C281.517 133.619 280.541 134.915 280.541 136.691C280.541 138.483 281.517 139.763 283.197 139.763ZM292.556 140.771C290.284 140.771 288.764 139.139 288.764 136.707C288.764 134.291 290.268 132.627 292.476 132.627C294.572 132.627 295.996 134.115 295.996 136.307V136.851H289.836C289.916 138.739 290.908 139.827 292.572 139.827C293.836 139.827 294.652 139.283 294.94 138.259H295.996C295.58 139.891 294.38 140.771 292.556 140.771ZM292.476 133.571C291.02 133.571 290.06 134.531 289.868 136.051H294.892C294.892 134.563 293.932 133.571 292.476 133.571ZM297.105 138.403H298.161C298.161 139.299 298.833 139.859 299.921 139.859C301.121 139.859 301.825 139.347 301.825 138.515C301.825 137.875 301.505 137.507 300.593 137.283L299.265 136.947C297.921 136.611 297.265 135.907 297.265 134.851C297.265 133.491 298.401 132.627 300.065 132.627C301.697 132.627 302.753 133.523 302.801 134.963H301.729C301.697 134.067 301.073 133.539 300.033 133.539C298.945 133.539 298.337 134.003 298.337 134.835C298.337 135.427 298.753 135.843 299.601 136.051L300.929 136.387C302.273 136.723 302.881 137.347 302.881 138.467C302.881 139.859 301.697 140.771 299.937 140.771C298.193 140.771 297.105 139.843 297.105 138.403ZM305.243 130.707C304.795 130.707 304.427 130.339 304.427 129.891C304.427 129.443 304.795 129.059 305.243 129.059C305.691 129.059 306.075 129.443 306.075 129.891C306.075 130.339 305.691 130.707 305.243 130.707ZM304.699 140.579V132.835H305.803V140.579H304.699ZM307.577 136.483C307.577 134.371 308.937 132.627 311.209 132.627C312.553 132.627 313.577 133.251 314.073 134.387L314.185 132.835H315.145V140.339C315.145 142.643 313.673 144.147 311.401 144.147C309.417 144.147 308.025 143.027 307.721 141.155H308.825C309.065 142.403 310.025 143.139 311.417 143.139C313.001 143.139 314.057 142.067 314.057 140.451V138.611C313.529 139.699 312.457 140.339 311.129 140.339C308.921 140.339 307.577 138.595 307.577 136.483ZM308.681 136.467C308.681 138.051 309.657 139.347 311.289 139.347C312.969 139.347 313.961 138.131 313.961 136.467C313.961 134.819 313.001 133.603 311.305 133.603C309.641 133.603 308.681 134.899 308.681 136.467ZM318.553 140.579H317.449V132.835H318.409L318.569 134.179C319.081 133.187 320.105 132.627 321.225 132.627C323.353 132.627 324.233 133.891 324.233 135.843V140.579H323.129V136.083C323.129 134.275 322.313 133.635 321.033 133.635C319.449 133.635 318.553 134.787 318.553 136.531V140.579ZM329.681 140.771C327.409 140.771 325.889 139.139 325.889 136.707C325.889 134.291 327.393 132.627 329.601 132.627C331.697 132.627 333.121 134.115 333.121 136.307V136.851H326.961C327.041 138.739 328.033 139.827 329.697 139.827C330.961 139.827 331.777 139.283 332.065 138.259H333.121C332.705 139.891 331.505 140.771 329.681 140.771ZM329.601 133.571C328.145 133.571 327.185 134.531 326.993 136.051H332.017C332.017 134.563 331.057 133.571 329.601 133.571ZM338.934 132.739V133.731H338.326C336.902 133.731 335.99 134.691 335.99 136.163V140.579H334.886V132.835H335.926L336.006 134.035C336.31 133.203 337.126 132.659 338.214 132.659C338.454 132.659 338.662 132.675 338.934 132.739ZM345.944 140.579H344.84V132.835H345.799L345.928 133.939C346.312 133.123 347.176 132.627 348.264 132.627C349.48 132.627 350.392 133.267 350.76 134.275C351.112 133.267 352.056 132.627 353.304 132.627C354.984 132.627 356.088 133.715 356.088 135.507V140.579H355.016V135.731C355.016 134.403 354.28 133.619 353.095 133.619C351.8 133.619 351.032 134.595 351.032 135.795V140.579H349.944V135.715C349.944 134.403 349.192 133.635 348.024 133.635C346.728 133.635 345.944 134.595 345.944 135.779V140.579ZM357.368 143.955V143.043H358.216C358.888 143.043 359.56 142.995 359.944 141.955L360.28 141.043L357.144 132.835H358.312L360.808 139.587L363.256 132.835H364.392L360.84 142.355C360.392 143.571 359.64 144.067 358.536 144.067C358.072 144.067 357.72 144.035 357.368 143.955ZM364.98 138.403H366.036C366.036 139.299 366.708 139.859 367.796 139.859C368.996 139.859 369.7 139.347 369.7 138.515C369.7 137.875 369.38 137.507 368.468 137.283L367.14 136.947C365.796 136.611 365.14 135.907 365.14 134.851C365.14 133.491 366.276 132.627 367.94 132.627C369.572 132.627 370.628 133.523 370.676 134.963H369.604C369.572 134.067 368.948 133.539 367.908 133.539C366.82 133.539 366.212 134.003 366.212 134.835C366.212 135.427 366.628 135.843 367.476 136.051L368.804 136.387C370.148 136.723 370.756 137.347 370.756 138.467C370.756 139.859 369.572 140.771 367.812 140.771C366.068 140.771 364.98 139.843 364.98 138.403ZM375.822 140.771C373.55 140.771 372.03 139.139 372.03 136.707C372.03 134.291 373.534 132.627 375.742 132.627C377.838 132.627 379.262 134.115 379.262 136.307V136.851H373.102C373.182 138.739 374.174 139.827 375.838 139.827C377.102 139.827 377.918 139.283 378.206 138.259H379.262C378.846 139.891 377.646 140.771 375.822 140.771ZM375.742 133.571C374.286 133.571 373.326 134.531 373.134 136.051H378.158C378.158 134.563 377.198 133.571 375.742 133.571ZM382.179 140.579H381.075V128.915H382.179V140.579ZM383.663 132.835H384.847V131.331C384.847 129.587 385.807 128.915 386.991 128.915C387.263 128.915 387.583 128.931 387.839 128.979V129.923H387.183C386.207 129.923 385.951 130.419 385.951 131.331V132.835H387.775V133.763H385.951V140.579H384.847V133.763H383.663V132.835ZM390.37 140.035C390.37 141.027 389.602 141.891 388.61 142.035V141.443C389.186 141.347 389.602 140.931 389.602 140.483C389.506 140.547 389.378 140.595 389.186 140.595C388.738 140.595 388.354 140.275 388.354 139.731C388.354 139.171 388.738 138.771 389.298 138.771C389.874 138.771 390.37 139.235 390.37 140.035ZM398.435 129.123V140.579H397.283V129.123H398.435ZM401.908 129.907L401.604 133.091H400.884L400.564 129.907C400.5 129.347 400.9 129.091 401.252 129.091C401.588 129.091 401.972 129.347 401.908 129.907ZM404.897 140.579H403.793V132.835H404.753L404.881 133.939C405.265 133.123 406.129 132.627 407.217 132.627C408.433 132.627 409.345 133.267 409.713 134.275C410.065 133.267 411.009 132.627 412.257 132.627C413.937 132.627 415.041 133.715 415.041 135.507V140.579H413.969V135.731C413.969 134.403 413.233 133.619 412.049 133.619C410.753 133.619 409.985 134.595 409.985 135.795V140.579H408.897V135.715C408.897 134.403 408.145 133.635 406.977 133.635C405.681 133.635 404.897 134.595 404.897 135.779V140.579ZM421.155 136.675C421.155 134.339 422.499 132.627 424.739 132.627C426.035 132.627 427.107 133.203 427.667 134.403L427.779 132.835H428.739V143.955H427.635V139.091C427.091 140.211 426.051 140.771 424.739 140.771C422.451 140.771 421.155 139.011 421.155 136.675ZM422.275 136.707C422.275 138.483 423.251 139.779 424.931 139.779C426.627 139.779 427.619 138.483 427.619 136.707C427.619 134.915 426.627 133.635 424.931 133.635C423.251 133.635 422.275 134.915 422.275 136.707ZM436.483 132.835H437.587V140.579H436.627L436.483 139.267C436.051 140.163 434.979 140.771 433.763 140.771C431.939 140.771 430.947 139.523 430.947 137.635V132.819H432.067V137.283C432.067 139.123 432.883 139.779 434.115 139.779C435.603 139.779 436.483 138.787 436.483 136.947V132.835ZM440.43 130.707C439.982 130.707 439.614 130.339 439.614 129.891C439.614 129.443 439.982 129.059 440.43 129.059C440.878 129.059 441.262 129.443 441.262 129.891C441.262 130.339 440.878 130.707 440.43 130.707ZM439.886 140.579V132.835H440.99V140.579H439.886ZM445.069 140.579H443.981V133.763H442.429V132.835H443.981V130.387H445.069V132.835H446.621V133.763H445.069V140.579ZM451.228 140.771C448.956 140.771 447.436 139.139 447.436 136.707C447.436 134.291 448.94 132.627 451.148 132.627C453.244 132.627 454.668 134.115 454.668 136.307V136.851H448.508C448.588 138.739 449.58 139.827 451.244 139.827C452.508 139.827 453.324 139.283 453.612 138.259H454.668C454.252 139.891 453.052 140.771 451.228 140.771ZM451.148 133.571C449.692 133.571 448.732 134.531 448.54 136.051H453.564C453.564 134.563 452.604 133.571 451.148 133.571ZM460.871 143.955V132.835H461.831L461.943 134.403C462.487 133.203 463.575 132.627 464.871 132.627C467.111 132.627 468.455 134.339 468.455 136.675C468.455 139.011 467.159 140.771 464.871 140.771C463.559 140.771 462.519 140.211 461.975 139.091V143.955H460.871ZM461.991 136.707C461.991 138.483 462.983 139.779 464.679 139.779C466.359 139.779 467.335 138.483 467.335 136.707C467.335 134.915 466.359 133.635 464.679 133.635C462.983 133.635 461.991 134.915 461.991 136.707ZM470.759 130.707C470.311 130.707 469.943 130.339 469.943 129.891C469.943 129.443 470.311 129.059 470.759 129.059C471.207 129.059 471.591 129.443 471.591 129.891C471.591 130.339 471.207 130.707 470.759 130.707ZM470.215 140.579V132.835H471.319V140.579H470.215ZM473.077 136.723C473.077 134.291 474.565 132.627 476.821 132.627C478.613 132.627 479.925 133.667 480.229 135.267H479.125C478.837 134.195 477.909 133.603 476.837 133.603C475.269 133.603 474.165 134.803 474.165 136.707C474.165 138.547 475.189 139.779 476.757 139.779C477.909 139.779 478.837 139.139 479.141 138.147H480.261C479.893 139.731 478.517 140.771 476.757 140.771C474.565 140.771 473.077 139.155 473.077 136.723ZM483.085 140.579H481.981V128.915H483.085V136.835L486.925 132.835H488.317L485.341 135.923L488.333 140.579H487.053L484.589 136.707L483.085 138.259V140.579ZM488.868 143.955V143.043H489.716C490.388 143.043 491.06 142.995 491.444 141.955L491.78 141.043L488.644 132.835H489.812L492.308 139.587L494.756 132.835H495.892L492.34 142.355C491.892 143.571 491.14 144.067 490.036 144.067C489.572 144.067 489.22 144.035 488.868 143.955ZM503.845 140.771C502.197 140.771 501.221 139.843 501.221 138.483C501.221 137.059 502.309 136.163 504.117 136.019L506.677 135.811V135.555C506.677 134.035 505.765 133.555 504.629 133.555C503.285 133.555 502.485 134.163 502.485 135.203H501.477C501.477 133.635 502.757 132.627 504.661 132.627C506.453 132.627 507.765 133.523 507.765 135.571V140.579H506.837L506.693 139.219C506.213 140.195 505.157 140.771 503.845 140.771ZM504.101 139.875C505.733 139.875 506.677 138.739 506.677 137.059V136.643L504.389 136.819C502.933 136.947 502.341 137.587 502.341 138.451C502.341 139.395 503.045 139.875 504.101 139.875ZM510.94 140.579H509.98V128.915H511.084V134.339C511.628 133.203 512.684 132.627 513.996 132.627C516.252 132.627 517.564 134.387 517.564 136.723C517.564 139.043 516.22 140.771 513.964 140.771C512.668 140.771 511.596 140.195 511.052 138.995L510.94 140.579ZM511.1 136.691C511.1 138.483 512.092 139.763 513.788 139.763C515.468 139.763 516.444 138.483 516.444 136.691C516.444 134.915 515.468 133.619 513.788 133.619C512.092 133.619 511.1 134.915 511.1 136.691ZM518.78 136.707C518.78 134.339 520.444 132.627 522.716 132.627C524.988 132.627 526.652 134.339 526.652 136.707C526.652 139.059 524.988 140.771 522.716 140.771C520.444 140.771 518.78 139.059 518.78 136.707ZM519.9 136.691C519.9 138.515 521.052 139.779 522.716 139.779C524.364 139.779 525.532 138.515 525.532 136.691C525.532 134.899 524.364 133.619 522.716 133.619C521.052 133.619 519.9 134.899 519.9 136.691ZM533.67 132.835H534.774V140.579H533.814L533.67 139.267C533.238 140.163 532.166 140.771 530.95 140.771C529.126 140.771 528.134 139.523 528.134 137.635V132.819H529.254V137.283C529.254 139.123 530.07 139.779 531.302 139.779C532.79 139.779 533.67 138.787 533.67 136.947V132.835ZM538.85 140.579H537.762V133.763H536.21V132.835H537.762V130.387H538.85V132.835H540.402V133.763H538.85V140.579ZM35.376 162.771C33.728 162.771 32.752 161.843 32.752 160.483C32.752 159.059 33.84 158.163 35.648 158.019L38.208 157.811V157.555C38.208 156.035 37.296 155.555 36.16 155.555C34.816 155.555 34.016 156.163 34.016 157.203H33.008C33.008 155.635 34.288 154.627 36.192 154.627C37.984 154.627 39.296 155.523 39.296 157.571V162.579H38.368L38.224 161.219C37.744 162.195 36.688 162.771 35.376 162.771ZM35.632 161.875C37.264 161.875 38.208 160.739 38.208 159.059V158.643L35.92 158.819C34.464 158.947 33.872 159.587 33.872 160.451C33.872 161.395 34.576 161.875 35.632 161.875ZM44.7594 162.771C42.4874 162.771 40.9674 161.139 40.9674 158.707C40.9674 156.291 42.4714 154.627 44.6794 154.627C46.7754 154.627 48.1994 156.115 48.1994 158.307V158.851H42.0394C42.1194 160.739 43.1114 161.827 44.7754 161.827C46.0394 161.827 46.8554 161.283 47.1434 160.259H48.1994C47.7834 161.891 46.5834 162.771 44.7594 162.771ZM44.6794 155.571C43.2234 155.571 42.2634 156.531 42.0714 158.051H47.0954C47.0954 156.563 46.1354 155.571 44.6794 155.571ZM49.3085 160.403H50.3645C50.3645 161.299 51.0365 161.859 52.1245 161.859C53.3245 161.859 54.0285 161.347 54.0285 160.515C54.0285 159.875 53.7085 159.507 52.7965 159.283L51.4685 158.947C50.1245 158.611 49.4685 157.907 49.4685 156.851C49.4685 155.491 50.6045 154.627 52.2685 154.627C53.9005 154.627 54.9565 155.523 55.0045 156.963H53.9325C53.9005 156.067 53.2765 155.539 52.2365 155.539C51.1485 155.539 50.5405 156.003 50.5405 156.835C50.5405 157.427 50.9565 157.843 51.8045 158.051L53.1325 158.387C54.4765 158.723 55.0845 159.347 55.0845 160.467C55.0845 161.859 53.9005 162.771 52.1405 162.771C50.3965 162.771 49.3085 161.843 49.3085 160.403ZM58.678 162.579H57.59V155.763H56.038V154.835H57.59V152.387H58.678V154.835H60.23V155.763H58.678V162.579ZM62.7716 162.563H61.6676V150.915H62.7716V156.179C63.2676 155.251 64.2116 154.627 65.5076 154.627C67.5396 154.627 68.4516 155.891 68.4516 157.843V162.579H67.3476V158.083C67.3476 156.275 66.4996 155.635 65.2996 155.635C63.6356 155.635 62.7716 156.867 62.7716 158.355V162.563ZM73.9 162.771C71.628 162.771 70.108 161.139 70.108 158.707C70.108 156.291 71.612 154.627 73.82 154.627C75.916 154.627 77.34 156.115 77.34 158.307V158.851H71.18C71.26 160.739 72.252 161.827 73.916 161.827C75.18 161.827 75.996 161.283 76.284 160.259H77.34C76.924 161.891 75.724 162.771 73.9 162.771ZM73.82 155.571C72.364 155.571 71.404 156.531 71.212 158.051H76.236C76.236 156.563 75.276 155.571 73.82 155.571ZM80.803 162.579H79.715V155.763H78.163V154.835H79.715V152.387H80.803V154.835H82.355V155.763H80.803V162.579ZM84.3366 152.707C83.8886 152.707 83.5206 152.339 83.5206 151.891C83.5206 151.443 83.8886 151.059 84.3366 151.059C84.7846 151.059 85.1686 151.443 85.1686 151.891C85.1686 152.339 84.7846 152.707 84.3366 152.707ZM83.7926 162.579V154.835H84.8966V162.579H83.7926ZM86.6549 158.723C86.6549 156.291 88.1429 154.627 90.3989 154.627C92.1909 154.627 93.5029 155.667 93.8069 157.267H92.7029C92.4149 156.195 91.4869 155.603 90.4149 155.603C88.8469 155.603 87.7429 156.803 87.7429 158.707C87.7429 160.547 88.7669 161.779 90.3349 161.779C91.4869 161.779 92.4149 161.139 92.7189 160.147H93.8389C93.4709 161.731 92.0949 162.771 90.3349 162.771C88.1429 162.771 86.6549 161.155 86.6549 158.723ZM94.8554 160.403H95.9114C95.9114 161.299 96.5834 161.859 97.6714 161.859C98.8714 161.859 99.5754 161.347 99.5754 160.515C99.5754 159.875 99.2554 159.507 98.3434 159.283L97.0154 158.947C95.6714 158.611 95.0154 157.907 95.0154 156.851C95.0154 155.491 96.1514 154.627 97.8154 154.627C99.4474 154.627 100.503 155.523 100.551 156.963H99.4794C99.4474 156.067 98.8234 155.539 97.7834 155.539C96.6954 155.539 96.0874 156.003 96.0874 156.835C96.0874 157.427 96.5034 157.843 97.3514 158.051L98.6794 158.387C100.023 158.723 100.631 159.347 100.631 160.467C100.631 161.859 99.4474 162.771 97.6874 162.771C95.9434 162.771 94.8554 161.843 94.8554 160.403ZM104.276 162.035C104.276 163.027 103.508 163.891 102.516 164.035V163.443C103.092 163.347 103.508 162.931 103.508 162.483C103.412 162.547 103.284 162.595 103.092 162.595C102.644 162.595 102.26 162.275 102.26 161.731C102.26 161.171 102.644 160.771 103.204 160.771C103.78 160.771 104.276 161.235 104.276 162.035ZM113.173 162.771C111.525 162.771 110.549 161.843 110.549 160.483C110.549 159.059 111.637 158.163 113.445 158.019L116.005 157.811V157.555C116.005 156.035 115.093 155.555 113.957 155.555C112.613 155.555 111.813 156.163 111.813 157.203H110.805C110.805 155.635 112.085 154.627 113.989 154.627C115.781 154.627 117.093 155.523 117.093 157.571V162.579H116.165L116.021 161.219C115.541 162.195 114.485 162.771 113.173 162.771ZM113.429 161.875C115.061 161.875 116.005 160.739 116.005 159.059V158.643L113.717 158.819C112.261 158.947 111.669 159.587 111.669 160.451C111.669 161.395 112.373 161.875 113.429 161.875ZM120.412 162.579H119.308V154.835H120.268L120.428 156.179C120.94 155.187 121.964 154.627 123.084 154.627C125.212 154.627 126.092 155.891 126.092 157.843V162.579H124.988V158.083C124.988 156.275 124.172 155.635 122.892 155.635C121.308 155.635 120.412 156.787 120.412 158.531V162.579ZM131.333 162.771C129.077 162.771 127.749 161.043 127.749 158.723C127.749 156.387 129.077 154.627 131.381 154.627C132.661 154.627 133.685 155.187 134.229 156.307V150.915H135.333V162.579H134.373L134.261 160.995C133.717 162.195 132.629 162.771 131.333 162.771ZM131.525 161.763C133.221 161.763 134.213 160.483 134.213 158.691C134.213 156.915 133.221 155.619 131.525 155.619C129.845 155.619 128.869 156.915 128.869 158.691C128.869 160.483 129.845 161.763 131.525 161.763ZM143.85 162.579H142.762V155.763H141.21V154.835H142.762V152.387H143.85V154.835H145.402V155.763H143.85V162.579ZM147.944 162.563H146.84V150.915H147.944V156.179C148.44 155.251 149.384 154.627 150.68 154.627C152.712 154.627 153.624 155.891 153.624 157.843V162.579H152.52V158.083C152.52 156.275 151.672 155.635 150.472 155.635C148.808 155.635 147.944 156.867 147.944 158.355V162.563ZM156.368 152.707C155.92 152.707 155.552 152.339 155.552 151.891C155.552 151.443 155.92 151.059 156.368 151.059C156.816 151.059 157.2 151.443 157.2 151.891C157.2 152.339 156.816 152.707 156.368 152.707ZM155.824 162.579V154.835H156.928V162.579H155.824ZM158.574 160.403H159.63C159.63 161.299 160.302 161.859 161.39 161.859C162.59 161.859 163.294 161.347 163.294 160.515C163.294 159.875 162.974 159.507 162.062 159.283L160.734 158.947C159.39 158.611 158.734 157.907 158.734 156.851C158.734 155.491 159.87 154.627 161.534 154.627C163.166 154.627 164.222 155.523 164.27 156.963H163.198C163.166 156.067 162.542 155.539 161.502 155.539C160.414 155.539 159.806 156.003 159.806 156.835C159.806 157.427 160.222 157.843 161.07 158.051L162.398 158.387C163.742 158.723 164.35 159.347 164.35 160.467C164.35 161.859 163.166 162.771 161.406 162.771C159.662 162.771 158.574 161.843 158.574 160.403ZM172.381 162.579H171.293V155.763H169.741V154.835H171.293V152.387H172.381V154.835H173.933V155.763H172.381V162.579ZM174.93 158.867V157.875H179.57V158.867H174.93ZM181.059 160.403H182.115C182.115 161.299 182.787 161.859 183.875 161.859C185.075 161.859 185.779 161.347 185.779 160.515C185.779 159.875 185.459 159.507 184.547 159.283L183.219 158.947C181.875 158.611 181.219 157.907 181.219 156.851C181.219 155.491 182.355 154.627 184.019 154.627C185.651 154.627 186.707 155.523 186.755 156.963H185.683C185.651 156.067 185.027 155.539 183.987 155.539C182.899 155.539 182.291 156.003 182.291 156.835C182.291 157.427 182.707 157.843 183.555 158.051L184.883 158.387C186.227 158.723 186.835 159.347 186.835 160.467C186.835 161.859 185.651 162.771 183.891 162.771C182.147 162.771 181.059 161.843 181.059 160.403ZM189.756 162.563H188.652V150.915H189.756V156.179C190.252 155.251 191.196 154.627 192.492 154.627C194.524 154.627 195.436 155.891 195.436 157.843V162.579H194.332V158.083C194.332 156.275 193.484 155.635 192.284 155.635C190.62 155.635 189.756 156.867 189.756 158.355V162.563ZM198.18 152.707C197.732 152.707 197.364 152.339 197.364 151.891C197.364 151.443 197.732 151.059 198.18 151.059C198.628 151.059 199.012 151.443 199.012 151.891C199.012 152.339 198.628 152.707 198.18 152.707ZM197.636 162.579V154.835H198.74V162.579H197.636ZM205.091 154.739V155.731H204.483C203.059 155.731 202.147 156.691 202.147 158.163V162.579H201.043V154.835H202.083L202.163 156.035C202.467 155.203 203.283 154.659 204.371 154.659C204.611 154.659 204.819 154.675 205.091 154.739ZM208.647 162.579H207.559V155.763H206.007V154.835H207.559V152.387H208.647V154.835H210.199V155.763H208.647V162.579ZM219.114 162.771C216.858 162.771 215.53 161.043 215.53 158.723C215.53 156.387 216.858 154.627 219.162 154.627C220.442 154.627 221.466 155.187 222.01 156.307V150.915H223.114V162.579H222.154L222.042 160.995C221.498 162.195 220.41 162.771 219.114 162.771ZM219.306 161.763C221.002 161.763 221.994 160.483 221.994 158.691C221.994 156.915 221.002 155.619 219.306 155.619C217.626 155.619 216.65 156.915 216.65 158.691C216.65 160.483 217.626 161.763 219.306 161.763ZM228.666 162.771C226.394 162.771 224.874 161.139 224.874 158.707C224.874 156.291 226.378 154.627 228.586 154.627C230.682 154.627 232.106 156.115 232.106 158.307V158.851H225.946C226.026 160.739 227.018 161.827 228.682 161.827C229.946 161.827 230.762 161.283 231.05 160.259H232.106C231.69 161.891 230.49 162.771 228.666 162.771ZM228.586 155.571C227.13 155.571 226.17 156.531 225.978 158.051H231.002C231.002 156.563 230.042 155.571 228.586 155.571ZM238.975 162.579V155.763H235.295V162.579H234.191V155.763H233.007V154.835H234.191V153.331C234.191 151.587 235.135 150.915 236.287 150.915C236.559 150.915 236.895 150.931 237.151 150.979V151.939H236.479C235.551 151.939 235.295 152.419 235.295 153.331V154.835H240.079V162.579H238.975ZM239.519 152.627C239.071 152.627 238.751 152.307 238.751 151.859C238.751 151.411 239.071 151.075 239.519 151.075C239.951 151.075 240.287 151.411 240.287 151.859C240.287 152.307 239.951 152.627 239.519 152.627ZM243.444 162.579H242.34V154.835H243.299L243.46 156.179C243.972 155.187 244.996 154.627 246.116 154.627C248.244 154.627 249.124 155.891 249.124 157.843V162.579H248.02V158.083C248.02 156.275 247.204 155.635 245.924 155.635C244.34 155.635 243.444 156.787 243.444 158.531V162.579ZM251.868 152.707C251.42 152.707 251.052 152.339 251.052 151.891C251.052 151.443 251.42 151.059 251.868 151.059C252.316 151.059 252.7 151.443 252.7 151.891C252.7 152.339 252.316 152.707 251.868 152.707ZM251.324 162.579V154.835H252.428V162.579H251.324ZM256.506 162.579H255.418V155.763H253.866V154.835H255.418V152.387H256.506V154.835H258.058V155.763H256.506V162.579ZM262.666 162.771C260.394 162.771 258.874 161.139 258.874 158.707C258.874 156.291 260.378 154.627 262.586 154.627C264.682 154.627 266.106 156.115 266.106 158.307V158.851H259.946C260.026 160.739 261.018 161.827 262.682 161.827C263.946 161.827 264.762 161.283 265.05 160.259H266.106C265.69 161.891 264.49 162.771 262.666 162.771ZM262.586 155.571C261.13 155.571 260.17 156.531 259.978 158.051H265.002C265.002 156.563 264.042 155.571 262.586 155.571ZM269.023 162.579H267.919V150.915H269.023V162.579ZM270.587 165.955V165.043H271.435C272.107 165.043 272.779 164.995 273.163 163.955L273.499 163.043L270.363 154.835H271.531L274.027 161.587L276.475 154.835H277.611L274.059 164.355C273.611 165.571 272.859 166.067 271.755 166.067C271.291 166.067 270.939 166.035 270.587 165.955ZM282.812 158.483C282.812 156.371 284.172 154.627 286.444 154.627C287.788 154.627 288.812 155.251 289.308 156.387L289.42 154.835H290.38V162.339C290.38 164.643 288.908 166.147 286.636 166.147C284.652 166.147 283.26 165.027 282.956 163.155H284.06C284.299 164.403 285.26 165.139 286.652 165.139C288.236 165.139 289.292 164.067 289.292 162.451V160.611C288.764 161.699 287.692 162.339 286.364 162.339C284.156 162.339 282.812 160.595 282.812 158.483ZM283.916 158.467C283.916 160.051 284.892 161.347 286.524 161.347C288.204 161.347 289.196 160.131 289.196 158.467C289.196 156.819 288.236 155.603 286.54 155.603C284.876 155.603 283.916 156.899 283.916 158.467ZM295.931 162.771C293.659 162.771 292.139 161.139 292.139 158.707C292.139 156.291 293.643 154.627 295.851 154.627C297.947 154.627 299.371 156.115 299.371 158.307V158.851H293.211C293.291 160.739 294.283 161.827 295.947 161.827C297.211 161.827 298.027 161.283 298.315 160.259H299.371C298.955 161.891 297.755 162.771 295.931 162.771ZM295.851 155.571C294.395 155.571 293.435 156.531 293.243 158.051H298.267C298.267 156.563 297.307 155.571 295.851 155.571ZM302.834 162.579H301.746V155.763H300.194V154.835H301.746V152.387H302.834V154.835H304.386V155.763H302.834V162.579ZM305.168 160.403H306.224C306.224 161.299 306.896 161.859 307.984 161.859C309.184 161.859 309.888 161.347 309.888 160.515C309.888 159.875 309.568 159.507 308.656 159.283L307.328 158.947C305.984 158.611 305.328 157.907 305.328 156.851C305.328 155.491 306.464 154.627 308.128 154.627C309.76 154.627 310.816 155.523 310.864 156.963H309.792C309.76 156.067 309.136 155.539 308.096 155.539C307.008 155.539 306.4 156.003 306.4 156.835C306.4 157.427 306.816 157.843 307.664 158.051L308.992 158.387C310.336 158.723 310.944 159.347 310.944 160.467C310.944 161.859 309.76 162.771 308 162.771C306.256 162.771 305.168 161.843 305.168 160.403ZM319.423 162.771C317.775 162.771 316.799 161.843 316.799 160.483C316.799 159.059 317.887 158.163 319.695 158.019L322.255 157.811V157.555C322.255 156.035 321.343 155.555 320.207 155.555C318.863 155.555 318.063 156.163 318.063 157.203H317.055C317.055 155.635 318.335 154.627 320.239 154.627C322.031 154.627 323.343 155.523 323.343 157.571V162.579H322.415L322.271 161.219C321.791 162.195 320.735 162.771 319.423 162.771ZM319.679 161.875C321.311 161.875 322.255 160.739 322.255 159.059V158.643L319.967 158.819C318.511 158.947 317.919 159.587 317.919 160.451C317.919 161.395 318.623 161.875 319.679 161.875ZM331.772 162.579H330.684V155.763H329.132V154.835H330.684V152.387H331.772V154.835H333.324V155.763H331.772V162.579ZM335.865 162.563H334.761V150.915H335.865V156.179C336.361 155.251 337.305 154.627 338.601 154.627C340.633 154.627 341.545 155.891 341.545 157.843V162.579H340.441V158.083C340.441 156.275 339.593 155.635 338.393 155.635C336.729 155.635 335.865 156.867 335.865 158.355V162.563ZM349.186 154.835H350.29V162.579H349.33L349.186 161.267C348.754 162.163 347.682 162.771 346.466 162.771C344.642 162.771 343.65 161.523 343.65 159.635V154.819H344.77V159.283C344.77 161.123 345.586 161.779 346.818 161.779C348.306 161.779 349.186 160.787 349.186 158.947V154.835ZM353.694 162.579H352.59V154.835H353.549L353.678 155.939C354.062 155.123 354.926 154.627 356.014 154.627C357.23 154.627 358.142 155.267 358.51 156.275C358.862 155.267 359.806 154.627 361.054 154.627C362.734 154.627 363.838 155.715 363.838 157.507V162.579H362.766V157.731C362.766 156.403 362.03 155.619 360.845 155.619C359.55 155.619 358.782 156.595 358.782 157.795V162.579H357.694V157.715C357.694 156.403 356.942 155.635 355.774 155.635C354.478 155.635 353.694 156.595 353.694 157.779V162.579ZM367.018 162.579H366.058V150.915H367.162V156.339C367.706 155.203 368.762 154.627 370.074 154.627C372.33 154.627 373.642 156.387 373.642 158.723C373.642 161.043 372.298 162.771 370.042 162.771C368.746 162.771 367.674 162.195 367.13 160.995L367.018 162.579ZM367.178 158.691C367.178 160.483 368.17 161.763 369.866 161.763C371.546 161.763 372.522 160.483 372.522 158.691C372.522 156.915 371.546 155.619 369.866 155.619C368.17 155.619 367.178 156.915 367.178 158.691ZM374.746 160.403H375.802C375.802 161.299 376.474 161.859 377.562 161.859C378.762 161.859 379.466 161.347 379.466 160.515C379.466 159.875 379.146 159.507 378.234 159.283L376.906 158.947C375.562 158.611 374.906 157.907 374.906 156.851C374.906 155.491 376.042 154.627 377.706 154.627C379.338 154.627 380.394 155.523 380.442 156.963H379.37C379.338 156.067 378.714 155.539 377.674 155.539C376.586 155.539 375.978 156.003 375.978 156.835C375.978 157.427 376.394 157.843 377.242 158.051L378.57 158.387C379.914 158.723 380.522 159.347 380.522 160.467C380.522 161.859 379.338 162.771 377.578 162.771C375.834 162.771 374.746 161.843 374.746 160.403ZM392.217 154.835H393.321V162.579H392.361L392.217 161.267C391.785 162.163 390.713 162.771 389.497 162.771C387.673 162.771 386.681 161.523 386.681 159.635V154.819H387.801V159.283C387.801 161.123 388.617 161.779 389.849 161.779C391.337 161.779 392.217 160.787 392.217 158.947V154.835ZM395.621 165.955V154.835H396.581L396.693 156.403C397.237 155.203 398.325 154.627 399.621 154.627C401.861 154.627 403.205 156.339 403.205 158.675C403.205 161.011 401.909 162.771 399.621 162.771C398.309 162.771 397.269 162.211 396.725 161.091V165.955H395.621ZM396.741 158.707C396.741 160.483 397.733 161.779 399.429 161.779C401.109 161.779 402.085 160.483 402.085 158.707C402.085 156.915 401.109 155.635 399.429 155.635C397.733 155.635 396.741 156.915 396.741 158.707ZM408.538 154.835H409.722V153.331C409.722 151.587 410.682 150.915 411.866 150.915C412.138 150.915 412.458 150.931 412.714 150.979V151.923H412.058C411.082 151.923 410.826 152.419 410.826 153.331V154.835H412.65V155.763H410.826V162.579H409.722V155.763H408.538V154.835ZM418.2 154.739V155.731H417.592C416.168 155.731 415.256 156.691 415.256 158.163V162.579H414.152V154.835H415.192L415.272 156.035C415.576 155.203 416.392 154.659 417.48 154.659C417.72 154.659 417.928 154.675 418.2 154.739ZM418.827 158.707C418.827 156.339 420.491 154.627 422.763 154.627C425.035 154.627 426.699 156.339 426.699 158.707C426.699 161.059 425.035 162.771 422.763 162.771C420.491 162.771 418.827 161.059 418.827 158.707ZM419.947 158.691C419.947 160.515 421.099 161.779 422.763 161.779C424.411 161.779 425.579 160.515 425.579 158.691C425.579 156.899 424.411 155.619 422.763 155.619C421.099 155.619 419.947 156.899 419.947 158.691ZM429.569 162.579H428.465V154.835H429.424L429.553 155.939C429.937 155.123 430.801 154.627 431.889 154.627C433.105 154.627 434.017 155.267 434.385 156.275C434.737 155.267 435.681 154.627 436.929 154.627C438.609 154.627 439.713 155.715 439.713 157.507V162.579H438.641V157.731C438.641 156.403 437.905 155.619 436.72 155.619C435.425 155.619 434.657 156.595 434.657 157.795V162.579H433.569V157.715C433.569 156.403 432.817 155.635 431.649 155.635C430.353 155.635 429.569 156.595 429.569 157.779V162.579ZM447.475 162.579H446.371V154.835H447.331L447.459 155.939C447.843 155.123 448.707 154.627 449.795 154.627C451.011 154.627 451.923 155.267 452.291 156.275C452.643 155.267 453.587 154.627 454.835 154.627C456.515 154.627 457.619 155.715 457.619 157.507V162.579H456.547V157.731C456.547 156.403 455.811 155.619 454.627 155.619C453.331 155.619 452.563 156.595 452.563 157.795V162.579H451.475V157.715C451.475 156.403 450.723 155.635 449.555 155.635C448.259 155.635 447.475 156.595 447.475 157.779V162.579ZM463.088 162.771C460.816 162.771 459.296 161.139 459.296 158.707C459.296 156.291 460.799 154.627 463.008 154.627C465.104 154.627 466.528 156.115 466.528 158.307V158.851H460.368C460.448 160.739 461.44 161.827 463.104 161.827C464.368 161.827 465.184 161.283 465.472 160.259H466.528C466.112 161.891 464.912 162.771 463.088 162.771ZM463.008 155.571C461.552 155.571 460.592 156.531 460.4 158.051H465.424C465.424 156.563 464.464 155.571 463.008 155.571ZM468.752 162.755C468.208 162.755 467.744 162.307 467.744 161.779C467.744 161.235 468.208 160.771 468.752 160.771C469.296 160.771 469.76 161.235 469.76 161.779C469.76 162.307 469.296 162.755 468.752 162.755ZM471.58 151.907L471.276 155.091H470.556L470.236 151.907C470.172 151.347 470.572 151.091 470.924 151.091C471.26 151.091 471.644 151.347 471.58 151.907ZM473.836 151.907L473.532 155.091H472.812L472.492 151.907C472.428 151.347 472.828 151.091 473.18 151.091C473.516 151.091 473.9 151.347 473.836 151.907Z" fill="black" fill-opacity="0.6"/>
<path d="M568.625 40C568.625 40.5192 568.471 41.0267 568.183 41.4584C567.894 41.8901 567.484 42.2265 567.005 42.4252C566.525 42.6239 565.997 42.6758 565.488 42.5746C564.979 42.4733 564.511 42.2233 564.144 41.8562C563.777 41.489 563.527 41.0213 563.425 40.5121C563.324 40.0029 563.376 39.4751 563.575 38.9955C563.773 38.5158 564.11 38.1058 564.542 37.8174C564.973 37.529 565.481 37.375 566 37.375C566.696 37.375 567.364 37.6516 567.856 38.1438C568.348 38.6361 568.625 39.3038 568.625 40ZM558.5 37.375C557.981 37.375 557.473 37.529 557.042 37.8174C556.61 38.1058 556.273 38.5158 556.075 38.9955C555.876 39.4751 555.824 40.0029 555.925 40.5121C556.027 41.0213 556.277 41.489 556.644 41.8562C557.011 42.2233 557.479 42.4733 557.988 42.5746C558.497 42.6758 559.025 42.6239 559.505 42.4252C559.984 42.2265 560.394 41.8901 560.683 41.4584C560.971 41.0267 561.125 40.5192 561.125 40C561.125 39.3038 560.848 38.6361 560.356 38.1438C559.864 37.6516 559.196 37.375 558.5 37.375ZM573.5 37.375C572.981 37.375 572.473 37.529 572.042 37.8174C571.61 38.1058 571.273 38.5158 571.075 38.9955C570.876 39.4751 570.824 40.0029 570.925 40.5121C571.027 41.0213 571.277 41.489 571.644 41.8562C572.011 42.2233 572.479 42.4733 572.988 42.5746C573.497 42.6758 574.025 42.6239 574.505 42.4252C574.984 42.2265 575.394 41.8901 575.683 41.4584C575.971 41.0267 576.125 40.5192 576.125 40C576.125 39.6553 576.057 39.3139 575.925 38.9955C575.793 38.677 575.6 38.3876 575.356 38.1438C575.112 37.9001 574.823 37.7067 574.505 37.5748C574.186 37.4429 573.845 37.375 573.5 37.375Z" fill="black" fill-opacity="0.4"/>
<path d="M37.84 204.451H34.912V208.579H33.344V197.011H37.84C40.112 197.011 41.568 198.499 41.568 200.723C41.568 202.883 40.096 204.451 37.84 204.451ZM37.568 198.419H34.912V203.043H37.504C39.056 203.043 39.92 202.131 39.92 200.707C39.92 199.251 39.04 198.419 37.568 198.419ZM42.2166 204.659C42.2166 202.243 43.9446 200.547 46.2966 200.547C48.6326 200.547 50.3606 202.243 50.3606 204.659C50.3606 207.075 48.6326 208.771 46.2966 208.771C43.9446 208.771 42.2166 207.075 42.2166 204.659ZM43.7366 204.659C43.7366 206.291 44.7766 207.427 46.2966 207.427C47.8006 207.427 48.8566 206.291 48.8566 204.659C48.8566 203.027 47.8006 201.891 46.2966 201.891C44.7766 201.891 43.7366 203.027 43.7366 204.659ZM51.3855 206.307H52.8255C52.8255 207.107 53.4335 207.587 54.4255 207.587C55.4815 207.587 56.0895 207.155 56.0895 206.435C56.0895 205.907 55.8335 205.587 55.0175 205.379L53.6415 205.059C52.2495 204.723 51.5935 204.035 51.5935 202.883C51.5935 201.443 52.8095 200.531 54.5375 200.531C56.2495 200.531 57.3695 201.491 57.4015 202.979H55.9615C55.9295 202.195 55.4015 201.699 54.4895 201.699C53.5455 201.699 53.0175 202.115 53.0175 202.835C53.0175 203.363 53.4015 203.715 54.1695 203.907L55.5455 204.243C56.8735 204.563 57.5295 205.171 57.5295 206.339C57.5295 207.827 56.2495 208.771 54.3935 208.771C52.5535 208.771 51.3855 207.795 51.3855 206.307ZM61.4054 208.579H59.9014V202.019H58.3654V200.755H59.9014V198.307H61.4054V200.755H62.9414V202.019H61.4054V208.579ZM67.589 208.771C65.285 208.771 63.701 207.107 63.701 204.675C63.701 202.227 65.253 200.531 67.525 200.531C69.749 200.531 71.205 202.067 71.205 204.387V204.947L65.157 204.963C65.269 206.611 66.133 207.523 67.621 207.523C68.789 207.523 69.557 207.043 69.813 206.147H71.221C70.837 207.827 69.525 208.771 67.589 208.771ZM67.525 201.795C66.213 201.795 65.381 202.579 65.189 203.955H69.701C69.701 202.659 68.853 201.795 67.525 201.795ZM76.0209 208.771C73.7489 208.771 72.3729 207.075 72.3729 204.691C72.3729 202.291 73.7649 200.531 76.0849 200.531C77.2849 200.531 78.2929 201.059 78.8209 202.019V196.803H80.3089V208.579H78.9649L78.8369 207.155C78.3249 208.227 77.2689 208.771 76.0209 208.771ZM76.3249 207.411C77.8609 207.411 78.8049 206.275 78.8049 204.643C78.8049 203.043 77.8609 201.891 76.3249 201.891C74.7889 201.891 73.8929 203.043 73.8929 204.643C73.8929 206.259 74.7889 207.411 76.3249 207.411ZM86.3416 204.659C86.3416 202.243 88.0696 200.547 90.4216 200.547C92.7576 200.547 94.4856 202.243 94.4856 204.659C94.4856 207.075 92.7576 208.771 90.4216 208.771C88.0696 208.771 86.3416 207.075 86.3416 204.659ZM87.8616 204.659C87.8616 206.291 88.9016 207.427 90.4216 207.427C91.9256 207.427 92.9816 206.291 92.9816 204.659C92.9816 203.027 91.9256 201.891 90.4216 201.891C88.9016 201.891 87.8616 203.027 87.8616 204.659ZM97.6545 208.579H96.1505V200.755H97.5105L97.6705 201.955C98.1665 201.059 99.1585 200.531 100.263 200.531C102.327 200.531 103.271 201.795 103.271 203.795V208.579H101.767V204.131C101.767 202.547 101.031 201.907 99.8785 201.907C98.4705 201.907 97.6545 202.915 97.6545 204.435V208.579ZM110.465 208.579H108.833L113.057 197.011H114.801L119.041 208.579H117.393L116.353 205.699H111.489L110.465 208.579ZM113.729 199.507L111.969 204.339H115.889L114.113 199.507C114.033 199.283 113.953 199.011 113.921 198.835C113.889 198.995 113.809 199.267 113.729 199.507ZM125.512 200.755H127V208.579H125.656L125.496 207.395C125.048 208.211 124.008 208.771 122.856 208.771C121.032 208.771 120.008 207.539 120.008 205.619V200.755H121.512V205.123C121.512 206.803 122.232 207.443 123.384 207.443C124.76 207.443 125.512 206.563 125.512 204.883V200.755ZM128.686 204.467C128.686 202.259 130.11 200.531 132.382 200.531C133.646 200.531 134.622 201.107 135.118 202.083L135.23 200.755H136.574V208.259C136.574 210.723 135.054 212.291 132.654 212.291C130.526 212.291 129.07 211.091 128.782 209.107H130.286C130.478 210.259 131.342 210.931 132.654 210.931C134.126 210.931 135.086 209.971 135.086 208.483V206.915C134.574 207.827 133.55 208.371 132.318 208.371C130.094 208.371 128.686 206.659 128.686 204.467ZM130.19 204.435C130.19 205.907 131.102 207.059 132.574 207.059C134.094 207.059 135.022 205.971 135.022 204.435C135.022 202.931 134.126 201.843 132.59 201.843C131.086 201.843 130.19 202.995 130.19 204.435ZM144.152 200.755H145.64V208.579H144.296L144.136 207.395C143.688 208.211 142.648 208.771 141.496 208.771C139.672 208.771 138.648 207.539 138.648 205.619V200.755H140.152V205.123C140.152 206.803 140.872 207.443 142.024 207.443C143.4 207.443 144.152 206.563 144.152 204.883V200.755ZM147.026 206.307H148.466C148.466 207.107 149.074 207.587 150.066 207.587C151.122 207.587 151.73 207.155 151.73 206.435C151.73 205.907 151.474 205.587 150.658 205.379L149.282 205.059C147.89 204.723 147.234 204.035 147.234 202.883C147.234 201.443 148.45 200.531 150.178 200.531C151.89 200.531 153.01 201.491 153.042 202.979H151.602C151.57 202.195 151.042 201.699 150.13 201.699C149.186 201.699 148.658 202.115 148.658 202.835C148.658 203.363 149.042 203.715 149.81 203.907L151.186 204.243C152.514 204.563 153.17 205.171 153.17 206.339C153.17 207.827 151.89 208.771 150.034 208.771C148.194 208.771 147.026 207.795 147.026 206.307ZM157.046 208.579H155.542V202.019H154.006V200.755H155.542V198.307H157.046V200.755H158.582V202.019H157.046V208.579ZM166.211 198.419H163.779V197.011H167.715V208.579H166.211V198.419ZM173.656 208.771C171.288 208.771 169.752 207.267 169.752 204.963H171.304C171.304 206.451 172.216 207.363 173.688 207.363C175.256 207.363 176.264 206.323 176.264 204.755C176.264 203.267 175.32 202.163 173.704 202.163C172.728 202.163 171.832 202.627 171.304 203.283L169.976 202.947L171.384 197.011H177.176V198.451H172.52L171.752 201.523C172.36 201.059 173.128 200.819 173.992 200.819C176.344 200.819 177.864 202.467 177.864 204.691C177.864 207.091 176.152 208.771 173.656 208.771ZM181.438 207.955C181.438 209.107 180.574 210.067 179.438 210.211V209.539C180.094 209.427 180.558 208.995 180.558 208.499C180.446 208.563 180.318 208.595 180.126 208.595C179.598 208.595 179.15 208.211 179.15 207.619C179.15 206.979 179.582 206.515 180.222 206.515C180.894 206.515 181.438 207.075 181.438 207.955ZM195.435 208.563L187.627 208.579V207.379L191.355 204.163C193.227 202.547 193.755 201.763 193.755 200.531C193.755 199.075 192.923 198.211 191.531 198.211C190.107 198.211 189.179 199.251 189.147 200.899H187.579C187.627 198.419 189.195 196.803 191.547 196.803C193.867 196.803 195.355 198.211 195.355 200.435C195.355 202.083 194.539 203.251 192.491 205.027L190.091 207.107H195.435V208.563ZM196.878 202.803C196.878 199.219 198.734 196.787 201.646 196.787C204.542 196.787 206.398 199.219 206.398 202.803C206.398 206.403 204.622 208.787 201.646 208.787C198.654 208.787 196.878 206.403 196.878 202.803ZM198.43 202.803C198.43 205.651 199.614 207.379 201.646 207.379C203.678 207.379 204.846 205.651 204.846 202.803C204.846 199.923 203.678 198.195 201.646 198.195C199.614 198.195 198.43 199.923 198.43 202.803ZM215.732 208.563L207.924 208.579V207.379L211.652 204.163C213.524 202.547 214.052 201.763 214.052 200.531C214.052 199.075 213.22 198.211 211.828 198.211C210.404 198.211 209.476 199.251 209.444 200.899H207.876C207.924 198.419 209.492 196.803 211.844 196.803C214.164 196.803 215.652 198.211 215.652 200.435C215.652 202.083 214.836 203.251 212.788 205.027L210.388 207.107H215.732V208.563ZM220.549 202.595H219.397V201.555L222.677 198.403H217.477V197.011H224.661V198.275L221.493 201.299C223.461 201.539 224.949 202.867 224.949 204.947C224.949 207.283 223.189 208.771 220.837 208.771C218.565 208.771 216.933 207.379 216.933 204.979H218.485C218.485 206.483 219.413 207.363 220.869 207.363C222.373 207.363 223.349 206.403 223.349 204.915C223.349 203.523 222.389 202.595 220.549 202.595Z" fill="black" fill-opacity="0.6"/>
</svg>
