<svg width="610" height="242" viewBox="0 0 610 242" fill="none" xmlns="http://www.w3.org/2000/svg">
<rect x="0.5" y="0.5" width="609" height="240.579" rx="19.5" stroke="black" stroke-opacity="0.1"/>
<path d="M43.2895 28L46.4879 34.8872L54.0264 35.8008L48.4647 40.971L49.9253 48.4229L43.2895 44.731L36.6537 48.4229L38.1143 40.971L32.5525 35.8008L40.091 34.8872L43.2895 28Z" fill="#FFC633"/>
<path d="M72.3552 28L75.5536 34.8872L83.0921 35.8008L77.5304 40.971L78.991 48.4229L72.3552 44.731L65.7194 48.4229L67.18 40.971L61.6182 35.8008L69.1567 34.8872L72.3552 28Z" fill="#FFC633"/>
<path d="M101.421 28L104.62 34.8872L112.158 35.8008L106.596 40.971L108.057 48.4229L101.421 44.731L94.7853 48.4229L96.2459 40.971L90.6841 35.8008L98.2226 34.8872L101.421 28Z" fill="#FFC633"/>
<path d="M130.487 28L133.685 34.8872L141.224 35.8008L135.662 40.971L137.123 48.4229L130.487 44.731L123.851 48.4229L125.312 40.971L119.75 35.8008L127.288 34.8872L130.487 28Z" fill="#FFC633"/>
<path d="M36.18 70.459V82.719H42.3V85.079H33.62V70.459H36.18ZM45.2417 73.219C44.4017 73.219 43.7417 72.559 43.7417 71.739C43.7417 70.919 44.4017 70.279 45.2417 70.279C46.0417 70.279 46.7017 70.919 46.7017 71.739C46.7017 72.559 46.0417 73.219 45.2417 73.219ZM44.0217 85.079V75.199H46.4617V85.079H44.0217ZM51.9227 85.339C49.8227 85.339 48.5427 84.119 48.5427 82.259C48.5427 80.439 49.8627 79.299 52.2027 79.119L55.1627 78.899V78.679C55.1627 77.339 54.3627 76.799 53.1227 76.799C51.6827 76.799 50.8827 77.399 50.8827 78.439H48.8027C48.8027 76.299 50.5627 74.899 53.2427 74.899C55.9027 74.899 57.5427 76.339 57.5427 79.079V85.079H55.4027L55.2227 83.619C54.8027 84.639 53.4627 85.339 51.9227 85.339ZM52.7227 83.499C54.2227 83.499 55.1827 82.599 55.1827 81.079V80.559L53.1227 80.719C51.6027 80.859 51.0227 81.359 51.0227 82.159C51.0227 83.059 51.6227 83.499 52.7227 83.499ZM62.3797 85.079H59.9397V75.199H62.1797L62.3797 76.359C62.8797 75.539 63.8797 74.899 65.2997 74.899C66.7997 74.899 67.8397 75.639 68.3597 76.779C68.8597 75.639 70.0197 74.899 71.5197 74.899C73.9197 74.899 75.2397 76.339 75.2397 78.619V85.079H72.8197V79.259C72.8197 77.839 72.0597 77.099 70.8997 77.099C69.7197 77.099 68.8197 77.859 68.8197 79.479V85.079H66.3797V79.239C66.3797 77.859 65.6397 77.119 64.4797 77.119C63.3197 77.119 62.3797 77.879 62.3797 79.479V85.079ZM85.9456 70.459V78.139L91.8656 70.459H94.8856L90.0456 76.699L94.9456 85.079H91.9856L88.3656 78.859L85.9456 81.959V85.079H83.3856V70.459H85.9456ZM98.1422 85.319C97.2622 85.319 96.5222 84.599 96.5222 83.739C96.5222 82.859 97.2622 82.139 98.1422 82.139C99.0222 82.139 99.7622 82.859 99.7622 83.739C99.7622 84.599 99.0222 85.319 98.1422 85.319Z" fill="black"/>
<path d="M118 67.829C116.072 67.829 114.187 68.4008 112.583 69.4722C110.98 70.5435 109.73 72.0662 108.992 73.8478C108.254 75.6294 108.061 77.5898 108.437 79.4811C108.814 81.3724 109.742 83.1097 111.106 84.4733C112.469 85.8368 114.207 86.7654 116.098 87.1416C117.989 87.5178 119.95 87.3248 121.731 86.5868C123.513 85.8489 125.035 84.5992 126.107 82.9958C127.178 81.3924 127.75 79.5073 127.75 77.579C127.747 74.994 126.719 72.5156 124.891 70.6877C123.063 68.8598 120.585 67.8317 118 67.829ZM122.281 75.8596L117.031 81.1096C116.961 81.1793 116.878 81.2347 116.787 81.2724C116.696 81.3101 116.599 81.3296 116.5 81.3296C116.401 81.3296 116.304 81.3101 116.213 81.2724C116.122 81.2347 116.039 81.1793 115.969 81.1096L113.719 78.8596C113.579 78.7189 113.5 78.528 113.5 78.329C113.5 78.13 113.579 77.9391 113.719 77.7984C113.86 77.6576 114.051 77.5786 114.25 77.5786C114.449 77.5786 114.64 77.6576 114.781 77.7984L116.5 79.5187L121.219 74.7984C121.289 74.7287 121.372 74.6734 121.463 74.6357C121.554 74.598 121.651 74.5786 121.75 74.5786C121.849 74.5786 121.946 74.598 122.037 74.6357C122.128 74.6734 122.211 74.7287 122.281 74.7984C122.35 74.868 122.406 74.9508 122.443 75.0418C122.481 75.1329 122.5 75.2304 122.5 75.329C122.5 75.4275 122.481 75.5251 122.443 75.6162C122.406 75.7072 122.35 75.7899 122.281 75.8596Z" fill="#01AB31"/>
<path d="M34.08 107.907L33.776 111.091H33.056L32.736 107.907C32.672 107.347 33.072 107.091 33.424 107.091C33.76 107.091 34.144 107.347 34.08 107.907ZM36.336 107.907L36.032 111.091H35.312L34.992 107.907C34.928 107.347 35.328 107.091 35.68 107.091C36.016 107.091 36.4 107.347 36.336 107.907ZM37.5826 108.179V107.123H45.7906V108.179H42.2546V118.579H41.1026V108.179H37.5826ZM48.2404 118.563H47.1364V106.915H48.2404V112.179C48.7364 111.251 49.6804 110.627 50.9764 110.627C53.0084 110.627 53.9204 111.891 53.9204 113.843V118.579H52.8164V114.083C52.8164 112.275 51.9684 111.635 50.7684 111.635C49.1044 111.635 48.2404 112.867 48.2404 114.355V118.563ZM56.6648 108.707C56.2168 108.707 55.8488 108.339 55.8488 107.891C55.8488 107.443 56.2168 107.059 56.6648 107.059C57.1128 107.059 57.4968 107.443 57.4968 107.891C57.4968 108.339 57.1128 108.707 56.6648 108.707ZM56.1208 118.579V110.835H57.2248V118.579H56.1208ZM58.871 116.403H59.927C59.927 117.299 60.599 117.859 61.687 117.859C62.887 117.859 63.591 117.347 63.591 116.515C63.591 115.875 63.271 115.507 62.359 115.283L61.031 114.947C59.687 114.611 59.031 113.907 59.031 112.851C59.031 111.491 60.167 110.627 61.831 110.627C63.463 110.627 64.519 111.523 64.567 112.963H63.495C63.463 112.067 62.839 111.539 61.799 111.539C60.711 111.539 60.103 112.003 60.103 112.835C60.103 113.427 60.519 113.843 61.367 114.051L62.695 114.387C64.039 114.723 64.647 115.347 64.647 116.467C64.647 117.859 63.463 118.771 61.703 118.771C59.959 118.771 58.871 117.843 58.871 116.403ZM72.678 118.579H71.59V111.763H70.038V110.835H71.59V108.387H72.678V110.835H74.23V111.763H72.678V118.579ZM75.2271 114.867V113.875H79.8671V114.867H75.2271ZM81.3554 116.403H82.4114C82.4114 117.299 83.0834 117.859 84.1714 117.859C85.3714 117.859 86.0754 117.347 86.0754 116.515C86.0754 115.875 85.7554 115.507 84.8434 115.283L83.5154 114.947C82.1714 114.611 81.5154 113.907 81.5154 112.851C81.5154 111.491 82.6514 110.627 84.3154 110.627C85.9474 110.627 87.0034 111.523 87.0514 112.963H85.9794C85.9474 112.067 85.3234 111.539 84.2834 111.539C83.1954 111.539 82.5874 112.003 82.5874 112.835C82.5874 113.427 83.0034 113.843 83.8514 114.051L85.1794 114.387C86.5234 114.723 87.1314 115.347 87.1314 116.467C87.1314 117.859 85.9474 118.771 84.1874 118.771C82.4434 118.771 81.3554 117.843 81.3554 116.403ZM90.0529 118.563H88.9489V106.915H90.0529V112.179C90.5489 111.251 91.4929 110.627 92.7889 110.627C94.8209 110.627 95.7329 111.891 95.7329 113.843V118.579H94.6289V114.083C94.6289 112.275 93.7809 111.635 92.5809 111.635C90.9169 111.635 90.0529 112.867 90.0529 114.355V118.563ZM98.4773 108.707C98.0293 108.707 97.6613 108.339 97.6613 107.891C97.6613 107.443 98.0293 107.059 98.4773 107.059C98.9253 107.059 99.3093 107.443 99.3093 107.891C99.3093 108.339 98.9253 108.707 98.4773 108.707ZM97.9333 118.579V110.835H99.0373V118.579H97.9333ZM105.388 110.739V111.731H104.78C103.356 111.731 102.444 112.691 102.444 114.163V118.579H101.34V110.835H102.38L102.46 112.035C102.764 111.203 103.58 110.659 104.668 110.659C104.908 110.659 105.116 110.675 105.388 110.739ZM108.944 118.579H107.856V111.763H106.304V110.835H107.856V108.387H108.944V110.835H110.496V111.763H108.944V118.579ZM116.915 108.707C116.467 108.707 116.099 108.339 116.099 107.891C116.099 107.443 116.467 107.059 116.915 107.059C117.363 107.059 117.747 107.443 117.747 107.891C117.747 108.339 117.363 108.707 116.915 108.707ZM116.371 118.579V110.835H117.475V118.579H116.371ZM119.121 116.403H120.177C120.177 117.299 120.849 117.859 121.937 117.859C123.137 117.859 123.841 117.347 123.841 116.515C123.841 115.875 123.521 115.507 122.609 115.283L121.281 114.947C119.937 114.611 119.281 113.907 119.281 112.851C119.281 111.491 120.417 110.627 122.081 110.627C123.713 110.627 124.769 111.523 124.817 112.963H123.745C123.713 112.067 123.089 111.539 122.049 111.539C120.961 111.539 120.353 112.003 120.353 112.835C120.353 113.427 120.769 113.843 121.617 114.051L122.945 114.387C124.289 114.723 124.897 115.347 124.897 116.467C124.897 117.859 123.713 118.771 121.953 118.771C120.209 118.771 119.121 117.843 119.121 116.403ZM133.376 118.771C131.728 118.771 130.752 117.843 130.752 116.483C130.752 115.059 131.84 114.163 133.648 114.019L136.208 113.811V113.555C136.208 112.035 135.296 111.555 134.16 111.555C132.816 111.555 132.016 112.163 132.016 113.203H131.008C131.008 111.635 132.288 110.627 134.192 110.627C135.984 110.627 137.296 111.523 137.296 113.571V118.579H136.368L136.224 117.219C135.744 118.195 134.688 118.771 133.376 118.771ZM133.632 117.875C135.264 117.875 136.208 116.739 136.208 115.059V114.643L133.92 114.819C132.464 114.947 131.872 115.587 131.872 116.451C131.872 117.395 132.576 117.875 133.632 117.875ZM143.085 110.835H144.269V109.331C144.269 107.587 145.229 106.915 146.413 106.915C146.685 106.915 147.005 106.931 147.261 106.979V107.923H146.605C145.629 107.923 145.373 108.419 145.373 109.331V110.835H147.197V111.763H145.373V118.579H144.269V111.763H143.085V110.835ZM154.139 110.835H155.243V118.579H154.283L154.139 117.267C153.707 118.163 152.635 118.771 151.419 118.771C149.595 118.771 148.603 117.523 148.603 115.635V110.819H149.723V115.283C149.723 117.123 150.539 117.779 151.771 117.779C153.259 117.779 154.139 116.787 154.139 114.947V110.835ZM156.73 116.403H157.786C157.786 117.299 158.458 117.859 159.546 117.859C160.746 117.859 161.45 117.347 161.45 116.515C161.45 115.875 161.13 115.507 160.218 115.283L158.89 114.947C157.546 114.611 156.89 113.907 156.89 112.851C156.89 111.491 158.026 110.627 159.69 110.627C161.322 110.627 162.378 111.523 162.426 112.963H161.354C161.322 112.067 160.698 111.539 159.658 111.539C158.57 111.539 157.962 112.003 157.962 112.835C157.962 113.427 158.378 113.843 159.226 114.051L160.554 114.387C161.898 114.723 162.506 115.347 162.506 116.467C162.506 117.859 161.322 118.771 159.562 118.771C157.818 118.771 156.73 117.843 156.73 116.403ZM164.868 108.707C164.42 108.707 164.052 108.339 164.052 107.891C164.052 107.443 164.42 107.059 164.868 107.059C165.316 107.059 165.7 107.443 165.7 107.891C165.7 108.339 165.316 108.707 164.868 108.707ZM164.324 118.579V110.835H165.428V118.579H164.324ZM167.186 114.707C167.186 112.339 168.85 110.627 171.122 110.627C173.394 110.627 175.058 112.339 175.058 114.707C175.058 117.059 173.394 118.771 171.122 118.771C168.85 118.771 167.186 117.059 167.186 114.707ZM168.306 114.691C168.306 116.515 169.458 117.779 171.122 117.779C172.77 117.779 173.938 116.515 173.938 114.691C173.938 112.899 172.77 111.619 171.122 111.619C169.458 111.619 168.306 112.899 168.306 114.691ZM177.928 118.579H176.824V110.835H177.784L177.944 112.179C178.456 111.187 179.48 110.627 180.6 110.627C182.728 110.627 183.608 111.891 183.608 113.843V118.579H182.504V114.083C182.504 112.275 181.688 111.635 180.408 111.635C178.824 111.635 177.928 112.787 177.928 114.531V118.579ZM189.702 114.707C189.702 112.339 191.366 110.627 193.638 110.627C195.91 110.627 197.574 112.339 197.574 114.707C197.574 117.059 195.91 118.771 193.638 118.771C191.366 118.771 189.702 117.059 189.702 114.707ZM190.822 114.691C190.822 116.515 191.974 117.779 193.638 117.779C195.286 117.779 196.454 116.515 196.454 114.691C196.454 112.899 195.286 111.619 193.638 111.619C191.974 111.619 190.822 112.899 190.822 114.691ZM198.413 110.835H199.597V109.331C199.597 107.587 200.557 106.915 201.741 106.915C202.013 106.915 202.333 106.931 202.589 106.979V107.923H201.933C200.957 107.923 200.701 108.419 200.701 109.331V110.835H202.525V111.763H200.701V118.579H199.597V111.763H198.413V110.835ZM207.921 114.723C207.921 112.291 209.409 110.627 211.665 110.627C213.457 110.627 214.769 111.667 215.073 113.267H213.969C213.681 112.195 212.753 111.603 211.681 111.603C210.113 111.603 209.009 112.803 209.009 114.707C209.009 116.547 210.033 117.779 211.601 117.779C212.753 117.779 213.681 117.139 213.985 116.147H215.105C214.737 117.731 213.361 118.771 211.601 118.771C209.409 118.771 207.921 117.155 207.921 114.723ZM216.233 114.707C216.233 112.339 217.897 110.627 220.169 110.627C222.441 110.627 224.105 112.339 224.105 114.707C224.105 117.059 222.441 118.771 220.169 118.771C217.897 118.771 216.233 117.059 216.233 114.707ZM217.353 114.691C217.353 116.515 218.505 117.779 220.169 117.779C221.817 117.779 222.985 116.515 222.985 114.691C222.985 112.899 221.817 111.619 220.169 111.619C218.505 111.619 217.353 112.899 217.353 114.691ZM226.975 118.579H225.871V110.835H226.831L226.959 111.939C227.343 111.123 228.207 110.627 229.295 110.627C230.511 110.627 231.423 111.267 231.791 112.275C232.143 111.267 233.087 110.627 234.335 110.627C236.015 110.627 237.119 111.715 237.119 113.507V118.579H236.047V113.731C236.047 112.403 235.311 111.619 234.127 111.619C232.831 111.619 232.063 112.595 232.063 113.795V118.579H230.975V113.715C230.975 112.403 230.223 111.635 229.055 111.635C227.759 111.635 226.975 112.595 226.975 113.779V118.579ZM238.476 110.835H239.66V109.331C239.66 107.587 240.62 106.915 241.804 106.915C242.076 106.915 242.396 106.931 242.652 106.979V107.923H241.996C241.02 107.923 240.764 108.419 240.764 109.331V110.835H242.588V111.763H240.764V118.579H239.66V111.763H238.476V110.835ZM243.311 114.707C243.311 112.339 244.975 110.627 247.247 110.627C249.519 110.627 251.183 112.339 251.183 114.707C251.183 117.059 249.519 118.771 247.247 118.771C244.975 118.771 243.311 117.059 243.311 114.707ZM244.431 114.691C244.431 116.515 245.583 117.779 247.247 117.779C248.895 117.779 250.063 116.515 250.063 114.691C250.063 112.899 248.895 111.619 247.247 111.619C245.583 111.619 244.431 112.899 244.431 114.691ZM256.997 110.739V111.731H256.389C254.965 111.731 254.053 112.691 254.053 114.163V118.579H252.949V110.835H253.989L254.069 112.035C254.373 111.203 255.189 110.659 256.277 110.659C256.517 110.659 256.725 110.675 256.997 110.739ZM260.553 118.579H259.465V111.763H257.913V110.835H259.465V108.387H260.553V110.835H262.105V111.763H260.553V118.579ZM270.204 118.771C268.556 118.771 267.58 117.843 267.58 116.483C267.58 115.059 268.668 114.163 270.476 114.019L273.036 113.811V113.555C273.036 112.035 272.124 111.555 270.988 111.555C269.644 111.555 268.844 112.163 268.844 113.203H267.836C267.836 111.635 269.116 110.627 271.02 110.627C272.812 110.627 274.124 111.523 274.124 113.571V118.579H273.196L273.052 117.219C272.572 118.195 271.516 118.771 270.204 118.771ZM270.46 117.875C272.092 117.875 273.036 116.739 273.036 115.059V114.643L270.748 114.819C269.292 114.947 268.7 115.587 268.7 116.451C268.7 117.395 269.404 117.875 270.46 117.875ZM277.444 118.579H276.34V110.835H277.299L277.46 112.179C277.972 111.187 278.996 110.627 280.116 110.627C282.244 110.627 283.124 111.891 283.124 113.843V118.579H282.02V114.083C282.02 112.275 281.204 111.635 279.924 111.635C278.34 111.635 277.444 112.787 277.444 114.531V118.579ZM288.364 118.771C286.108 118.771 284.78 117.043 284.78 114.723C284.78 112.387 286.108 110.627 288.412 110.627C289.692 110.627 290.716 111.187 291.26 112.307V106.915H292.364V118.579H291.404L291.292 116.995C290.748 118.195 289.66 118.771 288.364 118.771ZM288.556 117.763C290.252 117.763 291.244 116.483 291.244 114.691C291.244 112.915 290.252 111.619 288.556 111.619C286.876 111.619 285.9 112.915 285.9 114.691C285.9 116.483 286.876 117.763 288.556 117.763ZM298.561 114.723C298.561 112.291 300.049 110.627 302.305 110.627C304.097 110.627 305.409 111.667 305.713 113.267H304.609C304.321 112.195 303.393 111.603 302.321 111.603C300.753 111.603 299.649 112.803 299.649 114.707C299.649 116.547 300.673 117.779 302.241 117.779C303.393 117.779 304.321 117.139 304.625 116.147H305.745C305.377 117.731 304.001 118.771 302.241 118.771C300.049 118.771 298.561 117.155 298.561 114.723ZM311.466 110.739V111.731H310.858C309.434 111.731 308.522 112.691 308.522 114.163V118.579H307.418V110.835H308.458L308.538 112.035C308.842 111.203 309.658 110.659 310.746 110.659C310.986 110.659 311.194 110.675 311.466 110.739ZM315.884 118.771C313.612 118.771 312.092 117.139 312.092 114.707C312.092 112.291 313.596 110.627 315.804 110.627C317.9 110.627 319.324 112.115 319.324 114.307V114.851H313.164C313.244 116.739 314.236 117.827 315.9 117.827C317.164 117.827 317.98 117.283 318.268 116.259H319.324C318.908 117.891 317.708 118.771 315.884 118.771ZM315.804 111.571C314.348 111.571 313.388 112.531 313.196 114.051H318.22C318.22 112.563 317.26 111.571 315.804 111.571ZM323.235 118.771C321.587 118.771 320.611 117.843 320.611 116.483C320.611 115.059 321.699 114.163 323.507 114.019L326.067 113.811V113.555C326.067 112.035 325.155 111.555 324.019 111.555C322.675 111.555 321.875 112.163 321.875 113.203H320.867C320.867 111.635 322.147 110.627 324.051 110.627C325.843 110.627 327.155 111.523 327.155 113.571V118.579H326.227L326.083 117.219C325.603 118.195 324.547 118.771 323.235 118.771ZM323.491 117.875C325.123 117.875 326.067 116.739 326.067 115.059V114.643L323.779 114.819C322.323 114.947 321.731 115.587 321.731 116.451C321.731 117.395 322.435 117.875 323.491 117.875ZM331.006 118.579H329.918V111.763H328.366V110.835H329.918V108.387H331.006V110.835H332.558V111.763H331.006V118.579ZM334.54 108.707C334.092 108.707 333.724 108.339 333.724 107.891C333.724 107.443 334.092 107.059 334.54 107.059C334.988 107.059 335.372 107.443 335.372 107.891C335.372 108.339 334.988 108.707 334.54 108.707ZM333.996 118.579V110.835H335.1V118.579H333.996ZM339.562 118.579L336.394 110.835H337.578L339.578 115.827C339.786 116.387 339.994 116.915 340.138 117.427C340.282 116.899 340.49 116.387 340.714 115.827L342.746 110.835H343.882L340.666 118.579H339.562ZM345.727 108.707C345.279 108.707 344.911 108.339 344.911 107.891C344.911 107.443 345.279 107.059 345.727 107.059C346.175 107.059 346.559 107.443 346.559 107.891C346.559 108.339 346.175 108.707 345.727 108.707ZM345.183 118.579V110.835H346.287V118.579H345.183ZM350.366 118.579H349.278V111.763H347.726V110.835H349.278V108.387H350.366V110.835H351.918V111.763H350.366V118.579ZM352.571 121.955V121.043H353.419C354.091 121.043 354.763 120.995 355.147 119.955L355.483 119.043L352.347 110.835H353.515L356.011 117.587L358.459 110.835H359.595L356.043 120.355C355.595 121.571 354.843 122.067 353.739 122.067C353.275 122.067 352.923 122.035 352.571 121.955ZM360.612 118.755C360.068 118.755 359.604 118.307 359.604 117.779C359.604 117.235 360.068 116.771 360.612 116.771C361.156 116.771 361.62 117.235 361.62 117.779C361.62 118.307 361.156 118.755 360.612 118.755ZM367.333 108.179V107.123H375.541V108.179H372.005V118.579H370.853V108.179H367.333ZM377.99 118.563H376.886V106.915H377.99V112.179C378.486 111.251 379.43 110.627 380.726 110.627C382.758 110.627 383.67 111.891 383.67 113.843V118.579H382.566V114.083C382.566 112.275 381.718 111.635 380.518 111.635C378.854 111.635 377.99 112.867 377.99 114.355V118.563ZM389.119 118.771C386.847 118.771 385.327 117.139 385.327 114.707C385.327 112.291 386.831 110.627 389.039 110.627C391.135 110.627 392.559 112.115 392.559 114.307V114.851H386.399C386.479 116.739 387.471 117.827 389.135 117.827C390.399 117.827 391.215 117.283 391.503 116.259H392.559C392.143 117.891 390.943 118.771 389.119 118.771ZM389.039 111.571C387.583 111.571 386.623 112.531 386.431 114.051H391.455C391.455 112.563 390.495 111.571 389.039 111.571ZM397.897 110.835H399.081V109.331C399.081 107.587 400.041 106.915 401.225 106.915C401.497 106.915 401.817 106.931 402.073 106.979V107.923H401.417C400.441 107.923 400.185 108.419 400.185 109.331V110.835H402.009V111.763H400.185V118.579H399.081V111.763H397.897V110.835ZM405.454 118.771C403.806 118.771 402.83 117.843 402.83 116.483C402.83 115.059 403.918 114.163 405.726 114.019L408.286 113.811V113.555C408.286 112.035 407.374 111.555 406.238 111.555C404.894 111.555 404.094 112.163 404.094 113.203H403.086C403.086 111.635 404.366 110.627 406.27 110.627C408.062 110.627 409.374 111.523 409.374 113.571V118.579H408.446L408.302 117.219C407.822 118.195 406.766 118.771 405.454 118.771ZM405.71 117.875C407.342 117.875 408.286 116.739 408.286 115.059V114.643L405.998 114.819C404.542 114.947 403.95 115.587 403.95 116.451C403.95 117.395 404.654 117.875 405.71 117.875ZM412.549 118.579H411.59V106.915H412.694V112.339C413.238 111.203 414.294 110.627 415.606 110.627C417.862 110.627 419.174 112.387 419.174 114.723C419.174 117.043 417.83 118.771 415.574 118.771C414.278 118.771 413.206 118.195 412.662 116.995L412.549 118.579ZM412.71 114.691C412.71 116.483 413.702 117.763 415.398 117.763C417.078 117.763 418.054 116.483 418.054 114.691C418.054 112.915 417.078 111.619 415.398 111.619C413.702 111.619 412.71 112.915 412.71 114.691ZM424.981 110.739V111.731H424.373C422.949 111.731 422.037 112.691 422.037 114.163V118.579H420.933V110.835H421.973L422.053 112.035C422.357 111.203 423.173 110.659 424.261 110.659C424.501 110.659 424.709 110.675 424.981 110.739ZM426.993 108.707C426.545 108.707 426.177 108.339 426.177 107.891C426.177 107.443 426.545 107.059 426.993 107.059C427.441 107.059 427.825 107.443 427.825 107.891C427.825 108.339 427.441 108.707 426.993 108.707ZM426.449 118.579V110.835H427.553V118.579H426.449ZM429.311 114.723C429.311 112.291 430.799 110.627 433.055 110.627C434.847 110.627 436.159 111.667 436.463 113.267H435.359C435.071 112.195 434.143 111.603 433.071 111.603C431.503 111.603 430.399 112.803 430.399 114.707C430.399 116.547 431.423 117.779 432.991 117.779C434.143 117.779 435.071 117.139 435.375 116.147H436.495C436.127 117.731 434.751 118.771 432.991 118.771C430.799 118.771 429.311 117.155 429.311 114.723ZM443.149 108.707C442.701 108.707 442.333 108.339 442.333 107.891C442.333 107.443 442.701 107.059 443.149 107.059C443.597 107.059 443.981 107.443 443.981 107.891C443.981 108.339 443.597 108.707 443.149 108.707ZM442.605 118.579V110.835H443.709V118.579H442.605ZM445.355 116.403H446.411C446.411 117.299 447.083 117.859 448.171 117.859C449.371 117.859 450.075 117.347 450.075 116.515C450.075 115.875 449.755 115.507 448.843 115.283L447.515 114.947C446.171 114.611 445.515 113.907 445.515 112.851C445.515 111.491 446.651 110.627 448.315 110.627C449.947 110.627 451.003 111.523 451.051 112.963H449.979C449.947 112.067 449.323 111.539 448.283 111.539C447.195 111.539 446.587 112.003 446.587 112.835C446.587 113.427 447.003 113.843 447.851 114.051L449.179 114.387C450.523 114.723 451.131 115.347 451.131 116.467C451.131 117.859 449.947 118.771 448.187 118.771C446.443 118.771 445.355 117.843 445.355 116.403ZM456.73 116.403H457.786C457.786 117.299 458.458 117.859 459.546 117.859C460.746 117.859 461.45 117.347 461.45 116.515C461.45 115.875 461.13 115.507 460.218 115.283L458.89 114.947C457.546 114.611 456.89 113.907 456.89 112.851C456.89 111.491 458.026 110.627 459.69 110.627C461.322 110.627 462.378 111.523 462.426 112.963H461.354C461.322 112.067 460.698 111.539 459.658 111.539C458.57 111.539 457.962 112.003 457.962 112.835C457.962 113.427 458.378 113.843 459.226 114.051L460.554 114.387C461.898 114.723 462.506 115.347 462.506 116.467C462.506 117.859 461.322 118.771 459.562 118.771C457.818 118.771 456.73 117.843 456.73 116.403ZM463.78 114.707C463.78 112.339 465.444 110.627 467.716 110.627C469.988 110.627 471.652 112.339 471.652 114.707C471.652 117.059 469.988 118.771 467.716 118.771C465.444 118.771 463.78 117.059 463.78 114.707ZM464.9 114.691C464.9 116.515 466.052 117.779 467.716 117.779C469.364 117.779 470.532 116.515 470.532 114.691C470.532 112.899 469.364 111.619 467.716 111.619C466.052 111.619 464.9 112.899 464.9 114.691ZM479.835 118.579H478.747V111.763H474.779V118.579H473.675V111.763H472.491V110.835H473.675V109.331C473.675 107.587 474.619 106.915 475.771 106.915C476.043 106.915 476.379 106.931 476.635 106.979V107.939H475.963C475.035 107.939 474.779 108.419 474.779 109.331V110.835H478.747V108.387H479.835V110.835H481.387V111.763H479.835V118.579ZM484.292 118.035C484.292 119.027 483.524 119.891 482.532 120.035V119.443C483.108 119.347 483.524 118.931 483.524 118.483C483.428 118.547 483.299 118.595 483.108 118.595C482.66 118.595 482.276 118.275 482.276 117.731C482.276 117.171 482.66 116.771 483.22 116.771C483.796 116.771 484.292 117.235 484.292 118.035ZM493.189 118.771C491.541 118.771 490.565 117.843 490.565 116.483C490.565 115.059 491.653 114.163 493.461 114.019L496.021 113.811V113.555C496.021 112.035 495.109 111.555 493.973 111.555C492.629 111.555 491.829 112.163 491.829 113.203H490.821C490.821 111.635 492.101 110.627 494.005 110.627C495.797 110.627 497.109 111.523 497.109 113.571V118.579H496.181L496.037 117.219C495.557 118.195 494.501 118.771 493.189 118.771ZM493.445 117.875C495.077 117.875 496.021 116.739 496.021 115.059V114.643L493.733 114.819C492.277 114.947 491.685 115.587 491.685 116.451C491.685 117.395 492.389 117.875 493.445 117.875ZM500.428 118.579H499.324V110.835H500.284L500.444 112.179C500.956 111.187 501.98 110.627 503.1 110.627C505.228 110.627 506.108 111.891 506.108 113.843V118.579H505.004V114.083C505.004 112.275 504.188 111.635 502.908 111.635C501.324 111.635 500.428 112.787 500.428 114.531V118.579ZM511.348 118.771C509.092 118.771 507.764 117.043 507.764 114.723C507.764 112.387 509.092 110.627 511.396 110.627C512.676 110.627 513.7 111.187 514.244 112.307V106.915H515.348V118.579H514.388L514.276 116.995C513.732 118.195 512.644 118.771 511.348 118.771ZM511.54 117.763C513.236 117.763 514.228 116.483 514.228 114.691C514.228 112.915 513.236 111.619 511.54 111.619C509.86 111.619 508.884 112.915 508.884 114.691C508.884 116.483 509.86 117.763 511.54 117.763ZM523.866 118.579H522.778V111.763H521.226V110.835H522.778V108.387H523.866V110.835H525.418V111.763H523.866V118.579ZM527.959 118.563H526.855V106.915H527.959V112.179C528.455 111.251 529.399 110.627 530.695 110.627C532.727 110.627 533.639 111.891 533.639 113.843V118.579H532.535V114.083C532.535 112.275 531.687 111.635 530.487 111.635C528.823 111.635 527.959 112.867 527.959 114.355V118.563ZM539.088 118.771C536.816 118.771 535.296 117.139 535.296 114.707C535.296 112.291 536.799 110.627 539.008 110.627C541.104 110.627 542.528 112.115 542.528 114.307V114.851H536.368C536.448 116.739 537.44 117.827 539.104 117.827C540.368 117.827 541.184 117.283 541.472 116.259H542.528C542.112 117.891 540.912 118.771 539.088 118.771ZM539.008 111.571C537.552 111.571 536.592 112.531 536.4 114.051H541.424C541.424 112.563 540.464 111.571 539.008 111.571ZM36.192 140.771C33.936 140.771 32.608 139.043 32.608 136.723C32.608 134.387 33.936 132.627 36.24 132.627C37.52 132.627 38.544 133.187 39.088 134.307V128.915H40.192V140.579H39.232L39.12 138.995C38.576 140.195 37.488 140.771 36.192 140.771ZM36.384 139.763C38.08 139.763 39.072 138.483 39.072 136.691C39.072 134.915 38.08 133.619 36.384 133.619C34.704 133.619 33.728 134.915 33.728 136.691C33.728 138.483 34.704 139.763 36.384 139.763ZM45.7438 140.771C43.4718 140.771 41.9518 139.139 41.9518 136.707C41.9518 134.291 43.4557 132.627 45.6638 132.627C47.7598 132.627 49.1838 134.115 49.1838 136.307V136.851H43.0238C43.1038 138.739 44.0958 139.827 45.7598 139.827C47.0238 139.827 47.8398 139.283 48.1278 138.259H49.1838C48.7678 139.891 47.5678 140.771 45.7438 140.771ZM45.6638 133.571C44.2078 133.571 43.2478 134.531 43.0558 136.051H48.0798C48.0798 134.563 47.1198 133.571 45.6638 133.571ZM50.2929 138.403H51.3489C51.3489 139.299 52.0209 139.859 53.1089 139.859C54.3089 139.859 55.0129 139.347 55.0129 138.515C55.0129 137.875 54.6929 137.507 53.7809 137.283L52.4529 136.947C51.1089 136.611 50.4529 135.907 50.4529 134.851C50.4529 133.491 51.5889 132.627 53.2529 132.627C54.8849 132.627 55.9409 133.523 55.9889 134.963H54.9169C54.8849 134.067 54.2609 133.539 53.2209 133.539C52.1329 133.539 51.5249 134.003 51.5249 134.835C51.5249 135.427 51.9409 135.843 52.7889 136.051L54.1169 136.387C55.4609 136.723 56.0689 137.347 56.0689 138.467C56.0689 139.859 54.8849 140.771 53.1249 140.771C51.3809 140.771 50.2929 139.843 50.2929 138.403ZM58.4304 130.707C57.9824 130.707 57.6144 130.339 57.6144 129.891C57.6144 129.443 57.9824 129.059 58.4304 129.059C58.8784 129.059 59.2624 129.443 59.2624 129.891C59.2624 130.339 58.8784 130.707 58.4304 130.707ZM57.8864 140.579V132.835H58.9904V140.579H57.8864ZM60.7646 136.483C60.7646 134.371 62.1246 132.627 64.3966 132.627C65.7406 132.627 66.7646 133.251 67.2606 134.387L67.3726 132.835H68.3326V140.339C68.3326 142.643 66.8606 144.147 64.5886 144.147C62.6046 144.147 61.2126 143.027 60.9086 141.155H62.0126C62.2526 142.403 63.2126 143.139 64.6046 143.139C66.1886 143.139 67.2446 142.067 67.2446 140.451V138.611C66.7166 139.699 65.6446 140.339 64.3166 140.339C62.1086 140.339 60.7646 138.595 60.7646 136.483ZM61.8686 136.467C61.8686 138.051 62.8446 139.347 64.4766 139.347C66.1566 139.347 67.1486 138.131 67.1486 136.467C67.1486 134.819 66.1886 133.603 64.4926 133.603C62.8286 133.603 61.8686 134.899 61.8686 136.467ZM71.7404 140.579H70.6364V132.835H71.5964L71.7564 134.179C72.2684 133.187 73.2924 132.627 74.4124 132.627C76.5404 132.627 77.4204 133.891 77.4204 135.843V140.579H76.3164V136.083C76.3164 134.275 75.5004 133.635 74.2204 133.635C72.6364 133.635 71.7404 134.787 71.7404 136.531V140.579ZM83.4023 138.403H84.4583C84.4583 139.299 85.1303 139.859 86.2183 139.859C87.4183 139.859 88.1223 139.347 88.1223 138.515C88.1223 137.875 87.8023 137.507 86.8903 137.283L85.5623 136.947C84.2183 136.611 83.5623 135.907 83.5623 134.851C83.5623 133.491 84.6983 132.627 86.3623 132.627C87.9943 132.627 89.0503 133.523 89.0983 134.963H88.0263C87.9943 134.067 87.3703 133.539 86.3303 133.539C85.2423 133.539 84.6343 134.003 84.6343 134.835C84.6343 135.427 85.0503 135.843 85.8983 136.051L87.2263 136.387C88.5703 136.723 89.1783 137.347 89.1783 138.467C89.1783 139.859 87.9943 140.771 86.2343 140.771C84.4903 140.771 83.4023 139.843 83.4023 138.403ZM90.9958 143.955V132.835H91.9557L92.0678 134.403C92.6118 133.203 93.6998 132.627 94.9958 132.627C97.2358 132.627 98.5798 134.339 98.5798 136.675C98.5798 139.011 97.2838 140.771 94.9958 140.771C93.6838 140.771 92.6438 140.211 92.0998 139.091V143.955H90.9958ZM92.1158 136.707C92.1158 138.483 93.1078 139.779 94.8038 139.779C96.4838 139.779 97.4598 138.483 97.4598 136.707C97.4598 134.915 96.4838 133.635 94.8038 133.635C93.1078 133.635 92.1158 134.915 92.1158 136.707ZM103.588 140.771C101.316 140.771 99.7955 139.139 99.7955 136.707C99.7955 134.291 101.299 132.627 103.508 132.627C105.604 132.627 107.028 134.115 107.028 136.307V136.851H100.868C100.948 138.739 101.94 139.827 103.604 139.827C104.868 139.827 105.684 139.283 105.972 138.259H107.028C106.612 139.891 105.412 140.771 103.588 140.771ZM103.508 133.571C102.052 133.571 101.092 134.531 100.9 136.051H105.924C105.924 134.563 104.964 133.571 103.508 133.571ZM110.939 140.771C109.291 140.771 108.315 139.843 108.315 138.483C108.315 137.059 109.403 136.163 111.211 136.019L113.771 135.811V135.555C113.771 134.035 112.859 133.555 111.723 133.555C110.379 133.555 109.579 134.163 109.579 135.203H108.571C108.571 133.635 109.851 132.627 111.755 132.627C113.547 132.627 114.859 133.523 114.859 135.571V140.579H113.931L113.787 139.219C113.307 140.195 112.251 140.771 110.939 140.771ZM111.195 139.875C112.827 139.875 113.771 138.739 113.771 137.059V136.643L111.483 136.819C110.027 136.947 109.435 137.587 109.435 138.451C109.435 139.395 110.139 139.875 111.195 139.875ZM118.226 140.579H117.122V128.915H118.226V136.835L122.066 132.835H123.458L120.482 135.923L123.474 140.579H122.194L119.73 136.707L118.226 138.259V140.579ZM124.246 138.403H125.302C125.302 139.299 125.974 139.859 127.062 139.859C128.262 139.859 128.966 139.347 128.966 138.515C128.966 137.875 128.646 137.507 127.734 137.283L126.406 136.947C125.062 136.611 124.406 135.907 124.406 134.851C124.406 133.491 125.542 132.627 127.206 132.627C128.838 132.627 129.894 133.523 129.942 134.963H128.87C128.838 134.067 128.214 133.539 127.174 133.539C126.086 133.539 125.478 134.003 125.478 134.835C125.478 135.427 125.894 135.843 126.742 136.051L128.07 136.387C129.414 136.723 130.022 137.347 130.022 138.467C130.022 139.859 128.838 140.771 127.078 140.771C125.334 140.771 124.246 139.843 124.246 138.403ZM138.437 140.579L135.269 132.835H136.453L138.453 137.827C138.661 138.387 138.869 138.915 139.013 139.427C139.157 138.899 139.365 138.387 139.589 137.827L141.621 132.835H142.757L139.541 140.579H138.437ZM143.171 136.707C143.171 134.339 144.835 132.627 147.107 132.627C149.379 132.627 151.043 134.339 151.043 136.707C151.043 139.059 149.379 140.771 147.107 140.771C144.835 140.771 143.171 139.059 143.171 136.707ZM144.291 136.691C144.291 138.515 145.443 139.779 147.107 139.779C148.755 139.779 149.923 138.515 149.923 136.691C149.923 134.899 148.755 133.619 147.107 133.619C145.443 133.619 144.291 134.899 144.291 136.691ZM153.96 140.579H152.856V128.915H153.96V140.579ZM161.748 132.835H162.852V140.579H161.892L161.748 139.267C161.316 140.163 160.244 140.771 159.028 140.771C157.204 140.771 156.212 139.523 156.212 137.635V132.819H157.332V137.283C157.332 139.123 158.148 139.779 159.38 139.779C160.868 139.779 161.748 138.787 161.748 136.947V132.835ZM166.256 140.579H165.152V132.835H166.112L166.24 133.939C166.624 133.123 167.488 132.627 168.576 132.627C169.792 132.627 170.704 133.267 171.072 134.275C171.424 133.267 172.368 132.627 173.616 132.627C175.296 132.627 176.4 133.715 176.4 135.507V140.579H175.328V135.731C175.328 134.403 174.592 133.619 173.408 133.619C172.112 133.619 171.344 134.595 171.344 135.795V140.579H170.256V135.715C170.256 134.403 169.504 133.635 168.336 133.635C167.04 133.635 166.256 134.595 166.256 135.779V140.579ZM181.869 140.771C179.597 140.771 178.077 139.139 178.077 136.707C178.077 134.291 179.581 132.627 181.789 132.627C183.885 132.627 185.309 134.115 185.309 136.307V136.851H179.149C179.229 138.739 180.221 139.827 181.885 139.827C183.149 139.827 183.965 139.283 184.253 138.259H185.309C184.893 139.891 183.693 140.771 181.869 140.771ZM181.789 133.571C180.333 133.571 179.373 134.531 179.181 136.051H184.205C184.205 134.563 183.245 133.571 181.789 133.571ZM186.418 138.403H187.474C187.474 139.299 188.146 139.859 189.234 139.859C190.434 139.859 191.138 139.347 191.138 138.515C191.138 137.875 190.818 137.507 189.906 137.283L188.578 136.947C187.234 136.611 186.578 135.907 186.578 134.851C186.578 133.491 187.714 132.627 189.378 132.627C191.01 132.627 192.066 133.523 192.114 134.963H191.042C191.01 134.067 190.386 133.539 189.346 133.539C188.258 133.539 187.65 134.003 187.65 134.835C187.65 135.427 188.066 135.843 188.914 136.051L190.242 136.387C191.586 136.723 192.194 137.347 192.194 138.467C192.194 139.859 191.01 140.771 189.25 140.771C187.506 140.771 186.418 139.843 186.418 138.403ZM200.673 140.771C199.025 140.771 198.049 139.843 198.049 138.483C198.049 137.059 199.137 136.163 200.945 136.019L203.505 135.811V135.555C203.505 134.035 202.593 133.555 201.457 133.555C200.113 133.555 199.313 134.163 199.313 135.203H198.305C198.305 133.635 199.585 132.627 201.489 132.627C203.281 132.627 204.593 133.523 204.593 135.571V140.579H203.665L203.521 139.219C203.041 140.195 201.985 140.771 200.673 140.771ZM200.929 139.875C202.561 139.875 203.505 138.739 203.505 137.059V136.643L201.217 136.819C199.761 136.947 199.169 137.587 199.169 138.451C199.169 139.395 199.873 139.875 200.929 139.875ZM207.768 140.579H206.808V128.915H207.912V134.339C208.456 133.203 209.512 132.627 210.824 132.627C213.08 132.627 214.392 134.387 214.392 136.723C214.392 139.043 213.048 140.771 210.792 140.771C209.496 140.771 208.424 140.195 207.88 138.995L207.768 140.579ZM207.928 136.691C207.928 138.483 208.92 139.763 210.616 139.763C212.296 139.763 213.272 138.483 213.272 136.691C213.272 134.915 212.296 133.619 210.616 133.619C208.92 133.619 207.928 134.915 207.928 136.691ZM215.608 136.707C215.608 134.339 217.272 132.627 219.544 132.627C221.816 132.627 223.48 134.339 223.48 136.707C223.48 139.059 221.816 140.771 219.544 140.771C217.272 140.771 215.608 139.059 215.608 136.707ZM216.728 136.691C216.728 138.515 217.88 139.779 219.544 139.779C221.192 139.779 222.36 138.515 222.36 136.691C222.36 134.899 221.192 133.619 219.544 133.619C217.88 133.619 216.728 134.899 216.728 136.691ZM230.498 132.835H231.602V140.579H230.642L230.498 139.267C230.066 140.163 228.994 140.771 227.778 140.771C225.954 140.771 224.962 139.523 224.962 137.635V132.819H226.082V137.283C226.082 139.123 226.898 139.779 228.13 139.779C229.618 139.779 230.498 138.787 230.498 136.947V132.835ZM235.678 140.579H234.59V133.763H233.038V132.835H234.59V130.387H235.678V132.835H237.23V133.763H235.678V140.579ZM244.881 140.579H243.793V133.763H242.241V132.835H243.793V130.387H244.881V132.835H246.433V133.763H244.881V140.579ZM248.975 140.563H247.871V128.915H248.975V134.179C249.471 133.251 250.415 132.627 251.711 132.627C253.743 132.627 254.655 133.891 254.655 135.843V140.579H253.551V136.083C253.551 134.275 252.703 133.635 251.503 133.635C249.839 133.635 248.975 134.867 248.975 136.355V140.563ZM260.103 140.771C257.831 140.771 256.311 139.139 256.311 136.707C256.311 134.291 257.815 132.627 260.023 132.627C262.119 132.627 263.543 134.115 263.543 136.307V136.851H257.383C257.463 138.739 258.455 139.827 260.119 139.827C261.383 139.827 262.199 139.283 262.487 138.259H263.543C263.127 139.891 261.927 140.771 260.103 140.771ZM260.023 133.571C258.567 133.571 257.607 134.531 257.415 136.051H262.439C262.439 134.563 261.479 133.571 260.023 133.571ZM272.786 140.771C270.53 140.771 269.202 139.043 269.202 136.723C269.202 134.387 270.53 132.627 272.834 132.627C274.114 132.627 275.138 133.187 275.682 134.307V128.915H276.786V140.579H275.826L275.714 138.995C275.17 140.195 274.082 140.771 272.786 140.771ZM272.978 139.763C274.674 139.763 275.666 138.483 275.666 136.691C275.666 134.915 274.674 133.619 272.978 133.619C271.298 133.619 270.322 134.915 270.322 136.691C270.322 138.483 271.298 139.763 272.978 139.763ZM282.338 140.771C280.066 140.771 278.546 139.139 278.546 136.707C278.546 134.291 280.049 132.627 282.258 132.627C284.354 132.627 285.778 134.115 285.778 136.307V136.851H279.618C279.698 138.739 280.69 139.827 282.354 139.827C283.618 139.827 284.434 139.283 284.722 138.259H285.778C285.362 139.891 284.162 140.771 282.338 140.771ZM282.258 133.571C280.802 133.571 279.842 134.531 279.65 136.051H284.674C284.674 134.563 283.714 133.571 282.258 133.571ZM286.887 138.403H287.943C287.943 139.299 288.615 139.859 289.703 139.859C290.903 139.859 291.607 139.347 291.607 138.515C291.607 137.875 291.287 137.507 290.375 137.283L289.047 136.947C287.703 136.611 287.047 135.907 287.047 134.851C287.047 133.491 288.183 132.627 289.847 132.627C291.479 132.627 292.535 133.523 292.583 134.963H291.511C291.479 134.067 290.855 133.539 289.815 133.539C288.727 133.539 288.119 134.003 288.119 134.835C288.119 135.427 288.535 135.843 289.383 136.051L290.711 136.387C292.055 136.723 292.663 137.347 292.663 138.467C292.663 139.859 291.479 140.771 289.719 140.771C287.975 140.771 286.887 139.843 286.887 138.403ZM295.024 130.707C294.576 130.707 294.208 130.339 294.208 129.891C294.208 129.443 294.576 129.059 295.024 129.059C295.472 129.059 295.856 129.443 295.856 129.891C295.856 130.339 295.472 130.707 295.024 130.707ZM294.48 140.579V132.835H295.584V140.579H294.48ZM297.358 136.483C297.358 134.371 298.718 132.627 300.99 132.627C302.334 132.627 303.358 133.251 303.854 134.387L303.966 132.835H304.926V140.339C304.926 142.643 303.454 144.147 301.182 144.147C299.198 144.147 297.806 143.027 297.502 141.155H298.606C298.846 142.403 299.806 143.139 301.198 143.139C302.782 143.139 303.838 142.067 303.838 140.451V138.611C303.31 139.699 302.238 140.339 300.91 140.339C298.702 140.339 297.358 138.595 297.358 136.483ZM298.462 136.467C298.462 138.051 299.438 139.347 301.07 139.347C302.75 139.347 303.742 138.131 303.742 136.467C303.742 134.819 302.782 133.603 301.086 133.603C299.422 133.603 298.462 134.899 298.462 136.467ZM308.334 140.579H307.23V132.835H308.19L308.35 134.179C308.862 133.187 309.886 132.627 311.006 132.627C313.134 132.627 314.014 133.891 314.014 135.843V140.579H312.91V136.083C312.91 134.275 312.094 133.635 310.814 133.635C309.23 133.635 308.334 134.787 308.334 136.531V140.579ZM319.463 140.771C317.191 140.771 315.671 139.139 315.671 136.707C315.671 134.291 317.174 132.627 319.383 132.627C321.479 132.627 322.903 134.115 322.903 136.307V136.851H316.743C316.823 138.739 317.815 139.827 319.479 139.827C320.743 139.827 321.559 139.283 321.847 138.259H322.903C322.487 139.891 321.287 140.771 319.463 140.771ZM319.383 133.571C317.927 133.571 316.967 134.531 316.775 136.051H321.799C321.799 134.563 320.839 133.571 319.383 133.571ZM328.716 132.739V133.731H328.108C326.684 133.731 325.772 134.691 325.772 136.163V140.579H324.668V132.835H325.708L325.788 134.035C326.092 133.203 326.908 132.659 327.996 132.659C328.236 132.659 328.444 132.675 328.716 132.739ZM331.596 129.907L331.292 133.091H330.572L330.252 129.907C330.188 129.347 330.588 129.091 330.94 129.091C331.276 129.091 331.66 129.347 331.596 129.907ZM332.512 138.403H333.568C333.568 139.299 334.24 139.859 335.328 139.859C336.528 139.859 337.232 139.347 337.232 138.515C337.232 137.875 336.912 137.507 336 137.283L334.672 136.947C333.328 136.611 332.672 135.907 332.672 134.851C332.672 133.491 333.808 132.627 335.472 132.627C337.104 132.627 338.16 133.523 338.208 134.963H337.136C337.104 134.067 336.48 133.539 335.44 133.539C334.352 133.539 333.744 134.003 333.744 134.835C333.744 135.427 334.16 135.843 335.008 136.051L336.336 136.387C337.68 136.723 338.288 137.347 338.288 138.467C338.288 139.859 337.104 140.771 335.344 140.771C333.6 140.771 332.512 139.843 332.512 138.403ZM343.887 138.403H344.943C344.943 139.299 345.615 139.859 346.703 139.859C347.903 139.859 348.607 139.347 348.607 138.515C348.607 137.875 348.287 137.507 347.375 137.283L346.047 136.947C344.703 136.611 344.047 135.907 344.047 134.851C344.047 133.491 345.183 132.627 346.847 132.627C348.479 132.627 349.535 133.523 349.583 134.963H348.511C348.479 134.067 347.855 133.539 346.815 133.539C345.727 133.539 345.119 134.003 345.119 134.835C345.119 135.427 345.535 135.843 346.383 136.051L347.711 136.387C349.055 136.723 349.663 137.347 349.663 138.467C349.663 139.859 348.479 140.771 346.719 140.771C344.975 140.771 343.887 139.843 343.887 138.403ZM352.632 140.579H351.528V128.915H352.632V136.835L356.472 132.835H357.864L354.888 135.923L357.88 140.579H356.6L354.136 136.707L352.632 138.259V140.579ZM359.743 130.707C359.295 130.707 358.927 130.339 358.927 129.891C358.927 129.443 359.295 129.059 359.743 129.059C360.191 129.059 360.575 129.443 360.575 129.891C360.575 130.339 360.191 130.707 359.743 130.707ZM359.199 140.579V132.835H360.303V140.579H359.199ZM363.757 140.579H362.653V128.915H363.757V140.579ZM367.257 140.579H366.153V128.915H367.257V140.579ZM370.549 140.755C370.005 140.755 369.541 140.307 369.541 139.779C369.541 139.235 370.005 138.771 370.549 138.771C371.093 138.771 371.557 139.235 371.557 139.779C371.557 140.307 371.093 140.755 370.549 140.755ZM379.622 129.123V140.579H378.47V129.123H379.622ZM383.944 140.579H382.856V133.763H381.304V132.835H382.856V130.387H383.944V132.835H385.496V133.763H383.944V140.579ZM387.924 129.907L387.62 133.091H386.9L386.58 129.907C386.516 129.347 386.916 129.091 387.268 129.091C387.604 129.091 387.988 129.347 387.924 129.907ZM388.84 138.403H389.896C389.896 139.299 390.568 139.859 391.656 139.859C392.856 139.859 393.56 139.347 393.56 138.515C393.56 137.875 393.24 137.507 392.328 137.283L391 136.947C389.656 136.611 389 135.907 389 134.851C389 133.491 390.136 132.627 391.8 132.627C393.432 132.627 394.488 133.523 394.536 134.963H393.464C393.432 134.067 392.808 133.539 391.768 133.539C390.68 133.539 390.072 134.003 390.072 134.835C390.072 135.427 390.488 135.843 391.336 136.051L392.664 136.387C394.008 136.723 394.616 137.347 394.616 138.467C394.616 139.859 393.432 140.771 391.672 140.771C389.928 140.771 388.84 139.843 388.84 138.403ZM402.023 140.579H400.919V128.915H402.023V140.579ZM404.915 130.707C404.467 130.707 404.099 130.339 404.099 129.891C404.099 129.443 404.467 129.059 404.915 129.059C405.363 129.059 405.747 129.443 405.747 129.891C405.747 130.339 405.363 130.707 404.915 130.707ZM404.371 140.579V132.835H405.475V140.579H404.371ZM408.929 140.579H407.825V128.915H408.929V136.835L412.769 132.835H414.161L411.185 135.923L414.177 140.579H412.897L410.433 136.707L408.929 138.259V140.579ZM418.478 140.771C416.206 140.771 414.686 139.139 414.686 136.707C414.686 134.291 416.19 132.627 418.398 132.627C420.494 132.627 421.918 134.115 421.918 136.307V136.851H415.758C415.838 138.739 416.83 139.827 418.494 139.827C419.758 139.827 420.574 139.283 420.862 138.259H421.918C421.502 139.891 420.302 140.771 418.478 140.771ZM418.398 133.571C416.942 133.571 415.982 134.531 415.79 136.051H420.814C420.814 134.563 419.854 133.571 418.398 133.571ZM429.753 140.579L427.193 132.835H428.329L429.849 137.507C430.025 138.019 430.169 138.547 430.329 139.171C430.457 138.547 430.713 137.763 430.793 137.507L432.329 132.835H433.465L434.985 137.507C435.129 137.923 435.321 138.595 435.465 139.171C435.625 138.531 435.657 138.339 435.929 137.507L437.465 132.835H438.617L435.993 140.579H434.921L433.321 135.715C433.129 135.139 433.001 134.659 432.905 134.195C432.793 134.611 432.665 135.075 432.457 135.715L430.857 140.579H429.753ZM442.9 140.771C440.628 140.771 439.108 139.139 439.108 136.707C439.108 134.291 440.612 132.627 442.82 132.627C444.916 132.627 446.34 134.115 446.34 136.307V136.851H440.18C440.26 138.739 441.252 139.827 442.916 139.827C444.18 139.827 444.996 139.283 445.284 138.259H446.34C445.924 139.891 444.724 140.771 442.9 140.771ZM442.82 133.571C441.364 133.571 440.404 134.531 440.212 136.051H445.236C445.236 134.563 444.276 133.571 442.82 133.571ZM450.251 140.771C448.603 140.771 447.627 139.843 447.627 138.483C447.627 137.059 448.715 136.163 450.523 136.019L453.083 135.811V135.555C453.083 134.035 452.171 133.555 451.035 133.555C449.691 133.555 448.891 134.163 448.891 135.203H447.883C447.883 133.635 449.163 132.627 451.067 132.627C452.859 132.627 454.171 133.523 454.171 135.571V140.579H453.243L453.099 139.219C452.619 140.195 451.563 140.771 450.251 140.771ZM450.507 139.875C452.139 139.875 453.083 138.739 453.083 137.059V136.643L450.795 136.819C449.339 136.947 448.747 137.587 448.747 138.451C448.747 139.395 449.451 139.875 450.507 139.875ZM460.434 132.739V133.731H459.826C458.402 133.731 457.49 134.691 457.49 136.163V140.579H456.386V132.835H457.426L457.506 134.035C457.81 133.203 458.626 132.659 459.714 132.659C459.954 132.659 460.162 132.675 460.434 132.739ZM462.446 130.707C461.998 130.707 461.63 130.339 461.63 129.891C461.63 129.443 461.998 129.059 462.446 129.059C462.894 129.059 463.278 129.443 463.278 129.891C463.278 130.339 462.894 130.707 462.446 130.707ZM461.902 140.579V132.835H463.006V140.579H461.902ZM466.412 140.579H465.308V132.835H466.268L466.428 134.179C466.94 133.187 467.964 132.627 469.084 132.627C471.212 132.627 472.092 133.891 472.092 135.843V140.579H470.988V136.083C470.988 134.275 470.172 133.635 468.892 133.635C467.308 133.635 466.412 134.787 466.412 136.531V140.579ZM473.765 136.483C473.765 134.371 475.125 132.627 477.397 132.627C478.741 132.627 479.765 133.251 480.261 134.387L480.373 132.835H481.333V140.339C481.333 142.643 479.861 144.147 477.589 144.147C475.605 144.147 474.213 143.027 473.909 141.155H475.013C475.253 142.403 476.213 143.139 477.605 143.139C479.189 143.139 480.245 142.067 480.245 140.451V138.611C479.717 139.699 478.645 140.339 477.317 140.339C475.109 140.339 473.765 138.595 473.765 136.483ZM474.869 136.467C474.869 138.051 475.845 139.347 477.477 139.347C479.157 139.347 480.149 138.131 480.149 136.467C480.149 134.819 479.189 133.603 477.493 133.603C475.829 133.603 474.869 134.899 474.869 136.467ZM490.298 140.771C488.65 140.771 487.674 139.843 487.674 138.483C487.674 137.059 488.762 136.163 490.57 136.019L493.13 135.811V135.555C493.13 134.035 492.218 133.555 491.082 133.555C489.738 133.555 488.938 134.163 488.938 135.203H487.93C487.93 133.635 489.21 132.627 491.114 132.627C492.906 132.627 494.218 133.523 494.218 135.571V140.579H493.29L493.146 139.219C492.666 140.195 491.61 140.771 490.298 140.771ZM490.554 139.875C492.186 139.875 493.13 138.739 493.13 137.059V136.643L490.842 136.819C489.386 136.947 488.794 137.587 488.794 138.451C488.794 139.395 489.498 139.875 490.554 139.875ZM500.871 143.955V132.835H501.831L501.943 134.403C502.487 133.203 503.575 132.627 504.871 132.627C507.111 132.627 508.455 134.339 508.455 136.675C508.455 139.011 507.159 140.771 504.871 140.771C503.559 140.771 502.519 140.211 501.975 139.091V143.955H500.871ZM501.991 136.707C501.991 138.483 502.983 139.779 504.679 139.779C506.359 139.779 507.335 138.483 507.335 136.707C507.335 134.915 506.359 133.635 504.679 133.635C502.983 133.635 501.991 134.915 501.991 136.707ZM510.759 130.707C510.311 130.707 509.943 130.339 509.943 129.891C509.943 129.443 510.311 129.059 510.759 129.059C511.207 129.059 511.591 129.443 511.591 129.891C511.591 130.339 511.207 130.707 510.759 130.707ZM510.215 140.579V132.835H511.319V140.579H510.215ZM516.869 140.771C514.597 140.771 513.077 139.139 513.077 136.707C513.077 134.291 514.581 132.627 516.789 132.627C518.885 132.627 520.309 134.115 520.309 136.307V136.851H514.149C514.229 138.739 515.221 139.827 516.885 139.827C518.149 139.827 518.965 139.283 519.253 138.259H520.309C519.893 139.891 518.693 140.771 516.869 140.771ZM516.789 133.571C515.333 133.571 514.373 134.531 514.181 136.051H519.205C519.205 134.563 518.245 133.571 516.789 133.571ZM521.53 136.723C521.53 134.291 523.018 132.627 525.274 132.627C527.066 132.627 528.378 133.667 528.682 135.267H527.578C527.29 134.195 526.362 133.603 525.29 133.603C523.722 133.603 522.618 134.803 522.618 136.707C522.618 138.547 523.642 139.779 525.21 139.779C526.362 139.779 527.29 139.139 527.594 138.147H528.714C528.346 139.731 526.97 140.771 525.21 140.771C523.018 140.771 521.53 139.155 521.53 136.723ZM533.634 140.771C531.362 140.771 529.842 139.139 529.842 136.707C529.842 134.291 531.346 132.627 533.554 132.627C535.65 132.627 537.074 134.115 537.074 136.307V136.851H530.914C530.994 138.739 531.986 139.827 533.65 139.827C534.914 139.827 535.73 139.283 536.018 138.259H537.074C536.658 139.891 535.458 140.771 533.634 140.771ZM533.554 133.571C532.098 133.571 531.138 134.531 530.946 136.051H535.97C535.97 134.563 535.01 133.571 533.554 133.571ZM32.608 158.707C32.608 156.339 34.272 154.627 36.544 154.627C38.816 154.627 40.48 156.339 40.48 158.707C40.48 161.059 38.816 162.771 36.544 162.771C34.272 162.771 32.608 161.059 32.608 158.707ZM33.728 158.691C33.728 160.515 34.88 161.779 36.544 161.779C38.192 161.779 39.36 160.515 39.36 158.691C39.36 156.899 38.192 155.619 36.544 155.619C34.88 155.619 33.728 156.899 33.728 158.691ZM41.3193 154.835H42.5033V153.331C42.5033 151.587 43.4633 150.915 44.6473 150.915C44.9193 150.915 45.2393 150.931 45.4953 150.979V151.923H44.8393C43.8633 151.923 43.6073 152.419 43.6073 153.331V154.835H45.4313V155.763H43.6073V162.579H42.5033V155.763H41.3193V154.835ZM53.5948 162.771C51.9468 162.771 50.9708 161.843 50.9708 160.483C50.9708 159.059 52.0588 158.163 53.8668 158.019L56.4268 157.811V157.555C56.4268 156.035 55.5148 155.555 54.3788 155.555C53.0348 155.555 52.2348 156.163 52.2348 157.203H51.2268C51.2268 155.635 52.5068 154.627 54.4108 154.627C56.2028 154.627 57.5148 155.523 57.5148 157.571V162.579H56.5868L56.4428 161.219C55.9628 162.195 54.9068 162.771 53.5948 162.771ZM53.8508 161.875C55.4828 161.875 56.4268 160.739 56.4268 159.059V158.643L54.1388 158.819C52.6828 158.947 52.0908 159.587 52.0908 160.451C52.0908 161.395 52.7948 161.875 53.8508 161.875ZM63.7781 154.739V155.731H63.1701C61.7461 155.731 60.8341 156.691 60.8341 158.163V162.579H59.7301V154.835H60.7701L60.8501 156.035C61.1541 155.203 61.9701 154.659 63.0581 154.659C63.2981 154.659 63.5061 154.675 63.7781 154.739ZM67.3343 162.579H66.2463V155.763H64.6943V154.835H66.2463V152.387H67.3343V154.835H68.8863V155.763H67.3343V162.579ZM76.5374 162.579H75.4494V155.763H73.8974V154.835H75.4494V152.387H76.5374V154.835H78.0894V155.763H76.5374V162.579ZM80.631 162.563H79.527V150.915H80.631V156.179C81.127 155.251 82.071 154.627 83.367 154.627C85.399 154.627 86.311 155.891 86.311 157.843V162.579H85.207V158.083C85.207 156.275 84.359 155.635 83.159 155.635C81.495 155.635 80.631 156.867 80.631 158.355V162.563ZM90.7354 162.771C89.0874 162.771 88.1114 161.843 88.1114 160.483C88.1114 159.059 89.1994 158.163 91.0074 158.019L93.5674 157.811V157.555C93.5674 156.035 92.6554 155.555 91.5194 155.555C90.1754 155.555 89.3754 156.163 89.3754 157.203H88.3674C88.3674 155.635 89.6474 154.627 91.5514 154.627C93.3434 154.627 94.6554 155.523 94.6554 157.571V162.579H93.7274L93.5834 161.219C93.1034 162.195 92.0474 162.771 90.7354 162.771ZM90.9914 161.875C92.6234 161.875 93.5674 160.739 93.5674 159.059V158.643L91.2794 158.819C89.8234 158.947 89.2314 159.587 89.2314 160.451C89.2314 161.395 89.9354 161.875 90.9914 161.875ZM98.5061 162.579H97.4181V155.763H95.8661V154.835H97.4181V152.387H98.5061V154.835H100.058V155.763H98.5061V162.579ZM109.981 154.739V155.731H109.373C107.949 155.731 107.037 156.691 107.037 158.163V162.579H105.933V154.835H106.973L107.053 156.035C107.357 155.203 108.173 154.659 109.261 154.659C109.501 154.659 109.709 154.675 109.981 154.739ZM114.4 162.771C112.128 162.771 110.608 161.139 110.608 158.707C110.608 156.291 112.112 154.627 114.32 154.627C116.416 154.627 117.84 156.115 117.84 158.307V158.851H111.68C111.76 160.739 112.752 161.827 114.416 161.827C115.68 161.827 116.496 161.283 116.784 160.259H117.84C117.424 161.891 116.224 162.771 114.4 162.771ZM114.32 155.571C112.864 155.571 111.904 156.531 111.712 158.051H116.736C116.736 156.563 115.776 155.571 114.32 155.571ZM125.621 162.579H124.517V155.763H121.029V162.579H119.925V155.763H118.741V154.835H119.925V153.331C119.925 151.587 120.869 150.915 122.021 150.915C122.293 150.915 122.613 150.931 122.869 150.979V151.939H122.213C121.269 151.939 121.029 152.419 121.029 153.331V154.835H124.517V150.915H125.621V162.579ZM131.228 162.771C128.956 162.771 127.436 161.139 127.436 158.707C127.436 156.291 128.94 154.627 131.148 154.627C133.244 154.627 134.668 156.115 134.668 158.307V158.851H128.508C128.588 160.739 129.58 161.827 131.244 161.827C132.508 161.827 133.324 161.283 133.612 160.259H134.668C134.252 161.891 133.052 162.771 131.228 162.771ZM131.148 155.571C129.692 155.571 128.732 156.531 128.54 158.051H133.564C133.564 156.563 132.604 155.571 131.148 155.571ZM135.889 158.723C135.889 156.291 137.377 154.627 139.633 154.627C141.425 154.627 142.737 155.667 143.041 157.267H141.937C141.649 156.195 140.721 155.603 139.649 155.603C138.081 155.603 136.977 156.803 136.977 158.707C136.977 160.547 138.001 161.779 139.569 161.779C140.721 161.779 141.649 161.139 141.953 160.147H143.073C142.705 161.731 141.329 162.771 139.569 162.771C137.377 162.771 135.889 161.155 135.889 158.723ZM146.522 162.579H145.434V155.763H143.882V154.835H145.434V152.387H146.522V154.835H148.074V155.763H146.522V162.579ZM148.855 160.403H149.911C149.911 161.299 150.583 161.859 151.671 161.859C152.871 161.859 153.575 161.347 153.575 160.515C153.575 159.875 153.255 159.507 152.343 159.283L151.015 158.947C149.671 158.611 149.015 157.907 149.015 156.851C149.015 155.491 150.151 154.627 151.815 154.627C153.447 154.627 154.503 155.523 154.551 156.963H153.479C153.447 156.067 152.823 155.539 151.783 155.539C150.695 155.539 150.087 156.003 150.087 156.835C150.087 157.427 150.503 157.843 151.351 158.051L152.679 158.387C154.023 158.723 154.631 159.347 154.631 160.467C154.631 161.859 153.447 162.771 151.687 162.771C149.943 162.771 148.855 161.843 148.855 160.403ZM161.99 162.579H160.886V154.835H161.846L161.974 155.939C162.358 155.123 163.222 154.627 164.31 154.627C165.526 154.627 166.438 155.267 166.806 156.275C167.158 155.267 168.102 154.627 169.35 154.627C171.03 154.627 172.134 155.715 172.134 157.507V162.579H171.062V157.731C171.062 156.403 170.326 155.619 169.142 155.619C167.846 155.619 167.078 156.595 167.078 157.795V162.579H165.99V157.715C165.99 156.403 165.238 155.635 164.07 155.635C162.774 155.635 161.99 156.595 161.99 157.779V162.579ZM173.415 165.955V165.043H174.263C174.935 165.043 175.607 164.995 175.991 163.955L176.327 163.043L173.191 154.835H174.359L176.855 161.587L179.303 154.835H180.439L176.887 164.355C176.439 165.571 175.687 166.067 174.583 166.067C174.119 166.067 173.767 166.035 173.415 165.955ZM186.168 165.955V154.835H187.128L187.24 156.403C187.784 155.203 188.872 154.627 190.168 154.627C192.408 154.627 193.752 156.339 193.752 158.675C193.752 161.011 192.456 162.771 190.168 162.771C188.856 162.771 187.816 162.211 187.272 161.091V165.955H186.168ZM187.288 158.707C187.288 160.483 188.28 161.779 189.976 161.779C191.656 161.779 192.632 160.483 192.632 158.707C192.632 156.915 191.656 155.635 189.976 155.635C188.28 155.635 187.288 156.915 187.288 158.707ZM197.735 162.771C196.087 162.771 195.111 161.843 195.111 160.483C195.111 159.059 196.199 158.163 198.007 158.019L200.567 157.811V157.555C200.567 156.035 199.655 155.555 198.519 155.555C197.175 155.555 196.375 156.163 196.375 157.203H195.367C195.367 155.635 196.647 154.627 198.551 154.627C200.343 154.627 201.655 155.523 201.655 157.571V162.579H200.727L200.583 161.219C200.103 162.195 199.047 162.771 197.735 162.771ZM197.991 161.875C199.623 161.875 200.567 160.739 200.567 159.059V158.643L198.279 158.819C196.823 158.947 196.231 159.587 196.231 160.451C196.231 161.395 196.935 161.875 197.991 161.875ZM203.215 160.403H204.271C204.271 161.299 204.943 161.859 206.031 161.859C207.231 161.859 207.935 161.347 207.935 160.515C207.935 159.875 207.615 159.507 206.703 159.283L205.375 158.947C204.031 158.611 203.375 157.907 203.375 156.851C203.375 155.491 204.511 154.627 206.175 154.627C207.807 154.627 208.863 155.523 208.911 156.963H207.839C207.807 156.067 207.183 155.539 206.143 155.539C205.055 155.539 204.447 156.003 204.447 156.835C204.447 157.427 204.863 157.843 205.711 158.051L207.039 158.387C208.383 158.723 208.991 159.347 208.991 160.467C208.991 161.859 207.807 162.771 206.047 162.771C204.303 162.771 203.215 161.843 203.215 160.403ZM210.152 160.403H211.208C211.208 161.299 211.88 161.859 212.968 161.859C214.168 161.859 214.872 161.347 214.872 160.515C214.872 159.875 214.552 159.507 213.64 159.283L212.312 158.947C210.968 158.611 210.312 157.907 210.312 156.851C210.312 155.491 211.448 154.627 213.112 154.627C214.744 154.627 215.8 155.523 215.848 156.963H214.776C214.744 156.067 214.12 155.539 213.08 155.539C211.992 155.539 211.384 156.003 211.384 156.835C211.384 157.427 211.8 157.843 212.648 158.051L213.976 158.387C215.32 158.723 215.928 159.347 215.928 160.467C215.928 161.859 214.744 162.771 212.984 162.771C211.24 162.771 210.152 161.843 210.152 160.403ZM218.29 152.707C217.842 152.707 217.474 152.339 217.474 151.891C217.474 151.443 217.842 151.059 218.29 151.059C218.738 151.059 219.122 151.443 219.122 151.891C219.122 152.339 218.738 152.707 218.29 152.707ZM217.746 162.579V154.835H218.85V162.579H217.746ZM220.608 158.707C220.608 156.339 222.272 154.627 224.544 154.627C226.816 154.627 228.48 156.339 228.48 158.707C228.48 161.059 226.816 162.771 224.544 162.771C222.272 162.771 220.608 161.059 220.608 158.707ZM221.728 158.691C221.728 160.515 222.88 161.779 224.544 161.779C226.192 161.779 227.36 160.515 227.36 158.691C227.36 156.899 226.192 155.619 224.544 155.619C222.88 155.619 221.728 156.899 221.728 158.691ZM231.35 162.579H230.246V154.835H231.206L231.366 156.179C231.878 155.187 232.902 154.627 234.022 154.627C236.15 154.627 237.03 155.891 237.03 157.843V162.579H235.926V158.083C235.926 156.275 235.11 155.635 233.83 155.635C232.246 155.635 231.35 156.787 231.35 158.531V162.579ZM242.804 154.835H243.988V153.331C243.988 151.587 244.948 150.915 246.132 150.915C246.404 150.915 246.724 150.931 246.98 150.979V151.923H246.324C245.348 151.923 245.092 152.419 245.092 153.331V154.835H246.916V155.763H245.092V162.579H243.988V155.763H242.804V154.835ZM247.639 158.707C247.639 156.339 249.303 154.627 251.575 154.627C253.847 154.627 255.511 156.339 255.511 158.707C255.511 161.059 253.847 162.771 251.575 162.771C249.303 162.771 247.639 161.059 247.639 158.707ZM248.759 158.691C248.759 160.515 249.911 161.779 251.575 161.779C253.223 161.779 254.391 160.515 254.391 158.691C254.391 156.899 253.223 155.619 251.575 155.619C249.911 155.619 248.759 156.899 248.759 158.691ZM261.325 154.739V155.731H260.717C259.293 155.731 258.381 156.691 258.381 158.163V162.579H257.277V154.835H258.317L258.397 156.035C258.701 155.203 259.517 154.659 260.605 154.659C260.845 154.659 261.053 154.675 261.325 154.739ZM268.19 162.579H267.23V150.915H268.334V156.339C268.878 155.203 269.934 154.627 271.246 154.627C273.502 154.627 274.814 156.387 274.814 158.723C274.814 161.043 273.47 162.771 271.214 162.771C269.918 162.771 268.846 162.195 268.302 160.995L268.19 162.579ZM268.35 158.691C268.35 160.483 269.342 161.763 271.038 161.763C272.718 161.763 273.694 160.483 273.694 158.691C273.694 156.915 272.718 155.619 271.038 155.619C269.342 155.619 268.35 156.915 268.35 158.691ZM276.03 158.707C276.03 156.339 277.694 154.627 279.966 154.627C282.238 154.627 283.902 156.339 283.902 158.707C283.902 161.059 282.238 162.771 279.966 162.771C277.694 162.771 276.03 161.059 276.03 158.707ZM277.15 158.691C277.15 160.515 278.302 161.779 279.966 161.779C281.614 161.779 282.782 160.515 282.782 158.691C282.782 156.899 281.614 155.619 279.966 155.619C278.302 155.619 277.15 156.899 277.15 158.691ZM287.366 162.579H286.278V155.763H284.726V154.835H286.278V152.387H287.366V154.835H288.918V155.763H287.366V162.579ZM291.459 162.563H290.355V150.915H291.459V156.179C291.955 155.251 292.899 154.627 294.195 154.627C296.227 154.627 297.139 155.891 297.139 157.843V162.579H296.035V158.083C296.035 156.275 295.187 155.635 293.987 155.635C292.323 155.635 291.459 156.867 291.459 158.355V162.563ZM306.817 162.771C304.561 162.771 303.233 161.043 303.233 158.723C303.233 156.387 304.561 154.627 306.865 154.627C308.145 154.627 309.169 155.187 309.713 156.307V150.915H310.817V162.579H309.857L309.745 160.995C309.201 162.195 308.113 162.771 306.817 162.771ZM307.009 161.763C308.705 161.763 309.697 160.483 309.697 158.691C309.697 156.915 308.705 155.619 307.009 155.619C305.329 155.619 304.353 156.915 304.353 158.691C304.353 160.483 305.329 161.763 307.009 161.763ZM316.369 162.771C314.097 162.771 312.577 161.139 312.577 158.707C312.577 156.291 314.081 154.627 316.289 154.627C318.385 154.627 319.809 156.115 319.809 158.307V158.851H313.649C313.729 160.739 314.721 161.827 316.385 161.827C317.649 161.827 318.465 161.283 318.753 160.259H319.809C319.393 161.891 318.193 162.771 316.369 162.771ZM316.289 155.571C314.833 155.571 313.873 156.531 313.681 158.051H318.705C318.705 156.563 317.745 155.571 316.289 155.571ZM320.918 160.403H321.974C321.974 161.299 322.646 161.859 323.734 161.859C324.934 161.859 325.638 161.347 325.638 160.515C325.638 159.875 325.318 159.507 324.406 159.283L323.078 158.947C321.734 158.611 321.078 157.907 321.078 156.851C321.078 155.491 322.214 154.627 323.878 154.627C325.51 154.627 326.566 155.523 326.614 156.963H325.542C325.51 156.067 324.886 155.539 323.846 155.539C322.758 155.539 322.15 156.003 322.15 156.835C322.15 157.427 322.566 157.843 323.414 158.051L324.742 158.387C326.086 158.723 326.694 159.347 326.694 160.467C326.694 161.859 325.51 162.771 323.75 162.771C322.006 162.771 320.918 161.843 320.918 160.403ZM329.055 152.707C328.607 152.707 328.239 152.339 328.239 151.891C328.239 151.443 328.607 151.059 329.055 151.059C329.503 151.059 329.887 151.443 329.887 151.891C329.887 152.339 329.503 152.707 329.055 152.707ZM328.511 162.579V154.835H329.615V162.579H328.511ZM331.39 158.483C331.39 156.371 332.75 154.627 335.022 154.627C336.366 154.627 337.39 155.251 337.886 156.387L337.998 154.835H338.958V162.339C338.958 164.643 337.486 166.147 335.214 166.147C333.23 166.147 331.838 165.027 331.534 163.155H332.638C332.878 164.403 333.838 165.139 335.23 165.139C336.814 165.139 337.87 164.067 337.87 162.451V160.611C337.342 161.699 336.27 162.339 334.942 162.339C332.734 162.339 331.39 160.595 331.39 158.483ZM332.494 158.467C332.494 160.051 333.47 161.347 335.102 161.347C336.782 161.347 337.774 160.131 337.774 158.467C337.774 156.819 336.814 155.603 335.118 155.603C333.454 155.603 332.494 156.899 332.494 158.467ZM342.365 162.579H341.261V154.835H342.221L342.381 156.179C342.893 155.187 343.917 154.627 345.037 154.627C347.165 154.627 348.045 155.891 348.045 157.843V162.579H346.941V158.083C346.941 156.275 346.125 155.635 344.845 155.635C343.261 155.635 342.365 156.787 342.365 158.531V162.579ZM356.907 162.771C355.259 162.771 354.283 161.843 354.283 160.483C354.283 159.059 355.371 158.163 357.179 158.019L359.739 157.811V157.555C359.739 156.035 358.827 155.555 357.691 155.555C356.347 155.555 355.547 156.163 355.547 157.203H354.539C354.539 155.635 355.819 154.627 357.723 154.627C359.515 154.627 360.827 155.523 360.827 157.571V162.579H359.899L359.755 161.219C359.275 162.195 358.219 162.771 356.907 162.771ZM357.163 161.875C358.795 161.875 359.739 160.739 359.739 159.059V158.643L357.451 158.819C355.995 158.947 355.403 159.587 355.403 160.451C355.403 161.395 356.107 161.875 357.163 161.875ZM364.147 162.579H363.043V154.835H364.003L364.163 156.179C364.675 155.187 365.699 154.627 366.819 154.627C368.947 154.627 369.827 155.891 369.827 157.843V162.579H368.723V158.083C368.723 156.275 367.907 155.635 366.627 155.635C365.043 155.635 364.147 156.787 364.147 158.531V162.579ZM375.067 162.771C372.811 162.771 371.483 161.043 371.483 158.723C371.483 156.387 372.811 154.627 375.115 154.627C376.395 154.627 377.419 155.187 377.963 156.307V150.915H379.067V162.579H378.107L377.995 160.995C377.451 162.195 376.363 162.771 375.067 162.771ZM375.259 161.763C376.955 161.763 377.947 160.483 377.947 158.691C377.947 156.915 376.955 155.619 375.259 155.619C373.579 155.619 372.603 156.915 372.603 158.691C372.603 160.483 373.579 161.763 375.259 161.763ZM384.944 154.835H386.128V153.331C386.128 151.587 387.088 150.915 388.272 150.915C388.544 150.915 388.864 150.931 389.12 150.979V151.923H388.464C387.488 151.923 387.232 152.419 387.232 153.331V154.835H389.056V155.763H387.232V162.579H386.128V155.763H384.944V154.835ZM392.501 162.771C390.853 162.771 389.877 161.843 389.877 160.483C389.877 159.059 390.965 158.163 392.773 158.019L395.333 157.811V157.555C395.333 156.035 394.421 155.555 393.285 155.555C391.941 155.555 391.141 156.163 391.141 157.203H390.133C390.133 155.635 391.413 154.627 393.317 154.627C395.109 154.627 396.421 155.523 396.421 157.571V162.579H395.493L395.349 161.219C394.869 162.195 393.813 162.771 392.501 162.771ZM392.757 161.875C394.389 161.875 395.333 160.739 395.333 159.059V158.643L393.045 158.819C391.589 158.947 390.997 159.587 390.997 160.451C390.997 161.395 391.701 161.875 392.757 161.875ZM397.98 160.403H399.036C399.036 161.299 399.708 161.859 400.796 161.859C401.996 161.859 402.7 161.347 402.7 160.515C402.7 159.875 402.38 159.507 401.468 159.283L400.14 158.947C398.796 158.611 398.14 157.907 398.14 156.851C398.14 155.491 399.276 154.627 400.94 154.627C402.572 154.627 403.628 155.523 403.676 156.963H402.604C402.572 156.067 401.948 155.539 400.908 155.539C399.82 155.539 399.212 156.003 399.212 156.835C399.212 157.427 399.628 157.843 400.476 158.051L401.804 158.387C403.148 158.723 403.756 159.347 403.756 160.467C403.756 161.859 402.572 162.771 400.812 162.771C399.068 162.771 397.98 161.843 397.98 160.403ZM406.678 162.563H405.574V150.915H406.678V156.179C407.174 155.251 408.118 154.627 409.414 154.627C411.446 154.627 412.358 155.891 412.358 157.843V162.579H411.254V158.083C411.254 156.275 410.406 155.635 409.206 155.635C407.542 155.635 406.678 156.867 406.678 158.355V162.563ZM415.102 152.707C414.654 152.707 414.286 152.339 414.286 151.891C414.286 151.443 414.654 151.059 415.102 151.059C415.55 151.059 415.934 151.443 415.934 151.891C415.934 152.339 415.55 152.707 415.102 152.707ZM414.558 162.579V154.835H415.662V162.579H414.558ZM417.421 158.707C417.421 156.339 419.085 154.627 421.357 154.627C423.629 154.627 425.293 156.339 425.293 158.707C425.293 161.059 423.629 162.771 421.357 162.771C419.085 162.771 417.421 161.059 417.421 158.707ZM418.541 158.691C418.541 160.515 419.693 161.779 421.357 161.779C423.005 161.779 424.173 160.515 424.173 158.691C424.173 156.899 423.005 155.619 421.357 155.619C419.693 155.619 418.541 156.899 418.541 158.691ZM428.162 162.579H427.058V154.835H428.018L428.178 156.179C428.69 155.187 429.714 154.627 430.834 154.627C432.962 154.627 433.842 155.891 433.842 157.843V162.579H432.738V158.083C432.738 156.275 431.922 155.635 430.642 155.635C429.058 155.635 428.162 156.787 428.162 158.531V162.579ZM436.987 162.755C436.443 162.755 435.979 162.307 435.979 161.779C435.979 161.235 436.443 160.771 436.987 160.771C437.531 160.771 437.995 161.235 437.995 161.779C437.995 162.307 437.531 162.755 436.987 162.755ZM439.814 151.907L439.51 155.091H438.79L438.47 151.907C438.406 151.347 438.806 151.091 439.158 151.091C439.494 151.091 439.878 151.347 439.814 151.907ZM442.07 151.907L441.766 155.091H441.046L440.726 151.907C440.662 151.347 441.062 151.091 441.414 151.091C441.75 151.091 442.134 151.347 442.07 151.907Z" fill="black" fill-opacity="0.6"/>
<path d="M568.625 40C568.625 40.5192 568.471 41.0267 568.183 41.4584C567.894 41.8901 567.484 42.2265 567.005 42.4252C566.525 42.6239 565.997 42.6758 565.488 42.5746C564.979 42.4733 564.511 42.2233 564.144 41.8562C563.777 41.489 563.527 41.0213 563.425 40.5121C563.324 40.0029 563.376 39.4751 563.575 38.9955C563.773 38.5158 564.11 38.1058 564.542 37.8174C564.973 37.529 565.481 37.375 566 37.375C566.696 37.375 567.364 37.6516 567.856 38.1438C568.348 38.6361 568.625 39.3038 568.625 40ZM558.5 37.375C557.981 37.375 557.473 37.529 557.042 37.8174C556.61 38.1058 556.273 38.5158 556.075 38.9955C555.876 39.4751 555.824 40.0029 555.925 40.5121C556.027 41.0213 556.277 41.489 556.644 41.8562C557.011 42.2233 557.479 42.4733 557.988 42.5746C558.497 42.6758 559.025 42.6239 559.505 42.4252C559.984 42.2265 560.394 41.8901 560.683 41.4584C560.971 41.0267 561.125 40.5192 561.125 40C561.125 39.3038 560.848 38.6361 560.356 38.1438C559.864 37.6516 559.196 37.375 558.5 37.375ZM573.5 37.375C572.981 37.375 572.473 37.529 572.042 37.8174C571.61 38.1058 571.273 38.5158 571.075 38.9955C570.876 39.4751 570.824 40.0029 570.925 40.5121C571.027 41.0213 571.277 41.489 571.644 41.8562C572.011 42.2233 572.479 42.4733 572.988 42.5746C573.497 42.6758 574.025 42.6239 574.505 42.4252C574.984 42.2265 575.394 41.8901 575.683 41.4584C575.971 41.0267 576.125 40.5192 576.125 40C576.125 39.6553 576.057 39.3139 575.925 38.9955C575.793 38.677 575.6 38.3876 575.356 38.1438C575.112 37.9001 574.823 37.7067 574.505 37.5748C574.186 37.4429 573.845 37.375 573.5 37.375Z" fill="black" fill-opacity="0.4"/>
<path d="M37.84 204.451H34.912V208.579H33.344V197.011H37.84C40.112 197.011 41.568 198.499 41.568 200.723C41.568 202.883 40.096 204.451 37.84 204.451ZM37.568 198.419H34.912V203.043H37.504C39.056 203.043 39.92 202.131 39.92 200.707C39.92 199.251 39.04 198.419 37.568 198.419ZM42.2166 204.659C42.2166 202.243 43.9446 200.547 46.2966 200.547C48.6326 200.547 50.3606 202.243 50.3606 204.659C50.3606 207.075 48.6326 208.771 46.2966 208.771C43.9446 208.771 42.2166 207.075 42.2166 204.659ZM43.7366 204.659C43.7366 206.291 44.7766 207.427 46.2966 207.427C47.8006 207.427 48.8566 206.291 48.8566 204.659C48.8566 203.027 47.8006 201.891 46.2966 201.891C44.7766 201.891 43.7366 203.027 43.7366 204.659ZM51.3855 206.307H52.8255C52.8255 207.107 53.4335 207.587 54.4255 207.587C55.4815 207.587 56.0895 207.155 56.0895 206.435C56.0895 205.907 55.8335 205.587 55.0175 205.379L53.6415 205.059C52.2495 204.723 51.5935 204.035 51.5935 202.883C51.5935 201.443 52.8095 200.531 54.5375 200.531C56.2495 200.531 57.3695 201.491 57.4015 202.979H55.9615C55.9295 202.195 55.4015 201.699 54.4895 201.699C53.5455 201.699 53.0175 202.115 53.0175 202.835C53.0175 203.363 53.4015 203.715 54.1695 203.907L55.5455 204.243C56.8735 204.563 57.5295 205.171 57.5295 206.339C57.5295 207.827 56.2495 208.771 54.3935 208.771C52.5535 208.771 51.3855 207.795 51.3855 206.307ZM61.4054 208.579H59.9014V202.019H58.3654V200.755H59.9014V198.307H61.4054V200.755H62.9414V202.019H61.4054V208.579ZM67.589 208.771C65.285 208.771 63.701 207.107 63.701 204.675C63.701 202.227 65.253 200.531 67.525 200.531C69.749 200.531 71.205 202.067 71.205 204.387V204.947L65.157 204.963C65.269 206.611 66.133 207.523 67.621 207.523C68.789 207.523 69.557 207.043 69.813 206.147H71.221C70.837 207.827 69.525 208.771 67.589 208.771ZM67.525 201.795C66.213 201.795 65.381 202.579 65.189 203.955H69.701C69.701 202.659 68.853 201.795 67.525 201.795ZM76.0209 208.771C73.7489 208.771 72.3729 207.075 72.3729 204.691C72.3729 202.291 73.7649 200.531 76.0849 200.531C77.2849 200.531 78.2929 201.059 78.8209 202.019V196.803H80.3089V208.579H78.9649L78.8369 207.155C78.3249 208.227 77.2689 208.771 76.0209 208.771ZM76.3249 207.411C77.8609 207.411 78.8049 206.275 78.8049 204.643C78.8049 203.043 77.8609 201.891 76.3249 201.891C74.7889 201.891 73.8929 203.043 73.8929 204.643C73.8929 206.259 74.7889 207.411 76.3249 207.411ZM86.3416 204.659C86.3416 202.243 88.0696 200.547 90.4216 200.547C92.7576 200.547 94.4856 202.243 94.4856 204.659C94.4856 207.075 92.7576 208.771 90.4216 208.771C88.0696 208.771 86.3416 207.075 86.3416 204.659ZM87.8616 204.659C87.8616 206.291 88.9016 207.427 90.4216 207.427C91.9256 207.427 92.9816 206.291 92.9816 204.659C92.9816 203.027 91.9256 201.891 90.4216 201.891C88.9016 201.891 87.8616 203.027 87.8616 204.659ZM97.6545 208.579H96.1505V200.755H97.5105L97.6705 201.955C98.1665 201.059 99.1585 200.531 100.263 200.531C102.327 200.531 103.271 201.795 103.271 203.795V208.579H101.767V204.131C101.767 202.547 101.031 201.907 99.8785 201.907C98.4705 201.907 97.6545 202.915 97.6545 204.435V208.579ZM110.465 208.579H108.833L113.057 197.011H114.801L119.041 208.579H117.393L116.353 205.699H111.489L110.465 208.579ZM113.729 199.507L111.969 204.339H115.889L114.113 199.507C114.033 199.283 113.953 199.011 113.921 198.835C113.889 198.995 113.809 199.267 113.729 199.507ZM125.512 200.755H127V208.579H125.656L125.496 207.395C125.048 208.211 124.008 208.771 122.856 208.771C121.032 208.771 120.008 207.539 120.008 205.619V200.755H121.512V205.123C121.512 206.803 122.232 207.443 123.384 207.443C124.76 207.443 125.512 206.563 125.512 204.883V200.755ZM128.686 204.467C128.686 202.259 130.11 200.531 132.382 200.531C133.646 200.531 134.622 201.107 135.118 202.083L135.23 200.755H136.574V208.259C136.574 210.723 135.054 212.291 132.654 212.291C130.526 212.291 129.07 211.091 128.782 209.107H130.286C130.478 210.259 131.342 210.931 132.654 210.931C134.126 210.931 135.086 209.971 135.086 208.483V206.915C134.574 207.827 133.55 208.371 132.318 208.371C130.094 208.371 128.686 206.659 128.686 204.467ZM130.19 204.435C130.19 205.907 131.102 207.059 132.574 207.059C134.094 207.059 135.022 205.971 135.022 204.435C135.022 202.931 134.126 201.843 132.59 201.843C131.086 201.843 130.19 202.995 130.19 204.435ZM144.152 200.755H145.64V208.579H144.296L144.136 207.395C143.688 208.211 142.648 208.771 141.496 208.771C139.672 208.771 138.648 207.539 138.648 205.619V200.755H140.152V205.123C140.152 206.803 140.872 207.443 142.024 207.443C143.4 207.443 144.152 206.563 144.152 204.883V200.755ZM147.026 206.307H148.466C148.466 207.107 149.074 207.587 150.066 207.587C151.122 207.587 151.73 207.155 151.73 206.435C151.73 205.907 151.474 205.587 150.658 205.379L149.282 205.059C147.89 204.723 147.234 204.035 147.234 202.883C147.234 201.443 148.45 200.531 150.178 200.531C151.89 200.531 153.01 201.491 153.042 202.979H151.602C151.57 202.195 151.042 201.699 150.13 201.699C149.186 201.699 148.658 202.115 148.658 202.835C148.658 203.363 149.042 203.715 149.81 203.907L151.186 204.243C152.514 204.563 153.17 205.171 153.17 206.339C153.17 207.827 151.89 208.771 150.034 208.771C148.194 208.771 147.026 207.795 147.026 206.307ZM157.046 208.579H155.542V202.019H154.006V200.755H155.542V198.307H157.046V200.755H158.582V202.019H157.046V208.579ZM166.211 198.419H163.779V197.011H167.715V208.579H166.211V198.419ZM169.736 205.363C169.736 203.971 170.552 202.851 171.832 202.387C170.744 201.923 170.152 201.011 170.152 199.843C170.152 198.035 171.704 196.803 174.008 196.803C176.28 196.803 177.816 198.035 177.816 199.859C177.816 201.043 177.208 201.955 176.12 202.387C177.416 202.803 178.248 203.955 178.248 205.379C178.248 207.411 176.552 208.771 173.992 208.771C171.416 208.771 169.736 207.411 169.736 205.363ZM171.592 199.939C171.592 201.075 172.536 201.811 173.976 201.811C175.432 201.811 176.344 201.091 176.344 199.971C176.344 198.867 175.432 198.163 173.976 198.163C172.536 198.163 171.592 198.867 171.592 199.939ZM171.272 205.251C171.272 206.547 172.344 207.379 173.992 207.379C175.624 207.379 176.696 206.547 176.696 205.251C176.696 203.971 175.64 203.155 173.976 203.155C172.328 203.155 171.272 203.971 171.272 205.251ZM182.157 207.955C182.157 209.107 181.293 210.067 180.157 210.211V209.539C180.812 209.427 181.277 208.995 181.277 208.499C181.164 208.563 181.037 208.595 180.845 208.595C180.317 208.595 179.868 208.211 179.868 207.619C179.868 206.979 180.301 206.515 180.941 206.515C181.613 206.515 182.157 207.075 182.157 207.955ZM196.153 208.563L188.345 208.579V207.379L192.073 204.163C193.945 202.547 194.473 201.763 194.473 200.531C194.473 199.075 193.641 198.211 192.249 198.211C190.825 198.211 189.897 199.251 189.865 200.899H188.297C188.345 198.419 189.913 196.803 192.265 196.803C194.585 196.803 196.073 198.211 196.073 200.435C196.073 202.083 195.257 203.251 193.209 205.027L190.809 207.107H196.153V208.563ZM197.597 202.803C197.597 199.219 199.453 196.787 202.365 196.787C205.26 196.787 207.117 199.219 207.117 202.803C207.117 206.403 205.341 208.787 202.365 208.787C199.373 208.787 197.597 206.403 197.597 202.803ZM199.149 202.803C199.149 205.651 200.333 207.379 202.365 207.379C204.397 207.379 205.565 205.651 205.565 202.803C205.565 199.923 204.397 198.195 202.365 198.195C200.333 198.195 199.149 199.923 199.149 202.803ZM216.45 208.563L208.642 208.579V207.379L212.37 204.163C214.242 202.547 214.77 201.763 214.77 200.531C214.77 199.075 213.938 198.211 212.546 198.211C211.122 198.211 210.194 199.251 210.162 200.899H208.594C208.642 198.419 210.21 196.803 212.562 196.803C214.882 196.803 216.37 198.211 216.37 200.435C216.37 202.083 215.554 203.251 213.506 205.027L211.106 207.107H216.45V208.563ZM221.268 202.595H220.116V201.555L223.396 198.403H218.196V197.011H225.38V198.275L222.212 201.299C224.18 201.539 225.668 202.867 225.668 204.947C225.668 207.283 223.908 208.771 221.556 208.771C219.284 208.771 217.652 207.379 217.652 204.979H219.204C219.204 206.483 220.132 207.363 221.588 207.363C223.092 207.363 224.068 206.403 224.068 204.915C224.068 203.523 223.108 202.595 221.268 202.595Z" fill="black" fill-opacity="0.6"/>
</svg>
