<svg width="610" height="242" viewBox="0 0 610 242" fill="none" xmlns="http://www.w3.org/2000/svg">
<rect x="0.5" y="0.5" width="609" height="240.579" rx="19.5" stroke="black" stroke-opacity="0.1"/>
<path d="M43.2895 28L46.4879 34.8872L54.0264 35.8008L48.4647 40.971L49.9253 48.4229L43.2895 44.731L36.6537 48.4229L38.1143 40.971L32.5525 35.8008L40.091 34.8872L43.2895 28Z" fill="#FFC633"/>
<path d="M72.3552 28L75.5536 34.8872L83.0921 35.8008L77.5304 40.971L78.991 48.4229L72.3552 44.731L65.7194 48.4229L67.18 40.971L61.6182 35.8008L69.1567 34.8872L72.3552 28Z" fill="#FFC633"/>
<path d="M101.421 28L104.62 34.8872L112.158 35.8008L106.596 40.971L108.057 48.4229L101.421 44.731L94.7853 48.4229L96.2459 40.971L90.6841 35.8008L98.2226 34.8872L101.421 28Z" fill="#FFC633"/>
<path d="M130.487 28L133.685 34.8872L141.224 35.8008L135.662 40.971L137.123 48.4229L130.487 44.731L123.851 48.4229L125.312 40.971L119.75 35.8008L127.288 34.8872L130.487 28Z" fill="#FFC633"/>
<path d="M46.96 77.759C46.96 82.199 44.04 85.319 39.84 85.319C35.66 85.319 32.78 82.219 32.78 77.759C32.78 73.319 35.68 70.199 39.86 70.199C44.04 70.199 46.96 73.299 46.96 77.759ZM44.26 77.759C44.26 74.639 42.54 72.659 39.86 72.659C37.18 72.659 35.46 74.639 35.46 77.759C35.46 80.879 37.18 82.859 39.86 82.859C42.54 82.859 44.26 80.839 44.26 77.759ZM51.4427 85.079H49.0227V70.199H51.4427V85.079ZM55.2222 73.219C54.3822 73.219 53.7222 72.559 53.7222 71.739C53.7222 70.919 54.3822 70.279 55.2222 70.279C56.0222 70.279 56.6822 70.919 56.6822 71.739C56.6822 72.559 56.0222 73.219 55.2222 73.219ZM54.0022 85.079V75.199H56.4422V85.079H54.0022ZM61.7631 85.079L57.8431 75.199H60.4431L62.1631 79.739C62.5831 80.919 62.9231 81.939 63.0431 82.479C63.1831 81.859 63.5431 80.819 63.9631 79.739L65.7631 75.199H68.2831L64.1631 85.079H61.7631ZM70.9058 73.219C70.0658 73.219 69.4058 72.559 69.4058 71.739C69.4058 70.919 70.0658 70.279 70.9058 70.279C71.7058 70.279 72.3658 70.919 72.3658 71.739C72.3658 72.559 71.7058 73.219 70.9058 73.219ZM69.6858 85.079V75.199H72.1258V85.079H69.6858ZM77.5867 85.339C75.4867 85.339 74.2067 84.119 74.2067 82.259C74.2067 80.439 75.5267 79.299 77.8667 79.119L80.8267 78.899V78.679C80.8267 77.339 80.0267 76.799 78.7867 76.799C77.3467 76.799 76.5467 77.399 76.5467 78.439H74.4667C74.4667 76.299 76.2267 74.899 78.9067 74.899C81.5667 74.899 83.2067 76.339 83.2067 79.079V85.079H81.0667L80.8867 83.619C80.4667 84.639 79.1267 85.339 77.5867 85.339ZM78.3867 83.499C79.8867 83.499 80.8467 82.599 80.8467 81.079V80.559L78.7867 80.719C77.2667 80.859 76.6867 81.359 76.6867 82.159C76.6867 83.059 77.2867 83.499 78.3867 83.499ZM97.1344 80.039H93.9144V85.079H91.3544V70.459H97.1344C100.074 70.459 101.974 72.379 101.974 75.239C101.974 78.059 100.054 80.039 97.1344 80.039ZM96.6344 72.739H93.9144V77.759H96.5944C98.3544 77.759 99.2944 76.819 99.2944 75.219C99.2944 73.619 98.3344 72.739 96.6344 72.739ZM103.24 85.319C102.36 85.319 101.62 84.599 101.62 83.739C101.62 82.859 102.36 82.139 103.24 82.139C104.12 82.139 104.86 82.859 104.86 83.739C104.86 84.599 104.12 85.319 103.24 85.319Z" fill="black"/>
<path d="M123 67.829C121.072 67.829 119.187 68.4008 117.583 69.4722C115.98 70.5435 114.73 72.0662 113.992 73.8478C113.254 75.6294 113.061 77.5898 113.437 79.4811C113.814 81.3724 114.742 83.1097 116.106 84.4733C117.469 85.8368 119.207 86.7654 121.098 87.1416C122.989 87.5178 124.95 87.3248 126.731 86.5868C128.513 85.8489 130.035 84.5992 131.107 82.9958C132.178 81.3924 132.75 79.5073 132.75 77.579C132.747 74.994 131.719 72.5156 129.891 70.6877C128.063 68.8598 125.585 67.8317 123 67.829ZM127.281 75.8596L122.031 81.1096C121.961 81.1793 121.878 81.2347 121.787 81.2724C121.696 81.3101 121.599 81.3296 121.5 81.3296C121.401 81.3296 121.304 81.3101 121.213 81.2724C121.122 81.2347 121.039 81.1793 120.969 81.1096L118.719 78.8596C118.579 78.7189 118.5 78.528 118.5 78.329C118.5 78.13 118.579 77.9391 118.719 77.7984C118.86 77.6576 119.051 77.5786 119.25 77.5786C119.449 77.5786 119.64 77.6576 119.781 77.7984L121.5 79.5187L126.219 74.7984C126.289 74.7287 126.372 74.6734 126.463 74.6357C126.554 74.598 126.651 74.5786 126.75 74.5786C126.849 74.5786 126.946 74.598 127.037 74.6357C127.128 74.6734 127.211 74.7287 127.281 74.7984C127.35 74.868 127.406 74.9508 127.443 75.0418C127.481 75.1329 127.5 75.2304 127.5 75.329C127.5 75.4275 127.481 75.5251 127.443 75.6162C127.406 75.7072 127.35 75.7899 127.281 75.8596Z" fill="#01AB31"/>
<path d="M34.08 107.907L33.776 111.091H33.056L32.736 107.907C32.672 107.347 33.072 107.091 33.424 107.091C33.76 107.091 34.144 107.347 34.08 107.907ZM36.336 107.907L36.032 111.091H35.312L34.992 107.907C34.928 107.347 35.328 107.091 35.68 107.091C36.016 107.091 36.4 107.347 36.336 107.907ZM37.1889 118.579H36.0209L40.2289 107.123H41.6529L45.9089 118.579H44.7089L43.5889 115.539H38.3089L37.1889 118.579ZM40.7889 108.739L38.6609 114.531H43.2209L41.0769 108.739C41.0289 108.579 40.9489 108.387 40.9329 108.275C40.9169 108.371 40.8529 108.579 40.7889 108.739ZM46.6054 116.403H47.6614C47.6614 117.299 48.3334 117.859 49.4214 117.859C50.6214 117.859 51.3254 117.347 51.3254 116.515C51.3254 115.875 51.0054 115.507 50.0934 115.283L48.7654 114.947C47.4214 114.611 46.7654 113.907 46.7654 112.851C46.7654 111.491 47.9014 110.627 49.5654 110.627C51.1974 110.627 52.2534 111.523 52.3014 112.963H51.2294C51.1974 112.067 50.5734 111.539 49.5334 111.539C48.4454 111.539 47.8374 112.003 47.8374 112.835C47.8374 113.427 48.2534 113.843 49.1014 114.051L50.4294 114.387C51.7734 114.723 52.3814 115.347 52.3814 116.467C52.3814 117.859 51.1974 118.771 49.4374 118.771C47.6934 118.771 46.6054 117.843 46.6054 116.403ZM60.8604 118.771C59.2124 118.771 58.2364 117.843 58.2364 116.483C58.2364 115.059 59.3244 114.163 61.1324 114.019L63.6924 113.811V113.555C63.6924 112.035 62.7804 111.555 61.6444 111.555C60.3004 111.555 59.5004 112.163 59.5004 113.203H58.4924C58.4924 111.635 59.7724 110.627 61.6764 110.627C63.4684 110.627 64.7804 111.523 64.7804 113.571V118.579H63.8524L63.7084 117.219C63.2284 118.195 62.1724 118.771 60.8604 118.771ZM61.1164 117.875C62.7484 117.875 63.6924 116.739 63.6924 115.059V114.643L61.4044 114.819C59.9484 114.947 59.3564 115.587 59.3564 116.451C59.3564 117.395 60.0604 117.875 61.1164 117.875ZM71.5933 114.595V107.123H72.7453V114.547C72.7453 116.563 73.8493 117.651 75.8493 117.651C77.8013 117.651 78.9053 116.531 78.9053 114.547V107.123H80.0573V114.595C80.0573 117.187 78.4573 118.771 75.8493 118.771C73.1933 118.771 71.5933 117.203 71.5933 114.595ZM83.919 107.123V118.579H82.767V107.123H83.919ZM86.4005 118.579H85.3125L89.7765 107.123H90.8965L86.4005 118.579ZM92.2026 114.595V107.123H93.3546V114.547C93.3546 116.563 94.4586 117.651 96.4586 117.651C98.4106 117.651 99.5146 116.531 99.5146 114.547V107.123H100.667V114.595C100.667 117.187 99.0666 118.771 96.4586 118.771C93.8026 118.771 92.2026 117.203 92.2026 114.595ZM106.208 112.867L102.208 107.123H103.568L105.696 110.131C106.24 110.899 106.608 111.507 106.88 112.019L110.208 107.123H111.536L107.6 112.835L111.6 118.579H110.224L108.048 115.507C107.664 114.963 107.2 114.259 106.912 113.747L103.568 118.579H102.224L106.208 112.867ZM120.619 118.771C118.347 118.771 116.827 117.139 116.827 114.707C116.827 112.291 118.331 110.627 120.539 110.627C122.635 110.627 124.059 112.115 124.059 114.307V114.851H117.899C117.979 116.739 118.971 117.827 120.635 117.827C121.899 117.827 122.715 117.283 123.003 116.259H124.059C123.643 117.891 122.443 118.771 120.619 118.771ZM120.539 111.571C119.083 111.571 118.123 112.531 117.931 114.051H122.955C122.955 112.563 121.995 111.571 120.539 111.571ZM126.928 118.579H125.824V110.835H126.784L126.944 112.179C127.456 111.187 128.48 110.627 129.6 110.627C131.728 110.627 132.608 111.891 132.608 113.843V118.579H131.504V114.083C131.504 112.275 130.688 111.635 129.408 111.635C127.824 111.635 126.928 112.787 126.928 114.531V118.579ZM136.584 118.579H135.496V111.763H133.944V110.835H135.496V108.387H136.584V110.835H138.136V111.763H136.584V118.579ZM140.678 118.563H139.574V106.915H140.678V112.179C141.174 111.251 142.118 110.627 143.414 110.627C145.446 110.627 146.358 111.891 146.358 113.843V118.579H145.254V114.083C145.254 112.275 144.406 111.635 143.206 111.635C141.542 111.635 140.678 112.867 140.678 114.355V118.563ZM153.998 110.835H155.102V118.579H154.142L153.998 117.267C153.566 118.163 152.494 118.771 151.278 118.771C149.454 118.771 148.462 117.523 148.462 115.635V110.819H149.582V115.283C149.582 117.123 150.398 117.779 151.63 117.779C153.118 117.779 153.998 116.787 153.998 114.947V110.835ZM156.59 116.403H157.646C157.646 117.299 158.318 117.859 159.406 117.859C160.606 117.859 161.31 117.347 161.31 116.515C161.31 115.875 160.99 115.507 160.078 115.283L158.75 114.947C157.406 114.611 156.75 113.907 156.75 112.851C156.75 111.491 157.886 110.627 159.55 110.627C161.182 110.627 162.238 111.523 162.286 112.963H161.214C161.182 112.067 160.558 111.539 159.518 111.539C158.43 111.539 157.822 112.003 157.822 112.835C157.822 113.427 158.238 113.843 159.086 114.051L160.414 114.387C161.758 114.723 162.366 115.347 162.366 116.467C162.366 117.859 161.182 118.771 159.422 118.771C157.678 118.771 156.59 117.843 156.59 116.403ZM164.727 108.707C164.279 108.707 163.911 108.339 163.911 107.891C163.911 107.443 164.279 107.059 164.727 107.059C165.175 107.059 165.559 107.443 165.559 107.891C165.559 108.339 165.175 108.707 164.727 108.707ZM164.183 118.579V110.835H165.287V118.579H164.183ZM169.814 118.771C168.166 118.771 167.19 117.843 167.19 116.483C167.19 115.059 168.278 114.163 170.086 114.019L172.646 113.811V113.555C172.646 112.035 171.734 111.555 170.598 111.555C169.254 111.555 168.454 112.163 168.454 113.203H167.446C167.446 111.635 168.726 110.627 170.63 110.627C172.422 110.627 173.734 111.523 173.734 113.571V118.579H172.806L172.662 117.219C172.182 118.195 171.126 118.771 169.814 118.771ZM170.07 117.875C171.702 117.875 172.646 116.739 172.646 115.059V114.643L170.358 114.819C168.902 114.947 168.31 115.587 168.31 116.451C168.31 117.395 169.014 117.875 170.07 117.875ZM175.293 116.403H176.349C176.349 117.299 177.021 117.859 178.109 117.859C179.309 117.859 180.013 117.347 180.013 116.515C180.013 115.875 179.693 115.507 178.781 115.283L177.453 114.947C176.109 114.611 175.453 113.907 175.453 112.851C175.453 111.491 176.589 110.627 178.253 110.627C179.885 110.627 180.941 111.523 180.989 112.963H179.917C179.885 112.067 179.261 111.539 178.221 111.539C177.133 111.539 176.525 112.003 176.525 112.835C176.525 113.427 176.941 113.843 177.789 114.051L179.117 114.387C180.461 114.723 181.069 115.347 181.069 116.467C181.069 117.859 179.885 118.771 178.125 118.771C176.381 118.771 175.293 117.843 175.293 116.403ZM184.662 118.579H183.574V111.763H182.022V110.835H183.574V108.387H184.662V110.835H186.214V111.763H184.662V118.579ZM189.12 118.035C189.12 119.027 188.352 119.891 187.36 120.035V119.443C187.936 119.347 188.352 118.931 188.352 118.483C188.256 118.547 188.128 118.595 187.936 118.595C187.488 118.595 187.104 118.275 187.104 117.731C187.104 117.171 187.488 116.771 188.048 116.771C188.624 116.771 189.12 117.235 189.12 118.035ZM197.185 107.123V118.579H196.033V107.123H197.185ZM206.328 118.579L203.16 110.835H204.344L206.344 115.827C206.552 116.387 206.76 116.915 206.904 117.427C207.048 116.899 207.256 116.387 207.48 115.827L209.512 110.835H210.648L207.432 118.579H206.328ZM213.829 118.771C212.181 118.771 211.205 117.843 211.205 116.483C211.205 115.059 212.293 114.163 214.101 114.019L216.661 113.811V113.555C216.661 112.035 215.749 111.555 214.613 111.555C213.269 111.555 212.469 112.163 212.469 113.203H211.461C211.461 111.635 212.741 110.627 214.645 110.627C216.437 110.627 217.749 111.523 217.749 113.571V118.579H216.821L216.677 117.219C216.197 118.195 215.141 118.771 213.829 118.771ZM214.085 117.875C215.717 117.875 216.661 116.739 216.661 115.059V114.643L214.373 114.819C212.917 114.947 212.325 115.587 212.325 116.451C212.325 117.395 213.029 117.875 214.085 117.875ZM221.117 118.579H220.013V106.915H221.117V118.579ZM228.905 110.835H230.009V118.579H229.049L228.905 117.267C228.473 118.163 227.401 118.771 226.185 118.771C224.361 118.771 223.368 117.523 223.368 115.635V110.819H224.489V115.283C224.489 117.123 225.305 117.779 226.536 117.779C228.025 117.779 228.905 116.787 228.905 114.947V110.835ZM235.4 118.771C233.128 118.771 231.608 117.139 231.608 114.707C231.608 112.291 233.112 110.627 235.32 110.627C237.416 110.627 238.84 112.115 238.84 114.307V114.851H232.68C232.76 116.739 233.752 117.827 235.416 117.827C236.68 117.827 237.496 117.283 237.784 116.259H238.84C238.424 117.891 237.224 118.771 235.4 118.771ZM235.32 111.571C233.864 111.571 232.904 112.531 232.712 114.051H237.736C237.736 112.563 236.776 111.571 235.32 111.571ZM244.387 116.403H245.443C245.443 117.299 246.115 117.859 247.203 117.859C248.403 117.859 249.107 117.347 249.107 116.515C249.107 115.875 248.787 115.507 247.875 115.283L246.547 114.947C245.203 114.611 244.547 113.907 244.547 112.851C244.547 111.491 245.683 110.627 247.347 110.627C248.979 110.627 250.035 111.523 250.083 112.963H249.011C248.979 112.067 248.355 111.539 247.315 111.539C246.227 111.539 245.619 112.003 245.619 112.835C245.619 113.427 246.035 113.843 246.883 114.051L248.211 114.387C249.555 114.723 250.163 115.347 250.163 116.467C250.163 117.859 248.979 118.771 247.219 118.771C245.475 118.771 244.387 117.843 244.387 116.403ZM252.524 108.707C252.076 108.707 251.708 108.339 251.708 107.891C251.708 107.443 252.076 107.059 252.524 107.059C252.972 107.059 253.356 107.443 253.356 107.891C253.356 108.339 252.972 108.707 252.524 108.707ZM251.98 118.579V110.835H253.084V118.579H251.98ZM256.49 118.579H255.386V110.835H256.346L256.474 111.939C256.858 111.123 257.722 110.627 258.81 110.627C260.026 110.627 260.938 111.267 261.306 112.275C261.658 111.267 262.602 110.627 263.85 110.627C265.53 110.627 266.634 111.715 266.634 113.507V118.579H265.562V113.731C265.562 112.403 264.826 111.619 263.642 111.619C262.346 111.619 261.578 112.595 261.578 113.795V118.579H260.49V113.715C260.49 112.403 259.738 111.635 258.57 111.635C257.274 111.635 256.49 112.595 256.49 113.779V118.579ZM268.855 121.955V110.835H269.815L269.927 112.403C270.471 111.203 271.559 110.627 272.855 110.627C275.095 110.627 276.439 112.339 276.439 114.675C276.439 117.011 275.143 118.771 272.855 118.771C271.543 118.771 270.503 118.211 269.959 117.091V121.955H268.855ZM269.975 114.707C269.975 116.483 270.967 117.779 272.663 117.779C274.343 117.779 275.319 116.483 275.319 114.707C275.319 112.915 274.343 111.635 272.663 111.635C270.967 111.635 269.975 112.915 269.975 114.707ZM279.351 118.579H278.247V106.915H279.351V118.579ZM282.243 108.707C281.795 108.707 281.427 108.339 281.427 107.891C281.427 107.443 281.795 107.059 282.243 107.059C282.691 107.059 283.075 107.443 283.075 107.891C283.075 108.339 282.691 108.707 282.243 108.707ZM281.699 118.579V110.835H282.803V118.579H281.699ZM284.561 114.723C284.561 112.291 286.049 110.627 288.305 110.627C290.097 110.627 291.409 111.667 291.713 113.267H290.609C290.321 112.195 289.393 111.603 288.321 111.603C286.753 111.603 285.649 112.803 285.649 114.707C285.649 116.547 286.673 117.779 288.241 117.779C289.393 117.779 290.321 117.139 290.625 116.147H291.745C291.377 117.731 290.001 118.771 288.241 118.771C286.049 118.771 284.561 117.155 284.561 114.723ZM293.962 108.707C293.514 108.707 293.146 108.339 293.146 107.891C293.146 107.443 293.514 107.059 293.962 107.059C294.41 107.059 294.794 107.443 294.794 107.891C294.794 108.339 294.41 108.707 293.962 108.707ZM293.418 118.579V110.835H294.522V118.579H293.418ZM298.6 118.579H297.512V111.763H295.96V110.835H297.512V108.387H298.6V110.835H300.152V111.763H298.6V118.579ZM300.806 121.955V121.043H301.654C302.326 121.043 302.998 120.995 303.382 119.955L303.718 119.043L300.582 110.835H301.75L304.246 117.587L306.694 110.835H307.83L304.278 120.355C303.83 121.571 303.078 122.067 301.974 122.067C301.51 122.067 301.158 122.035 300.806 121.955ZM315.782 118.771C314.134 118.771 313.158 117.843 313.158 116.483C313.158 115.059 314.246 114.163 316.054 114.019L318.614 113.811V113.555C318.614 112.035 317.702 111.555 316.566 111.555C315.222 111.555 314.422 112.163 314.422 113.203H313.414C313.414 111.635 314.694 110.627 316.598 110.627C318.39 110.627 319.702 111.523 319.702 113.571V118.579H318.774L318.63 117.219C318.15 118.195 317.094 118.771 315.782 118.771ZM316.038 117.875C317.67 117.875 318.614 116.739 318.614 115.059V114.643L316.326 114.819C314.87 114.947 314.278 115.587 314.278 116.451C314.278 117.395 314.982 117.875 316.038 117.875ZM323.022 118.579H321.918V110.835H322.878L323.038 112.179C323.55 111.187 324.574 110.627 325.694 110.627C327.822 110.627 328.702 111.891 328.702 113.843V118.579H327.598V114.083C327.598 112.275 326.782 111.635 325.502 111.635C323.918 111.635 323.022 112.787 323.022 114.531V118.579ZM333.942 118.771C331.686 118.771 330.358 117.043 330.358 114.723C330.358 112.387 331.686 110.627 333.99 110.627C335.27 110.627 336.294 111.187 336.838 112.307V106.915H337.942V118.579H336.982L336.87 116.995C336.326 118.195 335.238 118.771 333.942 118.771ZM334.134 117.763C335.83 117.763 336.822 116.483 336.822 114.691C336.822 112.915 335.83 111.619 334.134 111.619C332.454 111.619 331.478 112.915 331.478 114.691C331.478 116.483 332.454 117.763 334.134 117.763ZM343.819 110.835H345.003V109.331C345.003 107.587 345.963 106.915 347.147 106.915C347.419 106.915 347.739 106.931 347.995 106.979V107.923H347.339C346.363 107.923 346.107 108.419 346.107 109.331V110.835H347.931V111.763H346.107V118.579H345.003V111.763H343.819V110.835ZM354.873 110.835H355.977V118.579H355.017L354.873 117.267C354.441 118.163 353.369 118.771 352.153 118.771C350.329 118.771 349.337 117.523 349.337 115.635V110.819H350.457V115.283C350.457 117.123 351.273 117.779 352.505 117.779C353.993 117.779 354.873 116.787 354.873 114.947V110.835ZM359.381 118.579H358.277V110.835H359.237L359.397 112.179C359.909 111.187 360.933 110.627 362.053 110.627C364.181 110.627 365.061 111.891 365.061 113.843V118.579H363.957V114.083C363.957 112.275 363.141 111.635 361.861 111.635C360.277 111.635 359.381 112.787 359.381 114.531V118.579ZM366.717 114.723C366.717 112.291 368.205 110.627 370.461 110.627C372.253 110.627 373.565 111.667 373.869 113.267H372.765C372.477 112.195 371.549 111.603 370.477 111.603C368.909 111.603 367.805 112.803 367.805 114.707C367.805 116.547 368.829 117.779 370.397 117.779C371.549 117.779 372.477 117.139 372.781 116.147H373.901C373.533 117.731 372.157 118.771 370.397 118.771C368.205 118.771 366.717 117.155 366.717 114.723ZM377.35 118.579H376.262V111.763H374.71V110.835H376.262V108.387H377.35V110.835H378.902V111.763H377.35V118.579ZM380.884 108.707C380.436 108.707 380.068 108.339 380.068 107.891C380.068 107.443 380.436 107.059 380.884 107.059C381.332 107.059 381.716 107.443 381.716 107.891C381.716 108.339 381.332 108.707 380.884 108.707ZM380.34 118.579V110.835H381.444V118.579H380.34ZM383.202 114.707C383.202 112.339 384.866 110.627 387.138 110.627C389.41 110.627 391.074 112.339 391.074 114.707C391.074 117.059 389.41 118.771 387.138 118.771C384.866 118.771 383.202 117.059 383.202 114.707ZM384.322 114.691C384.322 116.515 385.474 117.779 387.138 117.779C388.786 117.779 389.954 116.515 389.954 114.691C389.954 112.899 388.786 111.619 387.138 111.619C385.474 111.619 384.322 112.899 384.322 114.691ZM393.944 118.579H392.84V110.835H393.799L393.96 112.179C394.472 111.187 395.496 110.627 396.616 110.627C398.744 110.627 399.624 111.891 399.624 113.843V118.579H398.52V114.083C398.52 112.275 397.704 111.635 396.424 111.635C394.84 111.635 393.944 112.787 393.944 114.531V118.579ZM404.048 118.771C402.4 118.771 401.424 117.843 401.424 116.483C401.424 115.059 402.512 114.163 404.32 114.019L406.88 113.811V113.555C406.88 112.035 405.968 111.555 404.832 111.555C403.488 111.555 402.688 112.163 402.688 113.203H401.68C401.68 111.635 402.96 110.627 404.864 110.627C406.656 110.627 407.968 111.523 407.968 113.571V118.579H407.04L406.896 117.219C406.416 118.195 405.36 118.771 404.048 118.771ZM404.304 117.875C405.936 117.875 406.88 116.739 406.88 115.059V114.643L404.592 114.819C403.136 114.947 402.544 115.587 402.544 116.451C402.544 117.395 403.248 117.875 404.304 117.875ZM411.335 118.579H410.231V106.915H411.335V118.579ZM414.227 108.707C413.779 108.707 413.411 108.339 413.411 107.891C413.411 107.443 413.779 107.059 414.227 107.059C414.675 107.059 415.059 107.443 415.059 107.891C415.059 108.339 414.675 108.707 414.227 108.707ZM413.683 118.579V110.835H414.787V118.579H413.683ZM418.866 118.579H417.778V111.763H416.226V110.835H417.778V108.387H418.866V110.835H420.418V111.763H418.866V118.579ZM421.071 121.955V121.043H421.919C422.591 121.043 423.263 120.995 423.647 119.955L423.983 119.043L420.847 110.835H422.015L424.511 117.587L426.959 110.835H428.095L424.543 120.355C424.095 121.571 423.343 122.067 422.239 122.067C421.775 122.067 421.423 122.035 421.071 121.955ZM429.112 118.755C428.568 118.755 428.104 118.307 428.104 117.779C428.104 117.235 428.568 116.771 429.112 116.771C429.656 116.771 430.12 117.235 430.12 117.779C430.12 118.307 429.656 118.755 429.112 118.755ZM435.833 108.179V107.123H444.041V108.179H440.505V118.579H439.353V108.179H435.833ZM446.49 118.563H445.386V106.915H446.49V112.179C446.986 111.251 447.93 110.627 449.226 110.627C451.258 110.627 452.17 111.891 452.17 113.843V118.579H451.066V114.083C451.066 112.275 450.218 111.635 449.018 111.635C447.354 111.635 446.49 112.867 446.49 114.355V118.563ZM454.915 108.707C454.467 108.707 454.099 108.339 454.099 107.891C454.099 107.443 454.467 107.059 454.915 107.059C455.363 107.059 455.747 107.443 455.747 107.891C455.747 108.339 455.363 108.707 454.915 108.707ZM454.371 118.579V110.835H455.475V118.579H454.371ZM457.121 116.403H458.177C458.177 117.299 458.849 117.859 459.937 117.859C461.137 117.859 461.841 117.347 461.841 116.515C461.841 115.875 461.521 115.507 460.609 115.283L459.281 114.947C457.937 114.611 457.281 113.907 457.281 112.851C457.281 111.491 458.417 110.627 460.081 110.627C461.713 110.627 462.769 111.523 462.817 112.963H461.745C461.713 112.067 461.089 111.539 460.049 111.539C458.961 111.539 458.353 112.003 458.353 112.835C458.353 113.427 458.769 113.843 459.617 114.051L460.945 114.387C462.289 114.723 462.897 115.347 462.897 116.467C462.897 117.859 461.713 118.771 459.953 118.771C458.209 118.771 457.121 117.843 457.121 116.403ZM470.928 118.579H469.84V111.763H468.288V110.835H469.84V108.387H470.928V110.835H472.48V111.763H470.928V118.579ZM473.477 114.867V113.875H478.117V114.867H473.477ZM479.605 116.403H480.661C480.661 117.299 481.333 117.859 482.421 117.859C483.621 117.859 484.325 117.347 484.325 116.515C484.325 115.875 484.005 115.507 483.093 115.283L481.765 114.947C480.421 114.611 479.765 113.907 479.765 112.851C479.765 111.491 480.901 110.627 482.565 110.627C484.197 110.627 485.253 111.523 485.301 112.963H484.229C484.197 112.067 483.573 111.539 482.533 111.539C481.445 111.539 480.837 112.003 480.837 112.835C480.837 113.427 481.253 113.843 482.101 114.051L483.429 114.387C484.773 114.723 485.381 115.347 485.381 116.467C485.381 117.859 484.197 118.771 482.437 118.771C480.693 118.771 479.605 117.843 479.605 116.403ZM488.303 118.563H487.199V106.915H488.303V112.179C488.799 111.251 489.743 110.627 491.039 110.627C493.071 110.627 493.983 111.891 493.983 113.843V118.579H492.879V114.083C492.879 112.275 492.031 111.635 490.831 111.635C489.167 111.635 488.303 112.867 488.303 114.355V118.563ZM496.727 108.707C496.279 108.707 495.911 108.339 495.911 107.891C495.911 107.443 496.279 107.059 496.727 107.059C497.175 107.059 497.559 107.443 497.559 107.891C497.559 108.339 497.175 108.707 496.727 108.707ZM496.183 118.579V110.835H497.287V118.579H496.183ZM503.638 110.739V111.731H503.03C501.606 111.731 500.694 112.691 500.694 114.163V118.579H499.59V110.835H500.63L500.71 112.035C501.014 111.203 501.83 110.659 502.918 110.659C503.158 110.659 503.366 110.675 503.638 110.739ZM507.194 118.579H506.106V111.763H504.554V110.835H506.106V108.387H507.194V110.835H508.746V111.763H507.194V118.579ZM515.725 118.579H514.621V110.835H515.581L515.741 112.179C516.253 111.187 517.277 110.627 518.397 110.627C520.525 110.627 521.405 111.891 521.405 113.843V118.579H520.301V114.083C520.301 112.275 519.485 111.635 518.205 111.635C516.621 111.635 515.725 112.787 515.725 114.531V118.579ZM523.061 114.707C523.061 112.339 524.725 110.627 526.997 110.627C529.269 110.627 530.933 112.339 530.933 114.707C530.933 117.059 529.269 118.771 526.997 118.771C524.725 118.771 523.061 117.059 523.061 114.707ZM524.181 114.691C524.181 116.515 525.333 117.779 526.997 117.779C528.645 117.779 529.813 116.515 529.813 114.691C529.813 112.899 528.645 111.619 526.997 111.619C525.333 111.619 524.181 112.899 524.181 114.691ZM534.397 118.579H533.309V111.763H531.757V110.835H533.309V108.387H534.397V110.835H535.949V111.763H534.397V118.579ZM32.608 136.707C32.608 134.339 34.272 132.627 36.544 132.627C38.816 132.627 40.48 134.339 40.48 136.707C40.48 139.059 38.816 140.771 36.544 140.771C34.272 140.771 32.608 139.059 32.608 136.707ZM33.728 136.691C33.728 138.515 34.88 139.779 36.544 139.779C38.192 139.779 39.36 138.515 39.36 136.691C39.36 134.899 38.192 133.619 36.544 133.619C34.88 133.619 33.728 134.899 33.728 136.691ZM43.3498 140.579H42.2458V132.835H43.2057L43.3658 134.179C43.8778 133.187 44.9018 132.627 46.0218 132.627C48.1498 132.627 49.0298 133.891 49.0298 135.843V140.579H47.9258V136.083C47.9258 134.275 47.1098 133.635 45.8298 133.635C44.2458 133.635 43.3498 134.787 43.3498 136.531V140.579ZM52.3821 140.579H51.2781V128.915H52.3821V140.579ZM53.9461 143.955V143.043H54.7941C55.4661 143.043 56.1381 142.995 56.5221 141.955L56.8581 141.043L53.7221 132.835H54.8901L57.3861 139.587L59.8341 132.835H60.9701L57.4181 142.355C56.9701 143.571 56.2181 144.067 55.1141 144.067C54.6501 144.067 54.2981 144.035 53.9461 143.955ZM70.7469 132.739V133.731H70.1389C68.7149 133.731 67.8029 134.691 67.8029 136.163V140.579H66.6989V132.835H67.7389L67.8189 134.035C68.1229 133.203 68.9389 132.659 70.0269 132.659C70.2669 132.659 70.4749 132.675 70.7469 132.739ZM75.1656 140.771C72.8936 140.771 71.3736 139.139 71.3736 136.707C71.3736 134.291 72.8776 132.627 75.0856 132.627C77.1816 132.627 78.6056 134.115 78.6056 136.307V136.851H72.4456C72.5256 138.739 73.5176 139.827 75.1816 139.827C76.4456 139.827 77.2616 139.283 77.5496 138.259H78.6056C78.1896 139.891 76.9896 140.771 75.1656 140.771ZM75.0856 133.571C73.6296 133.571 72.6696 134.531 72.4776 136.051H77.5016C77.5016 134.563 76.5416 133.571 75.0856 133.571ZM80.3708 143.955V132.835H81.3307L81.4428 134.403C81.9868 133.203 83.0748 132.627 84.3708 132.627C86.6108 132.627 87.9548 134.339 87.9548 136.675C87.9548 139.011 86.6588 140.771 84.3708 140.771C83.0588 140.771 82.0188 140.211 81.4748 139.091V143.955H80.3708ZM81.4908 136.707C81.4908 138.483 82.4828 139.779 84.1788 139.779C85.8588 139.779 86.8348 138.483 86.8348 136.707C86.8348 134.915 85.8588 133.635 84.1788 133.635C82.4828 133.635 81.4908 134.915 81.4908 136.707ZM93.7625 132.739V133.731H93.1545C91.7305 133.731 90.8185 134.691 90.8185 136.163V140.579H89.7145V132.835H90.7545L90.8345 134.035C91.1385 133.203 91.9545 132.659 93.0425 132.659C93.2825 132.659 93.4905 132.675 93.7625 132.739ZM98.1813 140.771C95.9093 140.771 94.3893 139.139 94.3893 136.707C94.3893 134.291 95.8932 132.627 98.1013 132.627C100.197 132.627 101.621 134.115 101.621 136.307V136.851H95.4613C95.5413 138.739 96.5333 139.827 98.1973 139.827C99.4613 139.827 100.277 139.283 100.565 138.259H101.621C101.205 139.891 100.005 140.771 98.1813 140.771ZM98.1013 133.571C96.6453 133.571 95.6853 134.531 95.4933 136.051H100.517C100.517 134.563 99.5573 133.571 98.1013 133.571ZM102.73 138.403H103.786C103.786 139.299 104.458 139.859 105.546 139.859C106.746 139.859 107.45 139.347 107.45 138.515C107.45 137.875 107.13 137.507 106.218 137.283L104.89 136.947C103.546 136.611 102.89 135.907 102.89 134.851C102.89 133.491 104.026 132.627 105.69 132.627C107.322 132.627 108.378 133.523 108.426 134.963H107.354C107.322 134.067 106.698 133.539 105.658 133.539C104.57 133.539 103.962 134.003 103.962 134.835C103.962 135.427 104.378 135.843 105.226 136.051L106.554 136.387C107.898 136.723 108.506 137.347 108.506 138.467C108.506 139.859 107.322 140.771 105.562 140.771C103.818 140.771 102.73 139.843 102.73 138.403ZM113.572 140.771C111.3 140.771 109.78 139.139 109.78 136.707C109.78 134.291 111.284 132.627 113.492 132.627C115.588 132.627 117.012 134.115 117.012 136.307V136.851H110.852C110.932 138.739 111.924 139.827 113.588 139.827C114.852 139.827 115.668 139.283 115.956 138.259H117.012C116.596 139.891 115.396 140.771 113.572 140.771ZM113.492 133.571C112.036 133.571 111.076 134.531 110.884 136.051H115.908C115.908 134.563 114.948 133.571 113.492 133.571ZM119.881 140.579H118.777V132.835H119.737L119.897 134.179C120.409 133.187 121.433 132.627 122.553 132.627C124.681 132.627 125.561 133.891 125.561 135.843V140.579H124.457V136.083C124.457 134.275 123.641 133.635 122.361 133.635C120.777 133.635 119.881 134.787 119.881 136.531V140.579ZM129.537 140.579H128.449V133.763H126.897V132.835H128.449V130.387H129.537V132.835H131.089V133.763H129.537V140.579ZM131.871 138.403H132.927C132.927 139.299 133.599 139.859 134.687 139.859C135.887 139.859 136.591 139.347 136.591 138.515C136.591 137.875 136.271 137.507 135.359 137.283L134.031 136.947C132.687 136.611 132.031 135.907 132.031 134.851C132.031 133.491 133.167 132.627 134.831 132.627C136.463 132.627 137.519 133.523 137.567 134.963H136.495C136.463 134.067 135.839 133.539 134.799 133.539C133.711 133.539 133.103 134.003 133.103 134.835C133.103 135.427 133.519 135.843 134.367 136.051L135.695 136.387C137.039 136.723 137.647 137.347 137.647 138.467C137.647 139.859 136.463 140.771 134.703 140.771C132.959 140.771 131.871 139.843 131.871 138.403ZM145.678 140.579H144.59V133.763H143.038V132.835H144.59V130.387H145.678V132.835H147.23V133.763H145.678V140.579ZM149.772 140.563H148.668V128.915H149.772V134.179C150.268 133.251 151.212 132.627 152.508 132.627C154.54 132.627 155.452 133.891 155.452 135.843V140.579H154.348V136.083C154.348 134.275 153.5 133.635 152.3 133.635C150.636 133.635 149.772 134.867 149.772 136.355V140.563ZM157.108 136.707C157.108 134.339 158.772 132.627 161.044 132.627C163.316 132.627 164.98 134.339 164.98 136.707C164.98 139.059 163.316 140.771 161.044 140.771C158.772 140.771 157.108 139.059 157.108 136.707ZM158.228 136.691C158.228 138.515 159.38 139.779 161.044 139.779C162.692 139.779 163.86 138.515 163.86 136.691C163.86 134.899 162.692 133.619 161.044 133.619C159.38 133.619 158.228 134.899 158.228 136.691ZM166.09 138.403H167.146C167.146 139.299 167.818 139.859 168.906 139.859C170.106 139.859 170.81 139.347 170.81 138.515C170.81 137.875 170.49 137.507 169.578 137.283L168.25 136.947C166.906 136.611 166.25 135.907 166.25 134.851C166.25 133.491 167.386 132.627 169.05 132.627C170.682 132.627 171.738 133.523 171.786 134.963H170.714C170.682 134.067 170.058 133.539 169.018 133.539C167.93 133.539 167.322 134.003 167.322 134.835C167.322 135.427 167.738 135.843 168.586 136.051L169.914 136.387C171.258 136.723 171.866 137.347 171.866 138.467C171.866 139.859 170.682 140.771 168.922 140.771C167.178 140.771 166.09 139.843 166.09 138.403ZM176.931 140.771C174.659 140.771 173.139 139.139 173.139 136.707C173.139 134.291 174.643 132.627 176.851 132.627C178.947 132.627 180.371 134.115 180.371 136.307V136.851H174.211C174.291 138.739 175.283 139.827 176.947 139.827C178.211 139.827 179.027 139.283 179.315 138.259H180.371C179.955 139.891 178.755 140.771 176.931 140.771ZM176.851 133.571C175.395 133.571 174.435 134.531 174.243 136.051H179.267C179.267 134.563 178.307 133.571 176.851 133.571ZM186.574 143.955V132.835H187.534L187.646 134.403C188.19 133.203 189.278 132.627 190.574 132.627C192.814 132.627 194.158 134.339 194.158 136.675C194.158 139.011 192.862 140.771 190.574 140.771C189.262 140.771 188.222 140.211 187.678 139.091V143.955H186.574ZM187.694 136.707C187.694 138.483 188.686 139.779 190.382 139.779C192.062 139.779 193.038 138.483 193.038 136.707C193.038 134.915 192.062 133.635 190.382 133.635C188.686 133.635 187.694 134.915 187.694 136.707ZM199.966 132.739V133.731H199.358C197.934 133.731 197.022 134.691 197.022 136.163V140.579H195.918V132.835H196.958L197.038 134.035C197.342 133.203 198.158 132.659 199.246 132.659C199.486 132.659 199.694 132.675 199.966 132.739ZM201.977 130.707C201.529 130.707 201.161 130.339 201.161 129.891C201.161 129.443 201.529 129.059 201.977 129.059C202.425 129.059 202.809 129.443 202.809 129.891C202.809 130.339 202.425 130.707 201.977 130.707ZM201.433 140.579V132.835H202.537V140.579H201.433ZM205.944 140.579H204.84V132.835H205.799L205.96 134.179C206.472 133.187 207.496 132.627 208.616 132.627C210.744 132.627 211.624 133.891 211.624 135.843V140.579H210.52V136.083C210.52 134.275 209.704 133.635 208.424 133.635C206.84 133.635 205.944 134.787 205.944 136.531V140.579ZM213.28 136.723C213.28 134.291 214.768 132.627 217.024 132.627C218.816 132.627 220.128 133.667 220.432 135.267H219.328C219.04 134.195 218.112 133.603 217.04 133.603C215.472 133.603 214.368 134.803 214.368 136.707C214.368 138.547 215.392 139.779 216.96 139.779C218.112 139.779 219.04 139.139 219.344 138.147H220.464C220.096 139.731 218.72 140.771 216.96 140.771C214.768 140.771 213.28 139.155 213.28 136.723ZM222.68 130.707C222.232 130.707 221.864 130.339 221.864 129.891C221.864 129.443 222.232 129.059 222.68 129.059C223.128 129.059 223.512 129.443 223.512 129.891C223.512 130.339 223.128 130.707 222.68 130.707ZM222.136 140.579V132.835H223.24V140.579H222.136ZM225.543 143.955V132.835H226.503L226.615 134.403C227.159 133.203 228.247 132.627 229.543 132.627C231.783 132.627 233.127 134.339 233.127 136.675C233.127 139.011 231.831 140.771 229.543 140.771C228.231 140.771 227.191 140.211 226.647 139.091V143.955H225.543ZM226.663 136.707C226.663 138.483 227.655 139.779 229.351 139.779C231.031 139.779 232.007 138.483 232.007 136.707C232.007 134.915 231.031 133.635 229.351 133.635C227.655 133.635 226.663 134.915 226.663 136.707ZM236.038 140.579H234.934V128.915H236.038V140.579ZM241.634 140.771C239.362 140.771 237.842 139.139 237.842 136.707C237.842 134.291 239.346 132.627 241.554 132.627C243.65 132.627 245.074 134.115 245.074 136.307V136.851H238.914C238.994 138.739 239.986 139.827 241.65 139.827C242.914 139.827 243.73 139.283 244.018 138.259H245.074C244.658 139.891 243.458 140.771 241.634 140.771ZM241.554 133.571C240.098 133.571 239.138 134.531 238.946 136.051H243.97C243.97 134.563 243.01 133.571 241.554 133.571ZM246.184 138.403H247.24C247.24 139.299 247.912 139.859 249 139.859C250.2 139.859 250.904 139.347 250.904 138.515C250.904 137.875 250.584 137.507 249.672 137.283L248.344 136.947C247 136.611 246.344 135.907 246.344 134.851C246.344 133.491 247.48 132.627 249.144 132.627C250.776 132.627 251.832 133.523 251.88 134.963H250.808C250.776 134.067 250.152 133.539 249.112 133.539C248.024 133.539 247.416 134.003 247.416 134.835C247.416 135.427 247.832 135.843 248.68 136.051L250.008 136.387C251.352 136.723 251.96 137.347 251.96 138.467C251.96 139.859 250.776 140.771 249.016 140.771C247.272 140.771 246.184 139.843 246.184 138.403ZM259.174 140.579H258.215V128.915H259.319V134.339C259.863 133.203 260.919 132.627 262.231 132.627C264.487 132.627 265.799 134.387 265.799 136.723C265.799 139.043 264.455 140.771 262.199 140.771C260.903 140.771 259.831 140.195 259.287 138.995L259.174 140.579ZM259.335 136.691C259.335 138.483 260.327 139.763 262.023 139.763C263.703 139.763 264.679 138.483 264.679 136.691C264.679 134.915 263.703 133.619 262.023 133.619C260.327 133.619 259.335 134.915 259.335 136.691ZM272.811 132.835H273.915V140.579H272.955L272.811 139.267C272.379 140.163 271.307 140.771 270.091 140.771C268.267 140.771 267.275 139.523 267.275 137.635V132.819H268.395V137.283C268.395 139.123 269.211 139.779 270.443 139.779C271.931 139.779 272.811 138.787 272.811 136.947V132.835ZM277.991 140.579H276.903V133.763H275.351V132.835H276.903V130.387H277.991V132.835H279.543V133.763H277.991V140.579ZM287.642 140.771C285.994 140.771 285.018 139.843 285.018 138.483C285.018 137.059 286.106 136.163 287.914 136.019L290.474 135.811V135.555C290.474 134.035 289.562 133.555 288.426 133.555C287.082 133.555 286.282 134.163 286.282 135.203H285.274C285.274 133.635 286.554 132.627 288.458 132.627C290.25 132.627 291.562 133.523 291.562 135.571V140.579H290.634L290.49 139.219C290.01 140.195 288.954 140.771 287.642 140.771ZM287.898 139.875C289.53 139.875 290.474 138.739 290.474 137.059V136.643L288.186 136.819C286.73 136.947 286.138 137.587 286.138 138.451C286.138 139.395 286.842 139.875 287.898 139.875ZM294.929 140.579H293.825V128.915H294.929V140.579ZM296.621 138.403H297.677C297.677 139.299 298.349 139.859 299.437 139.859C300.637 139.859 301.341 139.347 301.341 138.515C301.341 137.875 301.021 137.507 300.109 137.283L298.781 136.947C297.437 136.611 296.781 135.907 296.781 134.851C296.781 133.491 297.917 132.627 299.581 132.627C301.213 132.627 302.269 133.523 302.317 134.963H301.245C301.213 134.067 300.589 133.539 299.549 133.539C298.461 133.539 297.853 134.003 297.853 134.835C297.853 135.427 298.269 135.843 299.117 136.051L300.445 136.387C301.789 136.723 302.397 137.347 302.397 138.467C302.397 139.859 301.213 140.771 299.453 140.771C297.709 140.771 296.621 139.843 296.621 138.403ZM303.671 136.707C303.671 134.339 305.335 132.627 307.607 132.627C309.879 132.627 311.543 134.339 311.543 136.707C311.543 139.059 309.879 140.771 307.607 140.771C305.335 140.771 303.671 139.059 303.671 136.707ZM304.791 136.691C304.791 138.515 305.943 139.779 307.607 139.779C309.255 139.779 310.423 138.515 310.423 136.691C310.423 134.899 309.255 133.619 307.607 133.619C305.943 133.619 304.791 134.899 304.791 136.691ZM316.882 132.835H318.066V131.331C318.066 129.587 319.026 128.915 320.21 128.915C320.482 128.915 320.802 128.931 321.058 128.979V129.923H320.402C319.426 129.923 319.17 130.419 319.17 131.331V132.835H320.994V133.763H319.17V140.579H318.066V133.763H316.882V132.835ZM325.509 140.771C323.237 140.771 321.717 139.139 321.717 136.707C321.717 134.291 323.221 132.627 325.429 132.627C327.525 132.627 328.949 134.115 328.949 136.307V136.851H322.789C322.869 138.739 323.861 139.827 325.525 139.827C326.789 139.827 327.605 139.283 327.893 138.259H328.949C328.533 139.891 327.333 140.771 325.509 140.771ZM325.429 133.571C323.973 133.571 323.013 134.531 322.821 136.051H327.845C327.845 134.563 326.885 133.571 325.429 133.571ZM333.963 140.771C331.691 140.771 330.171 139.139 330.171 136.707C330.171 134.291 331.674 132.627 333.883 132.627C335.979 132.627 337.403 134.115 337.403 136.307V136.851H331.243C331.323 138.739 332.315 139.827 333.979 139.827C335.243 139.827 336.059 139.283 336.347 138.259H337.403C336.987 139.891 335.787 140.771 333.963 140.771ZM333.883 133.571C332.427 133.571 331.467 134.531 331.275 136.051H336.299C336.299 134.563 335.339 133.571 333.883 133.571ZM340.32 140.579H339.216V128.915H340.32V140.579ZM342.012 138.403H343.068C343.068 139.299 343.74 139.859 344.828 139.859C346.028 139.859 346.732 139.347 346.732 138.515C346.732 137.875 346.412 137.507 345.5 137.283L344.172 136.947C342.828 136.611 342.172 135.907 342.172 134.851C342.172 133.491 343.308 132.627 344.972 132.627C346.604 132.627 347.66 133.523 347.708 134.963H346.636C346.604 134.067 345.98 133.539 344.94 133.539C343.852 133.539 343.244 134.003 343.244 134.835C343.244 135.427 343.66 135.843 344.508 136.051L345.836 136.387C347.18 136.723 347.788 137.347 347.788 138.467C347.788 139.859 346.604 140.771 344.844 140.771C343.1 140.771 342.012 139.843 342.012 138.403ZM353.515 136.483C353.515 134.371 354.875 132.627 357.147 132.627C358.491 132.627 359.515 133.251 360.011 134.387L360.123 132.835H361.083V140.339C361.083 142.643 359.611 144.147 357.339 144.147C355.355 144.147 353.963 143.027 353.659 141.155H354.763C355.003 142.403 355.963 143.139 357.355 143.139C358.939 143.139 359.995 142.067 359.995 140.451V138.611C359.467 139.699 358.395 140.339 357.067 140.339C354.859 140.339 353.515 138.595 353.515 136.483ZM354.619 136.467C354.619 138.051 355.595 139.347 357.227 139.347C358.907 139.347 359.899 138.131 359.899 136.467C359.899 134.819 358.939 133.603 357.243 133.603C355.579 133.603 354.619 134.899 354.619 136.467ZM367.434 132.739V133.731H366.826C365.402 133.731 364.49 134.691 364.49 136.163V140.579H363.386V132.835H364.426L364.506 134.035C364.81 133.203 365.626 132.659 366.714 132.659C366.954 132.659 367.162 132.675 367.434 132.739ZM371.853 140.771C369.581 140.771 368.061 139.139 368.061 136.707C368.061 134.291 369.565 132.627 371.773 132.627C373.869 132.627 375.293 134.115 375.293 136.307V136.851H369.133C369.213 138.739 370.205 139.827 371.869 139.827C373.133 139.827 373.949 139.283 374.237 138.259H375.293C374.877 139.891 373.677 140.771 371.853 140.771ZM371.773 133.571C370.317 133.571 369.357 134.531 369.165 136.051H374.189C374.189 134.563 373.229 133.571 371.773 133.571ZM379.204 140.771C377.556 140.771 376.58 139.843 376.58 138.483C376.58 137.059 377.668 136.163 379.476 136.019L382.036 135.811V135.555C382.036 134.035 381.124 133.555 379.988 133.555C378.644 133.555 377.844 134.163 377.844 135.203H376.836C376.836 133.635 378.116 132.627 380.02 132.627C381.812 132.627 383.124 133.523 383.124 135.571V140.579H382.196L382.052 139.219C381.572 140.195 380.516 140.771 379.204 140.771ZM379.46 139.875C381.092 139.875 382.036 138.739 382.036 137.059V136.643L379.748 136.819C378.292 136.947 377.7 137.587 377.7 138.451C377.7 139.395 378.404 139.875 379.46 139.875ZM386.975 140.579H385.887V133.763H384.335V132.835H385.887V130.387H386.975V132.835H388.527V133.763H386.975V140.579ZM396.178 140.579H395.09V133.763H393.538V132.835H395.09V130.387H396.178V132.835H397.73V133.763H396.178V140.579ZM398.546 136.707C398.546 134.339 400.21 132.627 402.482 132.627C404.754 132.627 406.418 134.339 406.418 136.707C406.418 139.059 404.754 140.771 402.482 140.771C400.21 140.771 398.546 139.059 398.546 136.707ZM399.666 136.691C399.666 138.515 400.818 139.779 402.482 139.779C404.13 139.779 405.298 138.515 405.298 136.691C405.298 134.899 404.13 133.619 402.482 133.619C400.818 133.619 399.666 134.899 399.666 136.691ZM414.253 140.579L411.693 132.835H412.829L414.349 137.507C414.525 138.019 414.669 138.547 414.829 139.171C414.957 138.547 415.213 137.763 415.293 137.507L416.829 132.835H417.965L419.485 137.507C419.629 137.923 419.821 138.595 419.965 139.171C420.125 138.531 420.157 138.339 420.429 137.507L421.965 132.835H423.117L420.493 140.579H419.421L417.821 135.715C417.629 135.139 417.501 134.659 417.405 134.195C417.293 134.611 417.165 135.075 416.957 135.715L415.357 140.579H414.253ZM427.4 140.771C425.128 140.771 423.608 139.139 423.608 136.707C423.608 134.291 425.112 132.627 427.32 132.627C429.416 132.627 430.84 134.115 430.84 136.307V136.851H424.68C424.76 138.739 425.752 139.827 427.416 139.827C428.68 139.827 429.496 139.283 429.784 138.259H430.84C430.424 139.891 429.224 140.771 427.4 140.771ZM427.32 133.571C425.864 133.571 424.904 134.531 424.712 136.051H429.736C429.736 134.563 428.776 133.571 427.32 133.571ZM434.751 140.771C433.103 140.771 432.127 139.843 432.127 138.483C432.127 137.059 433.215 136.163 435.023 136.019L437.583 135.811V135.555C437.583 134.035 436.671 133.555 435.535 133.555C434.191 133.555 433.391 134.163 433.391 135.203H432.383C432.383 133.635 433.663 132.627 435.567 132.627C437.359 132.627 438.671 133.523 438.671 135.571V140.579H437.743L437.599 139.219C437.119 140.195 436.063 140.771 434.751 140.771ZM435.007 139.875C436.639 139.875 437.583 138.739 437.583 137.059V136.643L435.295 136.819C433.839 136.947 433.247 137.587 433.247 138.451C433.247 139.395 433.951 139.875 435.007 139.875ZM444.934 132.739V133.731H444.326C442.902 133.731 441.99 134.691 441.99 136.163V140.579H440.886V132.835H441.926L442.006 134.035C442.31 133.203 443.126 132.659 444.214 132.659C444.454 132.659 444.662 132.675 444.934 132.739ZM446.159 140.755C445.615 140.755 445.151 140.307 445.151 139.779C445.151 139.235 445.615 138.771 446.159 138.771C446.703 138.771 447.167 139.235 447.167 139.779C447.167 140.307 446.703 140.755 446.159 140.755ZM455.232 129.123V140.579H454.08V129.123H455.232ZM459.553 140.579H458.465V133.763H456.913V132.835H458.465V130.387H459.553V132.835H461.105V133.763H459.553V140.579ZM463.533 129.907L463.229 133.091H462.509L462.189 129.907C462.125 129.347 462.525 129.091 462.877 129.091C463.213 129.091 463.597 129.347 463.533 129.907ZM464.449 138.403H465.505C465.505 139.299 466.177 139.859 467.265 139.859C468.465 139.859 469.169 139.347 469.169 138.515C469.169 137.875 468.849 137.507 467.937 137.283L466.609 136.947C465.265 136.611 464.609 135.907 464.609 134.851C464.609 133.491 465.745 132.627 467.409 132.627C469.041 132.627 470.097 133.523 470.145 134.963H469.073C469.041 134.067 468.417 133.539 467.377 133.539C466.289 133.539 465.681 134.003 465.681 134.835C465.681 135.427 466.097 135.843 466.945 136.051L468.273 136.387C469.617 136.723 470.225 137.347 470.225 138.467C470.225 139.859 469.041 140.771 467.281 140.771C465.537 140.771 464.449 139.843 464.449 138.403ZM479.728 140.771C477.456 140.771 475.936 139.139 475.936 136.707C475.936 134.291 477.44 132.627 479.648 132.627C481.744 132.627 483.168 134.115 483.168 136.307V136.851H477.008C477.088 138.739 478.08 139.827 479.744 139.827C481.008 139.827 481.824 139.283 482.112 138.259H483.168C482.752 139.891 481.552 140.771 479.728 140.771ZM479.648 133.571C478.192 133.571 477.232 134.531 477.04 136.051H482.064C482.064 134.563 481.104 133.571 479.648 133.571ZM486.89 140.579L483.722 132.835H484.906L486.906 137.827C487.114 138.387 487.322 138.915 487.466 139.427C487.61 138.899 487.818 138.387 488.042 137.827L490.074 132.835H491.21L487.994 140.579H486.89ZM493.055 130.707C492.607 130.707 492.239 130.339 492.239 129.891C492.239 129.443 492.607 129.059 493.055 129.059C493.503 129.059 493.887 129.443 493.887 129.891C493.887 130.339 493.503 130.707 493.055 130.707ZM492.511 140.579V132.835H493.615V140.579H492.511ZM498.958 140.771C496.702 140.771 495.374 139.043 495.374 136.723C495.374 134.387 496.702 132.627 499.006 132.627C500.286 132.627 501.31 133.187 501.854 134.307V128.915H502.958V140.579H501.998L501.886 138.995C501.342 140.195 500.254 140.771 498.958 140.771ZM499.15 139.763C500.846 139.763 501.838 138.483 501.838 136.691C501.838 134.915 500.846 133.619 499.15 133.619C497.47 133.619 496.494 134.915 496.494 136.691C496.494 138.483 497.47 139.763 499.15 139.763ZM508.509 140.771C506.237 140.771 504.717 139.139 504.717 136.707C504.717 134.291 506.221 132.627 508.429 132.627C510.525 132.627 511.949 134.115 511.949 136.307V136.851H505.789C505.869 138.739 506.861 139.827 508.525 139.827C509.789 139.827 510.605 139.283 510.893 138.259H511.949C511.533 139.891 510.333 140.771 508.509 140.771ZM508.429 133.571C506.973 133.571 506.013 134.531 505.821 136.051H510.845C510.845 134.563 509.885 133.571 508.429 133.571ZM514.819 140.579H513.715V132.835H514.674L514.835 134.179C515.347 133.187 516.371 132.627 517.491 132.627C519.619 132.627 520.499 133.891 520.499 135.843V140.579H519.395V136.083C519.395 134.275 518.579 133.635 517.299 133.635C515.715 133.635 514.819 134.787 514.819 136.531V140.579ZM524.475 140.579H523.387V133.763H521.835V132.835H523.387V130.387H524.475V132.835H526.027V133.763H524.475V140.579ZM34.928 162.579H33.84V155.763H32.288V154.835H33.84V152.387H34.928V154.835H36.48V155.763H34.928V162.579ZM39.0216 162.563H37.9176V150.915H39.0216V156.179C39.5176 155.251 40.4616 154.627 41.7576 154.627C43.7896 154.627 44.7016 155.891 44.7016 157.843V162.579H43.5976V158.083C43.5976 156.275 42.7496 155.635 41.5496 155.635C39.8856 155.635 39.0216 156.867 39.0216 158.355V162.563ZM49.126 162.771C47.478 162.771 46.502 161.843 46.502 160.483C46.502 159.059 47.59 158.163 49.398 158.019L51.958 157.811V157.555C51.958 156.035 51.046 155.555 49.91 155.555C48.566 155.555 47.766 156.163 47.766 157.203H46.758C46.758 155.635 48.038 154.627 49.942 154.627C51.734 154.627 53.046 155.523 53.046 157.571V162.579H52.118L51.974 161.219C51.494 162.195 50.438 162.771 49.126 162.771ZM49.382 161.875C51.014 161.875 51.958 160.739 51.958 159.059V158.643L49.67 158.819C48.214 158.947 47.622 159.587 47.622 160.451C47.622 161.395 48.326 161.875 49.382 161.875ZM56.8968 162.579H55.8088V155.763H54.2568V154.835H55.8088V152.387H56.8968V154.835H58.4488V155.763H56.8968V162.579ZM66.0999 162.579H65.0119V155.763H63.4599V154.835H65.0119V152.387H66.0999V154.835H67.6519V155.763H66.0999V162.579ZM70.1935 162.563H69.0895V150.915H70.1935V156.179C70.6895 155.251 71.6335 154.627 72.9295 154.627C74.9615 154.627 75.8735 155.891 75.8735 157.843V162.579H74.7695V158.083C74.7695 156.275 73.9215 155.635 72.7215 155.635C71.0575 155.635 70.1935 156.867 70.1935 158.355V162.563ZM81.3219 162.771C79.0499 162.771 77.5299 161.139 77.5299 158.707C77.5299 156.291 79.0339 154.627 81.2419 154.627C83.3379 154.627 84.7619 156.115 84.7619 158.307V158.851H78.6019C78.6819 160.739 79.6739 161.827 81.3379 161.827C82.6019 161.827 83.4179 161.283 83.7059 160.259H84.7619C84.3459 161.891 83.1459 162.771 81.3219 162.771ZM81.2419 155.571C79.7859 155.571 78.8259 156.531 78.6339 158.051H83.6579C83.6579 156.563 82.6979 155.571 81.2419 155.571ZM94.0045 162.771C91.7485 162.771 90.4205 161.043 90.4205 158.723C90.4205 156.387 91.7485 154.627 94.0525 154.627C95.3325 154.627 96.3565 155.187 96.9005 156.307V150.915H98.0045V162.579H97.0445L96.9325 160.995C96.3885 162.195 95.3005 162.771 94.0045 162.771ZM94.1965 161.763C95.8925 161.763 96.8845 160.483 96.8845 158.691C96.8845 156.915 95.8925 155.619 94.1965 155.619C92.5165 155.619 91.5405 156.915 91.5405 158.691C91.5405 160.483 92.5165 161.763 94.1965 161.763ZM103.556 162.771C101.284 162.771 99.7643 161.139 99.7643 158.707C99.7643 156.291 101.268 154.627 103.476 154.627C105.572 154.627 106.996 156.115 106.996 158.307V158.851H100.836C100.916 160.739 101.908 161.827 103.572 161.827C104.836 161.827 105.652 161.283 105.94 160.259H106.996C106.58 161.891 105.38 162.771 103.556 162.771ZM103.476 155.571C102.02 155.571 101.06 156.531 100.868 158.051H105.892C105.892 156.563 104.932 155.571 103.476 155.571ZM108.105 160.403H109.161C109.161 161.299 109.833 161.859 110.921 161.859C112.121 161.859 112.825 161.347 112.825 160.515C112.825 159.875 112.505 159.507 111.593 159.283L110.265 158.947C108.921 158.611 108.265 157.907 108.265 156.851C108.265 155.491 109.401 154.627 111.065 154.627C112.697 154.627 113.753 155.523 113.801 156.963H112.729C112.697 156.067 112.073 155.539 111.033 155.539C109.945 155.539 109.337 156.003 109.337 156.835C109.337 157.427 109.753 157.843 110.601 158.051L111.929 158.387C113.273 158.723 113.881 159.347 113.881 160.467C113.881 161.859 112.697 162.771 110.937 162.771C109.193 162.771 108.105 161.843 108.105 160.403ZM116.243 152.707C115.795 152.707 115.427 152.339 115.427 151.891C115.427 151.443 115.795 151.059 116.243 151.059C116.691 151.059 117.075 151.443 117.075 151.891C117.075 152.339 116.691 152.707 116.243 152.707ZM115.699 162.579V154.835H116.803V162.579H115.699ZM118.577 158.483C118.577 156.371 119.937 154.627 122.209 154.627C123.553 154.627 124.577 155.251 125.073 156.387L125.185 154.835H126.145V162.339C126.145 164.643 124.673 166.147 122.401 166.147C120.417 166.147 119.025 165.027 118.721 163.155H119.825C120.065 164.403 121.025 165.139 122.417 165.139C124.001 165.139 125.057 164.067 125.057 162.451V160.611C124.529 161.699 123.457 162.339 122.129 162.339C119.921 162.339 118.577 160.595 118.577 158.483ZM119.681 158.467C119.681 160.051 120.657 161.347 122.289 161.347C123.969 161.347 124.961 160.131 124.961 158.467C124.961 156.819 124.001 155.603 122.305 155.603C120.641 155.603 119.681 156.899 119.681 158.467ZM129.553 162.579H128.449V154.835H129.409L129.569 156.179C130.081 155.187 131.105 154.627 132.225 154.627C134.353 154.627 135.233 155.891 135.233 157.843V162.579H134.129V158.083C134.129 156.275 133.313 155.635 132.033 155.635C130.449 155.635 129.553 156.787 129.553 158.531V162.579ZM140.681 162.771C138.409 162.771 136.889 161.139 136.889 158.707C136.889 156.291 138.393 154.627 140.601 154.627C142.697 154.627 144.121 156.115 144.121 158.307V158.851H137.961C138.041 160.739 139.033 161.827 140.697 161.827C141.961 161.827 142.777 161.283 143.065 160.259H144.121C143.705 161.891 142.505 162.771 140.681 162.771ZM140.601 155.571C139.145 155.571 138.185 156.531 137.993 158.051H143.017C143.017 156.563 142.057 155.571 140.601 155.571ZM149.934 154.739V155.731H149.326C147.902 155.731 146.99 156.691 146.99 158.163V162.579H145.886V154.835H146.926L147.006 156.035C147.31 155.203 148.126 154.659 149.214 154.659C149.454 154.659 149.662 154.675 149.934 154.739ZM155.84 165.955V154.835H156.799L156.912 156.403C157.456 155.203 158.544 154.627 159.84 154.627C162.08 154.627 163.424 156.339 163.424 158.675C163.424 161.011 162.128 162.771 159.84 162.771C158.528 162.771 157.488 162.211 156.944 161.091V165.955H155.84ZM156.96 158.707C156.96 160.483 157.952 161.779 159.648 161.779C161.328 161.779 162.304 160.483 162.304 158.707C162.304 156.915 161.328 155.635 159.648 155.635C157.952 155.635 156.96 156.915 156.96 158.707ZM164.639 158.707C164.639 156.339 166.303 154.627 168.575 154.627C170.847 154.627 172.511 156.339 172.511 158.707C172.511 161.059 170.847 162.771 168.575 162.771C166.303 162.771 164.639 161.059 164.639 158.707ZM165.759 158.691C165.759 160.515 166.911 161.779 168.575 161.779C170.223 161.779 171.391 160.515 171.391 158.691C171.391 156.899 170.223 155.619 168.575 155.619C166.911 155.619 165.759 156.899 165.759 158.691ZM179.53 154.835H180.634V162.579H179.674L179.53 161.267C179.098 162.163 178.026 162.771 176.81 162.771C174.986 162.771 173.993 161.523 173.993 159.635V154.819H175.114V159.283C175.114 161.123 175.93 161.779 177.161 161.779C178.65 161.779 179.53 160.787 179.53 158.947V154.835ZM186.981 154.739V155.731H186.373C184.949 155.731 184.037 156.691 184.037 158.163V162.579H182.933V154.835H183.973L184.053 156.035C184.357 155.203 185.173 154.659 186.261 154.659C186.501 154.659 186.709 154.675 186.981 154.739ZM191.4 162.771C189.128 162.771 187.608 161.139 187.608 158.707C187.608 156.291 189.112 154.627 191.32 154.627C193.416 154.627 194.84 156.115 194.84 158.307V158.851H188.68C188.76 160.739 189.752 161.827 191.416 161.827C192.68 161.827 193.496 161.283 193.784 160.259H194.84C194.424 161.891 193.224 162.771 191.4 162.771ZM191.32 155.571C189.864 155.571 188.904 156.531 188.712 158.051H193.736C193.736 156.563 192.776 155.571 191.32 155.571ZM199.645 162.771C197.389 162.771 196.061 161.043 196.061 158.723C196.061 156.387 197.389 154.627 199.693 154.627C200.973 154.627 201.997 155.187 202.541 156.307V150.915H203.645V162.579H202.685L202.573 160.995C202.029 162.195 200.941 162.771 199.645 162.771ZM199.837 161.763C201.533 161.763 202.525 160.483 202.525 158.691C202.525 156.915 201.533 155.619 199.837 155.619C198.157 155.619 197.181 156.915 197.181 158.691C197.181 160.483 198.157 161.763 199.837 161.763ZM212.162 162.579H211.074V155.763H209.522V154.835H211.074V152.387H212.162V154.835H213.714V155.763H212.162V162.579ZM216.256 162.563H215.152V150.915H216.256V156.179C216.752 155.251 217.696 154.627 218.992 154.627C221.024 154.627 221.936 155.891 221.936 157.843V162.579H220.832V158.083C220.832 156.275 219.984 155.635 218.784 155.635C217.12 155.635 216.256 156.867 216.256 158.355V162.563ZM227.384 162.771C225.112 162.771 223.592 161.139 223.592 158.707C223.592 156.291 225.096 154.627 227.304 154.627C229.4 154.627 230.824 156.115 230.824 158.307V158.851H224.664C224.744 160.739 225.736 161.827 227.4 161.827C228.664 161.827 229.48 161.283 229.768 160.259H230.824C230.408 161.891 229.208 162.771 227.384 162.771ZM227.304 155.571C225.848 155.571 224.888 156.531 224.696 158.051H229.72C229.72 156.563 228.76 155.571 227.304 155.571ZM233.134 152.707C232.686 152.707 232.318 152.339 232.318 151.891C232.318 151.443 232.686 151.059 233.134 151.059C233.582 151.059 233.966 151.443 233.966 151.891C233.966 152.339 233.582 152.707 233.134 152.707ZM232.59 162.579V154.835H233.694V162.579H232.59ZM240.044 154.739V155.731H239.436C238.012 155.731 237.1 156.691 237.1 158.163V162.579H235.996V154.835H237.036L237.116 156.035C237.42 155.203 238.236 154.659 239.324 154.659C239.564 154.659 239.772 154.675 240.044 154.739ZM245.405 158.723C245.405 156.291 246.893 154.627 249.149 154.627C250.941 154.627 252.253 155.667 252.557 157.267H251.453C251.165 156.195 250.237 155.603 249.165 155.603C247.597 155.603 246.493 156.803 246.493 158.707C246.493 160.547 247.517 161.779 249.085 161.779C250.237 161.779 251.165 161.139 251.469 160.147H252.589C252.221 161.731 250.845 162.771 249.085 162.771C246.893 162.771 245.405 161.155 245.405 158.723ZM258.309 154.739V155.731H257.701C256.277 155.731 255.365 156.691 255.365 158.163V162.579H254.261V154.835H255.301L255.381 156.035C255.685 155.203 256.501 154.659 257.589 154.659C257.829 154.659 258.037 154.675 258.309 154.739ZM262.728 162.771C260.456 162.771 258.936 161.139 258.936 158.707C258.936 156.291 260.44 154.627 262.648 154.627C264.744 154.627 266.168 156.115 266.168 158.307V158.851H260.008C260.088 160.739 261.08 161.827 262.744 161.827C264.008 161.827 264.824 161.283 265.112 160.259H266.168C265.752 161.891 264.552 162.771 262.728 162.771ZM262.648 155.571C261.192 155.571 260.232 156.531 260.04 158.051H265.064C265.064 156.563 264.104 155.571 262.648 155.571ZM270.079 162.771C268.431 162.771 267.455 161.843 267.455 160.483C267.455 159.059 268.543 158.163 270.351 158.019L272.911 157.811V157.555C272.911 156.035 271.999 155.555 270.863 155.555C269.519 155.555 268.719 156.163 268.719 157.203H267.711C267.711 155.635 268.991 154.627 270.895 154.627C272.687 154.627 273.999 155.523 273.999 157.571V162.579H273.071L272.927 161.219C272.447 162.195 271.391 162.771 270.079 162.771ZM270.335 161.875C271.967 161.875 272.911 160.739 272.911 159.059V158.643L270.623 158.819C269.167 158.947 268.575 159.587 268.575 160.451C268.575 161.395 269.279 161.875 270.335 161.875ZM277.85 162.579H276.762V155.763H275.21V154.835H276.762V152.387H277.85V154.835H279.402V155.763H277.85V162.579ZM281.384 152.707C280.936 152.707 280.568 152.339 280.568 151.891C280.568 151.443 280.936 151.059 281.384 151.059C281.832 151.059 282.216 151.443 282.216 151.891C282.216 152.339 281.832 152.707 281.384 152.707ZM280.84 162.579V154.835H281.944V162.579H280.84ZM286.406 162.579L283.238 154.835H284.422L286.422 159.827C286.63 160.387 286.838 160.915 286.982 161.427C287.126 160.899 287.334 160.387 287.558 159.827L289.59 154.835H290.726L287.51 162.579H286.406ZM292.571 152.707C292.123 152.707 291.755 152.339 291.755 151.891C291.755 151.443 292.123 151.059 292.571 151.059C293.019 151.059 293.403 151.443 293.403 151.891C293.403 152.339 293.019 152.707 292.571 152.707ZM292.027 162.579V154.835H293.131V162.579H292.027ZM297.209 162.579H296.121V155.763H294.569V154.835H296.121V152.387H297.209V154.835H298.761V155.763H297.209V162.579ZM299.415 165.955V165.043H300.263C300.935 165.043 301.607 164.995 301.991 163.955L302.327 163.043L299.191 154.835H300.359L302.855 161.587L305.303 154.835H306.439L302.887 164.355C302.439 165.571 301.687 166.067 300.583 166.067C300.119 166.067 299.767 166.035 299.415 165.955ZM312.712 152.707C312.264 152.707 311.896 152.339 311.896 151.891C311.896 151.443 312.264 151.059 312.712 151.059C313.16 151.059 313.544 151.443 313.544 151.891C313.544 152.339 313.16 152.707 312.712 152.707ZM312.168 162.579V154.835H313.272V162.579H312.168ZM316.678 162.579H315.574V154.835H316.534L316.694 156.179C317.206 155.187 318.23 154.627 319.35 154.627C321.478 154.627 322.358 155.891 322.358 157.843V162.579H321.254V158.083C321.254 156.275 320.438 155.635 319.158 155.635C317.574 155.635 316.678 156.787 316.678 158.531V162.579ZM326.334 162.579H325.246V155.763H323.694V154.835H325.246V152.387H326.334V154.835H327.886V155.763H326.334V162.579ZM328.702 158.707C328.702 156.339 330.366 154.627 332.638 154.627C334.91 154.627 336.574 156.339 336.574 158.707C336.574 161.059 334.91 162.771 332.638 162.771C330.366 162.771 328.702 161.059 328.702 158.707ZM329.822 158.691C329.822 160.515 330.974 161.779 332.638 161.779C334.286 161.779 335.454 160.515 335.454 158.691C335.454 156.899 334.286 155.619 332.638 155.619C330.974 155.619 329.822 156.899 329.822 158.691ZM343.881 162.579H342.777V154.835H343.737L343.865 155.939C344.249 155.123 345.113 154.627 346.201 154.627C347.417 154.627 348.329 155.267 348.697 156.275C349.049 155.267 349.993 154.627 351.241 154.627C352.921 154.627 354.025 155.715 354.025 157.507V162.579H352.953V157.731C352.953 156.403 352.217 155.619 351.033 155.619C349.737 155.619 348.969 156.595 348.969 157.795V162.579H347.881V157.715C347.881 156.403 347.129 155.635 345.961 155.635C344.665 155.635 343.881 156.595 343.881 157.779V162.579ZM358.47 162.771C356.822 162.771 355.846 161.843 355.846 160.483C355.846 159.059 356.934 158.163 358.742 158.019L361.302 157.811V157.555C361.302 156.035 360.39 155.555 359.254 155.555C357.91 155.555 357.11 156.163 357.11 157.203H356.102C356.102 155.635 357.382 154.627 359.286 154.627C361.078 154.627 362.39 155.523 362.39 157.571V162.579H361.462L361.318 161.219C360.838 162.195 359.782 162.771 358.47 162.771ZM358.726 161.875C360.358 161.875 361.302 160.739 361.302 159.059V158.643L359.014 158.819C357.558 158.947 356.966 159.587 356.966 160.451C356.966 161.395 357.67 161.875 358.726 161.875ZM365.757 162.579H364.653V150.915H365.757V158.835L369.597 154.835H370.989L368.013 157.923L371.005 162.579H369.725L367.261 158.707L365.757 160.259V162.579ZM372.868 152.707C372.42 152.707 372.052 152.339 372.052 151.891C372.052 151.443 372.42 151.059 372.868 151.059C373.316 151.059 373.7 151.443 373.7 151.891C373.7 152.339 373.316 152.707 372.868 152.707ZM372.324 162.579V154.835H373.428V162.579H372.324ZM376.834 162.579H375.73V154.835H376.69L376.85 156.179C377.362 155.187 378.386 154.627 379.506 154.627C381.634 154.627 382.514 155.891 382.514 157.843V162.579H381.41V158.083C381.41 156.275 380.594 155.635 379.314 155.635C377.73 155.635 376.834 156.787 376.834 158.531V162.579ZM384.187 158.483C384.187 156.371 385.547 154.627 387.819 154.627C389.163 154.627 390.187 155.251 390.683 156.387L390.795 154.835H391.755V162.339C391.755 164.643 390.283 166.147 388.011 166.147C386.027 166.147 384.635 165.027 384.331 163.155H385.435C385.674 164.403 386.635 165.139 388.027 165.139C389.611 165.139 390.667 164.067 390.667 162.451V160.611C390.139 161.699 389.067 162.339 387.739 162.339C385.531 162.339 384.187 160.595 384.187 158.483ZM385.291 158.467C385.291 160.051 386.267 161.347 387.899 161.347C389.579 161.347 390.571 160.131 390.571 158.467C390.571 156.819 389.611 155.603 387.915 155.603C386.251 155.603 385.291 156.899 385.291 158.467ZM400.272 162.579H399.184V155.763H397.632V154.835H399.184V152.387H400.272V154.835H401.824V155.763H400.272V162.579ZM404.365 162.563H403.261V150.915H404.365V156.179C404.861 155.251 405.805 154.627 407.101 154.627C409.133 154.627 410.045 155.891 410.045 157.843V162.579H408.941V158.083C408.941 156.275 408.093 155.635 406.893 155.635C405.229 155.635 404.365 156.867 404.365 158.355V162.563ZM412.79 152.707C412.342 152.707 411.974 152.339 411.974 151.891C411.974 151.443 412.342 151.059 412.79 151.059C413.238 151.059 413.622 151.443 413.622 151.891C413.622 152.339 413.238 152.707 412.79 152.707ZM412.246 162.579V154.835H413.35V162.579H412.246ZM414.996 160.403H416.052C416.052 161.299 416.724 161.859 417.812 161.859C419.012 161.859 419.716 161.347 419.716 160.515C419.716 159.875 419.396 159.507 418.484 159.283L417.156 158.947C415.812 158.611 415.156 157.907 415.156 156.851C415.156 155.491 416.292 154.627 417.956 154.627C419.588 154.627 420.644 155.523 420.692 156.963H419.62C419.588 156.067 418.964 155.539 417.924 155.539C416.836 155.539 416.228 156.003 416.228 156.835C416.228 157.427 416.644 157.843 417.492 158.051L418.82 158.387C420.164 158.723 420.772 159.347 420.772 160.467C420.772 161.859 419.588 162.771 417.828 162.771C416.084 162.771 414.996 161.843 414.996 160.403ZM428.803 162.579H427.715V155.763H426.163V154.835H427.715V152.387H428.803V154.835H430.355V155.763H428.803V162.579ZM431.352 158.867V157.875H435.992V158.867H431.352ZM437.48 160.403H438.536C438.536 161.299 439.208 161.859 440.296 161.859C441.496 161.859 442.2 161.347 442.2 160.515C442.2 159.875 441.88 159.507 440.968 159.283L439.64 158.947C438.296 158.611 437.64 157.907 437.64 156.851C437.64 155.491 438.776 154.627 440.44 154.627C442.072 154.627 443.128 155.523 443.176 156.963H442.104C442.072 156.067 441.448 155.539 440.408 155.539C439.32 155.539 438.712 156.003 438.712 156.835C438.712 157.427 439.128 157.843 439.976 158.051L441.304 158.387C442.648 158.723 443.256 159.347 443.256 160.467C443.256 161.859 442.072 162.771 440.312 162.771C438.568 162.771 437.48 161.843 437.48 160.403ZM446.178 162.563H445.074V150.915H446.178V156.179C446.674 155.251 447.618 154.627 448.914 154.627C450.946 154.627 451.858 155.891 451.858 157.843V162.579H450.754V158.083C450.754 156.275 449.906 155.635 448.706 155.635C447.042 155.635 446.178 156.867 446.178 158.355V162.563ZM454.602 152.707C454.154 152.707 453.786 152.339 453.786 151.891C453.786 151.443 454.154 151.059 454.602 151.059C455.05 151.059 455.434 151.443 455.434 151.891C455.434 152.339 455.05 152.707 454.602 152.707ZM454.058 162.579V154.835H455.162V162.579H454.058ZM461.513 154.739V155.731H460.905C459.481 155.731 458.569 156.691 458.569 158.163V162.579H457.465V154.835H458.505L458.585 156.035C458.889 155.203 459.705 154.659 460.793 154.659C461.033 154.659 461.241 154.675 461.513 154.739ZM465.069 162.579H463.981V155.763H462.429V154.835H463.981V152.387H465.069V154.835H466.621V155.763H465.069V162.579ZM471.84 160.403H472.896C472.896 161.299 473.568 161.859 474.656 161.859C475.856 161.859 476.56 161.347 476.56 160.515C476.56 159.875 476.24 159.507 475.328 159.283L474 158.947C472.656 158.611 472 157.907 472 156.851C472 155.491 473.136 154.627 474.8 154.627C476.432 154.627 477.488 155.523 477.536 156.963H476.464C476.432 156.067 475.808 155.539 474.768 155.539C473.68 155.539 473.072 156.003 473.072 156.835C473.072 157.427 473.488 157.843 474.336 158.051L475.664 158.387C477.008 158.723 477.616 159.347 477.616 160.467C477.616 161.859 476.432 162.771 474.672 162.771C472.928 162.771 471.84 161.843 471.84 160.403ZM481.209 162.579H480.121V155.763H478.569V154.835H480.121V152.387H481.209V154.835H482.761V155.763H481.209V162.579ZM486.298 162.771C484.65 162.771 483.674 161.843 483.674 160.483C483.674 159.059 484.762 158.163 486.57 158.019L489.13 157.811V157.555C489.13 156.035 488.218 155.555 487.082 155.555C485.738 155.555 484.938 156.163 484.938 157.203H483.93C483.93 155.635 485.21 154.627 487.114 154.627C488.906 154.627 490.218 155.523 490.218 157.571V162.579H489.29L489.146 161.219C488.666 162.195 487.61 162.771 486.298 162.771ZM486.554 161.875C488.186 161.875 489.13 160.739 489.13 159.059V158.643L486.842 158.819C485.386 158.947 484.794 159.587 484.794 160.451C484.794 161.395 485.498 161.875 486.554 161.875ZM493.537 162.579H492.433V154.835H493.393L493.553 156.179C494.065 155.187 495.089 154.627 496.209 154.627C498.337 154.627 499.217 155.891 499.217 157.843V162.579H498.113V158.083C498.113 156.275 497.297 155.635 496.017 155.635C494.433 155.635 493.537 156.787 493.537 158.531V162.579ZM504.458 162.771C502.202 162.771 500.874 161.043 500.874 158.723C500.874 156.387 502.202 154.627 504.506 154.627C505.786 154.627 506.81 155.187 507.354 156.307V150.915H508.458V162.579H507.498L507.386 160.995C506.842 162.195 505.754 162.771 504.458 162.771ZM504.65 161.763C506.346 161.763 507.338 160.483 507.338 158.691C507.338 156.915 506.346 155.619 504.65 155.619C502.97 155.619 501.994 156.915 501.994 158.691C501.994 160.483 502.97 161.763 504.65 161.763ZM514.655 158.707C514.655 156.339 516.319 154.627 518.591 154.627C520.863 154.627 522.527 156.339 522.527 158.707C522.527 161.059 520.863 162.771 518.591 162.771C516.319 162.771 514.655 161.059 514.655 158.707ZM515.775 158.691C515.775 160.515 516.927 161.779 518.591 161.779C520.239 161.779 521.407 160.515 521.407 158.691C521.407 156.899 520.239 155.619 518.591 155.619C516.927 155.619 515.775 156.899 515.775 158.691ZM529.545 154.835H530.649V162.579H529.689L529.545 161.267C529.113 162.163 528.041 162.771 526.825 162.771C525.001 162.771 524.009 161.523 524.009 159.635V154.819H525.129V159.283C525.129 161.123 525.945 161.779 527.177 161.779C528.665 161.779 529.545 160.787 529.545 158.947V154.835ZM534.725 162.579H533.637V155.763H532.085V154.835H533.637V152.387H534.725V154.835H536.277V155.763H534.725V162.579ZM538.174 162.755C537.63 162.755 537.166 162.307 537.166 161.779C537.166 161.235 537.63 160.771 538.174 160.771C538.718 160.771 539.182 161.235 539.182 161.779C539.182 162.307 538.718 162.755 538.174 162.755ZM541.002 151.907L540.698 155.091H539.978L539.658 151.907C539.594 151.347 539.994 151.091 540.346 151.091C540.682 151.091 541.066 151.347 541.002 151.907ZM543.258 151.907L542.954 155.091H542.234L541.914 151.907C541.85 151.347 542.25 151.091 542.602 151.091C542.938 151.091 543.322 151.347 543.258 151.907Z" fill="black" fill-opacity="0.6"/>
<path d="M568.625 40C568.625 40.5192 568.471 41.0267 568.183 41.4584C567.894 41.8901 567.484 42.2265 567.005 42.4252C566.525 42.6239 565.997 42.6758 565.488 42.5746C564.979 42.4733 564.511 42.2233 564.144 41.8562C563.777 41.489 563.527 41.0213 563.425 40.5121C563.324 40.0029 563.376 39.4751 563.575 38.9955C563.773 38.5158 564.11 38.1058 564.542 37.8174C564.973 37.529 565.481 37.375 566 37.375C566.696 37.375 567.364 37.6516 567.856 38.1438C568.348 38.6361 568.625 39.3038 568.625 40ZM558.5 37.375C557.981 37.375 557.473 37.529 557.042 37.8174C556.61 38.1058 556.273 38.5158 556.075 38.9955C555.876 39.4751 555.824 40.0029 555.925 40.5121C556.027 41.0213 556.277 41.489 556.644 41.8562C557.011 42.2233 557.479 42.4733 557.988 42.5746C558.497 42.6758 559.025 42.6239 559.505 42.4252C559.984 42.2265 560.394 41.8901 560.683 41.4584C560.971 41.0267 561.125 40.5192 561.125 40C561.125 39.3038 560.848 38.6361 560.356 38.1438C559.864 37.6516 559.196 37.375 558.5 37.375ZM573.5 37.375C572.981 37.375 572.473 37.529 572.042 37.8174C571.61 38.1058 571.273 38.5158 571.075 38.9955C570.876 39.4751 570.824 40.0029 570.925 40.5121C571.027 41.0213 571.277 41.489 571.644 41.8562C572.011 42.2233 572.479 42.4733 572.988 42.5746C573.497 42.6758 574.025 42.6239 574.505 42.4252C574.984 42.2265 575.394 41.8901 575.683 41.4584C575.971 41.0267 576.125 40.5192 576.125 40C576.125 39.6553 576.057 39.3139 575.925 38.9955C575.793 38.677 575.6 38.3876 575.356 38.1438C575.112 37.9001 574.823 37.7067 574.505 37.5748C574.186 37.4429 573.845 37.375 573.5 37.375Z" fill="black" fill-opacity="0.4"/>
<path d="M37.84 204.451H34.912V208.579H33.344V197.011H37.84C40.112 197.011 41.568 198.499 41.568 200.723C41.568 202.883 40.096 204.451 37.84 204.451ZM37.568 198.419H34.912V203.043H37.504C39.056 203.043 39.92 202.131 39.92 200.707C39.92 199.251 39.04 198.419 37.568 198.419ZM42.2166 204.659C42.2166 202.243 43.9446 200.547 46.2966 200.547C48.6326 200.547 50.3606 202.243 50.3606 204.659C50.3606 207.075 48.6326 208.771 46.2966 208.771C43.9446 208.771 42.2166 207.075 42.2166 204.659ZM43.7366 204.659C43.7366 206.291 44.7766 207.427 46.2966 207.427C47.8006 207.427 48.8566 206.291 48.8566 204.659C48.8566 203.027 47.8006 201.891 46.2966 201.891C44.7766 201.891 43.7366 203.027 43.7366 204.659ZM51.3855 206.307H52.8255C52.8255 207.107 53.4335 207.587 54.4255 207.587C55.4815 207.587 56.0895 207.155 56.0895 206.435C56.0895 205.907 55.8335 205.587 55.0175 205.379L53.6415 205.059C52.2495 204.723 51.5935 204.035 51.5935 202.883C51.5935 201.443 52.8095 200.531 54.5375 200.531C56.2495 200.531 57.3695 201.491 57.4015 202.979H55.9615C55.9295 202.195 55.4015 201.699 54.4895 201.699C53.5455 201.699 53.0175 202.115 53.0175 202.835C53.0175 203.363 53.4015 203.715 54.1695 203.907L55.5455 204.243C56.8735 204.563 57.5295 205.171 57.5295 206.339C57.5295 207.827 56.2495 208.771 54.3935 208.771C52.5535 208.771 51.3855 207.795 51.3855 206.307ZM61.4054 208.579H59.9014V202.019H58.3654V200.755H59.9014V198.307H61.4054V200.755H62.9414V202.019H61.4054V208.579ZM67.589 208.771C65.285 208.771 63.701 207.107 63.701 204.675C63.701 202.227 65.253 200.531 67.525 200.531C69.749 200.531 71.205 202.067 71.205 204.387V204.947L65.157 204.963C65.269 206.611 66.133 207.523 67.621 207.523C68.789 207.523 69.557 207.043 69.813 206.147H71.221C70.837 207.827 69.525 208.771 67.589 208.771ZM67.525 201.795C66.213 201.795 65.381 202.579 65.189 203.955H69.701C69.701 202.659 68.853 201.795 67.525 201.795ZM76.0209 208.771C73.7489 208.771 72.3729 207.075 72.3729 204.691C72.3729 202.291 73.7649 200.531 76.0849 200.531C77.2849 200.531 78.2929 201.059 78.8209 202.019V196.803H80.3089V208.579H78.9649L78.8369 207.155C78.3249 208.227 77.2689 208.771 76.0209 208.771ZM76.3249 207.411C77.8609 207.411 78.8049 206.275 78.8049 204.643C78.8049 203.043 77.8609 201.891 76.3249 201.891C74.7889 201.891 73.8929 203.043 73.8929 204.643C73.8929 206.259 74.7889 207.411 76.3249 207.411ZM86.3416 204.659C86.3416 202.243 88.0696 200.547 90.4216 200.547C92.7576 200.547 94.4856 202.243 94.4856 204.659C94.4856 207.075 92.7576 208.771 90.4216 208.771C88.0696 208.771 86.3416 207.075 86.3416 204.659ZM87.8616 204.659C87.8616 206.291 88.9016 207.427 90.4216 207.427C91.9256 207.427 92.9816 206.291 92.9816 204.659C92.9816 203.027 91.9256 201.891 90.4216 201.891C88.9016 201.891 87.8616 203.027 87.8616 204.659ZM97.6545 208.579H96.1505V200.755H97.5105L97.6705 201.955C98.1665 201.059 99.1585 200.531 100.263 200.531C102.327 200.531 103.271 201.795 103.271 203.795V208.579H101.767V204.131C101.767 202.547 101.031 201.907 99.8785 201.907C98.4705 201.907 97.6545 202.915 97.6545 204.435V208.579ZM110.465 208.579H108.833L113.057 197.011H114.801L119.041 208.579H117.393L116.353 205.699H111.489L110.465 208.579ZM113.729 199.507L111.969 204.339H115.889L114.113 199.507C114.033 199.283 113.953 199.011 113.921 198.835C113.889 198.995 113.809 199.267 113.729 199.507ZM125.512 200.755H127V208.579H125.656L125.496 207.395C125.048 208.211 124.008 208.771 122.856 208.771C121.032 208.771 120.008 207.539 120.008 205.619V200.755H121.512V205.123C121.512 206.803 122.232 207.443 123.384 207.443C124.76 207.443 125.512 206.563 125.512 204.883V200.755ZM128.686 204.467C128.686 202.259 130.11 200.531 132.382 200.531C133.646 200.531 134.622 201.107 135.118 202.083L135.23 200.755H136.574V208.259C136.574 210.723 135.054 212.291 132.654 212.291C130.526 212.291 129.07 211.091 128.782 209.107H130.286C130.478 210.259 131.342 210.931 132.654 210.931C134.126 210.931 135.086 209.971 135.086 208.483V206.915C134.574 207.827 133.55 208.371 132.318 208.371C130.094 208.371 128.686 206.659 128.686 204.467ZM130.19 204.435C130.19 205.907 131.102 207.059 132.574 207.059C134.094 207.059 135.022 205.971 135.022 204.435C135.022 202.931 134.126 201.843 132.59 201.843C131.086 201.843 130.19 202.995 130.19 204.435ZM144.152 200.755H145.64V208.579H144.296L144.136 207.395C143.688 208.211 142.648 208.771 141.496 208.771C139.672 208.771 138.648 207.539 138.648 205.619V200.755H140.152V205.123C140.152 206.803 140.872 207.443 142.024 207.443C143.4 207.443 144.152 206.563 144.152 204.883V200.755ZM147.026 206.307H148.466C148.466 207.107 149.074 207.587 150.066 207.587C151.122 207.587 151.73 207.155 151.73 206.435C151.73 205.907 151.474 205.587 150.658 205.379L149.282 205.059C147.89 204.723 147.234 204.035 147.234 202.883C147.234 201.443 148.45 200.531 150.178 200.531C151.89 200.531 153.01 201.491 153.042 202.979H151.602C151.57 202.195 151.042 201.699 150.13 201.699C149.186 201.699 148.658 202.115 148.658 202.835C148.658 203.363 149.042 203.715 149.81 203.907L151.186 204.243C152.514 204.563 153.17 205.171 153.17 206.339C153.17 207.827 151.89 208.771 150.034 208.771C148.194 208.771 147.026 207.795 147.026 206.307ZM157.046 208.579H155.542V202.019H154.006V200.755H155.542V198.307H157.046V200.755H158.582V202.019H157.046V208.579ZM166.211 198.419H163.779V197.011H167.715V208.579H166.211V198.419ZM169.441 197.011H177.521V198.451L173.137 208.579H171.505L175.937 198.451H169.441V197.011ZM179.391 207.955C179.391 209.107 178.527 210.067 177.391 210.211V209.539C178.047 209.427 178.511 208.995 178.511 208.499C178.399 208.563 178.271 208.595 178.079 208.595C177.551 208.595 177.103 208.211 177.103 207.619C177.103 206.979 177.535 206.515 178.175 206.515C178.847 206.515 179.391 207.075 179.391 207.955ZM193.388 208.563L185.58 208.579V207.379L189.308 204.163C191.18 202.547 191.708 201.763 191.708 200.531C191.708 199.075 190.876 198.211 189.484 198.211C188.06 198.211 187.132 199.251 187.1 200.899H185.532C185.58 198.419 187.148 196.803 189.5 196.803C191.82 196.803 193.308 198.211 193.308 200.435C193.308 202.083 192.492 203.251 190.444 205.027L188.044 207.107H193.388V208.563ZM194.831 202.803C194.831 199.219 196.687 196.787 199.599 196.787C202.495 196.787 204.351 199.219 204.351 202.803C204.351 206.403 202.575 208.787 199.599 208.787C196.607 208.787 194.831 206.403 194.831 202.803ZM196.383 202.803C196.383 205.651 197.567 207.379 199.599 207.379C201.631 207.379 202.799 205.651 202.799 202.803C202.799 199.923 201.631 198.195 199.599 198.195C197.567 198.195 196.383 199.923 196.383 202.803ZM213.685 208.563L205.877 208.579V207.379L209.605 204.163C211.477 202.547 212.005 201.763 212.005 200.531C212.005 199.075 211.173 198.211 209.781 198.211C208.357 198.211 207.429 199.251 207.397 200.899H205.829C205.877 198.419 207.445 196.803 209.797 196.803C212.117 196.803 213.605 198.211 213.605 200.435C213.605 202.083 212.789 203.251 210.741 205.027L208.341 207.107H213.685V208.563ZM218.502 202.595H217.35V201.555L220.63 198.403H215.43V197.011H222.614V198.275L219.446 201.299C221.414 201.539 222.902 202.867 222.902 204.947C222.902 207.283 221.142 208.771 218.79 208.771C216.518 208.771 214.886 207.379 214.886 204.979H216.438C216.438 206.483 217.366 207.363 218.822 207.363C220.326 207.363 221.302 206.403 221.302 204.915C221.302 203.523 220.342 202.595 218.502 202.595Z" fill="black" fill-opacity="0.6"/>
</svg>
